<svg width="226" height="120" viewBox="0 0 226 120" fill="none" xmlns="http://www.w3.org/2000/svg">
<ellipse cx="60.5" cy="60" rx="60.5" ry="60" fill="#17233E"/>
<path d="M45.0206 13.5353C54.2551 8.2478 65.5996 8.2478 74.8341 13.5353L93.2686 24.0905C102.603 29.4352 108.362 39.3685 108.362 50.1249V70.8054C108.362 81.5618 102.603 91.495 93.2686 96.8398L74.8341 107.395C65.5996 112.682 54.2551 112.682 45.0206 107.395L26.5861 96.8398C17.2516 91.495 11.4928 81.5618 11.4928 70.8054V50.1249C11.4928 39.3685 17.2516 29.4352 26.5861 24.0905L45.0206 13.5353Z" fill="#17233E"/>
<path d="M45.0206 13.5353C54.2551 8.2478 65.5996 8.2478 74.8341 13.5353L93.2686 24.0905C102.603 29.4352 108.362 39.3685 108.362 50.1249V70.8054C108.362 81.5618 102.603 91.495 93.2686 96.8398L74.8341 107.395C65.5996 112.682 54.2551 112.682 45.0206 107.395L26.5861 96.8398C17.2516 91.495 11.4928 81.5618 11.4928 70.8054V50.1249C11.4928 39.3685 17.2516 29.4352 26.5861 24.0905L45.0206 13.5353Z" stroke="#7AA0B8"/>
<path d="M61.6861 37.0938H78.7457L40.5815 100.757L27.2152 93.7798L61.6861 37.0938Z" fill="#CCC5CA"/>
<path d="M32.1017 51.4708C37.8227 42.5141 47.7167 37.0938 58.3445 37.0938V37.0938L24.2254 91.5124L13.3213 80.8728L32.1017 51.4708Z" fill="#CCC5CA"/>
<path d="M69.424 59.5941L91.9355 94.6519L77.8657 103.198L59.5751 75.4653L69.424 59.5941Z" fill="#008AC4"/>
<path d="M80.3288 41.1056L106.358 81.3954L94.5744 92.5582L71.5348 55.2327L80.3288 41.1056Z" fill="#008AC4"/>
<path d="M63.1572 12.0348L100.592 33.469C102.614 34.627 103.862 36.7792 103.862 39.1097V81.8205C103.862 84.1511 102.614 86.3033 100.592 87.4613L63.1572 108.895C61.1564 110.041 58.6984 110.041 56.6976 108.895L19.2631 87.4613C17.2406 86.3033 15.9929 84.1511 15.9929 81.8205V39.1097C15.9929 36.7792 17.2406 34.627 19.2631 33.469L56.6976 12.0348C58.6984 10.8891 61.1564 10.8891 63.1572 12.0348Z" stroke="#7AA0B8" stroke-width="9"/>
<path d="M166 120C199.25 120 226 93.2502 226 60C226 26.7498 199.25 0 166 0C132.75 0 106 26.7498 106 60C106 93.2502 132.75 120 166 120Z" fill="#2775CA"/>
<path d="M182.5 69.5C182.5 60.7502 177.25 57.7502 166.75 56.5004C159.25 55.5002 157.75 53.5004 157.75 50C157.75 46.4996 160.25 44.2502 165.25 44.2502C169.75 44.2502 172.25 45.7502 173.5 49.5002C173.75 50.2502 174.5 50.75 175.25 50.75H179.25C180.25 50.75 181 50 181 49.0004V48.7502C180 43.25 175.5 39.0002 169.75 38.5004V32.5004C169.75 31.5002 169 30.7502 167.75 30.5H164C163 30.5 162.25 31.25 162 32.5004V38.2502C154.5 39.2504 149.75 44.2502 149.75 50.5004C149.75 58.7504 154.75 62 165.25 63.2504C172.25 64.5002 174.5 66.0002 174.5 70.0004C174.5 74.0006 171 76.7504 166.25 76.7504C159.75 76.7504 157.5 74 156.75 70.25C156.5 69.2504 155.75 68.75 155 68.75H150.75C149.75 68.75 149 69.5 149 70.5002V70.7504C150 77 154 81.5 162.25 82.7504V88.7504C162.25 89.75 163 90.5 164.25 90.7502H168C169 90.7502 169.75 90.0002 170 88.7504V82.7504C177.5 81.5 182.5 76.25 182.5 69.5V69.5Z" fill="white"/>
<path fill-rule="evenodd" clip-rule="evenodd" d="M131 47.7496C123.75 67 133.75 88.75 153.25 95.7496C154 96.25 154.75 97.2496 154.75 97.9996V101.5C154.75 102 154.75 102.25 154.5 102.5C154.25 103.5 153.25 104 152.25 103.5C138.25 98.9998 127.5 88.2496 123 74.2498C115.5 50.5 128.5 25.2496 152.25 17.7496C152.5 17.5 153 17.5 153.25 17.5C154.25 17.7496 154.75 18.4996 154.75 19.4998V22.9996C154.75 24.25 154.25 25 153.25 25.4998C143 29.2498 134.75 37.2496 131 47.7496ZM177.5 18.7498C177.75 17.7496 178.75 17.2498 179.75 17.7496C193.5 22.2496 204.5 32.9998 209 47.2498C216.5 70.9996 203.5 96.25 179.75 103.75C179.5 104 179 104 178.75 104C177.75 103.75 177.25 103 177.25 102V98.5C177.25 97.2496 177.75 96.4996 178.75 95.9998C189 92.2498 197.25 84.25 201 73.75C208.25 54.4996 198.25 32.7496 178.75 25.75C178 25.2496 177.25 24.25 177.25 23.2498V19.75C177.25 19.2496 177.25 19 177.5 18.7498Z" fill="white"/>
</svg>
