<svg width="226" height="121" viewBox="0 0 226 121" fill="none" xmlns="http://www.w3.org/2000/svg">
<path d="M118.205 75.5143C110.191 107.657 77.6356 127.219 45.4886 119.204C13.3551 111.19 -6.20661 78.6324 1.81034 46.4918C9.82025 14.3451 42.3761 -5.21803 74.5131 2.79541C106.658 10.8088 126.218 43.3702 118.204 75.5149L118.205 75.5143H118.205Z" fill="#F7931A"/>
<path fill-rule="evenodd" clip-rule="evenodd" d="M86.464 52.4507C87.6582 44.466 81.5792 40.1739 73.2666 37.3107L75.9633 26.4947L69.3793 24.8542L66.7542 35.3853C65.0233 34.9536 63.2457 34.5469 61.4791 34.1436L64.1232 23.5429L57.5433 21.9023L54.8452 32.7148C53.4128 32.3887 52.006 32.0664 50.6411 31.7267L50.6487 31.6927L41.5692 29.4254L39.8178 36.4576C39.8178 36.4576 44.7026 37.5773 44.5996 37.6462C47.2658 38.3116 47.7479 40.0766 47.6679 41.4755L44.5961 53.7974C44.7797 53.844 45.0179 53.9115 45.2806 54.0171L45.0896 53.9694L45.0894 53.9694C44.927 53.9287 44.7581 53.8864 44.5847 53.8449L40.2791 71.1062C39.9533 71.9162 39.1263 73.1318 37.2622 72.6702C37.3282 72.7658 32.4768 71.476 32.4768 71.476L29.208 79.0126L37.776 81.1485C38.7142 81.3838 39.6414 81.6255 40.5591 81.8647L40.5609 81.8652C41.2017 82.0322 41.838 82.1981 42.4702 82.3597L39.7457 93.2997L46.322 94.9403L49.0202 84.1164C50.8168 84.6041 52.5603 85.054 54.2671 85.4781L51.5781 96.251L58.1624 97.8915L60.8866 86.972C72.1138 89.0968 80.5557 88.2402 84.109 78.0852C86.9722 69.9093 83.9665 65.1935 78.0599 62.1182C82.362 61.1261 85.6024 58.2965 86.4663 52.4516L86.4643 52.4501L86.464 52.4507ZM71.4211 73.5448C69.5543 81.0459 57.8129 77.9447 52.4408 76.5259C51.9576 76.3982 51.5259 76.2842 51.1576 76.1927L54.773 61.6991C55.2219 61.8112 55.7705 61.9343 56.3919 62.0737L56.392 62.0738C61.9487 63.3208 73.3337 65.8758 71.4214 73.5448H71.4211ZM57.5066 55.347C61.9853 56.5423 71.7557 59.1498 73.4573 52.3322H73.4579C75.1954 45.3595 65.7002 43.2573 61.0628 42.2306C60.5411 42.1151 60.0809 42.0132 59.705 41.9195L56.4271 55.0644C56.7366 55.1415 57.0998 55.2384 57.5066 55.347Z" fill="white"/>
<path d="M166 120C199.25 120 226 93.2502 226 60C226 26.7498 199.25 0 166 0C132.75 0 106 26.7498 106 60C106 93.2502 132.75 120 166 120Z" fill="#2775CA"/>
<path d="M182.5 69.5C182.5 60.7502 177.25 57.7502 166.75 56.5004C159.25 55.5002 157.75 53.5004 157.75 50C157.75 46.4996 160.25 44.2502 165.25 44.2502C169.75 44.2502 172.25 45.7502 173.5 49.5002C173.75 50.2502 174.5 50.75 175.25 50.75H179.25C180.25 50.75 181 50 181 49.0004V48.7502C180 43.25 175.5 39.0002 169.75 38.5004V32.5004C169.75 31.5002 169 30.7502 167.75 30.5H164C163 30.5 162.25 31.25 162 32.5004V38.2502C154.5 39.2504 149.75 44.2502 149.75 50.5004C149.75 58.7504 154.75 62 165.25 63.2504C172.25 64.5002 174.5 66.0002 174.5 70.0004C174.5 74.0006 171 76.7504 166.25 76.7504C159.75 76.7504 157.5 74 156.75 70.25C156.5 69.2504 155.75 68.75 155 68.75H150.75C149.75 68.75 149 69.5 149 70.5002V70.7504C150 77 154 81.5 162.25 82.7504V88.7504C162.25 89.75 163 90.5 164.25 90.7502H168C169 90.7502 169.75 90.0002 170 88.7504V82.7504C177.5 81.5 182.5 76.25 182.5 69.5V69.5Z" fill="white"/>
<path fill-rule="evenodd" clip-rule="evenodd" d="M131 47.7496C123.75 67 133.75 88.75 153.25 95.7496C154 96.25 154.75 97.2496 154.75 97.9996V101.5C154.75 102 154.75 102.25 154.5 102.5C154.25 103.5 153.25 104 152.25 103.5C138.25 98.9998 127.5 88.2496 123 74.2498C115.5 50.5 128.5 25.2496 152.25 17.7496C152.5 17.5 153 17.5 153.25 17.5C154.25 17.7496 154.75 18.4996 154.75 19.4998V22.9996C154.75 24.25 154.25 25 153.25 25.4998C143 29.2498 134.75 37.2496 131 47.7496ZM177.5 18.7498C177.75 17.7496 178.75 17.2498 179.75 17.7496C193.5 22.2496 204.5 32.9998 209 47.2498C216.5 70.9996 203.5 96.25 179.75 103.75C179.5 104 179 104 178.75 104C177.75 103.75 177.25 103 177.25 102V98.5C177.25 97.2496 177.75 96.4996 178.75 95.9998C189 92.2498 197.25 84.25 201 73.75C208.25 54.4996 198.25 32.7496 178.75 25.75C178 25.2496 177.25 24.25 177.25 23.2498V19.75C177.25 19.2496 177.25 19 177.5 18.7498Z" fill="white"/>
</svg>
