<svg width="226" height="120" viewBox="0 0 226 120" fill="none" xmlns="http://www.w3.org/2000/svg">
<path d="M116.25 74.031L116.18 74.3124C108.314 105.216 76.9403 123.988 45.959 116.263C14.8974 108.517 -4.01217 77.0447 3.73745 45.9759L3.73758 45.9754C11.4804 14.9005 42.9508 -4.01014 74.0158 3.73599L74.0159 3.73601C105.088 11.4822 123.997 42.9579 116.25 74.031Z" fill="url(#paint0_linear_571_9977)" stroke="#FFD9EC" stroke-width="4"/>
<path d="M50.5303 37.0586C49.718 36.9425 49.6793 36.9038 50.0661 36.8652C50.801 36.7491 52.503 36.9038 53.702 37.1746C56.487 37.8321 59.0012 39.5341 61.6701 42.5124L62.3663 43.3247L63.372 43.1699C67.6654 42.4737 72.0749 43.0152 75.7495 44.7171C76.7551 45.1813 78.341 46.1096 78.5344 46.3417C78.6118 46.419 78.7278 46.9219 78.8052 47.4247C79.0759 49.2427 78.9599 50.5965 78.3797 51.6408C78.0703 52.221 78.0703 52.3757 78.2637 52.8786C78.4184 53.2654 78.8825 53.5361 79.308 53.5361C80.2363 53.5361 81.2033 52.0663 81.6675 50.0163L81.8609 49.204L82.209 49.5908C84.1817 51.7955 85.7288 54.8512 85.9609 57.0173L86.0383 57.5975L85.6902 57.0947C85.11 56.205 84.5685 55.6248 83.8335 55.122C82.5184 54.2324 81.126 53.9616 77.4514 53.7682C74.1249 53.5748 72.2296 53.304 70.373 52.6852C67.2013 51.6408 65.5767 50.287 61.8248 45.2973C60.1615 43.0926 59.1172 41.8935 58.0728 40.8878C55.7907 38.6831 53.5086 37.5227 50.5303 37.0586Z" fill="#FF007A"/>
<path d="M79.3468 41.9703C79.4242 40.5005 79.6176 39.5335 80.0431 38.6439C80.1978 38.2958 80.3525 37.9863 80.3912 37.9863C80.4299 37.9863 80.3525 38.2571 80.2365 38.5665C79.927 39.4175 79.8883 40.6165 80.0817 41.9703C80.3525 43.7109 80.4685 43.943 82.3252 45.8383C83.1761 46.7279 84.1818 47.8497 84.5686 48.3138L85.2261 49.1648L84.5686 48.5459C83.7563 47.7723 81.8997 46.3025 81.4742 46.1091C81.2034 45.9544 81.1648 45.9544 80.9714 46.1478C80.8166 46.3025 80.778 46.5345 80.778 47.6563C80.7393 49.3968 80.5072 50.4799 79.927 51.6016C79.6176 52.1818 79.5789 52.0658 79.8497 51.4082C80.0431 50.9054 80.0817 50.6733 80.0817 49.0101C80.0817 45.6449 79.6949 44.8326 77.3355 43.4788C76.7553 43.1307 75.7496 42.6279 75.1694 42.3571C74.5505 42.0864 74.0864 41.8543 74.1251 41.8543C74.2024 41.7769 76.4845 42.4345 77.3742 42.8213C78.7279 43.3628 78.96 43.4015 79.1147 43.3628C79.2308 43.2468 79.3081 42.9373 79.3468 41.9703Z" fill="#FF007A"/>
<path d="M52.1162 47.7339C50.4917 45.4905 49.4473 42.0093 49.6794 39.4177L49.7568 38.6055L50.1436 38.6828C50.8398 38.7989 52.0389 39.263 52.6191 39.6111C54.1663 40.5395 54.8625 41.8159 55.52 44.9876C55.7134 45.9159 55.9842 46.999 56.1002 47.3471C56.2936 47.9273 57.0286 49.2811 57.6474 50.132C58.0729 50.7509 57.8022 51.0603 56.8352 50.983C55.3653 50.8283 53.3927 49.4745 52.1162 47.7339Z" fill="#FF007A"/>
<path d="M77.374 64.5582C69.7154 61.4638 67.0078 58.7949 67.0078 54.2694C67.0078 53.6118 67.0465 53.0703 67.0465 53.0703C67.0852 53.0703 67.3559 53.3024 67.704 53.5731C69.2512 54.8109 70.9918 55.3524 75.8268 56.0487C78.6504 56.4741 80.275 56.7836 81.7448 57.2864C86.425 58.8336 89.326 62.0053 90.0223 66.2988C90.2157 67.5365 90.0996 69.896 89.7902 71.1337C89.5194 72.1007 88.7458 73.88 88.5524 73.9187C88.5137 73.9187 88.4364 73.7253 88.4364 73.4159C88.359 71.7913 87.5467 70.2441 86.193 69.045C84.5684 67.6526 82.4797 66.6082 77.374 64.5582Z" fill="#FF007A"/>
<path d="M71.9588 65.8356C71.8814 65.2554 71.688 64.5205 71.572 64.2111L71.3786 63.6309L71.7267 64.0563C72.2296 64.6365 72.6164 65.3328 72.9645 66.2998C73.2352 67.0347 73.2352 67.2668 73.2352 68.4658C73.2352 69.6262 73.1966 69.897 72.9645 70.5545C72.5777 71.5989 72.1135 72.3338 71.3399 73.1461C69.9475 74.5772 68.1295 75.3508 65.538 75.6989C65.0738 75.7376 63.7587 75.8537 62.5983 75.931C59.6973 76.0857 57.7633 76.3952 56.0228 77.014C55.7907 77.0914 55.5586 77.1688 55.5199 77.1301C55.4426 77.0527 56.6416 76.3565 57.6086 75.8923C58.9624 75.2348 60.3549 74.8867 63.4106 74.3451C64.9191 74.1131 66.4663 73.8036 66.8531 73.6489C70.6824 72.4498 72.5777 69.4715 71.9588 65.8356Z" fill="#FF007A"/>
<path d="M75.4788 72.0631C74.4731 69.8583 74.2411 67.7696 74.7826 65.797C74.8599 65.6036 74.9373 65.4102 75.0147 65.4102C75.092 65.4102 75.3241 65.5262 75.5562 65.6809C76.0203 65.9904 76.9873 66.5319 79.4628 67.8857C82.5959 69.5876 84.3752 70.9027 85.6129 72.4112C86.6959 73.7263 87.3535 75.2348 87.6629 77.0914C87.8563 78.1358 87.7403 80.65 87.4695 81.6943C86.6186 84.9821 84.6846 87.6123 81.861 89.1208C81.4355 89.3529 81.0874 89.5076 81.0487 89.5076C81.01 89.5076 81.1647 89.1208 81.3968 88.6567C82.3251 86.684 82.4412 84.7887 81.7449 82.6613C81.3195 81.3462 80.4298 79.7603 78.6506 77.0914C76.5232 73.9971 76.0203 73.1848 75.4788 72.0631Z" fill="#FF007A"/>
<path d="M46.6624 83.8992C49.5247 81.5011 53.0445 79.7992 56.2936 79.2577C57.6861 79.0256 60.0069 79.1029 61.2833 79.4511C63.3333 79.9926 65.19 81.153 66.157 82.5841C67.0853 83.9766 67.5107 85.1757 67.9362 87.8446C68.0909 88.8889 68.2843 89.9719 68.323 90.204C68.6325 91.5965 69.2513 92.6795 70.0249 93.2597C71.224 94.1494 73.3127 94.188 75.3627 93.4144C75.7109 93.2984 76.0203 93.1824 76.0203 93.221C76.0976 93.2984 75.0533 93.9946 74.3571 94.3428C73.3901 94.8456 72.6165 95.0003 71.5721 95.0003C69.7155 95.0003 68.1296 94.0333 66.8532 92.0993C66.5824 91.7125 66.0409 90.5908 65.5768 89.5465C64.223 86.4134 63.5267 85.4851 61.9409 84.4407C60.5484 83.5511 58.7691 83.3577 57.4153 84.0153C55.6361 84.8662 55.1719 87.1483 56.4097 88.5408C56.9125 89.121 57.8408 89.5851 58.6144 89.7012C60.0456 89.8946 61.2833 88.7729 61.2833 87.3417C61.2833 86.4134 60.9352 85.8719 60.0069 85.4464C58.7691 84.9049 57.4153 85.5238 57.454 86.7228C57.454 87.2257 57.6861 87.5351 58.1889 87.7672C58.4984 87.9219 58.4984 87.9219 58.2663 87.8832C57.1446 87.6512 56.8738 86.2587 57.7635 85.3691C58.8465 84.286 61.1286 84.7502 61.9022 86.2587C62.2116 86.8776 62.2503 88.1153 61.9795 88.8889C61.322 90.5908 59.4654 91.4805 57.5701 90.9776C56.2936 90.6295 55.7521 90.2814 54.2049 88.6955C51.4973 85.9106 50.453 85.3691 46.585 84.7889L45.8501 84.6728L46.6624 83.8992Z" fill="#FF007A"/>
<path fill-rule="evenodd" clip-rule="evenodd" d="M26.3168 21.6632C35.3292 32.6096 49.2152 49.6287 49.9115 50.557C50.4917 51.3306 50.2596 52.0655 49.2926 52.607C48.7511 52.9165 47.6294 53.2259 47.0878 53.2259C46.469 53.2259 45.7341 52.9165 45.2312 52.4136C44.8831 52.0655 43.3746 49.8608 39.9708 44.5616C37.3792 40.5003 35.1745 37.1351 35.1358 37.0964C34.9811 37.0191 34.9811 37.0191 39.7 45.4513C42.6784 50.7504 43.6454 52.6457 43.6454 52.8778C43.6454 53.3806 43.4906 53.6514 42.8718 54.3476C41.8274 55.508 41.3632 56.8231 41.0151 59.5694C40.6283 62.6251 39.584 64.7911 36.6056 68.4657C34.8651 70.6318 34.5943 71.0186 34.1688 71.9082C33.6273 72.9912 33.4726 73.6101 33.3952 75.0026C33.3179 76.4724 33.4726 77.4007 33.8981 78.7932C34.2849 80.0309 34.7103 80.8432 35.7547 82.4291C36.6443 83.8216 37.1858 84.8659 37.1858 85.2527C37.1858 85.5621 37.2632 85.5621 38.6557 85.2527C41.9821 84.4791 44.7284 83.164 46.2369 81.5395C47.1652 80.5338 47.3973 79.9923 47.3973 78.5998C47.3973 77.7102 47.3586 77.5168 47.1265 76.9752C46.7397 76.1243 46.0048 75.4281 44.4189 74.345C42.3302 72.9139 41.4406 71.7535 41.2085 70.2063C41.0151 68.8912 41.2472 68.0015 42.4076 65.5647C43.6067 63.0505 43.9161 62.0062 44.1095 59.4533C44.2255 57.8288 44.4189 57.1712 44.8831 56.6684C45.3859 56.1269 45.8114 55.9335 47.0105 55.7788C48.9832 55.508 50.2596 55.0052 51.2653 54.0382C52.1549 53.2259 52.5417 52.4136 52.5804 51.2145L52.619 50.3249L52.1162 49.7834C50.2983 47.6947 25.1178 20 25.0017 20C24.963 20 25.5819 20.7349 26.3168 21.6632ZM38.1915 76.6658C38.617 75.9309 38.3849 75.0026 37.6887 74.5384C37.0311 74.1129 36.0254 74.3063 36.0254 74.8865C36.0254 75.0413 36.1028 75.196 36.3349 75.2733C36.683 75.4667 36.7217 75.6601 36.4509 76.0856C36.1802 76.5111 36.1802 76.8979 36.5283 77.1686C37.0698 77.5941 37.8047 77.362 38.1915 76.6658Z" fill="#FF007A"/>
<path fill-rule="evenodd" clip-rule="evenodd" d="M53.8568 56.3211C52.9285 56.5919 52.0388 57.5975 51.7681 58.6032C51.6133 59.2221 51.6907 60.3438 51.9615 60.6919C52.3869 61.2334 52.7737 61.3882 53.8568 61.3882C55.9842 61.3882 57.8021 60.4598 57.9955 59.3381C58.1889 58.4098 57.3766 57.1334 56.2549 56.5532C55.6747 56.2438 54.4756 56.1277 53.8568 56.3211ZM56.3323 58.2551C56.6417 57.7909 56.5257 57.2881 55.9455 56.94C54.9011 56.2824 53.3153 56.8239 53.3153 57.8296C53.3153 58.3325 54.1275 58.874 54.9011 58.874C55.404 58.874 56.1002 58.5645 56.3323 58.2551Z" fill="#FF007A"/>
<path d="M166 120C199.25 120 226 93.2502 226 60C226 26.7498 199.25 0 166 0C132.75 0 106 26.7498 106 60C106 93.2502 132.75 120 166 120Z" fill="#2775CA"/>
<path d="M182.5 69.5C182.5 60.7502 177.25 57.7502 166.75 56.5004C159.25 55.5002 157.75 53.5004 157.75 50C157.75 46.4996 160.25 44.2502 165.25 44.2502C169.75 44.2502 172.25 45.7502 173.5 49.5002C173.75 50.2502 174.5 50.75 175.25 50.75H179.25C180.25 50.75 181 50 181 49.0004V48.7502C180 43.25 175.5 39.0002 169.75 38.5004V32.5004C169.75 31.5002 169 30.7502 167.75 30.5H164C163 30.5 162.25 31.25 162 32.5004V38.2502C154.5 39.2504 149.75 44.2502 149.75 50.5004C149.75 58.7504 154.75 62 165.25 63.2504C172.25 64.5002 174.5 66.0002 174.5 70.0004C174.5 74.0006 171 76.7504 166.25 76.7504C159.75 76.7504 157.5 74 156.75 70.25C156.5 69.2504 155.75 68.75 155 68.75H150.75C149.75 68.75 149 69.5 149 70.5002V70.7504C150 77 154 81.5 162.25 82.7504V88.7504C162.25 89.75 163 90.5 164.25 90.7502H168C169 90.7502 169.75 90.0002 170 88.7504V82.7504C177.5 81.5 182.5 76.25 182.5 69.5V69.5Z" fill="white"/>
<path fill-rule="evenodd" clip-rule="evenodd" d="M131 47.7496C123.75 67 133.75 88.75 153.25 95.7496C154 96.25 154.75 97.2496 154.75 97.9996V101.5C154.75 102 154.75 102.25 154.5 102.5C154.25 103.5 153.25 104 152.25 103.5C138.25 98.9998 127.5 88.2496 123 74.2498C115.5 50.5 128.5 25.2496 152.25 17.7496C152.5 17.5 153 17.5 153.25 17.5C154.25 17.7496 154.75 18.4996 154.75 19.4998V22.9996C154.75 24.25 154.25 25 153.25 25.4998C143 29.2498 134.75 37.2496 131 47.7496ZM177.5 18.7498C177.75 17.7496 178.75 17.2498 179.75 17.7496C193.5 22.2496 204.5 32.9998 209 47.2498C216.5 70.9996 203.5 96.25 179.75 103.75C179.5 104 179 104 178.75 104C177.75 103.75 177.25 103 177.25 102V98.5C177.25 97.2496 177.75 96.4996 178.75 95.9998C189 92.2498 197.25 84.25 201 73.75C208.25 54.4996 198.25 32.7496 178.75 25.75C178 25.2496 177.25 24.25 177.25 23.2498V19.75C177.25 19.2496 177.25 19 177.5 18.7498Z" fill="white"/>
<defs>
<linearGradient id="paint0_linear_571_9977" x1="0" y1="0" x2="0" y2="120" gradientUnits="userSpaceOnUse">
<stop stop-color="#FEF3F9"/>
<stop offset="1" stop-color="#FDE5F2"/>
</linearGradient>
</defs>
</svg>
