<svg width="124" height="22" viewBox="0 0 124 22" fill="none" xmlns="http://www.w3.org/2000/svg">
<path d="M3.49137 4.15558H0V21.477H3.49137V4.15558Z" fill="#C3F53C"/>
<path d="M25.9035 13.5329V4.15554H22.4121V19.6963C22.4121 20.3823 22.7945 21.0247 23.4171 21.3131C23.6553 21.4245 23.9087 21.4769 24.1578 21.4769C24.6756 21.4769 25.1803 21.2453 25.5168 20.8259L37.7584 5.63686L35.0405 3.44547L26.6878 13.8082C26.4257 14.1315 25.9035 13.948 25.9035 13.5307V13.5329Z" fill="#C3F53C"/>
<path d="M73.8016 0H70.3102V3.71423C70.3102 3.95893 70.1136 4.15556 69.8689 4.15556H59.4494C58.9207 4.15556 58.4225 4.39371 58.0904 4.80665L52.5126 11.726C52.0297 12.3247 51.9904 13.1768 52.4426 13.8257C52.7747 14.2998 53.3275 14.5663 53.9043 14.5663H64.2626C64.5073 14.5663 64.704 14.763 64.704 15.0077V17.5508C64.704 17.7955 64.5051 17.9921 64.2626 17.9921L55.508 17.9834L55.5036 21.4748L66.4475 21.4857C66.9106 21.4857 67.3542 21.3022 67.6819 20.9745C68.0096 20.6467 68.1931 20.2032 68.1931 19.74V12.8206C68.1931 11.8571 67.411 11.0749 66.4475 11.0749H58.44C58.0686 11.0749 57.8632 10.6445 58.097 10.3561L60.1486 7.8108C60.2316 7.70593 60.3583 7.64694 60.4916 7.64694H69.8645C70.1092 7.64694 70.3059 7.84357 70.3059 8.08827V19.7007C70.3059 20.3867 70.6882 21.0291 71.3109 21.3175C71.5491 21.4289 71.8025 21.4813 72.0516 21.4813C72.5694 21.4813 73.0741 21.2497 73.4105 20.8303L80.3212 12.2548L77.6032 10.0634L74.5816 13.8126C74.3194 14.1359 73.7972 13.9524 73.7972 13.5351V7.955C73.7972 7.7103 73.9939 7.51366 74.2386 7.51366H81.3V4.02229H74.2386C73.9939 4.02229 73.7972 3.82565 73.7972 3.58095V0H73.8016Z" fill="#C3F53C"/>
<path d="M86.6593 4.15558H83.168V21.477H86.6593V4.15558Z" fill="#C3F53C"/>
<path d="M19.2464 4.25608C18.5472 4.00919 17.7716 4.22986 17.3062 4.80666L10.0504 13.8104C9.78821 14.1337 9.26603 13.9502 9.26603 13.5329V4.15558H5.77466V19.6963C5.77466 20.3824 6.15701 21.0247 6.77968 21.3131C7.01783 21.4245 7.27127 21.477 7.52034 21.477C8.03815 21.477 8.54285 21.2454 8.87931 20.8259L16.1352 11.8222C16.3973 11.4988 16.9195 11.6823 16.9195 12.0997V21.477H20.4109V5.90126C20.4109 5.1606 19.9433 4.50078 19.2464 4.25608Z" fill="#C3F53C"/>
<path d="M53.3823 7.04392C53.8302 6.5283 53.9372 5.79638 53.6532 5.1737C53.3692 4.55102 52.7487 4.15338 52.0648 4.15338L40.4786 4.16649C40.0154 4.16649 39.5697 4.3522 39.242 4.68211C38.9143 5.01202 38.7329 5.45773 38.7351 5.92092L38.7963 19.7488C38.8007 20.7101 39.5807 21.4857 40.542 21.4857H53.4172V17.9943H44.8352C44.4572 17.9943 44.254 17.5486 44.5031 17.2646L53.3845 7.04392H53.3823ZM42.6744 7.65568L47.2604 7.65131C47.6383 7.65131 47.8415 8.09702 47.5946 8.38104L43.0327 13.6312C42.7662 13.9393 42.2593 13.7514 42.2593 13.3428L42.2352 8.09702C42.2352 7.85231 42.4319 7.65349 42.6766 7.65349L42.6744 7.65568Z" fill="#C3F53C"/>
<path d="M121.036 11.0968L118.06 14.7892V5.94278C118.06 5.22178 117.634 4.5554 116.965 4.28667C116.788 4.21675 116.607 4.17524 116.423 4.16432L116.334 4.15995C116.321 4.15995 116.31 4.15995 116.297 4.15995H106.747V4.15558H101.807C101.278 4.15558 100.78 4.39373 100.448 4.80666L93.192 13.8104C92.9298 14.1337 92.4076 13.9502 92.4076 13.5329V4.15558H88.9163V19.6963C88.9163 20.3824 89.2986 21.0247 89.9213 21.3131C90.1594 21.4245 90.4129 21.477 90.6619 21.477C91.1798 21.477 91.6844 21.2454 92.0209 20.8259L102.484 7.84359C102.585 7.71905 102.735 7.64695 102.897 7.64695C103.19 7.64695 103.426 7.88291 103.426 8.17568V19.7357C103.426 20.4763 103.893 21.1361 104.59 21.3808C105.289 21.6277 106.065 21.4071 106.53 20.8303L113.786 11.8265C114.048 11.5032 114.571 11.6867 114.571 12.104V19.6985C114.571 20.3846 114.953 21.0269 115.576 21.3153C115.814 21.4267 116.067 21.4792 116.316 21.4792C116.834 21.4792 117.339 21.2476 117.675 20.8281L123.756 13.2838L121.038 11.0924L121.036 11.0968ZM106.915 13.5395V8.09484C106.915 7.85014 107.112 7.65351 107.356 7.65351H111.743C112.115 7.65351 112.32 8.08392 112.086 8.37232L107.699 13.8169C107.437 14.1403 106.915 13.9568 106.915 13.5395Z" fill="#C3F53C"/>
</svg>
