<svg width="254" height="45" viewBox="0 0 254 45" fill="none" xmlns="http://www.w3.org/2000/svg">
<path d="M7.15168 8.5H0V43.9302H7.15168V8.5Z" fill="black"/>
<path d="M53.0599 27.6812V8.50027H45.9082V40.2881C45.9082 41.6915 46.6915 43.0053 47.9668 43.5952C48.4548 43.8231 48.9738 43.9305 49.4841 43.9305C50.5447 43.9305 51.5785 43.4567 52.2678 42.5987L77.3434 11.5302L71.7761 7.04785L54.6665 28.2443C54.1296 28.9056 53.0599 28.5302 53.0599 27.6767V27.6812Z" fill="black"/>
<path d="M151.175 0H144.023V7.59729C144.023 8.09781 143.621 8.50001 143.119 8.50001H121.776C120.693 8.50001 119.673 8.98713 118.993 9.83178L107.567 23.985C106.578 25.2096 106.497 26.9525 107.424 28.2798C108.104 29.2496 109.236 29.7947 110.418 29.7947H131.636C132.137 29.7947 132.54 30.197 132.54 30.6976V35.8994C132.54 36.3999 132.132 36.802 131.636 36.802L113.703 36.7842L113.694 43.9257L136.111 43.948C137.06 43.948 137.968 43.5727 138.639 42.9024C139.311 42.2319 139.687 41.3247 139.687 40.3773V26.224C139.687 24.2532 138.085 22.6532 136.111 22.6532H119.709C118.948 22.6532 118.527 21.7728 119.006 21.1829L123.208 15.9766C123.378 15.7621 123.638 15.6415 123.911 15.6415H143.11C143.612 15.6415 144.014 16.0437 144.014 16.5442V40.2969C144.014 41.7001 144.798 43.0141 146.073 43.604C146.561 43.8318 147.08 43.939 147.59 43.939C148.651 43.939 149.685 43.4653 150.374 42.6074L164.53 25.0666L158.962 20.5842L152.773 28.253C152.236 28.9143 151.166 28.539 151.166 27.6854V16.2716C151.166 15.7711 151.569 15.3688 152.07 15.3688H166.535V8.22741H152.07C151.569 8.22741 151.166 7.82519 151.166 7.32467V0H151.175Z" fill="black"/>
<path d="M177.512 8.5H170.36V43.9302H177.512V8.5Z" fill="black"/>
<path d="M39.4234 8.70557C37.9913 8.20057 36.4026 8.65194 35.4493 9.83175L20.5864 28.2485C20.0494 28.9098 18.9798 28.5344 18.9798 27.6809V8.5H11.8281V40.2878C11.8281 41.6912 12.6113 43.005 13.8868 43.5949C14.3746 43.8228 14.8938 43.9302 15.404 43.9302C16.4646 43.9302 17.4985 43.4564 18.1877 42.5984L33.0504 24.1817C33.5875 23.5202 34.6572 23.8956 34.6572 24.7493V43.9302H41.8087V12.0707C41.8087 10.5557 40.8511 9.20609 39.4234 8.70557Z" fill="black"/>
<path d="M109.347 14.4076C110.264 13.3529 110.484 11.8558 109.902 10.5821C109.32 9.30847 108.049 8.49512 106.648 8.49512L82.9152 8.52193C81.9663 8.52193 81.0534 8.90179 80.3821 9.57661C79.7107 10.2514 79.3393 11.1631 79.3438 12.1105L79.4692 40.3948C79.478 42.3611 81.0757 43.9476 83.0448 43.9476H109.418V36.8061H91.8392C91.0649 36.8061 90.6486 35.8944 91.1589 35.3135L109.351 14.4076H109.347ZM87.413 15.6589L96.8067 15.65C97.581 15.65 97.9972 16.5617 97.4915 17.1426L88.1469 27.8816C87.6008 28.5118 86.5625 28.1274 86.5625 27.2917L86.5133 16.5617C86.5133 16.0611 86.9161 15.6544 87.4173 15.6544L87.413 15.6589Z" fill="black"/>
<path d="M247.929 22.6979L241.833 30.2506V12.1556C241.833 10.6809 240.96 9.31781 239.59 8.76814C239.227 8.62512 238.857 8.54021 238.482 8.51788L238.297 8.50894C238.271 8.50894 238.248 8.50894 238.222 8.50894H218.66V8.5H208.54C207.457 8.5 206.437 8.98713 205.757 9.83175L190.894 28.2485C190.357 28.9098 189.287 28.5344 189.287 27.6809V8.5H182.136V40.2878C182.136 41.6912 182.919 43.005 184.194 43.5949C184.682 43.8228 185.201 43.9302 185.712 43.9302C186.772 43.9302 187.806 43.4564 188.495 42.5984L209.927 16.0437C210.134 15.7889 210.443 15.6414 210.773 15.6414C211.373 15.6414 211.857 16.1241 211.857 16.7229V40.3684C211.857 41.8833 212.815 43.2329 214.243 43.7334C215.675 44.2384 217.263 43.7872 218.217 42.6074L233.08 24.1905C233.617 23.5292 234.686 23.9046 234.686 24.7581V40.2923C234.686 41.6957 235.469 43.0095 236.745 43.5994C237.232 43.8273 237.75 43.9347 238.263 43.9347C239.322 43.9347 240.356 43.4609 241.046 42.6029L253.501 27.1714L247.933 22.6889L247.929 22.6979ZM219.004 27.6944V16.5576C219.004 16.0571 219.407 15.6549 219.909 15.6549H228.895C229.655 15.6549 230.077 16.5352 229.598 17.1252L220.612 28.2618C220.073 28.9233 219.004 28.548 219.004 27.6944Z" fill="black"/>
</svg>
