<svg width="21" height="22" viewBox="0 0 21 22" fill="none" xmlns="http://www.w3.org/2000/svg">
<path d="M4.6999 7H0.399902V21H4.6999V7Z" fill="#EEEEEE"/>
<path d="M2.6 5.2C4.03594 5.2 5.2 4.03594 5.2 2.6C5.2 1.16406 4.03594 0 2.6 0C1.16406 0 0 1.16406 0 2.6C0 4.03594 1.16406 5.2 2.6 5.2Z" fill="#EEEEEE"/>
<path d="M11.7 13.7001C11.7 11.7001 12.6 10.6001 14.3 10.6001C15.9 10.6001 16.7 11.7001 16.7 13.7001C16.7 15.7001 16.7 21.1001 16.7 21.1001H21C21 21.1001 21 16.0001 21 12.2001C21 8.4001 18.9 6.6001 15.9 6.6001C12.9 6.6001 11.7 8.9001 11.7 8.9001V7.0001H7.5V21.0001H11.7C11.7 21.0001 11.7 15.8001 11.7 13.7001Z" fill="#EEEEEE"/>
</svg>
