<svg width="587" height="276" viewBox="0 0 587 276" fill="none" xmlns="http://www.w3.org/2000/svg">
<rect x="0.416312" y="0.416312" width="273.101" height="64.9447" rx="3.74681" stroke="url(#paint0_linear_398_7608)" stroke-width="0.832624" stroke-dasharray="1.67 1.67"/>
<path d="M119.02 36.6996H120.545C120.421 37.9151 120.086 38.9652 119.54 39.8499C118.995 40.7264 118.251 41.4002 117.308 41.8715C116.365 42.3428 115.228 42.5785 113.897 42.5785C112.872 42.5785 111.942 42.3842 111.107 41.9956C110.28 41.607 109.569 41.0571 108.973 40.346C108.378 39.6266 107.919 38.7667 107.597 37.7662C107.274 36.7658 107.113 35.6536 107.113 34.4299V32.1726C107.113 30.9489 107.274 29.8409 107.597 28.8487C107.919 27.8482 108.382 26.9883 108.986 26.2689C109.589 25.5495 110.313 24.9956 111.156 24.6069C112 24.2183 112.95 24.024 114.009 24.024C115.29 24.024 116.398 24.2597 117.333 24.731C118.267 25.194 119.003 25.8637 119.54 26.7402C120.086 27.6167 120.421 28.675 120.545 29.9153H119.02C118.904 28.9396 118.647 28.1128 118.251 27.4348C117.854 26.7567 117.304 26.24 116.601 25.8844C115.906 25.5206 115.042 25.3387 114.009 25.3387C113.165 25.3387 112.413 25.4999 111.752 25.8224C111.09 26.1449 110.528 26.6079 110.065 27.2115C109.602 27.8068 109.246 28.5221 108.998 29.3572C108.758 30.1923 108.638 31.1225 108.638 32.1478V34.4299C108.638 35.4221 108.754 36.3358 108.986 37.1709C109.217 38.006 109.556 38.7295 110.003 39.3414C110.457 39.9533 111.011 40.4287 111.665 40.7677C112.318 41.1067 113.062 41.2762 113.897 41.2762C114.964 41.2762 115.853 41.1067 116.564 40.7677C117.283 40.4204 117.841 39.9078 118.238 39.2298C118.635 38.5517 118.895 37.7084 119.02 36.6996ZM125.568 23.2798V42.3304H124.092V23.2798H125.568ZM131.273 28.9107V42.3304H129.797V28.9107H131.273ZM129.537 25.0286C129.537 24.7475 129.624 24.5119 129.797 24.3217C129.979 24.1232 130.227 24.024 130.542 24.024C130.856 24.024 131.104 24.1232 131.286 24.3217C131.476 24.5119 131.571 24.7475 131.571 25.0286C131.571 25.3015 131.476 25.5371 131.286 25.7356C131.104 25.9258 130.856 26.0209 130.542 26.0209C130.227 26.0209 129.979 25.9258 129.797 25.7356C129.624 25.5371 129.537 25.3015 129.537 25.0286ZM140.513 42.5785C139.637 42.5785 138.831 42.4173 138.095 42.0948C137.367 41.7723 136.731 41.3176 136.185 40.7305C135.647 40.1434 135.23 39.4489 134.932 38.6468C134.643 37.8365 134.498 36.9518 134.498 35.9926V35.4593C134.498 34.4258 134.651 33.4914 134.957 32.6563C135.263 31.8212 135.685 31.106 136.222 30.5106C136.76 29.9153 137.371 29.4605 138.058 29.1463C138.752 28.8239 139.48 28.6626 140.241 28.6626C141.092 28.6626 141.849 28.8156 142.51 29.1215C143.172 29.4192 143.726 29.845 144.172 30.399C144.627 30.9447 144.97 31.5938 145.202 32.3462C145.433 33.0904 145.549 33.9131 145.549 34.8144V35.7198H135.391V34.4547H144.073V34.2811C144.056 33.5286 143.904 32.8258 143.614 32.1726C143.333 31.5111 142.911 30.9737 142.349 30.5603C141.787 30.1468 141.084 29.9401 140.241 29.9401C139.612 29.9401 139.033 30.0724 138.504 30.337C137.983 30.6016 137.533 30.9819 137.152 31.4781C136.78 31.9659 136.491 32.5488 136.284 33.2268C136.086 33.8966 135.986 34.6407 135.986 35.4593V35.9926C135.986 36.7368 136.094 37.4314 136.309 38.0763C136.532 38.713 136.846 39.2752 137.252 39.7631C137.665 40.2509 138.153 40.6313 138.715 40.9041C139.277 41.177 139.897 41.3134 140.575 41.3134C141.369 41.3134 142.072 41.1687 142.684 40.8793C143.296 40.5817 143.846 40.1145 144.333 39.4778L145.264 40.1972C144.974 40.6271 144.61 41.024 144.172 41.3878C143.742 41.7517 143.226 42.041 142.622 42.256C142.018 42.471 141.315 42.5785 140.513 42.5785ZM149.952 31.7757V42.3304H148.476V28.9107H149.89L149.952 31.7757ZM149.617 34.7896L148.96 34.4175C149.009 33.6237 149.171 32.8796 149.443 32.185C149.716 31.4905 150.084 30.8786 150.547 30.3494C151.019 29.8202 151.568 29.4068 152.197 29.1091C152.833 28.8115 153.536 28.6626 154.305 28.6626C154.975 28.6626 155.574 28.7536 156.104 28.9355C156.633 29.1174 157.083 29.4068 157.456 29.8037C157.828 30.2006 158.109 30.7091 158.299 31.3292C158.497 31.9494 158.597 32.7059 158.597 33.5989V42.3304H157.108V33.5865C157.108 32.6604 156.98 31.937 156.724 31.416C156.467 30.8869 156.104 30.5106 155.632 30.2874C155.161 30.0641 154.603 29.9525 153.958 29.9525C153.247 29.9525 152.623 30.1096 152.085 30.4238C151.556 30.7298 151.11 31.1308 150.746 31.6269C150.39 32.1147 150.117 32.6398 149.927 33.202C149.737 33.756 149.634 34.2852 149.617 34.7896ZM167.514 28.9107V30.1262H160.792V28.9107H167.514ZM163.26 25.4627H164.736V39.0685C164.736 39.6887 164.819 40.1558 164.984 40.47C165.149 40.7842 165.364 40.9951 165.629 41.1026C165.894 41.2101 166.179 41.2638 166.485 41.2638C166.708 41.2638 166.923 41.2514 167.13 41.2266C167.336 41.1935 167.522 41.1605 167.688 41.1274L167.75 42.3801C167.568 42.4379 167.332 42.4834 167.043 42.5165C166.753 42.5578 166.464 42.5785 166.175 42.5785C165.604 42.5785 165.1 42.4751 164.662 42.2684C164.223 42.0534 163.88 41.6896 163.632 41.177C163.384 40.6561 163.26 39.9491 163.26 39.0561V25.4627Z" fill="#C3F53C"/>
<rect x="0.416312" y="105.327" width="273.101" height="64.9447" rx="3.74681" stroke="url(#paint1_linear_398_7608)" stroke-width="0.832624" stroke-dasharray="1.67 1.67"/>
<path d="M66.4049 142.801C66.4049 142.305 66.3222 141.862 66.1568 141.474C65.9914 141.085 65.7186 140.738 65.3382 140.432C64.9661 140.118 64.4618 139.828 63.8251 139.564C63.1967 139.291 62.4112 139.022 61.4686 138.758C60.5673 138.501 59.7529 138.22 59.0252 137.914C58.2976 137.608 57.6733 137.257 57.1524 136.86C56.6398 136.463 56.247 136 55.9742 135.471C55.7013 134.933 55.5649 134.309 55.5649 133.598C55.5649 132.904 55.7137 132.271 56.0114 131.7C56.309 131.13 56.7266 130.638 57.264 130.225C57.8098 129.811 58.4506 129.493 59.1865 129.27C59.9306 129.046 60.7451 128.935 61.6298 128.935C62.8949 128.935 63.9863 129.174 64.9041 129.654C65.8302 130.134 66.5454 130.783 67.0498 131.601C67.5624 132.412 67.8188 133.321 67.8188 134.33H66.2932C66.2932 133.544 66.1072 132.846 65.7351 132.234C65.3713 131.614 64.8421 131.13 64.1476 130.783C63.4613 130.427 62.622 130.249 61.6298 130.249C60.6376 130.249 59.8025 130.402 59.1244 130.708C58.4547 131.006 57.9462 131.407 57.5989 131.911C57.2599 132.407 57.0904 132.961 57.0904 133.573C57.0904 134.003 57.1731 134.4 57.3385 134.764C57.5038 135.119 57.7726 135.454 58.1446 135.769C58.525 136.074 59.0252 136.364 59.6454 136.637C60.2655 136.901 61.0303 137.154 61.9399 137.393C62.899 137.658 63.7507 137.951 64.4948 138.274C65.239 138.596 65.8674 138.968 66.38 139.39C66.8927 139.804 67.2813 140.287 67.5459 140.841C67.8105 141.395 67.9428 142.04 67.9428 142.776C67.9428 143.512 67.7857 144.173 67.4715 144.761C67.1656 145.339 66.7315 145.831 66.1692 146.236C65.6152 146.642 64.9579 146.952 64.1972 147.167C63.4447 147.382 62.622 147.489 61.729 147.489C60.927 147.489 60.1291 147.386 59.3353 147.179C58.5415 146.972 57.8139 146.654 57.1524 146.224C56.4992 145.786 55.9742 145.224 55.5773 144.537C55.1886 143.851 54.9943 143.032 54.9943 142.082H56.5075C56.5075 142.842 56.6604 143.483 56.9664 144.004C57.2723 144.525 57.6775 144.947 58.1818 145.269C58.6945 145.592 59.2567 145.827 59.8686 145.976C60.4887 146.117 61.1089 146.187 61.729 146.187C62.6799 146.187 63.5026 146.046 64.1972 145.765C64.9 145.484 65.4416 145.091 65.8219 144.587C66.2105 144.074 66.4049 143.479 66.4049 142.801ZM72.2962 136.6V147.241H70.8078V133.821H72.2341L72.2962 136.6ZM72.0233 139.7L71.3039 139.328C71.3535 138.534 71.5024 137.79 71.7504 137.096C72.0068 136.401 72.3623 135.789 72.8171 135.26C73.2718 134.731 73.8176 134.317 74.4542 134.02C75.0909 133.722 75.8144 133.573 76.6247 133.573C77.2779 133.573 77.8691 133.664 78.3983 133.846C78.9357 134.02 79.3905 134.297 79.7626 134.677C80.1429 135.049 80.4365 135.537 80.6432 136.141C80.8499 136.744 80.9533 137.468 80.9533 138.311V147.241H79.4773V138.361C79.4773 137.468 79.3368 136.769 79.0556 136.265C78.7828 135.76 78.3983 135.401 77.9022 135.186C77.4143 134.971 76.848 134.863 76.203 134.863C75.4423 134.863 74.7974 135.02 74.2682 135.334C73.7473 135.64 73.3214 136.041 72.9907 136.538C72.6682 137.025 72.4284 137.55 72.2713 138.113C72.1142 138.667 72.0316 139.196 72.0233 139.7ZM80.9409 138.534L79.9486 138.559C79.99 137.906 80.1388 137.282 80.3951 136.686C80.6597 136.091 81.0194 135.562 81.4742 135.099C81.9289 134.628 82.4705 134.255 83.0989 133.983C83.7356 133.71 84.4508 133.573 85.2446 133.573C85.9392 133.573 86.5593 133.668 87.105 133.859C87.6507 134.04 88.1096 134.334 88.4817 134.739C88.8621 135.136 89.1515 135.645 89.3499 136.265C89.5484 136.885 89.6476 137.629 89.6476 138.497V147.241H88.1592V138.485C88.1592 137.534 88.0187 136.798 87.7376 136.277C87.4647 135.748 87.0843 135.38 86.5965 135.173C86.1087 134.967 85.5381 134.863 84.8849 134.863C84.24 134.871 83.6736 134.991 83.1858 135.223C82.6979 135.446 82.2886 135.744 81.9579 136.116C81.6354 136.48 81.3874 136.872 81.2137 137.294C81.0483 137.716 80.9574 138.129 80.9409 138.534ZM101.579 144.835V137.914C101.579 137.278 101.447 136.728 101.182 136.265C100.918 135.802 100.529 135.446 100.016 135.198C99.5036 134.95 98.8711 134.826 98.1186 134.826C97.4241 134.826 96.804 134.95 96.2582 135.198C95.7208 135.438 95.295 135.764 94.9807 136.178C94.6748 136.583 94.5218 137.034 94.5218 137.53L93.0335 137.517C93.0335 137.013 93.1575 136.525 93.4056 136.054C93.6537 135.583 94.0051 135.161 94.4598 134.789C94.9146 134.417 95.4562 134.123 96.0846 133.908C96.7213 133.685 97.42 133.573 98.1807 133.573C99.1398 133.573 99.9832 133.735 100.711 134.057C101.447 134.379 102.021 134.863 102.435 135.508C102.848 136.153 103.055 136.963 103.055 137.939V144.426C103.055 144.889 103.088 145.368 103.154 145.864C103.229 146.36 103.332 146.77 103.464 147.092V147.241H101.889C101.79 146.943 101.711 146.571 101.653 146.125C101.604 145.67 101.579 145.24 101.579 144.835ZM101.926 139.427L101.951 140.568H99.0364C98.2757 140.568 97.5936 140.639 96.99 140.779C96.3947 140.912 95.8903 141.11 95.4769 141.375C95.0634 141.631 94.7451 141.941 94.5218 142.305C94.3069 142.669 94.1994 143.082 94.1994 143.545C94.1994 144.025 94.3193 144.463 94.5591 144.86C94.8071 145.257 95.1544 145.575 95.6009 145.815C96.0557 146.046 96.5931 146.162 97.2132 146.162C98.0401 146.162 98.7677 146.009 99.3961 145.703C100.033 145.397 100.558 144.996 100.971 144.5C101.385 144.004 101.662 143.462 101.802 142.875L102.447 143.731C102.34 144.145 102.141 144.57 101.852 145.009C101.571 145.439 101.203 145.844 100.748 146.224C100.293 146.596 99.7558 146.902 99.1357 147.142C98.5238 147.373 97.8292 147.489 97.052 147.489C96.1755 147.489 95.4107 147.324 94.7575 146.993C94.1126 146.662 93.6082 146.212 93.2444 145.641C92.8888 145.062 92.711 144.409 92.711 143.682C92.711 143.02 92.8516 142.429 93.1327 141.908C93.4139 141.379 93.819 140.932 94.3482 140.568C94.8857 140.196 95.5306 139.915 96.283 139.725C97.0437 139.527 97.8954 139.427 98.838 139.427H101.926ZM108.512 136.041V147.241H107.036V133.821H108.475L108.512 136.041ZM113.262 133.722L113.225 135.086C113.06 135.062 112.899 135.041 112.741 135.024C112.584 135.008 112.415 135 112.233 135C111.588 135 111.022 135.119 110.534 135.359C110.054 135.591 109.649 135.917 109.318 136.339C108.988 136.753 108.735 137.24 108.562 137.803C108.388 138.357 108.289 138.952 108.264 139.589L107.718 139.799C107.718 138.923 107.809 138.109 107.991 137.356C108.173 136.604 108.45 135.946 108.822 135.384C109.203 134.814 109.678 134.371 110.249 134.057C110.827 133.735 111.505 133.573 112.283 133.573C112.473 133.573 112.659 133.59 112.841 133.623C113.031 133.648 113.171 133.681 113.262 133.722ZM121.287 133.821V135.037H114.565V133.821H121.287ZM117.033 130.373H118.509V143.979C118.509 144.599 118.591 145.066 118.757 145.381C118.922 145.695 119.137 145.906 119.402 146.013C119.666 146.121 119.952 146.174 120.258 146.174C120.481 146.174 120.696 146.162 120.902 146.137C121.109 146.104 121.295 146.071 121.461 146.038L121.523 147.291C121.341 147.349 121.105 147.394 120.816 147.427C120.526 147.468 120.237 147.489 119.947 147.489C119.377 147.489 118.873 147.386 118.434 147.179C117.996 146.964 117.653 146.6 117.405 146.088C117.157 145.567 117.033 144.86 117.033 143.967V130.373ZM135.55 146.212C136.178 146.212 136.766 146.096 137.311 145.864C137.865 145.625 138.32 145.273 138.676 144.81C139.039 144.339 139.246 143.764 139.296 143.086H140.71C140.668 143.938 140.408 144.699 139.928 145.368C139.457 146.03 138.837 146.551 138.068 146.931C137.307 147.303 136.468 147.489 135.55 147.489C134.616 147.489 133.789 147.32 133.07 146.981C132.358 146.642 131.763 146.17 131.284 145.567C130.804 144.955 130.44 144.244 130.192 143.433C129.952 142.615 129.832 141.734 129.832 140.792V140.271C129.832 139.328 129.952 138.452 130.192 137.641C130.44 136.823 130.804 136.112 131.284 135.508C131.763 134.896 132.358 134.421 133.07 134.082C133.781 133.743 134.603 133.573 135.538 133.573C136.497 133.573 137.357 133.768 138.117 134.156C138.886 134.545 139.498 135.095 139.953 135.806C140.416 136.517 140.668 137.36 140.71 138.336H139.296C139.254 137.617 139.064 136.996 138.725 136.476C138.386 135.955 137.94 135.554 137.386 135.272C136.832 134.991 136.216 134.851 135.538 134.851C134.777 134.851 134.128 135 133.59 135.297C133.053 135.587 132.615 135.988 132.276 136.5C131.945 137.005 131.701 137.583 131.544 138.237C131.387 138.882 131.308 139.56 131.308 140.271V140.792C131.308 141.511 131.383 142.197 131.532 142.851C131.689 143.495 131.933 144.07 132.263 144.575C132.602 145.079 133.041 145.48 133.578 145.778C134.124 146.067 134.781 146.212 135.55 146.212ZM142.88 140.742V140.333C142.88 139.357 143.021 138.456 143.302 137.629C143.583 136.802 143.984 136.087 144.505 135.483C145.034 134.88 145.667 134.413 146.402 134.082C147.138 133.743 147.957 133.573 148.858 133.573C149.768 133.573 150.59 133.743 151.326 134.082C152.062 134.413 152.695 134.88 153.224 135.483C153.753 136.087 154.158 136.802 154.439 137.629C154.721 138.456 154.861 139.357 154.861 140.333V140.742C154.861 141.718 154.721 142.619 154.439 143.446C154.158 144.264 153.753 144.976 153.224 145.579C152.703 146.183 152.075 146.654 151.339 146.993C150.603 147.324 149.784 147.489 148.883 147.489C147.973 147.489 147.151 147.324 146.415 146.993C145.679 146.654 145.046 146.183 144.517 145.579C143.988 144.976 143.583 144.264 143.302 143.446C143.021 142.619 142.88 141.718 142.88 140.742ZM144.356 140.333V140.742C144.356 141.478 144.455 142.177 144.654 142.838C144.852 143.491 145.142 144.074 145.522 144.587C145.902 145.091 146.374 145.488 146.936 145.778C147.498 146.067 148.147 146.212 148.883 146.212C149.611 146.212 150.251 146.067 150.805 145.778C151.368 145.488 151.839 145.091 152.219 144.587C152.6 144.074 152.885 143.491 153.075 142.838C153.274 142.177 153.373 141.478 153.373 140.742V140.333C153.373 139.605 153.274 138.915 153.075 138.262C152.885 137.608 152.596 137.025 152.207 136.513C151.827 136 151.355 135.595 150.793 135.297C150.231 135 149.586 134.851 148.858 134.851C148.131 134.851 147.486 135 146.923 135.297C146.369 135.595 145.898 136 145.509 136.513C145.129 137.025 144.84 137.608 144.641 138.262C144.451 138.915 144.356 139.605 144.356 140.333ZM159.413 136.686V147.241H157.937V133.821H159.351L159.413 136.686ZM159.078 139.7L158.421 139.328C158.47 138.534 158.632 137.79 158.904 137.096C159.177 136.401 159.545 135.789 160.008 135.26C160.48 134.731 161.029 134.317 161.658 134.02C162.295 133.722 162.997 133.573 163.766 133.573C164.436 133.573 165.036 133.664 165.565 133.846C166.094 134.028 166.545 134.317 166.917 134.714C167.289 135.111 167.57 135.62 167.76 136.24C167.958 136.86 168.058 137.617 168.058 138.51V147.241H166.569V138.497C166.569 137.571 166.441 136.848 166.185 136.327C165.929 135.798 165.565 135.421 165.093 135.198C164.622 134.975 164.064 134.863 163.419 134.863C162.708 134.863 162.084 135.02 161.546 135.334C161.017 135.64 160.571 136.041 160.207 136.538C159.851 137.025 159.578 137.55 159.388 138.113C159.198 138.667 159.095 139.196 159.078 139.7ZM176.975 133.821V135.037H170.253V133.821H176.975ZM172.721 130.373H174.197V143.979C174.197 144.599 174.28 145.066 174.445 145.381C174.61 145.695 174.825 145.906 175.09 146.013C175.355 146.121 175.64 146.174 175.946 146.174C176.169 146.174 176.384 146.162 176.591 146.137C176.797 146.104 176.983 146.071 177.149 146.038L177.211 147.291C177.029 147.349 176.793 147.394 176.504 147.427C176.215 147.468 175.925 147.489 175.636 147.489C175.065 147.489 174.561 147.386 174.123 147.179C173.684 146.964 173.341 146.6 173.093 146.088C172.845 145.567 172.721 144.86 172.721 143.967V130.373ZM181.564 136.041V147.241H180.088V133.821H181.527L181.564 136.041ZM186.314 133.722L186.277 135.086C186.112 135.062 185.951 135.041 185.794 135.024C185.636 135.008 185.467 135 185.285 135C184.64 135 184.074 135.119 183.586 135.359C183.106 135.591 182.701 135.917 182.37 136.339C182.04 136.753 181.787 137.24 181.614 137.803C181.44 138.357 181.341 138.952 181.316 139.589L180.77 139.799C180.77 138.923 180.861 138.109 181.043 137.356C181.225 136.604 181.502 135.946 181.874 135.384C182.255 134.814 182.73 134.371 183.301 134.057C183.879 133.735 184.557 133.573 185.335 133.573C185.525 133.573 185.711 133.59 185.893 133.623C186.083 133.648 186.224 133.681 186.314 133.722ZM196.311 144.835V137.914C196.311 137.278 196.179 136.728 195.914 136.265C195.65 135.802 195.261 135.446 194.748 135.198C194.236 134.95 193.603 134.826 192.851 134.826C192.156 134.826 191.536 134.95 190.99 135.198C190.453 135.438 190.027 135.764 189.713 136.178C189.407 136.583 189.254 137.034 189.254 137.53L187.766 137.517C187.766 137.013 187.89 136.525 188.138 136.054C188.386 135.583 188.737 135.161 189.192 134.789C189.647 134.417 190.188 134.123 190.817 133.908C191.453 133.685 192.152 133.573 192.913 133.573C193.872 133.573 194.715 133.735 195.443 134.057C196.179 134.379 196.753 134.863 197.167 135.508C197.58 136.153 197.787 136.963 197.787 137.939V144.426C197.787 144.889 197.82 145.368 197.886 145.864C197.961 146.36 198.064 146.77 198.196 147.092V147.241H196.621C196.522 146.943 196.443 146.571 196.385 146.125C196.336 145.67 196.311 145.24 196.311 144.835ZM196.658 139.427L196.683 140.568H193.769C193.008 140.568 192.326 140.639 191.722 140.779C191.127 140.912 190.622 141.11 190.209 141.375C189.796 141.631 189.477 141.941 189.254 142.305C189.039 142.669 188.931 143.082 188.931 143.545C188.931 144.025 189.051 144.463 189.291 144.86C189.539 145.257 189.886 145.575 190.333 145.815C190.788 146.046 191.325 146.162 191.945 146.162C192.772 146.162 193.5 146.009 194.128 145.703C194.765 145.397 195.29 144.996 195.703 144.5C196.117 144.004 196.394 143.462 196.534 142.875L197.179 143.731C197.072 144.145 196.873 144.57 196.584 145.009C196.303 145.439 195.935 145.844 195.48 146.224C195.025 146.596 194.488 146.902 193.868 147.142C193.256 147.373 192.561 147.489 191.784 147.489C190.908 147.489 190.143 147.324 189.49 146.993C188.845 146.662 188.34 146.212 187.976 145.641C187.621 145.062 187.443 144.409 187.443 143.682C187.443 143.02 187.584 142.429 187.865 141.908C188.146 141.379 188.551 140.932 189.08 140.568C189.618 140.196 190.263 139.915 191.015 139.725C191.776 139.527 192.627 139.427 193.57 139.427H196.658ZM206.717 146.212C207.345 146.212 207.932 146.096 208.478 145.864C209.032 145.625 209.487 145.273 209.842 144.81C210.206 144.339 210.413 143.764 210.463 143.086H211.877C211.835 143.938 211.575 144.699 211.095 145.368C210.624 146.03 210.004 146.551 209.235 146.931C208.474 147.303 207.635 147.489 206.717 147.489C205.783 147.489 204.956 147.32 204.236 146.981C203.525 146.642 202.93 146.17 202.45 145.567C201.971 144.955 201.607 144.244 201.359 143.433C201.119 142.615 200.999 141.734 200.999 140.792V140.271C200.999 139.328 201.119 138.452 201.359 137.641C201.607 136.823 201.971 136.112 202.45 135.508C202.93 134.896 203.525 134.421 204.236 134.082C204.948 133.743 205.77 133.573 206.705 133.573C207.664 133.573 208.524 133.768 209.284 134.156C210.053 134.545 210.665 135.095 211.12 135.806C211.583 136.517 211.835 137.36 211.877 138.336H210.463C210.421 137.617 210.231 136.996 209.892 136.476C209.553 135.955 209.107 135.554 208.553 135.272C207.999 134.991 207.383 134.851 206.705 134.851C205.944 134.851 205.295 135 204.757 135.297C204.22 135.587 203.782 135.988 203.443 136.5C203.112 137.005 202.868 137.583 202.711 138.237C202.554 138.882 202.475 139.56 202.475 140.271V140.792C202.475 141.511 202.55 142.197 202.698 142.851C202.856 143.495 203.1 144.07 203.43 144.575C203.769 145.079 204.207 145.48 204.745 145.778C205.291 146.067 205.948 146.212 206.717 146.212ZM219.938 133.821V135.037H213.216V133.821H219.938ZM215.684 130.373H217.16V143.979C217.16 144.599 217.243 145.066 217.408 145.381C217.573 145.695 217.788 145.906 218.053 146.013C218.318 146.121 218.603 146.174 218.909 146.174C219.132 146.174 219.347 146.162 219.554 146.137C219.761 146.104 219.947 146.071 220.112 146.038L220.174 147.291C219.992 147.349 219.756 147.394 219.467 147.427C219.178 147.468 218.888 147.489 218.599 147.489C218.028 147.489 217.524 147.386 217.086 147.179C216.647 146.964 216.304 146.6 216.056 146.088C215.808 145.567 215.684 144.86 215.684 143.967V130.373Z" fill="#C3F53C"/>
<rect x="313.483" y="105.327" width="273.101" height="64.9447" rx="3.74681" fill="#C3F53C" fill-opacity="0.1" stroke="url(#paint2_linear_398_7608)" stroke-width="0.832624"/>
<path d="M374.614 131.589L369.219 147.241H365.957L372.754 129.183H374.838L374.614 131.589ZM379.129 147.241L373.721 131.589L373.486 129.183H375.582L382.403 147.241H379.129ZM378.869 140.544V143.012H369.046V140.544H378.869ZM391.656 143.607C391.656 143.309 391.581 143.041 391.433 142.801C391.284 142.553 390.998 142.33 390.577 142.131C390.163 141.933 389.551 141.751 388.741 141.585C388.03 141.428 387.377 141.242 386.782 141.027C386.194 140.804 385.69 140.535 385.268 140.221C384.847 139.907 384.52 139.535 384.289 139.105C384.057 138.675 383.941 138.179 383.941 137.617C383.941 137.071 384.061 136.554 384.301 136.066C384.541 135.578 384.884 135.148 385.33 134.776C385.777 134.404 386.318 134.111 386.955 133.896C387.6 133.681 388.319 133.573 389.113 133.573C390.238 133.573 391.201 133.763 392.003 134.144C392.813 134.516 393.434 135.024 393.863 135.669C394.293 136.306 394.508 137.025 394.508 137.827H391.519C391.519 137.472 391.428 137.141 391.247 136.835C391.073 136.521 390.808 136.269 390.453 136.079C390.097 135.88 389.651 135.781 389.113 135.781C388.601 135.781 388.175 135.864 387.836 136.029C387.505 136.186 387.257 136.393 387.092 136.649C386.934 136.905 386.856 137.187 386.856 137.493C386.856 137.716 386.897 137.918 386.98 138.1C387.071 138.274 387.22 138.435 387.426 138.584C387.633 138.725 387.914 138.857 388.27 138.981C388.634 139.105 389.088 139.225 389.634 139.341C390.659 139.556 391.54 139.833 392.276 140.172C393.02 140.502 393.591 140.932 393.988 141.461C394.384 141.982 394.583 142.644 394.583 143.446C394.583 144.041 394.455 144.587 394.198 145.083C393.95 145.571 393.586 145.997 393.107 146.36C392.627 146.716 392.053 146.993 391.383 147.191C390.721 147.39 389.977 147.489 389.15 147.489C387.935 147.489 386.906 147.274 386.062 146.844C385.219 146.406 384.578 145.848 384.14 145.17C383.71 144.484 383.495 143.772 383.495 143.037H386.385C386.418 143.591 386.571 144.033 386.844 144.364C387.125 144.686 387.472 144.922 387.885 145.071C388.307 145.211 388.741 145.281 389.188 145.281C389.725 145.281 390.176 145.211 390.54 145.071C390.903 144.922 391.18 144.723 391.371 144.475C391.561 144.219 391.656 143.93 391.656 143.607ZM404.728 143.607C404.728 143.309 404.654 143.041 404.505 142.801C404.356 142.553 404.071 142.33 403.649 142.131C403.236 141.933 402.624 141.751 401.814 141.585C401.103 141.428 400.449 141.242 399.854 141.027C399.267 140.804 398.763 140.535 398.341 140.221C397.919 139.907 397.593 139.535 397.361 139.105C397.13 138.675 397.014 138.179 397.014 137.617C397.014 137.071 397.134 136.554 397.373 136.066C397.613 135.578 397.956 135.148 398.403 134.776C398.849 134.404 399.391 134.111 400.028 133.896C400.673 133.681 401.392 133.573 402.186 133.573C403.31 133.573 404.274 133.763 405.076 134.144C405.886 134.516 406.506 135.024 406.936 135.669C407.366 136.306 407.581 137.025 407.581 137.827H404.592C404.592 137.472 404.501 137.141 404.319 136.835C404.145 136.521 403.881 136.269 403.525 136.079C403.17 135.88 402.723 135.781 402.186 135.781C401.673 135.781 401.247 135.864 400.908 136.029C400.578 136.186 400.329 136.393 400.164 136.649C400.007 136.905 399.928 137.187 399.928 137.493C399.928 137.716 399.97 137.918 400.052 138.1C400.143 138.274 400.292 138.435 400.499 138.584C400.706 138.725 400.987 138.857 401.342 138.981C401.706 139.105 402.161 139.225 402.707 139.341C403.732 139.556 404.613 139.833 405.348 140.172C406.093 140.502 406.663 140.932 407.06 141.461C407.457 141.982 407.655 142.644 407.655 143.446C407.655 144.041 407.527 144.587 407.271 145.083C407.023 145.571 406.659 145.997 406.179 146.36C405.7 146.716 405.125 146.993 404.455 147.191C403.794 147.39 403.05 147.489 402.223 147.489C401.007 147.489 399.978 147.274 399.135 146.844C398.291 146.406 397.65 145.848 397.212 145.17C396.782 144.484 396.567 143.772 396.567 143.037H399.457C399.49 143.591 399.643 144.033 399.916 144.364C400.197 144.686 400.544 144.922 400.958 145.071C401.38 145.211 401.814 145.281 402.26 145.281C402.798 145.281 403.248 145.211 403.612 145.071C403.976 144.922 404.253 144.723 404.443 144.475C404.633 144.219 404.728 143.93 404.728 143.607ZM416.188 147.489C415.196 147.489 414.299 147.328 413.497 147.005C412.703 146.675 412.025 146.216 411.463 145.629C410.909 145.042 410.483 144.351 410.185 143.557C409.888 142.764 409.739 141.908 409.739 140.99V140.494C409.739 139.444 409.892 138.493 410.198 137.641C410.504 136.79 410.93 136.062 411.475 135.458C412.021 134.847 412.666 134.379 413.41 134.057C414.154 133.735 414.961 133.573 415.829 133.573C416.788 133.573 417.627 133.735 418.346 134.057C419.066 134.379 419.661 134.834 420.132 135.421C420.612 136 420.968 136.69 421.199 137.493C421.439 138.295 421.559 139.179 421.559 140.147V141.424H411.19V139.279H418.607V139.043C418.59 138.505 418.483 138.001 418.284 137.53C418.094 137.058 417.801 136.678 417.404 136.389C417.007 136.099 416.478 135.955 415.816 135.955C415.32 135.955 414.878 136.062 414.489 136.277C414.109 136.484 413.791 136.786 413.534 137.182C413.278 137.579 413.079 138.059 412.939 138.621C412.807 139.175 412.74 139.799 412.74 140.494V140.99C412.74 141.577 412.819 142.123 412.976 142.627C413.141 143.123 413.381 143.557 413.695 143.93C414.01 144.302 414.39 144.595 414.837 144.81C415.283 145.017 415.792 145.12 416.362 145.12C417.081 145.12 417.722 144.976 418.284 144.686C418.847 144.397 419.335 143.987 419.748 143.458L421.323 144.984C421.034 145.405 420.658 145.811 420.194 146.199C419.731 146.58 419.165 146.89 418.495 147.129C417.834 147.369 417.065 147.489 416.188 147.489ZM430.042 133.821V136.004H422.477V133.821H430.042ZM424.659 130.535H427.649V143.533C427.649 143.946 427.706 144.264 427.822 144.488C427.946 144.703 428.116 144.847 428.331 144.922C428.546 144.996 428.798 145.033 429.087 145.033C429.294 145.033 429.492 145.021 429.683 144.996C429.873 144.971 430.026 144.947 430.141 144.922L430.154 147.204C429.906 147.278 429.616 147.344 429.286 147.402C428.963 147.46 428.591 147.489 428.169 147.489C427.483 147.489 426.875 147.369 426.346 147.129C425.817 146.881 425.404 146.48 425.106 145.926C424.808 145.372 424.659 144.637 424.659 143.719V130.535ZM441.664 136.55V147.241H438.675V133.821H441.49L441.664 136.55ZM441.18 140.035L440.163 140.023C440.163 139.097 440.279 138.241 440.51 137.455C440.742 136.67 441.081 135.988 441.527 135.409C441.974 134.822 442.528 134.371 443.189 134.057C443.859 133.735 444.632 133.573 445.508 133.573C446.12 133.573 446.678 133.664 447.183 133.846C447.695 134.02 448.138 134.297 448.51 134.677C448.89 135.057 449.18 135.545 449.378 136.141C449.585 136.736 449.688 137.455 449.688 138.299V147.241H446.699V138.559C446.699 137.906 446.6 137.393 446.401 137.021C446.211 136.649 445.934 136.385 445.57 136.227C445.215 136.062 444.789 135.979 444.293 135.979C443.731 135.979 443.251 136.087 442.854 136.302C442.466 136.517 442.147 136.81 441.899 137.182C441.651 137.555 441.469 137.985 441.354 138.472C441.238 138.96 441.18 139.481 441.18 140.035ZM449.502 139.241L448.101 139.551C448.101 138.741 448.212 137.976 448.436 137.257C448.667 136.529 449.002 135.893 449.44 135.347C449.887 134.793 450.436 134.359 451.09 134.045C451.743 133.73 452.491 133.573 453.335 133.573C454.021 133.573 454.633 133.668 455.17 133.859C455.716 134.04 456.179 134.33 456.559 134.727C456.94 135.124 457.229 135.64 457.427 136.277C457.626 136.905 457.725 137.666 457.725 138.559V147.241H454.724V138.547C454.724 137.869 454.624 137.344 454.426 136.972C454.236 136.6 453.963 136.343 453.607 136.203C453.252 136.054 452.826 135.979 452.33 135.979C451.867 135.979 451.458 136.066 451.102 136.24C450.755 136.405 450.461 136.641 450.222 136.947C449.982 137.244 449.8 137.588 449.676 137.976C449.56 138.365 449.502 138.787 449.502 139.241ZM468.367 144.55V138.15C468.367 137.67 468.28 137.257 468.106 136.91C467.933 136.562 467.668 136.294 467.312 136.103C466.965 135.913 466.527 135.818 465.998 135.818C465.51 135.818 465.088 135.901 464.733 136.066C464.377 136.232 464.1 136.455 463.902 136.736C463.703 137.017 463.604 137.335 463.604 137.691H460.627C460.627 137.162 460.756 136.649 461.012 136.153C461.268 135.657 461.64 135.215 462.128 134.826C462.616 134.437 463.199 134.131 463.877 133.908C464.555 133.685 465.316 133.573 466.159 133.573C467.168 133.573 468.061 133.743 468.838 134.082C469.624 134.421 470.24 134.933 470.686 135.62C471.141 136.298 471.368 137.149 471.368 138.175V144.14C471.368 144.752 471.41 145.302 471.492 145.79C471.583 146.27 471.711 146.687 471.877 147.043V147.241H468.813C468.673 146.919 468.561 146.509 468.478 146.013C468.404 145.509 468.367 145.021 468.367 144.55ZM468.801 139.08L468.826 140.928H466.68C466.126 140.928 465.638 140.982 465.216 141.089C464.795 141.189 464.443 141.337 464.162 141.536C463.881 141.734 463.67 141.974 463.53 142.255C463.389 142.536 463.319 142.855 463.319 143.21C463.319 143.566 463.401 143.892 463.567 144.19C463.732 144.479 463.972 144.707 464.286 144.872C464.609 145.038 464.997 145.12 465.452 145.12C466.064 145.12 466.597 144.996 467.052 144.748C467.515 144.492 467.879 144.182 468.143 143.818C468.408 143.446 468.549 143.094 468.565 142.764L469.533 144.091C469.433 144.43 469.264 144.794 469.024 145.182C468.784 145.571 468.47 145.943 468.081 146.298C467.701 146.646 467.242 146.931 466.705 147.154C466.176 147.378 465.564 147.489 464.869 147.489C463.993 147.489 463.211 147.316 462.525 146.968C461.839 146.613 461.301 146.137 460.913 145.542C460.524 144.938 460.33 144.256 460.33 143.495C460.33 142.784 460.462 142.156 460.727 141.61C460.999 141.056 461.396 140.593 461.917 140.221C462.446 139.849 463.091 139.568 463.852 139.378C464.613 139.179 465.481 139.08 466.457 139.08H468.801ZM477.458 136.686V147.241H474.469V133.821H477.284L477.458 136.686ZM476.925 140.035L475.957 140.023C475.965 139.072 476.098 138.199 476.354 137.406C476.619 136.612 476.982 135.93 477.446 135.359C477.917 134.789 478.479 134.351 479.132 134.045C479.785 133.73 480.513 133.573 481.315 133.573C481.96 133.573 482.543 133.664 483.064 133.846C483.593 134.02 484.044 134.305 484.416 134.702C484.796 135.099 485.086 135.616 485.284 136.252C485.482 136.881 485.582 137.654 485.582 138.572V147.241H482.58V138.559C482.58 137.914 482.485 137.406 482.295 137.034C482.113 136.653 481.844 136.385 481.489 136.227C481.142 136.062 480.707 135.979 480.187 135.979C479.674 135.979 479.215 136.087 478.81 136.302C478.405 136.517 478.062 136.81 477.78 137.182C477.508 137.555 477.297 137.985 477.148 138.472C476.999 138.96 476.925 139.481 476.925 140.035ZM496.198 144.55V138.15C496.198 137.67 496.112 137.257 495.938 136.91C495.764 136.562 495.5 136.294 495.144 136.103C494.797 135.913 494.359 135.818 493.83 135.818C493.342 135.818 492.92 135.901 492.564 136.066C492.209 136.232 491.932 136.455 491.733 136.736C491.535 137.017 491.436 137.335 491.436 137.691H488.459C488.459 137.162 488.587 136.649 488.844 136.153C489.1 135.657 489.472 135.215 489.96 134.826C490.448 134.437 491.031 134.131 491.709 133.908C492.387 133.685 493.147 133.573 493.991 133.573C495 133.573 495.893 133.743 496.67 134.082C497.455 134.421 498.071 134.933 498.518 135.62C498.973 136.298 499.2 137.149 499.2 138.175V144.14C499.2 144.752 499.241 145.302 499.324 145.79C499.415 146.27 499.543 146.687 499.708 147.043V147.241H496.645C496.504 146.919 496.393 146.509 496.31 146.013C496.236 145.509 496.198 145.021 496.198 144.55ZM496.633 139.08L496.657 140.928H494.512C493.958 140.928 493.47 140.982 493.048 141.089C492.626 141.189 492.275 141.337 491.994 141.536C491.713 141.734 491.502 141.974 491.361 142.255C491.221 142.536 491.151 142.855 491.151 143.21C491.151 143.566 491.233 143.892 491.399 144.19C491.564 144.479 491.804 144.707 492.118 144.872C492.44 145.038 492.829 145.12 493.284 145.12C493.896 145.12 494.429 144.996 494.884 144.748C495.347 144.492 495.711 144.182 495.975 143.818C496.24 143.446 496.38 143.094 496.397 142.764L497.364 144.091C497.265 144.43 497.096 144.794 496.856 145.182C496.616 145.571 496.302 145.943 495.913 146.298C495.533 146.646 495.074 146.931 494.536 147.154C494.007 147.378 493.395 147.489 492.701 147.489C491.824 147.489 491.043 147.316 490.357 146.968C489.67 146.613 489.133 146.137 488.744 145.542C488.356 144.938 488.161 144.256 488.161 143.495C488.161 142.784 488.294 142.156 488.558 141.61C488.831 141.056 489.228 140.593 489.749 140.221C490.278 139.849 490.923 139.568 491.684 139.378C492.445 139.179 493.313 139.08 494.288 139.08H496.633ZM510.92 133.821H513.637V146.869C513.637 148.076 513.38 149.101 512.868 149.945C512.355 150.788 511.64 151.429 510.722 151.867C509.804 152.314 508.742 152.537 507.535 152.537C507.022 152.537 506.451 152.463 505.823 152.314C505.203 152.165 504.599 151.925 504.012 151.594C503.433 151.272 502.95 150.846 502.561 150.317L503.963 148.556C504.442 149.126 504.971 149.544 505.55 149.808C506.129 150.073 506.737 150.205 507.373 150.205C508.06 150.205 508.643 150.077 509.122 149.821C509.61 149.573 509.986 149.205 510.251 148.717C510.515 148.229 510.648 147.634 510.648 146.931V136.86L510.92 133.821ZM501.804 140.68V140.42C501.804 139.403 501.928 138.476 502.177 137.641C502.425 136.798 502.78 136.074 503.243 135.471C503.706 134.859 504.268 134.392 504.93 134.069C505.591 133.739 506.34 133.573 507.175 133.573C508.043 133.573 508.783 133.73 509.395 134.045C510.015 134.359 510.532 134.809 510.945 135.396C511.359 135.975 511.681 136.67 511.913 137.48C512.152 138.282 512.33 139.175 512.446 140.159V140.99C512.339 141.949 512.157 142.826 511.9 143.619C511.644 144.413 511.305 145.1 510.883 145.678C510.462 146.257 509.941 146.704 509.321 147.018C508.709 147.332 507.985 147.489 507.15 147.489C506.331 147.489 505.591 147.32 504.93 146.981C504.277 146.642 503.714 146.166 503.243 145.554C502.78 144.942 502.425 144.223 502.177 143.396C501.928 142.561 501.804 141.656 501.804 140.68ZM504.794 140.42V140.68C504.794 141.292 504.851 141.862 504.967 142.392C505.091 142.921 505.277 143.388 505.525 143.793C505.782 144.19 506.104 144.504 506.493 144.736C506.89 144.959 507.357 145.071 507.894 145.071C508.597 145.071 509.172 144.922 509.618 144.624C510.073 144.326 510.42 143.925 510.66 143.421C510.908 142.908 511.082 142.338 511.181 141.709V139.465C511.131 138.977 511.028 138.522 510.871 138.1C510.722 137.679 510.519 137.311 510.263 136.996C510.007 136.674 509.684 136.426 509.296 136.252C508.907 136.07 508.448 135.979 507.919 135.979C507.382 135.979 506.914 136.095 506.518 136.327C506.121 136.558 505.794 136.877 505.538 137.282C505.29 137.687 505.104 138.158 504.98 138.696C504.856 139.233 504.794 139.808 504.794 140.42ZM522.653 147.489C521.661 147.489 520.764 147.328 519.962 147.005C519.168 146.675 518.49 146.216 517.928 145.629C517.374 145.042 516.948 144.351 516.651 143.557C516.353 142.764 516.204 141.908 516.204 140.99V140.494C516.204 139.444 516.357 138.493 516.663 137.641C516.969 136.79 517.395 136.062 517.94 135.458C518.486 134.847 519.131 134.379 519.875 134.057C520.619 133.735 521.426 133.573 522.294 133.573C523.253 133.573 524.092 133.735 524.812 134.057C525.531 134.379 526.126 134.834 526.598 135.421C527.077 136 527.433 136.69 527.664 137.493C527.904 138.295 528.024 139.179 528.024 140.147V141.424H517.655V139.279H525.072V139.043C525.055 138.505 524.948 138.001 524.75 137.53C524.559 137.058 524.266 136.678 523.869 136.389C523.472 136.099 522.943 135.955 522.281 135.955C521.785 135.955 521.343 136.062 520.954 136.277C520.574 136.484 520.256 136.786 519.999 137.182C519.743 137.579 519.545 138.059 519.404 138.621C519.272 139.175 519.206 139.799 519.206 140.494V140.99C519.206 141.577 519.284 142.123 519.441 142.627C519.607 143.123 519.846 143.557 520.161 143.93C520.475 144.302 520.855 144.595 521.302 144.81C521.748 145.017 522.257 145.12 522.827 145.12C523.546 145.12 524.187 144.976 524.75 144.686C525.312 144.397 525.8 143.987 526.213 143.458L527.788 144.984C527.499 145.405 527.123 145.811 526.66 146.199C526.197 146.58 525.63 146.89 524.96 147.129C524.299 147.369 523.53 147.489 522.653 147.489ZM533.357 136.376V147.241H530.368V133.821H533.221L533.357 136.376ZM537.462 133.735L537.438 136.513C537.256 136.48 537.057 136.455 536.842 136.438C536.635 136.422 536.429 136.414 536.222 136.414C535.709 136.414 535.259 136.488 534.87 136.637C534.482 136.777 534.155 136.984 533.89 137.257C533.634 137.521 533.436 137.844 533.295 138.224C533.154 138.605 533.072 139.03 533.047 139.502L532.365 139.551C532.365 138.708 532.447 137.927 532.613 137.207C532.778 136.488 533.026 135.855 533.357 135.31C533.696 134.764 534.118 134.338 534.622 134.032C535.135 133.726 535.726 133.573 536.396 133.573C536.578 133.573 536.772 133.59 536.979 133.623C537.194 133.656 537.355 133.693 537.462 133.735Z" fill="#C3F53C"/>
<rect x="66.1935" y="210.238" width="138.216" height="64.9447" rx="3.74681" stroke="url(#paint3_linear_398_7608)" stroke-width="0.832624" stroke-dasharray="1.67 1.67"/>
<path d="M120.243 252.152H116.15L116.175 250.85H120.243C121.541 250.85 122.657 250.56 123.592 249.981C124.534 249.394 125.262 248.584 125.775 247.55C126.287 246.517 126.544 245.318 126.544 243.954V242.267C126.544 241.225 126.395 240.282 126.097 239.439C125.808 238.596 125.39 237.876 124.844 237.281C124.299 236.677 123.646 236.214 122.885 235.892C122.132 235.569 121.289 235.408 120.355 235.408H116.076V234.093H120.355C121.479 234.093 122.509 234.288 123.443 234.676C124.386 235.057 125.2 235.611 125.886 236.338C126.581 237.058 127.114 237.922 127.486 238.931C127.867 239.939 128.057 241.064 128.057 242.304V243.954C128.057 245.194 127.867 246.318 127.486 247.327C127.114 248.336 126.581 249.2 125.886 249.919C125.192 250.639 124.369 251.193 123.418 251.581C122.467 251.962 121.409 252.152 120.243 252.152ZM116.832 234.093V252.152H115.307V234.093H116.832ZM143.176 250.85V252.152H133.018V250.85H143.176ZM133.477 234.093V252.152H131.951V234.093H133.477ZM141.911 242.192V243.495H133.018V242.192H141.911ZM143.114 234.093V235.408H133.018V234.093H143.114ZM146.81 234.093L151.895 241.721L156.992 234.093H158.803L152.825 242.986L158.989 252.152H157.166L151.895 244.276L146.624 252.152H144.813L150.977 242.986L144.999 234.093H146.81Z" fill="#C3F53C"/>
<path d="M128.641 64.1122C127.947 64.1122 127.392 64.6673 127.392 65.3611C127.392 66.055 127.947 66.6101 128.641 66.6101C129.334 66.6101 129.889 66.055 129.889 65.3611C129.889 64.6673 129.334 64.1122 128.641 64.1122Z" fill="white"/>
<path d="M128.346 104.789C128.509 104.951 128.772 104.951 128.935 104.789L131.584 102.139C131.747 101.977 131.747 101.713 131.584 101.551C131.422 101.388 131.158 101.388 130.996 101.551L128.641 103.906L126.286 101.551C126.123 101.388 125.859 101.388 125.697 101.551C125.534 101.713 125.534 101.977 125.697 102.139L128.346 104.789ZM128.641 66.1937C128.525 66.1937 128.417 66.1713 128.32 66.1312L128.004 66.9013C128.2 66.9822 128.416 67.0264 128.641 67.0264V66.1937ZM127.87 65.6816C127.83 65.5842 127.808 65.4763 127.808 65.3611H126.975C126.975 65.5859 127.019 65.8013 127.1 65.9981L127.87 65.6816ZM127.808 65.3611C127.808 65.246 127.83 65.1381 127.87 65.0406L127.1 64.7241C127.019 64.921 126.975 65.1363 126.975 65.3611H127.808ZM128.32 64.591C128.417 64.551 128.525 64.5285 128.641 64.5285V63.6959C128.416 63.6959 128.2 63.74 128.004 63.8209L128.32 64.591ZM128.641 64.5285C128.756 64.5285 128.864 64.551 128.961 64.591L129.278 63.8209C129.081 63.74 128.865 63.6959 128.641 63.6959V64.5285ZM129.411 65.0406C129.451 65.1381 129.473 65.246 129.473 65.3611H130.306C130.306 65.1363 130.262 64.921 130.181 64.7241L129.411 65.0406ZM129.473 65.3611C129.473 65.4763 129.451 65.5842 129.411 65.6816L130.181 65.9981C130.262 65.8013 130.306 65.5859 130.306 65.3611H129.473ZM128.961 66.1312C128.864 66.1713 128.756 66.1937 128.641 66.1937V67.0264C128.865 67.0264 129.081 66.9822 129.278 66.9013L128.961 66.1312ZM128.224 66.6101V67.4711H129.057V66.6101H128.224ZM128.224 69.1931V70.9151H129.057V69.1931H128.224ZM128.224 72.6371V74.3591H129.057V72.6371H128.224ZM128.224 76.0812V77.8032H129.057V76.0812H128.224ZM128.224 79.5252V81.2472H129.057V79.5252H128.224ZM128.224 82.9692V84.6912H129.057V82.9692H128.224ZM128.224 86.4133V88.1353H129.057V86.4133H128.224ZM128.224 89.8573V91.5793H129.057V89.8573H128.224ZM128.224 93.3013V95.0233H129.057V93.3013H128.224ZM128.224 96.7454V98.4674H129.057V96.7454H128.224ZM128.224 100.189V101.911H129.057V100.189H128.224ZM128.224 103.633V104.494H129.057V103.633H128.224Z" fill="#C3F53C"/>
<path d="M314.732 138.632C314.732 137.938 314.177 137.383 313.483 137.383C312.789 137.383 312.234 137.938 312.234 138.632C312.234 139.326 312.789 139.881 313.483 139.881C314.177 139.881 314.732 139.326 314.732 138.632Z" fill="white"/>
<path d="M274.055 138.337C273.893 138.5 273.893 138.764 274.055 138.926L276.705 141.576C276.867 141.738 277.131 141.738 277.294 141.576C277.456 141.413 277.456 141.149 277.294 140.987L274.939 138.632L277.294 136.277C277.456 136.114 277.456 135.851 277.294 135.688C277.131 135.525 276.867 135.525 276.705 135.688L274.055 138.337ZM313.483 137.799C313.947 137.799 314.316 138.168 314.316 138.632L315.148 138.632C315.148 137.708 314.407 136.967 313.483 136.967L313.483 137.799ZM314.316 138.632C314.316 139.096 313.947 139.464 313.483 139.464L313.483 140.297C314.407 140.297 315.148 139.556 315.148 138.632L314.316 138.632ZM313.483 139.464C313.019 139.464 312.65 139.096 312.65 138.632L311.818 138.632C311.818 139.556 312.559 140.297 313.483 140.297L313.483 139.464ZM312.65 138.632C312.65 138.168 313.019 137.799 313.483 137.799L313.483 136.967C312.559 136.967 311.818 137.708 311.818 138.632L312.65 138.632ZM312.234 138.215L274.35 138.215L274.35 139.048L312.234 139.048L312.234 138.215Z" fill="#C3F53C"/>
<path d="M144.46 169.023C143.766 169.023 143.211 169.578 143.211 170.272C143.211 170.965 143.766 171.521 144.46 171.521C145.154 171.521 145.709 170.965 145.709 170.272C145.709 169.578 145.154 169.023 144.46 169.023Z" fill="white"/>
<path d="M144.46 171.521C145.154 171.521 145.709 170.965 145.709 170.272C145.709 169.578 145.154 169.023 144.46 169.023C143.766 169.023 143.211 169.578 143.211 170.272C143.211 170.965 143.766 171.521 144.46 171.521ZM144.46 171.521V209.405" stroke="#C3F53C" stroke-width="0.832624"/>
<defs>
<linearGradient id="paint0_linear_398_7608" x1="136.967" y1="0" x2="136.967" y2="65.7773" gradientUnits="userSpaceOnUse">
<stop stop-color="#9AC680"/>
<stop offset="1" stop-color="#306628"/>
</linearGradient>
<linearGradient id="paint1_linear_398_7608" x1="136.967" y1="104.911" x2="136.967" y2="170.688" gradientUnits="userSpaceOnUse">
<stop stop-color="#9AC680"/>
<stop offset="1" stop-color="#306628"/>
</linearGradient>
<linearGradient id="paint2_linear_398_7608" x1="450.033" y1="104.911" x2="450.033" y2="170.688" gradientUnits="userSpaceOnUse">
<stop stop-color="#9AC680"/>
<stop offset="1" stop-color="#306628"/>
</linearGradient>
<linearGradient id="paint3_linear_398_7608" x1="135.301" y1="209.821" x2="135.301" y2="275.599" gradientUnits="userSpaceOnUse">
<stop stop-color="#9AC680"/>
<stop offset="1" stop-color="#306628"/>
</linearGradient>
</defs>
</svg>
