<svg width="22" height="18" viewBox="0 0 22 18" fill="none" xmlns="http://www.w3.org/2000/svg">
<path d="M0 15.7C2 17 4.3 17.7 6.9 17.7C15.2 17.7 19.9 10.7 19.6 4.4C20.5 3.8 21.2 3 21.8 2.1C21 2.5 20.1 2.7 19.2 2.8C20.1 2.2 20.8 1.4 21.2 0.3C20.3 0.8 19.4 1.2 18.4 1.4C17.6 0.5 16.4 0 15.1 0C12.2 0 10.1 2.7 10.7 5.5C7 5.3 3.7 3.5 1.5 0.8C0.3 2.8 0.9 5.4 2.9 6.8C2.2 6.8 1.5 6.6 0.9 6.2C0.9 8.3 2.3 10.2 4.5 10.6C3.9 10.8 3.2 10.8 2.5 10.7C3.1 12.5 4.7 13.8 6.7 13.8C4.7 15.3 2.4 16 0 15.7Z" fill="#EEEEEE"/>
</svg>
