<svg width="121" height="120" viewBox="0 0 121 120" fill="none" xmlns="http://www.w3.org/2000/svg">
<ellipse cx="60.5" cy="60" rx="60.5" ry="60" fill="#17233E"/>
<path d="M45.0206 13.5353C54.2551 8.2478 65.5996 8.2478 74.8341 13.5353L93.2686 24.0905C102.603 29.4352 108.362 39.3685 108.362 50.1249V70.8054C108.362 81.5618 102.603 91.495 93.2686 96.8398L74.8341 107.395C65.5996 112.682 54.2551 112.682 45.0206 107.395L26.5861 96.8398C17.2516 91.495 11.4928 81.5618 11.4928 70.8054V50.1249C11.4928 39.3685 17.2516 29.4352 26.5861 24.0905L45.0206 13.5353Z" fill="#17233E"/>
<path d="M45.0206 13.5353C54.2551 8.2478 65.5996 8.2478 74.8341 13.5353L93.2686 24.0905C102.603 29.4352 108.362 39.3685 108.362 50.1249V70.8054C108.362 81.5618 102.603 91.495 93.2686 96.8398L74.8341 107.395C65.5996 112.682 54.2551 112.682 45.0206 107.395L26.5861 96.8398C17.2516 91.495 11.4928 81.5618 11.4928 70.8054V50.1249C11.4928 39.3685 17.2516 29.4352 26.5861 24.0905L45.0206 13.5353Z" stroke="#7AA0B8"/>
<path d="M61.6861 37.0938H78.7457L40.5815 100.757L27.2152 93.7798L61.6861 37.0938Z" fill="#CCC5CA"/>
<path d="M32.1017 51.4708C37.8227 42.5141 47.7167 37.0938 58.3445 37.0938V37.0938L24.2254 91.5124L13.3213 80.8728L32.1017 51.4708Z" fill="#CCC5CA"/>
<path d="M69.424 59.5941L91.9355 94.6519L77.8657 103.198L59.5751 75.4653L69.424 59.5941Z" fill="#008AC4"/>
<path d="M80.3288 41.1056L106.358 81.3954L94.5744 92.5582L71.5348 55.2327L80.3288 41.1056Z" fill="#008AC4"/>
<path d="M63.1572 12.0348L100.592 33.469C102.614 34.627 103.862 36.7792 103.862 39.1097V81.8205C103.862 84.1511 102.614 86.3033 100.592 87.4613L63.1572 108.895C61.1564 110.041 58.6984 110.041 56.6976 108.895L19.2631 87.4613C17.2406 86.3033 15.9929 84.1511 15.9929 81.8205V39.1097C15.9929 36.7792 17.2406 34.627 19.2631 33.469L56.6976 12.0348C58.6984 10.8891 61.1564 10.8891 63.1572 12.0348Z" stroke="#7AA0B8" stroke-width="9"/>
</svg>
