<svg width="23" height="25" viewBox="0 0 23 25" fill="none" xmlns="http://www.w3.org/2000/svg">
<mask id="mask0_262_1002" style="mask-type:luminance" maskUnits="userSpaceOnUse" x="0" y="0" width="23" height="25">
<path d="M22.1631 0H0V25H22.1631V0Z" fill="white"/>
</mask>
<g mask="url(#mask0_262_1002)">
<path d="M0.841553 7.59961V17.4006C0.841553 18.0264 1.17605 18.6049 1.71782 18.9168L10.2075 23.8184C10.7493 24.1303 11.4162 24.1303 11.958 23.8184L20.4477 18.9168C20.9894 18.6049 21.324 18.0264 21.324 17.4006V7.59961C21.324 6.97385 20.9894 6.39527 20.4477 6.08341L11.958 1.18189C11.4162 0.870033 10.7493 0.870033 10.2075 1.18189L1.71577 6.08341C1.174 6.39527 0.841553 6.97385 0.841553 7.59961Z" fill="#213147"/>
<path d="M12.9349 14.4009L11.7241 17.7205C11.6913 17.8129 11.6913 17.9134 11.7241 18.0056L13.807 23.7177L16.2162 22.3266L13.3247 14.4009C13.2591 14.2183 13.0005 14.2183 12.9349 14.4009Z" fill="#12AAFF"/>
<path d="M15.3623 8.81834C15.2967 8.63575 15.0381 8.63575 14.9725 8.81834L13.7617 12.138C13.7289 12.2303 13.7289 12.3309 13.7617 12.4232L17.1744 21.7748L19.5836 20.3838L15.3623 8.81834Z" fill="#12AAFF"/>
<path d="M11.0816 1.54904C11.1411 1.54904 11.2006 1.56545 11.2539 1.59417L20.4413 6.89782C20.548 6.95938 20.6138 7.07427 20.6138 7.19532V17.8005C20.6138 17.9238 20.548 18.0365 20.4413 18.098L11.2539 23.4018C11.2026 23.4324 11.1411 23.4468 11.0816 23.4468C11.0221 23.4468 10.9625 23.4305 10.9092 23.4018L1.72175 18.1021C1.61504 18.0406 1.54937 17.9257 1.54937 17.8046V7.19738C1.54937 7.07427 1.61504 6.96144 1.72175 6.89988L10.9092 1.59623C10.9625 1.56545 11.0221 1.54904 11.0816 1.54904ZM11.0816 0C10.7553 0 10.4269 0.0841199 10.1335 0.254411L0.948089 5.55601C0.361177 5.89454 0 6.52032 0 7.19738V17.8027C0 18.4796 0.361177 19.1055 0.948089 19.444L10.1355 24.7477C10.429 24.916 10.7553 25.0021 11.0836 25.0021C11.4099 25.0021 11.7382 24.9179 12.0317 24.7477L21.2191 19.444C21.806 19.1055 22.1672 18.4796 22.1672 17.8027V7.19738C22.1672 6.52032 21.806 5.89454 21.2191 5.55601L12.0296 0.254411C11.7362 0.0841199 11.4079 0 11.0816 0Z" fill="#9DCCED"/>
<path d="M5.00513 21.787L5.85061 19.4727L7.55183 20.8863L5.96142 22.339L5.00513 21.787Z" fill="#213147"/>
<path d="M10.3079 6.43823H7.97871C7.80428 6.43823 7.64832 6.54697 7.5888 6.71111L2.59595 20.3959L5.00517 21.787L10.5028 6.71726C10.5542 6.58185 10.4536 6.43823 10.3079 6.43823Z" fill="white"/>
<path d="M14.3836 6.43823H12.0544C11.8799 6.43823 11.724 6.54697 11.6645 6.71111L5.96362 22.3369L8.37282 23.728L14.5785 6.71726C14.6278 6.58185 14.5272 6.43823 14.3836 6.43823Z" fill="white"/>
</g>
</svg>
