<svg width="119" height="21" viewBox="0 0 119 21" fill="none" xmlns="http://www.w3.org/2000/svg">
<path d="M104.016 8.46819L101.287 8.50652V12.4259H96.3972L102.528 3.63463L100.442 2.19434L93.4265 12.0109V15.0564H101.287V19.0447H104.016V15.0564H106.758V12.4259H104.016V8.46819Z" fill="#EEEEEE"/>
<path d="M20.0309 8.99153L24.4361 5.85125L22.647 3.34343L20.1066 5.15458L16.4115 0H12.6569L0 17.641V20.9671H29.0694V17.641L22.8367 8.95607L20.0299 8.99057V8.99249L20.0309 8.99153ZM3.61367 17.8863L14.5352 2.66785L17.5988 6.93985L13.3555 9.96322L7.67102 17.8834H3.61367V17.8853V17.8863ZM11.462 17.8863L14.5352 13.6047L17.6084 17.8863H11.462ZM21.3993 17.8863L16.7124 11.3556L19.3956 9.44288L25.4548 17.8863H21.3993Z" fill="#EEEEEE"/>
<path d="M78.3527 6.50098H75.4414V19.0583H78.3527V6.50098Z" fill="#EEEEEE"/>
<path d="M78.3526 1.9375H75.4395V4.84875H78.3526V1.9375Z" fill="#EEEEEE"/>
<path d="M59.6749 16.0471V9.21745H62.9465V6.49689H59.6749V1.90674L56.8212 4.00154V6.49689H54.6516V9.21745H56.8212V17.9694L58.6611 19.3359L63.9268 17.7471L63.1008 15.0141L59.6749 16.0471Z" fill="#EEEEEE"/>
<path d="M69.4032 16.0471V9.21745H73.2124V6.49689H69.4032V1.90674L66.5485 4.00154V6.49689H64.5103V9.21745H66.5485V17.9694L68.3865 19.3359L73.6522 17.7471L72.8281 15.0141L69.4032 16.0471Z" fill="#EEEEEE"/>
<path d="M49.8764 7.97975C47.5774 5.92808 43.8842 5.61664 41.2538 8.18482C38.7364 10.6495 38.7364 14.9062 41.2538 17.3709C43.8833 19.94 47.5774 19.6276 49.8764 17.576V19.0699H52.6448V6.48579H49.8764V7.97975ZM43.2364 15.4447C41.8719 13.9987 41.8719 11.557 43.2364 10.111C45.6187 7.52074 49.7825 9.29643 49.7959 12.7788C49.7825 16.2593 45.6206 18.035 43.2364 15.4447Z" fill="#EEEEEE"/>
<path d="M86.4807 8.96262C87.9613 8.96262 89.2377 9.87778 89.8011 11.1868L92.2409 9.66792C91.16 7.55395 88.9828 6.10791 86.4807 6.10791C82.9035 6.10791 79.9932 9.06132 79.9932 12.6942C79.9932 16.327 82.9025 19.2823 86.4807 19.2823C88.9416 19.2823 91.0862 17.8832 92.1834 15.8287L89.6469 14.5178C89.0249 15.6581 87.8386 16.4286 86.4807 16.4286C84.477 16.4286 82.8479 14.7535 82.8479 12.6951C82.8479 10.6367 84.477 8.96358 86.4807 8.96358V8.96262Z" fill="#EEEEEE"/>
<path d="M111.541 16.3826L116.368 11.6957C117.668 10.3963 118.525 9.13997 118.525 6.99918C118.525 3.98635 116.251 1.91455 112.998 1.91455C109.746 1.91455 107.331 3.85219 107.236 7.17454H110.153C110.225 5.5493 111.516 4.54503 113.118 4.54503C114.506 4.54503 115.678 5.50235 115.678 7.03176C115.678 8.08395 114.842 9.27892 113.813 10.2842L107.308 16.4766V19.0591H119V16.3817H111.543L111.541 16.3836V16.3826Z" fill="#EEEEEE"/>
</svg>
