<svg width="226" height="120" viewBox="0 0 226 120" fill="none" xmlns="http://www.w3.org/2000/svg">
<circle cx="60" cy="60" r="60" fill="#988430"/>
<circle cx="60" cy="60" r="58.0781" fill="#7A6A2A"/>
<circle cx="59.9999" cy="60.0009" r="56.8544" fill="#BA9F33"/>
<path fill-rule="evenodd" clip-rule="evenodd" d="M26.2329 53.5914C25.8931 53.281 25.534 52.9699 25.2038 52.6595C24.8736 52.3491 24.5344 52.0381 24.1945 51.7277L23.1846 50.7677C23.0195 50.6026 22.8448 50.4573 22.6796 50.2915C22.5145 50.1463 22.3206 49.9811 22.1555 49.8352C20.8153 48.5635 19.4675 47.2919 18.1459 46.0195C19.5148 47.272 20.855 48.5155 22.224 49.7866L22.6995 50.2627C22.8646 50.4272 23.0393 50.5731 23.2044 50.7383L24.2137 51.6701C24.5536 51.9805 24.8838 52.2915 25.2236 52.6301C25.5635 52.9687 25.8937 53.2803 26.2336 53.5901L26.2329 53.5914ZM8.44668 53.3994C8.44668 53.3994 13.3203 53.9037 15.6992 54.2435C17.9027 54.5546 24.7961 55.6125 24.7961 55.6125L8.44668 53.3994ZM8.44668 53.3994C9.81564 53.5159 11.1846 53.6611 12.5536 53.8071C13.2524 53.8749 13.9225 53.9523 14.5926 54.0202L15.6211 54.1373C15.9609 54.1853 16.2912 54.2339 16.631 54.2826L20.7091 54.9328L22.7475 55.2727C23.4176 55.3891 24.0876 55.5159 24.7865 55.6323C24.1164 55.5645 23.4176 55.4672 22.7475 55.3699L20.7091 55.0787L16.631 54.4771C16.2912 54.4285 15.9609 54.36 15.6211 54.312L14.592 54.1936C13.9219 54.1258 13.223 54.0285 12.5529 53.9504C11.184 53.7859 9.815 53.6106 8.44604 53.3975L8.44668 53.3994ZM24.311 56.8823C24.311 56.8823 19.1072 58.2032 17.3497 58.7082C15.6217 59.1837 10.3884 60.776 10.3884 60.776L24.3104 56.8829L24.311 56.8823Z" fill="#CFB66C"/>
<path fill-rule="evenodd" clip-rule="evenodd" d="M24.3104 56.8828C23.1552 57.2227 22.0064 57.5529 20.8345 57.8639L17.3587 58.7958C16.2035 59.1356 15.0547 59.4659 13.9027 59.8057L12.1747 60.2812C11.6019 60.4463 11.0195 60.5916 10.4275 60.7574C10.9997 60.5654 11.5827 60.3689 12.1555 60.2038L13.8835 59.6508C15.0387 59.2911 16.1875 58.9513 17.3395 58.5923C18.5139 58.3011 19.6697 57.99 20.8441 57.7084C21.9603 57.4268 23.1353 57.1459 24.3104 56.8835V56.8835V56.8828ZM11.1168 63.9804C11.6889 63.7667 18.2912 60.6895 19.8253 59.9708C20.5933 59.6111 22.8256 58.8188 22.8256 58.8188L11.1168 63.9804Z" fill="#CFB66C"/>
<path fill-rule="evenodd" clip-rule="evenodd" d="M11.1169 63.9816C11.6212 63.7896 12.0973 63.5547 12.5825 63.3313L14.0193 62.6612L16.9031 61.2731C17.8631 60.8168 18.7962 60.3131 19.7863 59.8843C20.2913 59.6712 20.7962 59.4964 21.3005 59.3313L22.0685 59.0888C22.3303 59.0209 22.5735 58.9428 22.8365 58.875C21.8765 59.3313 20.866 59.7198 19.9047 60.1659C18.9447 60.642 17.9629 61.0305 16.9722 61.4574L14.0404 62.7483C13.0561 63.147 12.0961 63.5739 11.1162 63.9816V63.9816H11.1169ZM11.7569 66.6696C11.7569 66.6696 17.737 63.1649 19.7953 62.0385C20.873 61.4369 24.3585 59.7083 24.3585 59.7083L11.7569 66.6696Z" fill="#CFB66C"/>
<path fill-rule="evenodd" clip-rule="evenodd" d="M11.7573 66.6699C12.7666 66.0485 13.7957 65.4175 14.8248 64.7768L16.3608 63.8443C16.885 63.5339 17.39 63.2427 17.9244 62.9323C18.4485 62.6213 18.9535 62.3109 19.4872 62.0197C19.7413 61.8628 20.0076 61.7265 20.2834 61.612L21.0988 61.2043C22.1765 60.6802 23.2543 60.1458 24.3903 59.6895C23.3612 60.3403 22.3026 60.8939 21.2447 61.4661C20.7205 61.7573 20.1861 62.0197 19.662 62.3109C19.1378 62.6021 18.6328 62.9131 18.0984 63.1947C17.5743 63.5051 17.0693 63.7963 16.5356 64.0779L14.9528 64.9419L11.7586 66.6699V66.6699H11.7573ZM24.3103 60.4754C24.3103 60.4754 20.5919 63.3298 19.388 64.2424C18.1842 65.1551 14.6405 67.7183 14.6405 67.7183L24.3103 60.4754V60.4754Z" fill="#CFB66C"/>
<path fill-rule="evenodd" clip-rule="evenodd" d="M45.6505 83.4949L43.7478 79.893L44.8544 75.388L52.7475 72.3397L49.3881 65.4469L51.0483 58.4856L54.1651 52.252L63.7964 50.7378L70.8736 43.9902L86.1555 45.1454L89.1552 61.4853L83.3785 82.0581L80.0876 92.709L66.7475 93.2139L60.5536 88.9227L53.3011 85.893L45.6505 83.4949V83.4949Z" fill="#E2CC85"/>
<path fill-rule="evenodd" clip-rule="evenodd" d="M69.049 83.3789C69.049 83.3789 67.2039 84.2237 64.057 84.0292C63.1463 82.8061 56.7681 82.2333 56.7681 82.2333C56.7681 82.2333 55.9719 81.9908 54.5639 82.5732C53.147 83.1492 51.8068 83.0781 50.5543 83.3885C49.3018 83.6989 48.0583 82.0682 47.0983 81.7284C46.1383 81.3693 44.8654 80.5053 44.8654 80.5053L42.1774 80.2429L36.7796 77.9613L28.2042 69.418L25.874 73.066L25.1553 77.5805L27.7479 82.9303L34.7284 89.2893L48.3399 92.7453L56.4078 90.3684L66.5146 86.0964L69.049 83.3783V83.3789Z" fill="#F1D789"/>
<path fill-rule="evenodd" clip-rule="evenodd" d="M20.6893 53.185L22.4173 47.9523L24.4762 44.5731L31.1066 44.0195L29.1162 49.8256L23.5732 59.6899L25.874 68.4957L21.7965 70.5341L20.5434 68.6122L19.5341 64.2045L19.4663 59.2528L20.6893 53.185V53.185Z" fill="#F4ECB4"/>
<path fill-rule="evenodd" clip-rule="evenodd" d="M28.1261 83.019L26.8544 81.2423C26.8544 81.2423 26.5146 80.3975 26.7092 79.6596C26.9012 78.9121 26.8736 78.8635 26.777 78.5819C26.6804 78.3003 25.8644 77.3294 25.913 76.4942C25.961 75.6494 25.8452 75.3678 26.466 74.6983C27.1162 74.0481 26.9223 72.9217 26.9223 72.9217L27.7671 73.4459L27.9591 73.1547C27.9591 73.1547 28.2695 73.3972 28.2695 73.7761C28.3373 73.2519 28.0557 70.8244 28.6964 70.2715C29.337 69.7185 30.473 72.8635 30.473 72.8635L29.7741 68.3003L27.9776 63.6212L24.7834 59.3492L24.5914 54.6401V54.2324C24.5914 54.2324 23.1252 56.4852 22.7175 58.2644C22.4263 59.4875 23.1252 60.9729 22.9799 62.7303C22.8628 64.4782 22.7175 64.3419 23.1444 65.0343C23.5712 65.7268 24.6106 67.1508 24.2029 68.1799C23.8439 69.0638 22.6202 68.4423 22.6202 68.4423C22.6202 68.4423 22.3776 69.1604 22.0474 69.4228C21.9309 68.9959 21.8048 68.7239 21.5719 68.4628C21.552 68.6279 21.504 68.8513 21.504 68.8513C21.504 68.8513 21.2903 68.1812 21.0765 67.3364C20.786 66.2107 20.4749 64.7252 20.1933 63.9291C20.0768 64.3854 19.7856 65.7735 19.7856 65.7735L19.9508 67.9099L20.7469 70.8417L21.5149 72.7617L22.2624 75.1111L22.912 76.6894L23.4362 77.8932L23.8925 80.6023L26.096 82.9319L27.2711 83.4567L28.1248 83.0196V83.0196L28.1261 83.019Z" fill="#F3E19D"/>
<path fill-rule="evenodd" clip-rule="evenodd" d="M21.8445 48.9119C21.8445 48.9119 20.2618 51.5999 19.8061 54.3097C19.3505 57.0195 18.9421 59.8828 19.2301 63.5718C19.5213 67.2908 20.0749 69.5718 20.5217 71.2031C21.2897 73.9123 23.2788 77.6793 23.2788 77.6793L23.3466 77.5334C23.0123 76.8996 22.7454 76.2325 22.5505 75.543C22.2881 74.5139 22.1908 73.2908 21.9482 72.7372C21.7345 72.1843 21.3754 71.7081 21.2007 71.0284C21.0356 70.3782 21.0087 69.3491 20.5018 68.5823C20.2881 68.2713 20.0257 67.4559 19.9482 66.6406C19.8509 65.4169 19.9969 64.0479 19.8804 62.9222C19.6666 61.0483 19.5213 59.7766 19.7153 58.7955C19.9092 57.8143 20.9197 55.0291 21.5412 52.8153C21.9489 51.3977 21.7057 50.2035 22.4532 48.9702C23.2007 47.7471 23.6577 46.6694 23.8221 45.9219C24.0141 45.2422 21.842 48.9119 21.842 48.9119V48.9119H21.8445Z" fill="#F2E8B0"/>
<path fill-rule="evenodd" clip-rule="evenodd" d="M29.3498 47.834C29.3498 47.834 28.5345 48.0772 28.146 48.5041C27.7575 48.9117 27.5924 49.2516 27.0682 49.9409C26.5441 50.6301 26.5146 51.1933 26.0871 52.0573C25.6602 52.9021 24.7181 54.1738 24.6017 54.6301C24.4852 55.0865 24.2913 57.2221 24.0487 58.2321C23.8349 59.242 24.2913 60.4849 24.2913 60.4849L24.8442 60.3677C24.8442 60.3677 24.8442 61.0865 25.3978 61.5722C25.9508 62.0477 26.0481 59.9601 26.0481 59.9601L28.1159 52.9796L31.2321 50.8631L31.5719 49.1543L29.3485 47.834V47.834H29.3498Z" fill="#F5EEC0"/>
<path fill-rule="evenodd" clip-rule="evenodd" d="M30.864 51.0005C30.864 51.0005 29.3978 51.0972 28.6797 51.622C28.3885 51.8351 28.272 52.0098 27.9616 52.2722C27.3888 52.7477 26.8058 53.1849 26.5248 53.8082C26.2138 54.429 25.8739 55.3711 25.641 57.1477C25.5437 57.8953 25.5437 58.5845 25.4758 59.1868C25.3786 60.0021 25.2333 60.6524 25.3107 61.1068C25.408 62.0386 26.3693 62.5244 26.4627 63.5823L28.4531 62.573L30.327 55.1842L34.3078 52.6882L32.055 50.1641L30.8614 50.9961V50.9961L30.864 51.0005Z" fill="#E6DB9D"/>
<path fill-rule="evenodd" clip-rule="evenodd" d="M20.3634 100.754C20.3718 100.681 20.3801 100.608 20.3884 100.533C20.679 98.0374 20.7282 96.1456 20.9414 94.9609C21.2518 93.2816 21.4655 92.6569 21.4169 92.0284C21.349 91.0192 21.2716 90.2812 21.3689 89.5043C21.5142 88.4752 22.5241 87.2521 22.4953 86.4073C22.4754 85.7372 22.1356 85.3008 21.8444 84.8931C21.5532 84.4854 21.3202 84.1456 21.3202 84.1456C21.3202 84.1456 23.3106 82.7766 23.2914 77.2617C23.3321 77.2732 23.3712 77.2895 23.4079 77.3104L24.3884 80.0963L25.0585 80.9116L27.6313 85.7078L30.942 88.9219L35.8348 92.2128L38.903 95.5516L39.2134 104.455L35.2038 109.659L34.5471 110.848C29.3303 108.229 24.5465 104.824 20.3628 100.754L20.3634 100.754Z" fill="#E5CB7A"/>
<path fill-rule="evenodd" clip-rule="evenodd" d="M32.6118 109.271C32.6118 109.271 32.6797 108.164 33.5923 107.445C33.7382 107.688 33.8349 107.922 33.8061 108.096C33.9712 107.805 35.1264 105.941 37.7382 105.455C40.3501 104.98 40.9811 103.077 40.9811 103.077L46.5241 98.0381L52.864 92.2032L60.5728 89.4941L64.1753 88.6103C64.1753 88.6103 64.2432 88.8727 64.1075 89.4551C64.7769 89.4071 66.2624 89.0672 67.8061 88.5232C68.4275 88.2807 69.0105 88.1834 69.3209 88.504C69.7773 88.9309 69.8451 89.9408 69.8739 90.5424C70.6214 90.3773 71.4854 89.6592 72.1779 89.7271C73.2851 89.8435 74.2656 91.1447 75.392 91.1447C76.8774 91.1447 77.5469 90.232 78.5862 89.5133C79.2077 89.0864 80.1005 88.5533 80.6054 88.193C81.8093 87.3091 94.5472 83.416 94.5472 83.416L99.0131 83.7072L99.7318 88.5034L99.3478 101.041C99.3005 101.086 99.2531 101.134 99.2051 101.179L78.8992 111.785L50.752 116.1C44.4469 115.069 38.3624 112.977 32.7577 109.91L32.6137 109.27V109.27L32.6118 109.271Z" fill="#D8C173"/>
<path fill-rule="evenodd" clip-rule="evenodd" d="M22.0703 102.349C22.4703 101.512 22.83 100.813 22.8934 100.562C22.9433 101.067 23.0348 102.173 23.2191 103.35C22.8321 103.021 22.4492 102.687 22.0703 102.348V102.349Z" fill="#F1D789"/>
<path fill-rule="evenodd" clip-rule="evenodd" d="M42.6317 114.149L46.272 113.137L46.5824 113.234C46.5824 113.234 46.7475 113.332 46.7475 113.661C47.2038 113.399 47.5923 113.447 47.8739 113.273C48.0192 113.584 48.1645 114.613 48.8058 114.739C49.4752 114.885 50.1939 114.448 50.9222 113.895C51.6403 113.322 52.4582 112.603 53.0771 112.312C53.3042 112.73 53.5053 113.161 53.6794 113.603C54.4947 112.953 55.9123 110.312 57.9315 110.36C58.5151 108.981 59.4901 107.803 60.736 106.972C62.6099 105.7 63.7843 105.603 65.2506 105.719C65.8329 104.963 66.5506 104.321 67.367 103.826C67.6096 103.924 68.2797 104.331 69.1149 103.943C69.9597 103.555 70.9107 102.05 72.1632 101.856C72.8381 101.763 73.5244 101.907 74.105 102.263C74.105 102.263 77.753 98.6416 80.2701 97.4378C80.1728 97.1466 79.9789 96.0496 82.9299 93.6221C83.095 93.768 82.9786 94.1757 83.095 94.1981C83.143 94.1981 83.863 93.8877 84.7744 93.1882C85.9008 92.344 87.2499 91.4602 88.0653 91.2176C89.6013 90.7613 91.2307 91.6931 91.2307 91.6931C91.3693 91.5959 91.5237 91.5236 91.687 91.4794C92.0749 91.4115 92.3565 91.3629 92.5702 91.2874C92.551 91.7923 92.8326 92.6563 92.5702 93.4038C92.8742 93.5748 93.1962 93.7115 93.5302 93.8115C93.3658 94.1706 93.0061 95.0832 92.4045 95.5203C92.9088 95.7629 92.9766 96.0445 93.6954 96.2883C93.4042 96.696 92.9274 97.3955 92.7149 97.8243C92.5011 98.2806 91.7338 100.174 91.3939 100.892C91.0349 101.611 90.5498 102.931 90.3162 103.196C90.0826 103.461 89.2384 104.584 88.5882 105.137C89.1642 104.923 91.5206 104.205 92.5203 103.933C92.2227 104.37 90.7142 106.608 89.264 108.76C75.2171 117.179 58.2262 119.146 42.6272 114.159L42.6317 114.149Z" fill="#E0CD81"/>
<path fill-rule="evenodd" clip-rule="evenodd" d="M31.1041 50.7378C31.1041 50.7378 30.2599 50.7378 30.0948 50.8542C29.9297 50.9707 30.9396 51.2139 31.25 51.3304C31.5604 51.4469 32.2305 51.9806 32.4052 52.4082C32.5703 52.8158 38.473 55.1941 38.473 55.1941L42.6477 54.9803L44.0871 52.9918L41.3492 50.5938L43.2692 44.9336L40.7258 45.3413L34.6093 48.9893L31.5412 50.1643L31.1041 50.7378V50.7378Z" fill="#DFC57C"/>
<path fill-rule="evenodd" clip-rule="evenodd" d="M40.2721 52.6125C40.3949 52.8114 40.6144 52.9297 40.8481 52.9229C41.7121 52.9229 42.5076 53.1367 42.8378 53.5731C43.3914 54.2727 44.9255 56.5056 44.9255 56.5056L48.5953 57.826L48.8321 53.5047L44.8225 50.7188L40.2593 52.3981V52.6119H40.2695L40.2721 52.6125Z" fill="#E5CC7C"/>
<path fill-rule="evenodd" clip-rule="evenodd" d="M39.5521 54.214C39.5521 54.214 40.2215 54.2626 41.0663 53.9516C41.9111 53.6405 43.2993 52.9711 43.9015 53.2335C44.7457 53.5925 44.5709 54.7189 45.4842 55.7295C46.0372 56.3509 47.0471 56.3317 47.6199 57.0018C48.1927 57.6719 50.1633 57.3609 50.1633 57.3609L50.9108 61.3929L47.9111 65.238L46.93 70.0143H42.8737L39.1681 68.5442L37.3428 64.1282L38.2554 59.6623L39.5521 54.214V54.214Z" fill="#D2C281"/>
<path fill-rule="evenodd" clip-rule="evenodd" d="M47.3985 54.4079C47.4991 54.4389 47.6036 54.4552 47.7089 54.4565C47.5924 54.5538 47.3492 54.7669 47.4465 55.3205C47.5438 55.8741 47.8542 56.573 47.5924 56.9999C47.8014 57.2283 47.9572 57.5002 48.0487 57.796C48.2138 58.2722 48.2625 58.7087 49.3396 58.7771C49.1841 58.8728 49.0408 58.9869 48.9127 59.117C48.9127 59.117 49.6602 59.7672 50.0391 60.3688C50.427 60.3522 51.4561 60.0322 51.4561 60.0322L51.6698 60.1781L52.1262 59.9861C52.1262 59.9861 51.6993 59.821 52.0097 58.7823C52.3009 57.8696 52.5633 57.9183 52.5857 57.8504C52.6081 57.7826 52.7994 56.8213 52.7994 56.4328C52.9447 55.9285 53.0612 54.3944 53.0612 54.3944L52.7508 51.0063L51.0036 49.9477L49.5828 48.5762L48.2426 51.1003L47.3601 51.9803L47.2922 54.1647L47.3985 54.4079V54.4079Z" fill="#E2C270"/>
<path fill-rule="evenodd" clip-rule="evenodd" d="M51.6018 51.5735C51.6018 51.5735 51.9122 52.4567 52.0293 53.1364C52.0706 53.0043 52.0934 52.8671 52.0972 52.7287C52.0972 52.7287 52.3397 54.0689 52.3877 54.6225C52.485 54.6027 52.5797 54.5739 52.6015 54.6705C52.6232 54.7671 52.8447 55.8455 52.7935 56.4471C53.1978 55.7802 53.7572 55.2207 54.4242 54.8164C54.8127 54.5732 55.269 54.3115 55.7452 54.2916C56.4927 54.2724 57.036 54.7678 57.9295 54.7678C60.0844 54.7678 62.0364 53.1851 63.4732 52.6999C64.5311 52.3403 65.4437 52.0785 66.0844 51.4955C66.3954 51.2337 66.949 50.6513 67.4533 49.7867C68.1234 48.6347 68.8223 47.6318 69.5218 47.5057C69.2053 47.5639 68.8833 47.5866 68.5618 47.5735C68.5618 47.5735 68.7756 47.3598 69.1378 47.0686C69.5 46.7774 69.934 46.4183 70.5548 46.4183C71.662 46.4183 72.2149 46.5828 72.8364 46.5828C73.4578 46.5636 73.8168 46.4183 73.8168 46.4183C73.8168 46.4183 74.4677 46.8747 75.9333 46.8747C77.3996 46.8939 78.38 47.0199 79.1474 47.0884C79.9148 47.1569 82.4869 46.8747 83.2248 46.8964C83.7059 46.915 84.1783 47.0306 84.6136 47.2363L82.2348 40.3243L73.6895 32.8555L68.6021 36.4574L60.7762 44.2827L53.2037 47.0884L51.621 48.8651V51.5735H51.6018Z" fill="#CCB360"/>
<path fill-rule="evenodd" clip-rule="evenodd" d="M68.5925 47.6117C68.5925 47.6117 68.8063 47.3985 69.1647 47.1073C69.5231 46.8161 69.9615 46.4565 70.5823 46.4565C71.6889 46.4565 72.2425 46.6216 72.8639 46.6216C73.4853 46.6024 73.8444 46.4565 73.8444 46.4565C73.8444 46.4565 74.4959 46.9121 75.9609 46.9121C77.4271 46.9313 78.4076 47.0574 79.1749 47.1253C79.9423 47.1931 82.5145 46.9121 83.2524 46.9333C83.7333 46.9514 84.2056 47.067 84.6405 47.2731L83.5628 44.1563L82.3109 41.7781L78.7378 37.8651C78.7378 37.8651 74.4498 35.3409 74.4172 35.3217C74.398 35.3025 72.9317 34.9141 72.9317 34.9141L69.0482 37.2635L65.5244 46.3803L65.4565 48.3003L67.7375 49.3781C68.3103 48.4181 68.942 47.6501 69.534 47.5528C68.9996 47.611 68.5919 47.611 68.5919 47.611V47.611L68.5925 47.6117Z" fill="#D5B457"/>
<path fill-rule="evenodd" clip-rule="evenodd" d="M68.5441 48.2619C68.2042 48.2811 67.9233 48.2132 67.8452 47.9707C67.554 47.1553 67.321 47.0388 67.0772 47.0388C66.8334 47.0388 66.5044 47.563 66.3092 47.611C66.114 47.659 65.8823 47.0094 65.8823 47.0094L65.6686 46.9121C65.6686 46.9121 64.4161 47.7275 63.5329 48.6887C62.6497 49.65 61.2026 51.2814 60.5524 51.5719C59.9022 51.8625 57.6686 51.9604 56.9044 52.1255C56.1402 52.2907 55.2929 52.8443 55.1764 52.9703C55.0599 53.0964 55.5169 53.2321 55.5847 53.3582C55.6526 53.4747 54.8366 53.426 54.7687 53.5502C54.7207 53.6475 54.9607 54.2004 55.0798 54.482C55.2881 54.3785 55.5166 54.3221 55.7492 54.3169C56.4967 54.2977 57.0407 54.7931 57.9335 54.7931C60.089 54.7931 62.0404 53.2103 63.4772 52.7246C64.5358 52.3655 65.4484 52.1031 66.089 51.5207C66.3994 51.259 66.953 50.6759 67.458 49.8119C67.8266 49.2199 68.1863 48.6663 68.546 48.2587V48.2587L68.5441 48.2619Z" fill="#D2B257"/>
<path fill-rule="evenodd" clip-rule="evenodd" d="M37.6319 96.3117C37.6319 96.3117 37.4399 95.593 35.6607 93.7389C35.1557 93.2148 34.8453 92.7789 34.5055 92.4672C33.6607 91.6704 33.1653 91.4573 32.5637 91.001C31.2434 90.0205 29.8066 90.0205 28.7001 88.8167C27.5935 87.6128 26.3039 85.3127 25.4079 82.962C24.5247 80.6125 24.2815 79.865 24.2815 79.7972C24.2815 79.7293 24.5247 79.273 24.8351 79.3408C25.1455 79.4087 25.1455 80.0103 25.2236 80.1562C25.3782 80.3944 25.5536 80.6184 25.7477 80.8256C26.2041 81.3504 26.8543 81.9776 27.1845 82.9133C27.1167 82.1172 26.8447 81.234 26.8447 81.234C26.8447 81.234 28.5535 82.3117 30.0095 83.4375C31.4757 84.5639 32.0773 84.9524 32.5055 85.6704C32.9337 86.3885 33.9423 88.2823 34.4255 88.8359C34.9087 89.3895 41.5295 91.4765 41.5295 91.4765L44.6789 93.8247L46.2425 97.2519L45.0188 99.1719L42.6693 99.6768L38.8537 97.968L37.6319 96.3111V96.3111V96.3117Z" fill="#D2B159"/>
<path fill-rule="evenodd" clip-rule="evenodd" d="M29.1553 84.5043C29.1553 84.5043 29.9514 85.776 31.8932 86.9798C33.641 88.0384 36.4078 88.9996 38.8743 89.5724C40.2913 89.9123 41.7089 90.174 42.9806 90.1939C46.4078 90.2419 48.7668 89.262 51.6897 88.9414C53.2724 88.7763 55.2142 88.6502 57.2334 88.1734C59.8254 87.552 61.3594 86.8524 63.4471 85.8694C64.9614 85.1705 66.3502 84.6464 67.4759 83.9763C69.0586 83.0444 70.2138 82.0057 71.554 81.6953C71.3889 82.1516 71.2142 82.967 69.8938 83.8118C70.5927 83.792 71.554 83.744 71.554 83.744C71.554 83.744 70.6222 84.2969 68.9812 85.5398C67.9713 86.3078 66.6318 87.6076 65.2628 88.4716C64.379 89.0252 63.4177 89.4316 62.7866 89.7632C61.2506 90.608 60.6311 91.0348 59.6218 92.0672C59.9809 92.048 60.0103 92.0672 60.0103 92.0672C60.0103 92.0672 58.738 92.2323 57.826 92.7174C57.634 92.7174 57.3012 92.6496 56.7188 92.8147C56.2625 92.96 55.6602 93.2908 55.0394 93.4649C54.1556 93.7273 53.865 93.6108 53.865 93.6108L54.0103 93.902C54.0103 93.902 52.8583 93.8822 52.4743 93.9212C52.5422 93.9404 52.523 93.9699 52.523 93.9699C52.4555 93.9812 52.3905 94.0041 52.331 94.0377C52.1462 94.1574 51.9429 94.2459 51.7294 94.2995C51.6129 94.3187 51.5156 94.3187 51.3697 94.3481C51.4183 94.4646 51.7972 95.1161 51.9719 95.5001C51.8266 95.5974 49.6417 97.248 49.6417 97.248C49.7094 97.3546 49.7648 97.4686 49.8068 97.5878C49.8746 97.8009 49.9041 98.112 49.9719 98.2572C50.1364 98.5484 50.2337 98.5971 50.2337 98.5971C50.2337 98.5971 49.9719 98.6457 49.515 98.7622C49.1271 98.8595 48.651 99.024 47.979 99.1212C47.7728 99.148 47.5654 99.1643 47.3575 99.1699C47.4548 99.3836 47.8817 100.199 47.0951 101.14C46.3086 102.082 46.066 102.219 45.8234 102.82C45.7013 102.728 45.5713 102.647 45.435 102.577C45.1732 102.461 44.8135 102.287 44.6874 102.053C44.6139 102.364 44.5166 102.669 44.3962 102.966C44.1537 103.616 43.7946 104.257 43.7268 104.742C43.4644 104.451 42.9793 103.878 42.3092 103.995C41.6391 104.111 41.1054 105.024 40.9889 105.286C40.9889 105.121 40.8724 104.995 40.8436 105.189C40.8238 105.403 40.4551 107.635 38.3969 109.441C38.3777 108.985 38.3777 107.975 38.329 107.645C38.137 107.837 37.9022 108.121 36.5038 108.723C35.1348 109.325 35.3518 109.927 35.3518 109.927C35.3518 109.927 35.2353 108.967 35.9732 107.956C36.7207 106.947 37.177 106.47 37.177 106.393C37.165 106.314 37.1313 106.24 37.0798 106.179C36.9825 106.082 36.7886 105.965 36.7886 105.888C36.905 105.84 38.0602 105.286 37.9924 104.14C37.9246 103.112 37.4881 102.577 37.177 102.199C37.129 102.15 37.634 101.791 37.5655 101.675C37.5169 101.607 36.8961 101.15 36.818 100.907C36.8363 100.762 36.8689 100.619 36.9153 100.48C36.9831 100.266 37.0318 100.12 37.0126 99.975C36.9639 99.7324 36.7015 99.0624 36.6241 98.9945C36.6919 99.0137 37.177 98.9945 37.177 98.9945C37.177 98.9945 36.7892 98.3731 36.7207 98.0819C36.6522 97.7907 36.507 97.0233 36.4295 96.878C36.5946 96.8972 37.0023 96.926 37.0023 96.878C37.0222 96.7321 36.6433 96.4896 36.8103 96.302C36.9268 96.3212 37.1502 96.4185 37.3633 96.6905C37.2468 96.3795 37.0529 95.7779 36.6446 95.5353C36.8366 95.4675 37.4894 95.2921 38.0622 95.632C38.635 95.9718 38.8302 96.4473 38.8302 96.4473C38.8302 96.4473 39.17 96.7097 39.6948 97.0982C40.2964 97.5737 41.0631 98.2502 42.2868 98.7289C42.5492 98.8748 43.2186 98.8748 43.7044 98.7776C43.9159 98.7272 44.1187 98.6454 44.306 98.535C44.3736 98.4951 44.4453 98.4625 44.5198 98.4377C44.4154 98.2282 44.2954 98.0269 44.1607 97.8355C44.3258 97.8355 44.5198 97.8553 44.5198 97.8553C44.5198 97.8553 44.6362 97.5929 44.1121 97.0873C44.2286 96.9708 44.3745 96.8953 44.3745 96.6988C44.2094 96.6796 43.9182 96.4371 43.8503 96.3398C43.947 96.272 44.0929 96.0486 44.258 95.9808C44.1121 95.8643 43.753 95.3785 43.5879 95.3305C43.7457 95.272 43.8983 95.2005 44.0442 95.1168C44.0442 95.1168 43.2289 94.903 42.9665 94.7283C42.7041 94.5363 42.3162 94.2041 42.0833 94.1068C41.8401 94.0096 41.4132 93.9616 41.2385 93.767C41.403 93.8156 41.6654 93.767 41.8599 93.767C42.0052 93.767 42.0737 93.7862 42.1217 93.7862C42.1025 93.7184 42.1025 93.5724 42.4814 93.5244C42.6636 93.497 42.8404 93.4413 43.0055 93.3593C43.0055 93.3593 42.6458 93.3401 42.2375 92.9516C41.8292 92.5632 41.49 92.2528 41.257 92.2041C41.0145 92.1555 40.5582 92.3692 40.2766 92.3494C39.8881 92.3014 39.723 92.1068 39.723 92.1068C39.723 92.1068 38.4321 92.2233 35.5681 90.4761C33.0919 88.9612 32.0142 87.6217 32.0142 87.6217C31.7824 87.5376 31.5584 87.4335 31.3447 87.3107C30.4129 86.8256 29.1214 85.8156 29.1604 84.4947V84.4947L29.1553 84.5043Z" fill="#C2A44D"/>
<path fill-rule="evenodd" clip-rule="evenodd" d="M64.8737 26.2336C65.0983 26.3066 65.2979 26.4412 65.4497 26.6221C65.906 27.1462 66.1972 28.1363 65.1585 29.1949C65.5662 29.3401 65.7345 29.3869 66.0903 29.3401C65.7313 29.7677 64.9159 30.6803 64.8673 31.4765C64.8187 32.1267 65.2263 32.3213 65.2263 32.3213C65.2263 32.3213 64.6049 33.0393 64.5761 34.2413C64.8696 33.9103 65.1907 33.605 65.5361 33.3286C66.2548 32.7558 67.2449 32.1056 67.915 31.6979C67.9059 31.8688 67.9289 32.0398 67.9828 32.2022C67.9828 32.2022 69.2347 31.1731 70.2868 31.6301C70.7623 31.8438 70.5486 32.5133 70.5486 32.5133C70.5486 32.5133 71.1995 32.2707 71.6558 32.727C72.1121 33.1833 72.7572 34.3603 73.0881 34.8166C73.2334 35.0304 73.6123 35.4381 74.0001 36.0691C74.53 36.9526 74.9724 37.8856 75.3211 38.855C75.3403 38.3501 75.4663 37.5641 76.9038 38.0589C78.3406 38.5638 79.9713 39.6224 81.3403 41.7069C82.7092 43.7913 83.0484 46.1446 83.7377 47.0406C84.4366 47.9046 85.1553 49.3414 85.2039 49.9437C85.2526 50.5459 84.9902 52.487 86.427 57.7395C86.8347 56.1088 87.4561 52.487 87.4561 52.487L87.7959 49.2928L88.1844 39.4093L77.8638 30.8352L69.7959 24.9805L64.5435 25.4854L64.8731 26.2329V26.2329L64.8737 26.2336Z" fill="#CAA13E"/>
<path fill-rule="evenodd" clip-rule="evenodd" d="M84.0487 40.9409C84.0487 40.9409 83.9028 39.9809 81.4759 38.3489C79.0484 36.7373 77.1553 36.7373 75.4081 35.3684C74.0679 34.2906 72.6702 31.8145 71.7601 30.9991C70.8762 30.1933 70.731 27.8631 70.731 27.8631L73.7114 25.3671L78.1441 18.9601L81.8913 14.834L83.6871 17.33L86.1831 20.2618L87.5713 26.1453L88.0762 34.7572L84.0442 40.9415L84.0487 40.9409Z" fill="#B59544"/>
<path fill-rule="evenodd" clip-rule="evenodd" d="M87.0489 51.2643C87.1224 49.9583 86.9611 48.6497 86.5728 47.4006C85.9328 45.4102 84.5344 41.8761 83.8848 40.5526C83.6224 39.0864 83.8169 38.9699 84.0985 38.8048C84.3801 38.6396 85.4387 38.0368 86.0185 35.9216C86.5984 33.8064 88.3974 33.7372 88.3974 33.7372L89.504 32.9219L91.184 37.1254L92.6496 40.9219L93.1059 43.8249L93.4457 46.3004L92.6496 51.5337L88.7181 55.087L87.0483 51.2643V51.2643H87.0489Z" fill="#C89D3A"/>
<path fill-rule="evenodd" clip-rule="evenodd" d="M32.1851 109.593V109.485C32.2668 109.434 32.3389 109.369 32.3982 109.293C32.466 109.196 32.5153 109.08 32.5633 109.051C32.6606 109.002 33.1169 108.859 33.3595 108.905C33.602 108.951 34.2433 109.215 34.5831 109.196C35.282 109.177 36.0974 108.642 37.3889 108.886C39.3307 109.245 39.787 110.565 40.9134 111.312C41.6814 111.837 42.4763 111.604 42.5927 111.604H42.8545C42.9031 111.604 43.2622 111.196 43.4567 111.216C43.8452 111.235 43.8836 111.556 44.1262 111.575C44.699 111.643 45.8062 111.284 46.3598 111.43C46.693 111.534 46.954 111.795 47.0587 112.128C47.1751 112.487 47.0779 112.943 46.7963 113.206C46.1947 113.759 45.6219 114.283 45.5054 114.742C45.6535 114.855 45.7958 114.975 45.9316 115.103C41.1279 113.879 36.5061 112.028 32.1851 109.599V109.593Z" fill="#CEB052"/>
<path fill-rule="evenodd" clip-rule="evenodd" d="M83.8835 90.1948C83.8835 90.1948 85.3978 88.1756 85.9226 87.1753C86.4467 86.1443 84.2624 73.0883 84.2624 73.0883L88.6509 58.71L88.5338 54.0303C88.5338 54.0303 88.7475 49.7097 89.2525 47.8358C89.8547 48.9135 91.7287 50.2147 92.1363 50.9039C92.3283 49.583 92.9805 46.7971 92.8839 43.8262C93.2429 44.3791 94.1069 49.9427 94.1069 49.9427L94.9709 53.6899L96.0973 57.6707L97.3498 61.8748L98.0973 64.7779L98.5242 65.4767L98.8839 66.6998L99.2237 68.0207L100.204 71.1177L100.78 73.6611L101.237 78.2729C101.336 78.626 101.407 78.9864 101.45 79.3507C101.469 79.8556 101.382 80.1468 101.382 80.2345C101.382 80.3222 101.548 81.3411 101.48 82.1084C101.382 82.8764 101.382 83.4774 100.78 84.0284C100.178 84.5795 99.7997 87.8729 99.7997 87.8729L98.7219 87.1548C98.7219 87.1548 98.9357 86.1737 98.4307 85.2809C97.9258 84.3881 96.9453 84.2031 96.3917 84.3491C95.8387 84.4655 94.7322 84.6396 94.3725 84.9507C94.0327 85.2611 93.1981 86.2223 92.4307 86.6595C91.4707 87.2355 89.9066 87.2809 89.072 87.4748C88.2272 87.6668 87.2954 88.2428 86.3143 88.9116C85.545 89.4097 84.7328 89.838 83.8874 90.1916V90.1916L83.8835 90.1948Z" fill="#CCA847"/>
<path fill-rule="evenodd" clip-rule="evenodd" d="M83.8835 111.408C83.8835 111.408 83.9475 111.45 84.0711 111.518C90.9687 108.286 97.149 103.705 102.247 98.0458C102.191 96.081 102.119 94.0669 102.04 93.3207C101.875 91.7379 101.992 90.1264 101.943 89.1946C101.894 88.2627 101.37 84.4663 101.128 83.4858C100.865 82.5053 100.36 82.0195 100.283 82.0195C100.215 82.0394 99.8067 83.8647 99.8067 84.3235C99.8067 84.7824 99.7095 85.8871 99.7095 86.1687C99.6416 86.1488 99.6128 85.9767 99.6128 85.9063C99.5155 86.1488 99.3991 86.5763 99.3504 86.625C99.3018 86.6736 99.4183 86.2173 99.3504 86.12C99.2826 86.0227 99.1584 86.0714 99.1853 85.8288C99.1968 85.685 99.2195 85.5422 99.2531 85.4019C99.2531 85.4019 98.9619 85.8288 98.7488 86.9162C98.5351 87.9939 98.5351 88.0234 98.4576 88.12C98.3898 88.2371 98.0013 88.625 97.9815 88.7709C97.9623 89.0327 98.3411 89.2951 98.3699 89.4403C98.3891 89.6835 98.0301 90.8093 97.9136 91.3603C97.7971 91.9114 97.8458 92.9911 97.7216 93.5447C97.6243 94.0496 97.5296 94.3408 97.1975 94.5539C97.44 94.6026 97.673 94.6704 97.673 94.6704C97.673 94.6704 98.0128 96.1072 97.1488 97.3309C96.8384 97.7578 96.761 97.9523 96.4307 98.3408C95.7799 99.0589 95.2749 99.8768 95.2263 100.409C95.1927 100.252 95.17 100.093 95.1584 99.9325C95.1584 99.9325 94.1491 101.108 93.7216 101.778C93.1687 102.642 92.4013 102.593 92.1856 102.807C91.9699 103.02 91.9232 103.408 91.9936 103.719C91.8016 103.767 91.4407 103.836 91.1975 104.583C91.081 104.971 90.7898 105.351 90.3335 105.612C89.8771 105.874 89.3235 105.952 89.0419 106.02C89.2845 106.088 89.3818 106.088 89.4983 106.165C89.353 106.408 88.6829 106.787 87.9354 107.273C87.1879 107.729 86.8282 108.398 86.6439 108.836C86.4519 109.243 86.1683 109.506 85.712 109.554C85.904 109.671 86.1882 109.942 86.3335 110.03C86.1197 110.078 85.7575 110.078 85.1104 110.632C84.4307 111.195 84.1978 111.36 83.8867 111.409V111.409L83.8835 111.408Z" fill="#C39D3C"/>
<path fill-rule="evenodd" clip-rule="evenodd" d="M70.3743 115.908C70.7461 115.647 71.1487 115.434 71.573 115.272C73.0873 114.67 74.6892 114.554 75.3202 114.36C75.9225 114.168 76.398 113.903 77.1455 113.758C77.1257 113.928 77.109 114.088 77.0911 114.239C74.8873 114.932 72.6431 115.489 70.3711 115.908H70.3743Z" fill="#D2BA6B"/>
<path fill-rule="evenodd" clip-rule="evenodd" d="M98.304 76.078C98.304 76.078 97.9936 77.7574 97.44 78.816C96.8864 79.8745 96.288 81.3401 96.288 81.3401C96.2917 81.0099 96.3307 80.6809 96.4045 80.359C95.7056 80.7667 94.0064 81.7478 93.5245 82.1843C93.0682 82.592 92.3008 83.3107 92.1069 83.6505C92.5632 82.311 93.0388 81.1072 93.1168 80.5536C92.418 81.0585 89.1552 83.7478 87.4567 85.5244L82.1652 89.806C81.5545 90.1355 80.9257 90.4299 80.2816 90.688C79.3696 91.0758 78.2919 91.406 77.4957 91.7171C77.7095 91.1443 78.0487 90.6387 78.5248 90.1536C79.0298 89.678 80.544 88.0371 80.777 87.2736C80.9908 86.4774 81.0394 86.0019 80.7578 85.3318C80.4954 85.3996 79.8938 85.4291 79.4861 85.5456C79.0784 85.662 78.6413 86.0985 78.6413 86.0985C78.6413 86.0985 78.9517 84.3219 79.6218 82.6425C79.1168 82.6617 78.2528 82.807 78.2528 82.807C78.2528 82.807 79.4567 80.7878 81.5168 79.3804C80.8859 79.5147 80.2685 79.7062 79.6724 79.9526C78.4685 80.4576 77.1482 81.2051 76.1677 81.6128C76.7207 80.8448 80.6042 75.3024 82.9152 70.1369C85.2192 64.9817 86.08 63.6614 86.585 60.8947C86.8468 59.5257 86.777 57.5027 86.8468 55.6908C86.9146 53.8944 87.138 52.2828 86.9927 51.2051C87.5943 51.9526 89.8471 54.0595 89.9245 58.7686C89.9924 63.4771 87.7696 69.8368 85.41 73.2633C85.986 73.4284 87.4784 73.623 89.0119 70.9593C90.5453 68.2956 90.5268 67.552 91.0804 66.4448C91.1482 66.9984 91.1284 67.1923 91.1284 67.1923C91.1284 67.1923 93.362 64.4838 94.4199 61.0758C94.6336 62.542 95.2647 63.8336 94.274 66.5228C93.3908 68.9497 92.2356 69.5424 92.2356 69.5424C92.2356 69.5424 92.8084 69.4451 93.6525 68.9401C93.7984 69.2992 93.7696 69.7081 94.0122 69.8528C94.2548 69.9974 94.585 70.2412 94.6336 70.4742C94.8954 70.0857 95.3031 69.5904 95.4298 69.2217C95.3325 69.9897 95.2647 73.3478 95.6218 75.0566C96.37 74.9888 97.1367 74.9401 97.6608 73.5904C97.3018 74.9113 97.3018 75.7068 97.5444 76.8332C97.9424 76.5619 98.3015 76.0761 98.3015 76.0761V76.0761L98.304 76.078Z" fill="#C0993A"/>
<path fill-rule="evenodd" clip-rule="evenodd" d="M73.0778 22.5637C73.0778 22.5637 72.3303 22.8741 71.0586 22.8741C69.952 22.8741 70.2624 22.4473 68.5344 22.4473C65.8746 22.4473 56.5831 23.9833 54.9517 23.9615C53.8932 23.9423 58.5242 24.4178 58.5242 24.4178L70.3597 24.5829L72.738 24.3909L73.6218 22.5925L73.0778 22.5637Z" fill="#A88F33"/>
<path fill-rule="evenodd" clip-rule="evenodd" d="M42.3885 45.7001C42.3885 45.7001 40.8736 46.8553 40.233 47.7391C39.5923 48.623 39.2525 49.2047 38.5242 49.9235C38.6951 49.93 38.8659 49.907 39.0291 49.8556C39.0291 49.8556 39.0291 50.0476 38.9126 50.0982C39.1165 50.0754 39.3198 50.1459 39.4656 50.2902C39.2518 50.4067 38.6694 50.9897 39.1258 51.679C39.4656 52.2031 40.1843 52.2511 40.1843 52.2511C40.1843 52.2511 40.0192 52.7273 40.7085 52.6787C42.1939 52.6108 43.8541 51.9599 44.6208 52.1251C45.3888 52.3171 45.8253 52.3875 46.3686 53.3295C46.9446 54.2614 47.4464 54.4073 47.4464 54.4073C47.4464 54.4073 47.7862 53.5427 47.7088 52.2518C47.9875 51.556 48.1419 50.8166 48.1651 50.0675L47.6602 46.3491L45.4566 43.5625L42.6023 45.1452L42.3885 45.6982V45.7001Z" fill="#E3C571"/>
<path fill-rule="evenodd" clip-rule="evenodd" d="M45.0969 45.145C45.0969 45.145 45.3107 45.6499 46.2041 45.6979C46.1068 45.9117 46.1068 45.9411 46.1363 46.1056C46.1555 46.2707 46.1843 46.5133 46.1843 46.5133C46.2826 46.4657 46.3716 46.4006 46.4467 46.3213C46.4953 46.5351 46.398 46.8743 46.4467 47.1175C46.4767 47.2654 46.5255 47.4088 46.592 47.5443C46.6061 47.5111 46.6224 47.4789 46.6406 47.4477C46.6598 47.3991 46.8326 47.9719 47.3107 48.4077C47.3103 48.3407 47.3268 48.2746 47.3587 48.2157C47.366 48.3374 47.4063 48.4549 47.4752 48.5555C47.4394 48.5385 47.4067 48.5156 47.3785 48.4877C47.3785 48.4877 47.4265 50.0237 47.6889 50.8179C47.7328 50.7666 47.7718 50.7113 47.8054 50.6528C47.8054 50.6048 47.7862 51.0803 47.7376 51.4208C47.6697 51.7607 47.7184 52.2362 47.7184 52.2362C47.8934 52.0984 48.0858 51.9841 48.2905 51.8963C48.5817 51.7792 49.0585 51.4202 49.3491 50.624C49.5176 50.1731 49.6476 49.7087 49.7376 49.2359C49.8314 49.4166 49.8962 49.611 49.9296 49.8119C49.9494 50.0544 50.4057 49.9283 50.4057 49.9283L50.503 48.8698L51.079 46.4717L51.6032 44.9863L54.1273 41.0547L58.688 37.5424L62.6688 38.4551L66.0275 33.8919L60.2412 30.416L54.7654 30.9888L49.7958 37.872L45.8156 44.1152L45.0969 45.1443V45.1443L45.0969 45.145Z" fill="#D8B65B"/>
<path fill-rule="evenodd" clip-rule="evenodd" d="M73.7765 35.1844C73.7765 35.1844 73.4367 35.2523 72.4562 35.7604C71.4757 36.2686 70.7961 36.4299 70.4172 37.1774C70.0383 37.9249 70.0095 38.5176 70.0095 38.5176C70.0095 38.5176 70.6796 38.2264 71.0681 38.1291C71.4757 38.0324 71.9321 38.0612 71.8834 38.2264C71.8367 38.3396 71.7719 38.4444 71.6914 38.5368C71.6914 38.5368 72.4594 38.5176 72.4389 38.8964C72.4185 39.2753 72.2937 39.6926 72.1484 39.8769C72.0025 40.0689 71.4009 40.3531 71.333 40.5764C71.1679 41.0328 71.4009 41.052 71.3132 41.4206C71.2453 41.7803 70.9253 42.4792 69.8764 43.7022C68.7986 44.9259 68.3404 45.7899 68.3404 45.7899C68.3404 45.7899 67.8162 44.8094 67.5442 43.9646C67.3522 44.0612 66.3212 44.634 66.3212 44.634L63.9327 36.314L63.9807 35.7604C63.9807 35.7604 64.1945 35.4987 64.2431 35.0129C63.8841 34.8964 63.8354 34.7992 63.3593 34.3435C62.8831 33.8878 62.4953 33.3336 61.6997 32.9547C61.5833 32.7409 61.4373 32.4504 60.8549 32.3332C60.2725 32.2161 59.9231 32.1201 59.9231 32.1201C59.9231 32.1201 60.2335 32.003 60.3794 31.7604C60.0197 31.8091 59.7292 31.9256 58.9426 31.9064C58.1465 31.8865 58.0588 31.8577 57.6223 31.9256C57.1858 31.9934 56.6623 32.188 56.4671 31.5179C56.2533 31.3528 55.797 31.4987 55.4085 32.0708C55.0201 32.643 54.8844 33.1 54.1369 33.3233C54.0843 33.6528 53.9689 33.9692 53.797 34.2552C53.5833 34.6148 53.2434 34.9739 52.7871 35.5076C52.0684 36.3524 52.1849 37.7406 51.0393 38.7992C49.8841 39.8571 51.2313 35.8667 51.2313 35.8667L53.0757 31.4507L58.3282 26.3147L66.4837 25.7617L67.2799 29.9857L71.2607 31.3547L73.7753 35.1896V35.1896L73.7765 35.1844Z" fill="#D3AE4D"/>
<path fill-rule="evenodd" clip-rule="evenodd" d="M75.0681 36.1165L71.6409 31.1751L69.2428 29.33C69.2428 29.33 67.534 26.185 67.4175 26.0877C67.3202 26.0199 65.7087 25.8452 64.6796 25.7773L64.8716 26.2529C65.0962 26.3258 65.2958 26.4604 65.4476 26.6413C65.9039 27.1655 66.1951 28.1556 65.1564 29.2141C65.5641 29.3594 65.7324 29.4061 66.0882 29.3594C65.7292 29.7869 64.9138 30.6996 64.8652 31.4957C64.8165 32.146 65.2242 32.3399 65.2242 32.3399C65.2242 32.3399 64.6028 33.0586 64.574 34.2599C64.8674 33.929 65.1886 33.6236 65.534 33.3473C66.2527 32.7713 67.2428 32.1236 67.9129 31.7159C67.9037 31.887 67.9267 32.0583 67.9807 32.2209C67.9807 32.2209 69.2325 31.1917 70.2847 31.6481C70.7602 31.8618 70.5465 32.5319 70.5465 32.5319C70.5465 32.5319 71.1973 32.2893 71.6537 32.7457C72.11 33.202 72.7602 34.3764 73.0905 34.8333C73.2357 35.0471 73.6146 35.4548 74.0025 36.0852C74.5324 36.9688 74.9748 37.9021 75.3234 38.8717C75.3426 38.4833 75.4207 37.9399 76.0914 37.9399L75.0719 36.1146L75.0681 36.1165Z" fill="#CAA13E"/>
<path fill-rule="evenodd" clip-rule="evenodd" d="M23.6896 50.1562C23.6896 50.1562 23.447 49.5539 23.6896 48.3795C23.9322 47.2051 24.311 46.6515 24.4371 44.9235C24.5632 43.1955 25.6896 41.04 25.6896 41.04L28.8058 39.623L31.0099 40.2246L31.6602 43.1763L28.8736 44.7123C28.8736 44.7123 28.7283 45.3626 27.9418 45.8867C27.1552 46.4109 26.0678 46.8186 25.8061 47.353C25.6496 47.6802 25.5354 48.026 25.4662 48.3821C25.4662 48.3821 24.6701 48.217 24.1946 48.7411C23.6896 49.2755 23.7088 49.751 23.6896 50.1587V50.1562Z" fill="#F4EFC8"/>
<path fill-rule="evenodd" clip-rule="evenodd" d="M29.9808 49.3693C29.9808 49.3693 29.7184 49.5344 29.5245 49.9453C29.3325 49.6349 28.8736 47.7898 28.8544 46.1296C28.8352 44.4695 28.736 44.058 29.12 43.4858C29.504 42.9136 31.0099 42.3108 30.7962 41.2804C30.5824 40.2999 29.689 39.8922 28.592 40.1738C27.824 40.3658 27.2525 41.9991 26.4563 42.8144C25.8541 43.4359 25.136 43.3386 24.9421 43.6784C24.6797 44.1348 24.9223 44.5911 24.8448 44.8823C24.825 44.9796 24.5824 45.5037 24.1453 46.1348C23.2621 47.4064 21.7671 49.2029 21.5725 50.8144C21.6403 49.9018 21.5923 49.8826 21.8349 48.8727L21.689 48.6301L22.649 45.4845L23.2704 42.8925L24.6592 38.552L27.1053 34.1156L29.4842 31.4551L31.9597 31.6202L32.2509 35.3386L33.6685 42.3197L36.649 45.9895L31.872 49.2042L29.9789 49.3693V49.3693H29.9808Z" fill="#EBCC73"/>
<path fill-rule="evenodd" clip-rule="evenodd" d="M31.4662 50.6877C31.4662 50.6877 31.0585 50.785 30.9126 50.7075C30.7667 50.6301 30.622 50.5424 30.67 50.4451C30.718 50.3479 30.9804 50.1834 30.9804 50.1053C30.9916 49.9586 30.8842 49.8296 30.7379 49.8141C30.5145 49.7853 30.4467 49.9306 30.4467 49.9306C30.4467 49.9306 30.2329 49.7661 30.0588 49.7386C30.1618 49.726 30.2655 49.7193 30.3692 49.7187C30.1009 49.5972 29.8163 49.5155 29.5244 49.4762C29.767 49.3309 30.2431 48.9034 30.5535 48.9034C30.8639 48.9034 31.0585 48.8554 31.0099 48.6903C30.9612 48.5251 30.7187 48.2826 30.4569 48.1853C30.5535 48.0688 30.622 47.8941 30.3891 47.4173C30.1459 46.9418 30.2431 46.6211 30.3212 46.5053C30.3891 46.3594 30.6316 46.0976 30.7481 45.9325C30.8646 45.7674 30.9619 45.544 31.1558 45.4275C31.2531 45.3597 31.5635 45.2355 31.8745 45.1171C32.2143 45.0007 32.4959 44.8547 32.6899 45.0007C32.9036 45.1459 32.8063 45.3405 32.8063 45.3405C32.8063 45.3405 33.4764 45.0973 34.078 45.4083C34.6803 45.6989 36.1465 45.8839 36.1465 45.8839L36.6719 46.9424L33.1961 49.9229L31.7593 50.6416L31.4681 50.6896V50.6896L31.4662 50.6877Z" fill="#E5C66B"/>
<path fill-rule="evenodd" clip-rule="evenodd" d="M36.2913 45.816C36.2913 45.816 35.2135 46.5348 34.971 46.7965C35.1162 46.8164 35.3588 46.9136 35.2615 47.0589C35.145 47.2042 34.4462 47.7092 34.0577 48.1853C33.65 48.6608 33.2615 49.2631 33.1258 49.5543C32.9806 49.816 31.8734 50.5834 31.4951 50.68C32.2913 50.68 33.8932 49.6996 34.4948 49.6996C34.4756 49.9908 34.6599 50.321 34.9998 50.3498C35.3396 50.3786 36.3201 50.5636 37.6404 49.7482C38.9607 48.952 38.5242 48.3594 39.0772 47.9716C40.1358 47.272 40.5626 46.6506 41.145 46.2628C41.7274 45.8749 42.0289 45.7866 42.0289 45.7866C42.0289 45.7866 42.0481 45.4954 42.2209 45.5248C42.3173 45.5359 42.3996 45.5995 42.4346 45.69C42.4346 45.69 43.4446 44.9712 44.7386 44.7773C44.7084 44.7638 44.6843 44.7397 44.6708 44.7095C44.6708 44.7095 44.7674 44.6608 44.7873 44.6122C44.7873 44.6122 44.8551 44.5149 44.9038 44.5636C44.9524 44.6122 45.0202 44.9712 45.1175 45.1172C45.3313 45.0199 45.739 44.1072 45.739 44.1072L46.7201 41.3015V38.7383L45.9521 38.8842L40.1921 41.3303L36.6964 44.952L36.2887 45.816H36.2913Z" fill="#E6BD62"/>
<path fill-rule="evenodd" clip-rule="evenodd" d="M52.8735 33.2431C53.1851 33.1675 53.4838 33.0463 53.7599 32.8834C53.6434 33.1944 53.6434 33.5343 53.1385 34.2722C52.6335 35.0101 52.6143 35.117 52.2066 35.8837C51.7989 36.6799 51.7503 37.8255 51.3618 38.3298C51.5359 38.2452 51.7227 38.1896 51.9148 38.1653C51.9148 38.1653 51.5269 38.5051 51.3618 38.8642C51.1967 39.2232 50.9055 39.9707 50.1874 40.4277C49.4693 40.8847 48.5561 41.1752 47.5756 42.253C46.5945 43.3109 45.5852 44.6511 45.0796 45.133C45.342 44.6767 45.701 43.764 45.7983 43.1624C45.8956 42.5608 45.7785 41.8415 45.9436 41.0459C46.1087 40.2504 46.1087 39.677 46.9036 38.2882C47.6985 36.8994 49.0591 32.0744 49.0591 32.0744L51.9909 31.1426L52.8748 33.2399V33.2399L52.8735 33.2431Z" fill="#B6933F"/>
<path fill-rule="evenodd" clip-rule="evenodd" d="M50.7572 31.466C50.7572 31.466 49.874 32.7377 49.6314 33.8641C49.3889 34.9905 49.6116 34.8932 49.4663 35.4468C49.3794 35.7844 49.3794 36.1384 49.4663 36.4759C49.7722 35.9832 50.191 35.5703 50.6881 35.2715C51.5233 34.7671 52.2029 34.4075 52.6081 33.9806C53.0157 33.5243 53.3556 32.7767 54.2388 32.2039C53.8797 32.1553 53.3748 31.9902 53.2788 32.0119C53.6385 31.6043 54.7156 30.9828 55.8029 30.2353C56.8807 29.4673 56.8129 29.1575 58.5607 28.3908C57.9879 28.4881 57.7159 28.3422 57.2397 28.3908C57.4317 27.9831 58.1037 27.7886 58.7757 27.1191C59.4477 26.4497 58.3489 25.459 58.3489 25.459L53.2289 28.5559L50.7533 31.4686L50.7572 31.466Z" fill="#C49937"/>
<path fill-rule="evenodd" clip-rule="evenodd" d="M36.864 29.1557L36.9805 28.2239L38.4467 25.8745L39.9808 21.7484V16.1074L39.8643 12.8453L40.1069 10.709L40.2912 10.03L40.4858 9.76758L41.7376 10.4178L43.4663 12.7673L43.6314 17.3017L41.9514 24.4569L37.1552 29.6901L36.864 29.1557V29.1557Z" fill="#DFC068"/>
<path fill-rule="evenodd" clip-rule="evenodd" d="M40.6796 9.50453C40.6796 9.50453 39.9116 9.52437 39.7478 12.7186C39.5839 15.9129 39.5046 17.5922 39.3881 19.1749C39.2716 20.7577 39.0002 21.7183 38.8639 22.6508C38.7276 23.5833 38.6502 24.8543 38.2137 25.6313C38.0217 25.9903 37.6114 27.1167 36.6502 27.9615C35.5724 28.8933 33.9622 29.5442 33.7183 29.5929C33.2908 29.6895 31.1257 29.9033 30.2425 30.389C29.9321 30.5541 29.3977 30.7481 28.8057 31.3017C27.6306 32.3596 26.0678 34.2527 24.9414 36.5343C23.2134 39.9423 21.4854 49.5634 21.4854 49.5634L21.8738 48.9132C21.8738 48.9132 21.9225 48.0492 22.7865 46.5343C23.6313 45.0201 23.3887 43.3209 24.5631 40.4178C25.0194 39.3113 25.5922 37.8745 26.2911 36.6508C27.3983 34.6604 28.7378 32.9516 30.0876 32.0197C32.2911 30.5055 34.7186 30.1753 34.7186 30.1753L37.3305 28.4473C37.3305 28.4473 37.7868 27.5641 38.389 26.5541C39.2332 25.1372 40.309 23.5545 40.5439 21.2537C40.9036 17.8457 40.039 15.6127 40.0876 13.5935C40.1362 11.5743 40.1554 10.0889 40.5638 9.72917C40.9721 9.36949 40.6802 9.50581 40.6802 9.50581V9.50581L40.6796 9.50453Z" fill="#A88F33"/>
<path fill-rule="evenodd" clip-rule="evenodd" d="M40.6797 24.7473C40.6797 24.7473 41.8317 21.9121 42.3591 19.3975C42.4564 18.8926 42.6503 18.3882 42.6989 17.9806C42.9415 15.6017 43.0093 14.6212 42.6989 13.3201C42.4564 12.3601 41.5245 11.4948 41.0388 10.8241C40.5633 10.1246 40.3399 9.86408 40.4372 9.71688C40.5345 9.56968 40.9127 9.32904 41.2813 9.35784C42.0732 9.38088 42.821 9.72792 43.3498 10.3178C44.0973 11.1818 44.6893 14.1143 44.6893 14.1143L45.3121 17.9838L46.8948 22.8574L40.681 24.7511V24.7511L40.6797 24.7473Z" fill="#C99E3D"/>
<path fill-rule="evenodd" clip-rule="evenodd" d="M51.5047 21.7956C51.5047 21.7956 51.291 21.8922 50.9031 21.7956C50.9368 22.1187 50.7868 22.4335 50.5146 22.6109C50.107 22.4458 46.2906 22.776 46.2906 22.776C46.2906 22.776 44.514 22.465 43.9604 20.1156C43.5726 18.552 44.2516 16.3972 44.0282 14.9796C43.6884 12.8919 43.2129 12.4836 43.1642 11.834C43.1156 11.1844 43.067 11.0186 43.067 10.6109C42.8532 10.5623 42.7271 10.4944 42.514 10.4944C42.4654 10.3024 42.562 10.1348 42.3489 9.79492C42.4654 9.84356 43.2615 9.94084 44.1934 10.824C44.9614 11.5428 44.9614 11.8045 45.0772 11.9504C45.2225 12.0957 46.3975 13.1024 46.9025 14.106C47.4074 15.1095 48.3879 18.3095 48.6113 18.8336C48.6791 19.0474 48.825 19.2612 49.1873 19.7463C49.7505 20.4458 50.5754 21.6023 51.5073 21.7943V21.7943L51.5047 21.7956Z" fill="#B58634"/>
<path fill-rule="evenodd" clip-rule="evenodd" d="M45.2141 12C45.8023 12.9501 46.3306 13.9359 46.7962 14.9517C47.369 16.2426 47.7088 17.3011 48.4276 18.1651C48.0391 17.0394 47.3498 14.8256 46.9421 14.039C46.4858 13.207 45.554 12.311 45.2141 12.0006V12.0006V12Z" fill="#A88F33"/>
<path fill-rule="evenodd" clip-rule="evenodd" d="M38.6119 27.9616C38.6119 27.9616 37.6315 28.2041 35.8062 29.1654C35.2039 29.4758 34.6318 29.7376 34.0782 29.9808C32.6401 30.631 31.0977 31.232 29.874 31.5635C29.9713 31.68 30.0193 31.728 30.0193 31.728C30.0193 31.728 30.0193 32.2041 30.2817 32.4755C30.1364 32.6214 28.194 33.9417 28.7675 38.359C29.1553 38.2137 29.6116 38.0192 29.6795 38.0192C29.7966 38.039 29.8254 38.359 29.9707 38.359C30.1159 38.359 30.5921 38.167 31.0971 37.5142C31.0779 37.7766 30.7867 40.4173 32.3495 42.1939C32.6407 41.8541 33.3787 40.7277 33.3787 40.7277L33.3979 40.3686C33.3979 40.3686 33.4657 39.1161 33.874 37.9705C34.2823 36.8249 35.0779 35.9801 35.0779 35.9801L39.2321 30.048L38.6107 27.9609V27.9609L38.6119 27.9616Z" fill="#E6C367"/>
<path fill-rule="evenodd" clip-rule="evenodd" d="M34.7282 36.6727C34.538 36.8071 34.3285 36.9118 34.1068 36.9831C34.0389 36.7405 33.9417 35.9053 34.5145 35.09C35.1845 34.1089 36.6501 32.8372 37.0578 31.826C37.3202 31.1751 37.2037 29.5444 39.534 27.4567C41.8642 25.369 42.7762 24.6509 42.7762 24.6509L46.5433 22.7578L51.1743 24.5831L48.8735 33.6007L47.0873 37.8247L39.9833 36.4852L34.7276 36.6727V36.6727H34.7282Z" fill="#DCBA5A"/>
<path fill-rule="evenodd" clip-rule="evenodd" d="M37.4399 34.2232L38.3238 33.1166V32.33C38.3238 32.33 39.3043 32.0676 40.3622 30.9899C41.4201 29.9121 42.8863 27.8443 44.1779 27.9704C45.4694 28.1163 45.5955 30.7761 45.6441 31.5243C45.6927 32.2724 45.8579 33.9704 46.1196 34.8836C46.4108 35.7963 42.974 39.2523 42.974 39.2523L40.6399 41.0289L37.4399 34.2232V34.2232Z" fill="#E9CE77"/>
<path fill-rule="evenodd" clip-rule="evenodd" d="M40.1748 43.4375C40.1748 43.4375 40.8935 42.3111 40.3668 42.0686C40.6772 41.3697 41.25 40.6318 41.25 40.6318C41.25 40.6318 41.6577 39.6225 42.978 38.3796C44.2983 37.1367 45.1143 36.3111 45.3281 35.4766C45.4599 34.9327 45.5315 34.3759 45.5418 33.8164C45.6846 33.933 45.8373 34.0369 45.9982 34.1268C46.2119 34.2241 47.2212 35.0586 47.0759 36.7386C46.9306 38.4186 46.3079 39.1175 46.3079 39.1175C46.3079 39.1175 45.7063 39.7191 45.2794 40.0302C44.8225 40.3406 44.658 40.6996 43.8906 40.729C43.9695 40.6663 44.0582 40.617 44.153 40.5831C44.153 40.5831 43.3569 40.4865 42.9294 40.8743C42.5018 41.2622 41.593 42.457 41.1367 42.8167C40.6804 43.1079 40.1767 43.4382 40.1767 43.4382V43.4382L40.1748 43.4375Z" fill="#CDAE50"/>
<path fill-rule="evenodd" clip-rule="evenodd" d="M72.4563 24.5529C71.3093 24.1349 70.1039 23.8991 68.8839 23.8541C66.8448 23.7862 63.8643 23.9027 60.9421 23.9219C57.7965 23.9411 54.9421 22.8441 50.9811 22.6502C50.3309 22.2617 48.6771 20.5626 43.5149 24.1645C43.8253 24.1453 47.2627 23.3683 48.4563 24.864C49.6602 26.3494 49.3203 28.8736 49.1559 29.4752C48.8448 30.8154 47.8349 32.7667 47.4279 34.1357C47.0208 35.5046 47.1168 36.224 46.8256 37.184C46.5344 38.144 45.8938 38.6208 46.272 39.7274C46.777 39.417 47.04 39.417 47.8835 37.5238C48.7271 35.6307 48.5536 34.281 49.952 32.679C51.321 31.0675 53.6 28.8634 54.4666 28.3098C55.3331 27.7562 62.2138 24.1837 69.4183 27.5917C71.1559 27.4074 72.457 24.5523 72.457 24.5523V24.5523L72.4563 24.5529Z" fill="#D2A83E"/>
<path fill-rule="evenodd" clip-rule="evenodd" d="M46.4173 23.2311C46.4101 23.1582 46.394 23.0864 46.3693 23.0174C46.3019 22.8754 46.2134 22.7444 46.1069 22.6289C46.1069 22.6289 44.3981 22.3185 43.5341 22.4151C42.0192 22.5803 40.6502 24.4542 40.0096 25.4155C39.3689 26.3767 38.5728 27.8615 37.7088 28.6289C37.7182 28.5541 37.701 28.4784 37.6601 28.4151C37.6601 28.4151 37.7088 28.483 37.6121 28.5803C37.5155 28.6775 37.5149 28.7255 37.5635 28.7723L37.7094 28.9175C37.7574 28.9175 39.0976 28.3153 40.9229 26.6135C42.8646 24.8369 44.3501 23.9255 45.127 23.6132C45.5414 23.4371 45.9745 23.3089 46.4179 23.2311V23.2311H46.4173Z" fill="#C29637"/>
<path fill-rule="evenodd" clip-rule="evenodd" d="M79.5635 15.9316C79.5635 15.9316 79.2524 16.3195 78.864 16.747C78 17.6596 76.8736 18.6881 75.9123 19.7467C75.0003 20.7566 73.9712 21.5432 72.8153 22.8635C71.6595 24.1838 70.3193 25.6494 69.9801 26.0769C69.6697 26.5044 69.4272 27.2033 69.4272 27.5624C69.262 27.4459 69.0681 27.3198 69.0681 27.3198C69.1498 27.4722 69.2474 27.6155 69.3593 27.7473C69.6019 28.0872 69.9801 28.5153 70.1747 28.7764C70.4134 29.1089 70.5847 29.4848 70.679 29.883C70.7955 29.9022 71.543 30.0481 72.4755 28.514C73.408 26.98 74.6304 25.3006 74.6304 25.3006L76.5721 22.4168L77.7958 19.9707L79.3318 17.2328L79.5654 15.9316V15.9316H79.5635Z" fill="#AC8132"/>
<path fill-rule="evenodd" clip-rule="evenodd" d="M81.5538 13.9707C81.5538 13.9707 80.3788 14.9307 79.9225 15.5067C79.4662 16.0827 78.3865 17.5944 78.3865 17.5944L78.775 17.5457L80.7462 15.7985L81.5142 14.4296L81.5532 13.9733L81.5538 13.9707Z" fill="#A88F33"/>
<path fill-rule="evenodd" clip-rule="evenodd" d="M81.1943 91.1262C81.1943 91.1262 81.1751 90.33 81.6218 89.8545C82.0782 89.3784 83.2334 88.6795 84.3598 86.058C85.4862 83.4366 85.6116 82.8446 85.6116 82.8446C85.6116 82.8446 83.5924 84.5726 82.3476 84.9803C82.6388 84.378 82.8039 83.9512 82.9498 83.6401C82.7847 83.4948 82.0858 83.3297 82.018 83.2523C82.4058 82.8638 82.6196 81.9121 83.4062 81.2811C84.4161 80.5131 86.2606 79.1934 87.6942 78.0171C89.1278 76.8408 91.9463 74.1048 92.306 73.3086C92.5198 73.619 92.5678 73.8129 92.5678 73.8129C92.5678 73.8129 91.1508 75.658 90.4129 76.8324C89.762 77.8424 89.8106 78.4152 89.8106 78.4152L91.1508 77.8392C91.1508 77.8392 91.5386 79.276 89.7818 81.4609C90.5498 81.1697 90.8596 81.3444 91.2961 81.1012C90.5774 81.5582 89.5873 82.1796 88.6554 83.8878C87.7428 85.5966 86.4999 87.587 84.4033 88.8292C82.3642 90.14 81.1892 91.1204 81.1892 91.1204V91.1204L81.1943 91.1262Z" fill="#A67A2E"/>
<path fill-rule="evenodd" clip-rule="evenodd" d="M75.9322 25.5638C75.9322 25.5638 75.136 27.2233 75.0195 28.5148C75.0003 28.8259 74.9222 29.0684 74.9222 29.4275C74.903 30.5827 74.9901 31.8742 74.7302 32.4758C74.633 32.2332 74.5843 32.0681 74.487 31.9715C74.3418 32.3791 74.0794 33.6508 73.8656 34.1263C73.769 33.8159 73.5552 32.7382 73.575 31.4665C73.5949 30.1948 73.623 29.9516 73.623 29.6899C73.575 30.0777 73.3126 30.6025 73.2154 30.9129C73.0701 30.6511 72.905 30.3113 72.7104 30.0297C72.5939 30.2217 72.4486 30.5052 72.3226 30.6511C72.3027 30.5347 72.2547 30.2236 72.2253 29.7871C72.2061 29.2822 72.1766 28.6319 72.2061 28.4956C72.2541 28.2339 72.6624 27.2047 73.5264 26.2627C74.5555 25.1363 75.6141 22.9718 75.9245 22.3017C76.2349 21.6316 77.5552 18.8457 77.5552 18.8457H78.5651L77.0989 22.1852C77.0989 22.1852 76.2157 24.0105 75.7594 24.6812C75.303 25.3519 74.3418 27.2739 73.9142 28.0214C74.2246 27.6137 74.487 27.3999 74.7981 27.0115C75.0989 26.7395 75.9334 25.5651 75.9334 25.5651V25.5651L75.9322 25.5638Z" fill="#8C6228"/>
<path fill-rule="evenodd" clip-rule="evenodd" d="M81.573 13.8438C81.408 14.3515 81.1473 14.8229 80.805 15.2326C80.2028 15.9513 78.9112 16.9119 78.2808 17.6786C77.7048 18.4262 76.5528 20.4652 77.0764 22.8825C77.2684 22.3583 77.63 21.3196 78.5912 20.1445C79.5525 18.9695 80.5816 17.6204 81.0872 16.5721C81.5916 15.5135 81.6594 14.679 81.6594 14.679L81.8514 14.4364L81.7349 13.8828L81.5698 13.8438L81.573 13.8438Z" fill="#CBA94C"/>
<path fill-rule="evenodd" clip-rule="evenodd" d="M101.233 78.2435C101.233 78.2435 100.845 77.1856 100.728 76.2243C100.612 75.263 100.92 75.0723 100.563 73.9721C100.349 73.3021 99.9616 73.3961 99.8643 73.3021C99.767 73.208 99.6992 72.1955 99.7184 71.6419C99.7376 71.0883 99.6992 70.3702 99.6019 70.0592C99.4566 69.9427 99.3593 69.8454 99.1456 69.1273C98.903 68.4086 98.7865 68.0496 98.67 67.8365C98.5536 67.6233 98.2131 67.4288 98.2131 67.215C98.2131 66.7875 98.6016 66.5648 98.6016 66.447C98.5824 66.2045 98.2912 66.399 98.2131 66.3305C98.1164 66.2141 98.4563 65.5152 98.3302 65.4179C98.2816 65.3699 97.9417 65.7776 97.854 65.6611C97.7568 65.544 97.6403 64.3888 97.4656 63.6221C97.3011 62.8745 97.1257 62.3312 97.1065 62.1078C97.0873 61.8941 95.7664 58.127 95.4464 57.2144C95.1885 56.4432 94.9714 55.659 94.7961 54.8649C94.6988 54.4086 94.631 53.4761 94.5824 53.5734C94.5337 53.6707 94.5632 54.1462 94.4851 54.127C94.4172 54.1072 94.1747 52.4477 94.0972 52.1853C94.0294 51.9229 93.6211 51.0333 93.5212 50.3894C93.424 49.7385 93.2108 48.0393 93.0649 46.8841C92.919 45.7289 92.8512 45.2534 92.8512 44.9641C92.875 44.2566 92.836 43.5483 92.7347 42.8477C92.5427 41.624 92.1587 40.1385 91.822 39.2752C91.1718 37.6438 89.4432 33.4691 89.134 32.4304C89.134 32.168 89.4739 32.3139 89.4739 32.3139C89.4739 32.3139 90.318 34.4304 90.9395 36.0611C91.5417 37.6925 92.1145 39.1293 92.2604 39.2752C92.3769 39.4205 93.2896 41.0224 93.6972 43.6438C94.1049 46.2653 94.2502 48.6825 94.4934 50.2941C94.6099 51.0621 94.7072 51.8768 94.9497 52.6921C95.2115 53.576 95.6192 54.4886 96.1536 55.8864C96.6099 57.0614 96.9497 58.0419 97.134 58.8867C97.3478 59.9645 97.3478 60.7798 97.4739 61.3142C97.591 61.7705 97.7651 62.6825 98.1734 64.0022C98.5817 65.3219 99.1827 67.0217 99.5904 68.0797C100.387 70.1961 100.742 71.9632 100.863 72.9053C100.969 73.8761 101.329 77.2355 101.231 78.2448V78.2448L101.233 78.2435Z" fill="#A88F33"/>
<path fill-rule="evenodd" clip-rule="evenodd" d="M81.6217 13.7288L81.5731 13.8453C81.5731 13.8453 81.7184 13.8939 81.6896 14.0885C81.6916 14.3547 81.6754 14.6207 81.6409 14.8847C81.5929 15.2245 81.4956 15.4863 81.4764 15.7C81.4764 16.1563 81.5443 16.6805 80.9004 17.9816C80.7084 18.3407 80.59 18.6511 80.4928 18.8648C80.2502 19.389 80.2016 19.4671 79.9878 19.7096C80.3276 19.5176 81.5513 18.7496 82.1721 18.8648C81.7452 19.1074 81.0944 19.5835 80.6867 20.205C80.784 20.2242 81.1916 20.3023 81.8387 20.205C82.9164 20.0399 84.1203 19.6514 85.1782 19.7288C86.334 19.7967 85.8777 18.3407 85.8777 18.3407L84.544 15.4088L82.0198 13.6328L81.6217 13.7295V13.7288Z" fill="#BE9C44"/>
<path fill-rule="evenodd" clip-rule="evenodd" d="M88.2041 35.6892C88.2041 35.6892 87.0777 34.5628 86.6214 30.6972C86.1651 26.8137 86.2624 21.0972 86.2624 21.0972L85.3497 18.8642C85.3497 18.8642 85.1577 17.3788 84.6797 16.8258C84.2016 16.2729 83.2627 15.3404 82.8352 14.8841C82.4077 14.4278 81.9225 13.8063 81.6313 13.709C81.7766 13.4665 82.4275 12.0975 84.9222 12.0783C87.4169 12.0591 88.1862 13.4473 88.4467 13.9522C88.7072 14.4572 89.8835 16.6402 90.32 20.8002C90.7277 24.9551 90.7475 25.2662 90.6797 26.703C90.631 27.4991 90.3686 29.3436 89.9117 31.3142C89.4944 32.9846 89.0381 34.8489 88.2029 35.693L88.2041 35.6892Z" fill="#A17C34"/>
<path fill-rule="evenodd" clip-rule="evenodd" d="M84.6721 38.9998C85.0475 39.0269 85.4225 38.9423 85.7499 38.7566C86.1089 38.7374 87.41 38.9025 88.4097 37.6309C88.4775 37.9214 88.6529 38.7086 88.1959 39.4075C88.4391 39.1643 88.7982 39.0677 88.8468 38.9998C88.866 39.3589 89.2059 40.4654 87.7691 43.1547C88.1569 42.7278 88.6132 42.747 89.0209 42.6984C89.0407 43.2033 89.3121 44.9019 88.594 45.8152C88.1185 46.4366 87.3415 46.2421 87.3415 46.2421C87.3529 46.1064 87.3529 45.97 87.3415 45.8344C87.3223 45.572 87.2251 45.3102 87.2935 45.1355C86.9181 44.964 86.5761 44.7272 86.2836 44.436C85.4388 43.6398 84.3419 42.2811 84.2644 41.2712C84.1671 40.1448 85.1771 39.9022 85.1771 39.9022C85.0925 39.8265 85.0203 39.738 84.9633 39.6398C84.9147 39.4753 84.866 39.2129 84.6721 38.9998V38.9998V38.9998Z" fill="#8C6228"/>
<path fill-rule="evenodd" clip-rule="evenodd" d="M77.1839 26.7856C77.1839 26.7856 77.1353 26.7178 76.8735 27.0282C76.9222 26.7178 76.9708 26.426 76.99 26.1444C77.1139 25.8837 77.2742 25.6419 77.4662 25.4263C77.3203 25.7168 77.223 25.9792 77.223 25.9792C77.223 25.9792 77.5827 25.3092 78.1068 24.9015C78.4659 24.6103 78.9222 24.4746 79.1161 24.2026C79.3299 23.9114 79.2812 23.8628 79.3299 23.8141C79.3299 23.8141 79.806 23.5037 80.5343 22.5904C80.631 22.474 80.7769 22.3479 80.8742 22.2314C81.0387 22.1636 81.4271 21.9888 81.8835 21.7552C82.3596 21.4935 82.8934 21.1344 83.2236 20.9872C83.8739 20.696 84.5638 20.7255 84.8838 20.2685C85.1263 20.2007 85.3881 19.4724 85.3401 18.8516C85.6991 18.9968 87.5436 20.1424 88.1753 22.6474C88.6316 24.424 87.8156 27.162 87.4758 28.4829C87.1359 29.8039 87.0879 30.7837 86.6118 31.3853C86.0095 32.1821 84.0684 33.3053 83.5923 33.8615C83.1846 34.3178 81.9615 35.473 82.0095 36.3076C82.0582 36.929 82.8249 37.2676 82.9907 37.3853C83.1564 37.5031 83.1551 37.6477 83.4662 37.5773C83.7772 37.5069 83.8931 37.3636 84.0198 37.3636C84.1651 37.3828 84.1651 37.4122 84.2329 37.4122C84.2821 37.4107 84.331 37.4041 84.3788 37.3924C84.3788 37.3924 84.3302 38.2762 82.2623 38.5444C82.1164 38.5642 81.9711 38.6122 81.7862 38.6416C82.0294 38.5252 82.1747 38.5252 82.4371 38.1661C82.1459 38.1175 81.3107 38.0688 81.0969 38.001C81.1647 37.8845 81.3881 37.5735 81.5724 37.4282C81.7375 37.2829 81.5532 37.2362 81.4079 37.3117C81.1578 37.4819 80.9178 37.6665 80.6892 37.8647C80.4467 38.0784 80.2329 38.3696 79.8444 38.6327C79.7279 38.2442 79.7471 37.5063 80.2041 36.9725C80.087 36.9917 79.8636 37.3316 79.6505 37.2637C79.612 36.9096 79.6349 36.5515 79.7183 36.2052C79.8348 35.768 80.4659 35.0013 80.4659 35.0013L83.5142 29.5543L84.1644 25.4282L77.1839 26.7844V26.7844V26.7856Z" fill="#92723A"/>
<path fill-rule="evenodd" clip-rule="evenodd" d="M77.0196 27.0186C77.0196 27.0186 76.8545 27.1351 77.1847 27.3585C77.1361 27.4263 77.0196 27.6689 76.8737 27.834C76.7092 28.026 76.5338 28.145 76.466 28.3101C76.3207 28.65 76.2042 28.8829 76.2042 29.0289C76.2042 29.1748 76.1556 30.1066 75.7479 30.7082C75.602 30.922 75.4369 31.281 75.3204 31.5236C75.0778 31.9505 74.8641 32.2916 74.8154 32.4836C74.7188 32.8234 74.651 33.7553 74.651 33.7553C74.651 33.7553 74.8647 33.4929 74.9422 33.3962C74.825 33.6388 74.699 33.9005 74.5146 34.0951C74.6311 33.9978 74.971 33.7553 75.5438 33.2503C76.3399 32.5809 77.5828 31.4545 79.0977 30.5623C78.6407 30.7274 78.2529 30.7274 77.9425 30.7761C78.185 30.5335 80.3694 27.9703 81.515 27.7277C81.5845 27.6395 81.6192 27.5288 81.6122 27.4167L80.6311 27.3201L78.6407 27.7469L78.3502 26.2109L77.0196 27.0167V27.0186Z" fill="#B18E3E"/>
<path fill-rule="evenodd" clip-rule="evenodd" d="M80.1848 35.7572C80.1848 35.7572 79.9224 36.019 79.6799 36.6699C79.4931 36.4749 79.333 36.256 79.2037 36.019C78.8447 35.4174 78.2917 34.65 77.0002 35.0872C76.981 34.6795 76.9516 34.4657 77.0002 34.1745C77.214 34.1265 77.8642 33.6024 78.5144 32.835C78.9714 32.3108 79.3983 31.7086 79.6895 30.9419C79.8815 30.796 80.2136 30.5534 80.6495 30.2718C81.2709 29.8449 82.0184 29.2619 82.1349 28.6116C81.8437 28.7281 81.2223 29.0193 80.2898 28.9713C80.6495 28.8062 81.2024 28.6315 81.1346 27.9128C81.2805 27.8155 81.397 27.7476 81.397 27.7476C81.2876 27.7111 81.1724 27.6947 81.0572 27.699C81.0373 27.6312 81.0085 27.5345 80.8434 27.5825C80.6783 27.6305 80.6514 27.6312 80.6296 27.699C80.5618 27.7188 80.3384 27.699 80.1733 27.8161C80.0082 27.9332 79.5519 28.3204 79.3772 28.3883C79.445 28.2718 79.5416 28.0977 79.5416 28.0977C79.5416 28.0977 79.0661 28.1457 78.7263 28.2897C78.1048 28.5035 77.3868 28.892 76.6584 29.2702C76.7263 29.1537 76.7557 29.0782 76.8037 29.0564C76.8517 29.0347 76.9688 29.0084 76.9688 28.9886C76.9688 28.9688 76.9208 28.7966 76.9496 28.7268C77.1674 28.2656 77.4243 27.8238 77.7176 27.4065C78.0575 26.9496 78.1253 26.2993 78.1253 26.2993L79.6108 25.5518L83.7855 24.5918L86.4946 24.7569L86.1548 26.6308L84.5548 29.9025L83.1858 32.883L81.6223 34.7089L80.1855 35.7572V35.7572H80.1848Z" fill="#543E26"/>
<path fill-rule="evenodd" clip-rule="evenodd" d="M86.9516 27.6485C86.9516 27.6485 85.3202 29.6677 84.8639 29.9787C85.1551 29.3573 86.9516 25.6581 87.6018 24.629C87.4566 24.5125 87.262 24.5125 87.7183 22.709C87.3305 23.621 87.1942 24.0971 86.8742 24.3397C86.5542 24.5823 86.5145 24.5048 86.2982 24.5048C86.339 24.4309 86.3558 24.3461 86.3462 24.2623C86.3462 24.2623 84.9772 24.0971 84.0422 24.0971C83.1071 24.0971 81.2562 24.6021 80.2265 25.0098C79.4111 25.3496 78.9548 25.3496 78.6636 25.5627C78.3724 25.8053 78.2073 26.0677 78.0614 26.1355C77.9449 26.2034 77.3919 26.3781 77.2652 26.5624C77.1487 26.7544 76.9548 26.9701 76.9548 27.0187C76.9548 27.0674 76.9062 27.1359 77.0521 27.0866C77.1001 27.0674 77.4598 26.8728 77.8674 26.6303C78.4204 26.3199 79.0905 25.9608 79.5762 25.7471C80.9644 25.1935 81.4015 25.2907 82.0223 25.1743C82.6726 25.0578 83.605 24.7858 84.2258 24.7858C84.8473 24.7666 86.0223 24.7858 86.2943 24.8344C86.1778 24.9317 86.0806 25.0482 86.1292 25.4559C86.1292 25.5723 86.0319 25.6984 85.9372 25.98C85.6466 26.7762 85.093 28.0965 84.7852 28.7666C84.3583 29.6786 83.8732 30.4459 83.6332 30.9215C83.3932 31.397 82.8652 32.6495 82.3423 33.3195C81.8194 33.9896 81.5462 34.3973 81.3823 34.5432C81.2185 34.6891 80.0422 35.5525 80.1298 35.8635C80.3436 35.7957 81.6934 35.2875 82.6732 34.1842C83.653 33.0808 83.8482 32.4075 84.615 31.8053C85.3817 31.2031 85.9839 30.1938 86.343 29.3592C86.6438 28.5823 86.5759 28.3397 86.9542 27.6504V27.6504L86.9516 27.6485Z" fill="#806031"/>
<path fill-rule="evenodd" clip-rule="evenodd" d="M51.7964 42.7183C51.7964 42.7183 51.5827 43.6015 51.0969 44.0386C50.6214 44.4662 49.7766 44.8348 49.68 45.5535C49.5635 46.2716 50.5248 46.6313 50.5248 46.6313C50.5248 46.6313 50 47.4953 50 48.1455C50 48.8156 49.9808 48.9417 50.0486 49.5823C49.9716 49.6319 49.9061 49.6973 49.8566 49.7743C49.8566 49.7743 49.9046 50.3958 50.3808 50.7836C50.8569 51.1714 51.264 51.405 51.5065 51.3078C51.5436 51.3869 51.576 51.4681 51.6038 51.551C51.6038 51.551 51.9635 50.6383 52.206 49.8422C52.4486 49.0268 52.6624 49.1426 52.759 48.0457C52.8556 46.9487 53.911 45.0652 53.911 45.0652L54.631 43.4556L53.4566 42.543L51.7964 42.7177V42.7183Z" fill="#B6903C"/>
<path fill-rule="evenodd" clip-rule="evenodd" d="M53.9808 44.3008C53.7386 44.5494 53.5151 44.8155 53.312 45.0969C53.0016 45.5245 52.759 45.9123 52.3027 46.0781C51.8464 46.2438 51.5552 46.2425 51.584 46.6995C51.6128 47.1565 52.0403 47.3497 52.2829 47.5827C52.5453 47.8253 52.759 48.2329 52.6425 48.6899C52.7878 48.6221 53.0502 48.544 53.2928 48.0198C53.5353 47.4957 55.232 44.3014 55.232 44.3014H53.9808V44.3008Z" fill="#685026"/>
<path fill-rule="evenodd" clip-rule="evenodd" d="M60.672 36.9316C60.672 36.9316 60.8173 36.5437 60.672 36.2621C60.5261 35.9709 59.6429 35.8736 59.2058 35.5434C58.7494 35.2036 58.1958 34.9674 57.7395 35.1165C57.8074 34.9514 58.0794 34.5917 57.856 34.5143C57.6422 34.4464 56.8467 34.8055 56.633 34.9706C56.4192 35.1357 55.9334 35.3296 55.8368 35.4468C55.7402 35.5639 55.5744 35.7866 55.4771 35.6893C55.3798 35.6215 55.3318 35.4468 55.1667 35.5434C55.0016 35.64 54.2067 36.2909 54.0602 36.6698C53.9136 37.0487 53.584 37.8935 52.5939 38.8541C51.6038 39.8148 51.1763 40.4368 51.4675 40.7959C51.7587 41.1549 51.895 40.8932 51.9437 41.2036C51.9811 41.5083 51.9646 41.8172 51.895 42.1162C51.7786 42.6212 51.5846 43.0967 51.8464 43.194C52.5165 43.4077 53.1674 43.002 53.3126 43.1261C53.6038 43.3879 53.1475 44.33 53.8368 44.5143C54.5363 44.7063 55.2256 44.3492 55.2256 44.3492L57.769 42.9802L60.2157 41.6893L61.4675 39.2132L60.7962 37.1453L60.6682 36.9316H60.672Z" fill="#D4B968"/>
<path fill-rule="evenodd" clip-rule="evenodd" d="M58.2721 42.8449C58.2721 42.8449 57.8446 42.1947 58.3694 41.6212C58.8942 41.0478 59.641 40.8059 59.9322 40.4468C59.8768 40.3784 59.8025 40.3279 59.7185 40.3015C59.9118 39.9557 60.2067 39.6775 60.5633 39.5047C60.418 39.3595 60.2234 39.243 60.0103 39.243C59.5342 39.243 59.2423 39.5342 58.8058 39.5342C58.379 39.5342 58.3303 39.3204 58.3303 39.3204C58.3303 39.3204 59.049 39.2526 58.9806 38.9319C58.9127 38.5921 58.7886 38.5921 58.7886 38.5921C58.7886 38.5921 60.1767 38.0161 60.4193 37.7089C60.6618 37.4017 60.633 37.0388 60.6817 36.8935C60.8462 36.8935 61.8074 36.3886 62.1959 36.6023C62.5844 36.8161 62.3124 37.3985 62.3124 37.3985C62.3124 37.3985 63.4881 36.5147 64.0871 35.6481C64.6113 35.6967 64.8551 35.2891 65.2391 35.2891C65.7153 35.2891 66.4628 35.9393 66.6081 37.3275C66.7054 38.1236 66.8506 38.5799 66.7054 39.9879C66.6375 40.7841 66.6567 42.4839 66.8974 43.3275C67.0618 43.9975 67.4503 43.9297 67.4503 43.9297C67.3907 44.1339 67.2726 44.3161 67.1105 44.4539C66.8481 44.6964 66.8193 45.3377 66.8481 45.5803C66.8868 45.7576 66.9355 45.9326 66.994 46.1044C66.994 46.1044 66.6836 46.4635 66.6055 46.7067C66.5377 46.9492 66.2177 47.1143 65.9841 47.1143C65.7505 47.1143 65.8676 47.0945 65.5572 47.1143C65.2468 47.1342 65.1495 47.1822 64.955 47.1143C64.7604 47.0465 64.6151 46.9684 64.6932 46.3463C64.761 45.7249 62.2951 44.2785 62.2951 44.2785L58.2631 42.8417V42.8417L58.2721 42.8449Z" fill="#CCA849"/>
<path fill-rule="evenodd" clip-rule="evenodd" d="M53.6409 48.9812C53.6409 48.9812 54.5241 50.1563 58.1555 50.1563C59.8835 50.1563 60.4857 49.9911 60.8435 49.8939C61.2319 49.7966 62.6879 49.2244 64.1542 47.4958C65.4745 45.9329 65.1833 45.2923 65.1833 45.2923L64.4153 45.1758L61.9193 45.5156L54.5337 48.6612L53.6377 48.9812H53.6409Z" fill="#585136"/>
<path fill-rule="evenodd" clip-rule="evenodd" d="M56.3495 49.2718C56.3495 49.2718 53.2039 49.9713 53.2039 47.9809C53.2039 46.0391 55.1456 44.0001 55.6314 43.641C56.1363 43.2814 57.3402 42.873 57.3402 42.873H60.2432L60.7962 44.3393L60.5536 47.5041L56.3495 49.2711V49.2718Z" fill="#252211"/>
<path fill-rule="evenodd" clip-rule="evenodd" d="M59.2524 43.4653C59.2524 43.4653 58.6508 42.9117 57.2818 43.6573C55.9129 44.4029 54.8057 45.9613 54.7378 47.3763C54.67 48.6282 55.767 49.5606 57.4758 49.6093C58.7474 49.6573 59.5148 49.512 59.9033 49.4173C59.806 49.3008 59.301 48.6698 59.301 48.6698L59.253 43.4659V43.4659L59.2524 43.4653Z" fill="#C3B378"/>
<path fill-rule="evenodd" clip-rule="evenodd" d="M58.6605 43.7752C58.6605 43.7752 58.5152 43.6587 58.0845 43.8917C57.7254 44.0837 57.2013 44.5912 56.7936 44.9503C56.5312 45.164 56.3661 45.2607 56.2176 45.4258C55.6153 46.1445 55.1104 47.3195 55.4022 47.9019C55.6941 48.4843 56.6547 49.1544 59.1014 48.6981L58.6534 43.7759V43.7759L58.6605 43.7752Z" fill="#E6D89C"/>
<path fill-rule="evenodd" clip-rule="evenodd" d="M57.8642 44.9811C57.8642 44.9811 57.4757 45.5833 57.4757 46.5446C57.4757 47.5251 58.0293 49.0879 60.0684 49.2044C61.6312 49.3017 62.6796 46.9523 63.8156 46.0396C64.6796 45.3407 65.2037 45.3209 65.2037 45.3209C65.2037 45.3209 64.3205 44.3609 61.9615 43.1174C59.6312 41.8649 57.0194 41.6998 55.6018 43.6223C56.2719 43.5737 58.437 43.0201 58.437 43.0201L59.4956 43.3599L57.8642 44.9817V44.9817V44.9811Z" fill="#252211"/>
<path fill-rule="evenodd" clip-rule="evenodd" d="M60.9126 46.2528C60.8448 46.1076 60.7961 45.913 61.0777 45.865C61.3593 45.817 61.4854 45.8452 61.5827 46.057C61.68 46.2688 61.7747 46.4455 61.6307 46.5332C61.4854 46.6106 61.1065 46.5332 60.912 46.2516L60.9126 46.2528ZM60.4563 44.8839C60.4563 44.8839 60.359 44.9517 60.4077 44.816C60.4269 44.6516 60.5536 44.3597 60.864 44.4282C61.1744 44.4967 61.1072 44.8359 61.056 44.9332C61.0048 45.0304 60.7456 45.1949 60.551 45.1252C60.501 45.1124 60.4601 45.0765 60.4408 45.0286C60.4216 44.9806 60.4264 44.9264 60.4537 44.8826L60.4563 44.8839Z" fill="#6F674D"/>
<path fill-rule="evenodd" clip-rule="evenodd" d="M34.176 45.5032C34.176 45.5032 34.944 46.0792 35.8362 46.0568C36.7194 46.0369 37.8554 45.1249 38.3795 44.5419C38.6899 44.2021 38.9555 43.843 39.2435 43.5614C39.4867 43.3189 39.6512 43.2024 39.7677 43.0373C39.9328 42.8453 40.1075 42.4843 40.1952 42.3672C39.9815 42.5323 39.6711 42.8241 39.3504 43.0181C39.04 43.2101 38.3699 43.571 38.0979 43.6683C37.8362 43.7656 35.1175 45.2043 35.1175 45.2043L34.176 45.5032V45.5032Z" fill="#AC924C"/>
<path fill-rule="evenodd" clip-rule="evenodd" d="M35.3499 38.3297C35.3499 38.3297 35.7767 38.0385 36.6023 37.8535C37.3985 37.6615 39.0004 37.5137 39.0004 37.5137L40.3207 38.0897L40.8449 40.0801L39.8849 42.1486L38.6619 42.9166L37.2731 40.6836L35.3531 38.3335V38.3335L35.3499 38.3297Z" fill="#9F8E57"/>
<path fill-rule="evenodd" clip-rule="evenodd" d="M33.6218 40.1068L33.1648 40.4479C33.1648 40.4479 33.2819 40.2341 33.3786 39.5839C33.4752 38.9337 33.9808 37.3509 34.7187 36.4383C35.4566 35.5257 35.4374 35.5743 35.4374 35.5743C35.3001 35.5492 35.1585 35.5844 35.049 35.6709C35.1462 35.4559 35.7677 34.6879 36.3891 34.3039C37.0106 33.9199 37.2531 33.7989 37.9034 34.1119C38.5536 34.4249 38.7187 34.5874 39.1949 34.5682C39.671 34.549 40.0781 34.0441 40.0781 34.0441C40.0781 34.0441 40.1754 34.3545 39.8163 35.0732C39.4573 35.7919 38.0397 37.2575 38.0397 37.2575L35.088 39.2767L33.6218 40.1087V40.1087V40.1068Z" fill="#EAC970"/>
<path fill-rule="evenodd" clip-rule="evenodd" d="M35.8055 38.0872C35.8055 38.0872 37.9419 38.3784 38.5921 37.7768C38.6113 37.8446 38.6894 37.8446 38.6894 37.8933C38.6842 37.9299 38.6671 37.9639 38.6407 37.9899C38.7115 37.9786 38.7829 37.9722 38.8545 37.9707C38.94 37.9962 39.028 38.0125 39.1169 38.0194C39.1885 38.0178 39.26 38.0112 39.3307 37.9995C39.317 38.097 39.2644 38.1848 39.1847 38.2427C39.282 38.2427 39.3767 38.2619 39.3767 38.3394C39.3767 38.4168 39.3959 38.6504 39.2795 38.699C39.183 38.7257 39.0802 38.7187 38.9883 38.6792C38.996 38.863 39.0459 39.0426 39.1342 39.204C39.3262 39.563 39.7358 39.972 40.2862 39.8542C40.2862 39.8542 40.5767 40.5531 39.3537 42.1064C39.1892 42.3202 39.0139 42.6114 38.8007 42.8539C38.7165 43.0375 38.6522 43.2295 38.6087 43.4267C38.6087 43.4267 40.6772 42.6306 41.2692 40.8149C41.8715 38.9896 41.9879 37.1938 41.8715 35.5144C41.8516 35.0382 41.7742 34.699 41.6577 34.4558C41.3665 33.8536 40.5505 33.9509 40.2209 34.2907C39.7447 34.7669 38.9486 35.9509 37.842 36.7662C36.7156 37.5816 36.6676 37.7262 35.803 38.0872V38.0872H35.8055Z" fill="#D7BC6B"/>
<path fill-rule="evenodd" clip-rule="evenodd" d="M33.243 40.7088C33.243 40.7088 32.8353 40.9513 32.6215 41.8608C32.4078 42.7926 32.8135 43.9286 33.0484 44.2876C33.2833 44.6467 33.8164 45.6278 34.9223 45.6764C35.1961 45.675 35.4668 45.6188 35.7185 45.5113C36.1046 45.3343 36.4667 45.1091 36.7962 44.8412C37.2724 44.4822 37.6602 44.1718 37.6116 44.1424C37.4951 44.0937 34.6798 41.7635 34.6798 41.7635L33.6212 40.582L33.2423 40.71L33.243 40.7088Z" fill="#585136"/>
<path fill-rule="evenodd" clip-rule="evenodd" d="M35.9039 44.573C35.9039 44.573 36.4767 44.525 36.8166 44.3113C37.1564 44.0975 34.8262 41.7871 34.8262 41.7871L34.9913 44.2831L35.9039 44.573Z" fill="#453A25"/>
<path fill-rule="evenodd" clip-rule="evenodd" d="M33.4273 40.5342C33.4273 40.5342 33.1361 41.0878 33.1361 41.2337C33.0874 41.7092 33.2334 43.2043 33.3498 43.6798C33.4663 44.1847 34.0974 44.9515 34.9134 44.9515C35.4177 44.9515 36.1172 44.6411 36.1172 44.5636C36.1172 44.4663 35.3985 44.3716 35.2046 44.01C35.0881 43.818 35.0394 43.3406 35.0126 42.858C34.9934 42.5476 34.9934 42.2078 35.1098 42.09C35.3722 41.7988 35.4202 40.9636 35.4202 40.9636L36.3521 39.2324H35.1265L33.6602 40.1451L33.4273 40.5342Z" fill="#84754B"/>
<path fill-rule="evenodd" clip-rule="evenodd" d="M33.0681 41.0687C33.0681 41.0687 34.0281 39.797 34.8934 39.5052C35.7587 39.2133 36.1459 39.3887 36.1459 39.3887L35.6409 40.6802L34.9222 41.4764L34.9708 41.8841C34.9708 41.8841 34.8537 42.9618 35.5724 43.7093C36.2912 44.4569 36.8249 44.4281 37.136 44.4281C37.447 44.4281 38.3398 44.1657 38.7961 43.0879C39.2038 42.0786 39.5436 40.7839 38.7283 39.486C37.9315 38.1945 36.5241 38.1445 36.2521 38.1445C35.9801 38.1445 33.8444 38.2514 33.0681 41.0668V41.0668V41.0687Z" fill="#252211"/>
<path fill-rule="evenodd" clip-rule="evenodd" d="M57.7185 45.3891C57.3594 45.224 57.6993 44.2147 58.0583 43.9037C58.4173 43.5927 58.8737 43.2343 59.6705 43.185C59.961 43.1658 60.2426 43.3501 60.1946 43.5447C60.1268 43.9037 59.6218 44.4087 59.1655 44.7677C58.5345 45.2631 58.1261 45.5735 57.7185 45.3891Z" fill="#F7F7E7"/>
<path fill-rule="evenodd" clip-rule="evenodd" d="M38.3009 39.884C38.5633 39.8648 38.9031 40.076 38.971 40.3602C39.0388 40.6706 38.8058 41.292 38.3009 41.292C37.8932 41.292 37.6794 40.7871 37.6794 40.6418C37.684 40.5223 37.7174 40.4057 37.7767 40.3019C37.7959 40.2725 37.8446 39.9327 38.3009 39.884V39.884Z" fill="#F8F6DE"/>
<path fill-rule="evenodd" clip-rule="evenodd" d="M34.5145 40.1074C34.5145 40.1074 33.8444 40.4178 33.534 41.0674C33.3122 41.5471 33.2451 42.0839 33.342 42.6034C33.3906 42.846 33.6332 43.4476 33.7983 43.6613C33.9634 43.8751 34.1868 44.021 34.3519 44.0012C34.517 43.9813 34.8562 43.5449 34.8562 43.2831C34.8562 43.0213 34.8761 41.9141 35.1961 41.3119C35.4777 40.7103 34.5164 40.1081 34.5164 40.1081V40.1081L34.5145 40.1074Z" fill="#D4C38B"/>
<path fill-rule="evenodd" clip-rule="evenodd" d="M34.6119 40.0587C34.4955 40.1265 34.3015 40.2238 34.3495 40.3499C34.3982 40.4664 34.8059 40.5419 34.9518 40.8261C35.1169 41.1173 35.1169 41.4277 35.0683 41.5736C35.1951 41.5133 35.3101 41.431 35.4081 41.3304C35.6219 41.0878 35.8836 40.7582 36.107 40.7582C36.2529 40.7582 36.3982 40.8261 36.5345 40.8261C36.7483 40.8261 36.9614 40.7582 36.9908 40.5349C37.0388 40.2437 36.5831 39.9813 36.3207 40.0299C36.3694 39.8379 36.4372 39.5544 36.2235 39.3598C36.0097 39.1653 35.3403 39.5057 35.1943 39.603C35.0484 39.7003 34.6119 40.0593 34.6119 40.0593V40.0593V40.0587Z" fill="#E2D59D"/>
<path fill-rule="evenodd" clip-rule="evenodd" d="M50.0391 60.4556L51.4759 60.0312L51.8836 60.3225C51.8836 60.3225 52.1742 60.9439 52.6311 61.0213C52.4852 61.3317 52.1063 61.5973 52.1262 61.8175C52.146 62.0376 52.3399 62.206 52.3399 62.206C52.3399 62.206 51.0484 64.3417 53.5924 66.494C52.9902 66.7365 52.2235 67.07 51.8158 67.262C52.1063 67.3298 52.7278 67.454 52.9902 67.6895C53.2526 67.925 53.2526 67.9999 53.4951 68.1458C53.7377 68.2917 53.883 68.4857 53.835 68.5727C53.6699 68.4754 53.1163 68.1849 53.0196 68.4562C52.923 68.7276 50.6215 68.6213 50.6215 68.6213L46.738 69.3688C46.738 69.3688 46.8833 68.9804 46.4756 68.6213C46.0001 68.1945 45.4177 68.6405 44.7963 68.165C43.9809 67.5436 43.9515 66.8249 43.6897 66.5535C43.9515 66.3884 44.4859 66.1458 45.7575 65.9775C45.7089 65.8802 45.5438 65.589 45.6411 65.3273C45.7575 64.9874 46.2427 64.7736 46.0974 64.3672C46.3111 64.3186 46.4078 64.3186 46.9422 63.6485C47.4471 62.9785 47.7575 62.8332 48.146 62.7845C48.5345 62.7359 48.7675 62.7845 49.4862 62.1144C49.9905 61.6389 49.826 61.2313 49.826 61.2313C49.826 61.2313 50.1556 61.1244 50.0398 60.4543V60.4543L50.0391 60.4556Z" fill="#CBAC5A"/>
<path fill-rule="evenodd" clip-rule="evenodd" d="M45.7964 60.6723C45.8156 60.5751 45.8937 60.5264 46.4179 60.5751C46.942 60.6237 50.2624 60.2647 51.1654 60.216C52.078 60.1482 55.2915 60.1962 56.855 60.5264C58.4185 60.8567 60.0006 61.2451 60.7673 61.4391C61.5353 61.6528 61.7772 61.7296 61.7478 61.8269C61.7286 61.9242 61.5558 62.0189 61.4566 61.992C61.36 61.9728 58.816 61.1959 58.03 61.032C57.2441 60.8682 54.5248 60.4298 53.038 60.456C51.6499 60.4759 51.0963 60.4368 49.9219 60.5725C48.7468 60.7184 46.8051 60.9123 46.2227 60.8349C45.6467 60.7671 45.7657 60.7671 45.7952 60.6698V60.6698L45.7964 60.6723Z" fill="#D6BC6F"/>
<path fill-rule="evenodd" clip-rule="evenodd" d="M53.6116 68.2817C53.6116 68.2817 55.602 69.3594 56.3207 70.6797C56.8449 71.6602 56.0103 72.146 56.0103 72.146C56.0103 72.146 57.1367 72.146 56.9908 72.7674C56.923 73.1553 55.0491 74.2036 53.7966 74.7572C52.5249 75.3108 52.5735 75.282 51.9521 75.3786C51.3499 75.4759 49.6993 75.1866 49.3595 75.6698C49.0196 76.153 49.1675 76.6509 49.2622 76.7284C49.3595 76.7962 50.146 76.8935 50.146 76.8935C50.146 76.8935 49.9809 77.3498 48.3502 77.3985C46.7195 77.4471 46.3111 77.5629 46.2139 77.7383C46.1166 77.9028 46.5243 77.8061 47.2724 77.9303C48.0199 78.0468 49.0683 78.1223 49.0683 78.1223C49.0683 78.1223 48.7284 78.4135 47.8452 78.6465C46.8353 78.9082 45.2526 79.1514 44.7771 79.4426C45.0196 79.6077 45.3793 79.8503 45.5451 79.8695C45.1374 79.9668 44.5639 80.1805 44.4673 80.258C44.6126 80.3553 44.8071 80.4717 44.8071 80.4717C44.8071 80.4717 43.9911 81.4522 43.5156 81.6954C43.0401 81.9386 40.3022 83.2097 39.3601 82.9671C37.0107 82.3457 36.7195 79.7729 36.1467 79.5789C35.2827 79.2877 34.875 79.8695 34.1076 79.4618C34.4475 79.2193 34.6324 79.074 34.9915 78.9089C34.603 78.7169 32.5934 77.4426 32.5934 77.4426C32.3832 76.9846 32.15 76.5375 31.8945 76.1031C31.506 75.433 30.9345 74.5396 30.5057 73.753C29.5739 72.025 29.5252 71.2289 28.6804 70.2484C28.8263 70.0564 29.3307 70.0833 29.3307 70.0833L36.4091 72.4135L48.9601 72.777L52.2241 68.1172L53.6123 68.2823L53.6116 68.2817Z" fill="#DFC677"/>
<path fill-rule="evenodd" clip-rule="evenodd" d="M35.0195 75.388C35.0953 75.4723 35.1836 75.5444 35.2813 75.6018C35.5245 75.7669 35.8835 75.9615 36.1261 76.252C36.2234 76.1067 36.4659 75.8443 36.8941 76.252C37.3223 76.6597 37.8541 76.3691 38.185 76.4658C38.5248 76.5829 38.544 76.6309 38.544 76.6309C38.544 76.6309 38.736 76.4658 39.1655 76.2911C39.4279 76.1938 39.7383 76.1259 40.0781 76.0293C40.3885 75.9615 40.7283 75.8642 40.9619 75.8642C41.1757 76.0095 41.9424 76.8242 45.0202 75.6216C47.9232 74.4952 48.5927 74.3691 49.0784 74.5432C49.1271 74.4267 49.1757 74.2034 49.9232 74.2328C49.9232 73.9224 49.3018 72.8639 49.3018 72.8639L45.8746 71.6895H44L38.3789 72.7186L35.264 74.4959L35.0215 75.3919L35.0195 75.388Z" fill="#C4A859"/>
<path fill-rule="evenodd" clip-rule="evenodd" d="M33.1455 73.4177C33.1455 73.4177 33.2133 73.9419 33.9903 74.4955C34.7583 75.0484 34.9996 75.3787 34.9996 75.3787C34.9996 75.3787 35.1455 75.1867 35.262 74.9908C35.3785 74.7771 35.4757 74.5345 35.6697 74.4667C36.0581 74.3016 36.9413 74.612 37.1359 74.5633C37.301 74.5153 37.2524 74.1755 37.4271 74.1755C37.8348 74.1556 38.0965 74.4372 38.2425 74.4372C38.3884 74.4372 38.7468 74.418 38.7954 74.3406C38.8441 74.2632 38.8633 73.4568 39.4169 73.0683C40.0191 72.6414 40.757 72.8257 40.9529 72.923C40.9529 73.0683 40.9721 73.428 41.3605 73.4472C41.749 73.4664 41.7874 73.3985 42.1285 73.515C42.4697 73.6315 42.8761 73.4958 43.0604 74.068C43.2255 74.02 43.614 73.9713 43.5167 73.4177C43.7087 73.2724 43.8764 73.1752 44.2847 72.6024C44.382 72.4571 44.5465 72.292 44.6732 72.0782C45.013 72.0782 45.4207 72.0104 45.9641 72.4859C45.7989 72.6024 45.7017 72.6779 45.6537 72.7963C45.7958 72.937 45.9255 73.0897 46.0415 73.2526C46.1874 73.4446 46.2847 73.6801 46.469 73.7288C46.8767 73.8452 47.5468 73.6801 48.2943 73.7288C49.013 73.7774 49.6146 74.0392 49.877 74.2043C49.9743 74.1563 49.9743 74.1364 50.2169 74.1851C50.4594 74.2337 50.6437 74.2529 50.382 73.9425C50.5273 74.0104 50.6924 74.1563 50.8383 74.0104C50.9842 73.8644 51.1001 73.6513 51.5077 73.6027C51.9154 73.554 52.0613 73.6219 52.2265 73.195C52.4402 72.6708 51.7023 72.6708 51.7023 72.6708C51.7023 72.6708 52.0421 72.3598 52.421 71.9521C52.8773 71.5252 53.4015 70.9716 53.5276 70.292C53.7413 69.0395 52.5183 68.875 52.5183 68.875L46.5861 70.7003L39.3337 70.3406L33.1493 73.4184V73.4184L33.1455 73.4177Z" fill="#927D49"/>
<path fill-rule="evenodd" clip-rule="evenodd" d="M27.8156 56.2809C27.8156 56.2809 27.6236 56.5235 27.5052 57.0963C27.3868 57.6691 27.4373 57.6012 27.34 58.0089C27.2428 58.4166 26.0479 62.4748 26.4959 63.8438C26.9439 65.2128 27.7196 65.7177 28.2047 66.8243C28.302 67.0668 28.3967 67.2128 28.4472 67.4265C28.6124 68.1446 28.4671 68.6982 28.661 69.4169C28.7288 69.6595 28.9042 69.9411 29.166 70.2323C29.742 70.8339 30.6808 71.4067 31.086 71.8144C31.6581 72.4166 32.4741 73.6403 33.5128 73.7561C34.0664 73.824 34.853 73.591 35.5032 73.2032C36.0792 72.8435 36.4351 72.3392 37.0392 72.0512C37.4661 71.8374 37.9224 71.76 38.3301 71.6627C39.1749 71.4976 39.9423 71.4707 40.3986 71.5654C41.0975 71.7113 42.748 72.2163 43.6626 72.2163C44.3772 72.2047 45.0879 72.107 45.7791 71.9251C47.1672 71.5174 48.8466 70.8179 49.9538 70.5075C50.604 70.3155 51.1282 70.2649 51.6626 70.1484C52.5752 69.9347 53.342 69.6435 53.7791 69.0899C53.4879 68.75 53.1288 68.2259 51.1864 68.2451C48.9829 68.2937 46.4389 69.5168 45.1864 69.7113C43.934 69.9059 43.3906 70.0704 41.9922 69.5654C40.6213 69.0553 40.5759 68.718 40.5759 68.718C40.5759 68.718 39.1365 67.7113 38.5343 65.1449C37.932 62.5785 38.5343 60.7084 40.0978 58.9312C40.5055 58.4748 40.4082 58.0672 40.4082 58.0672C40.4082 58.0672 41.4373 56.679 41.1557 55.3792C40.8453 54.0876 38.8549 54.35 38.8549 54.35L27.8162 56.2809V56.2809H27.8156Z" fill="#6E6342"/>
<path fill-rule="evenodd" clip-rule="evenodd" d="M29.4757 60.6016C29.3901 60.7625 29.3499 60.9437 29.3592 61.1257C29.3784 61.3875 29.4565 61.7273 30.2424 62.4947C30.9125 63.1641 30.7666 63.9116 30.7666 63.9116C30.7666 63.9116 31.1039 63.9795 32.0191 63.5513C32.7378 63.2115 32.9791 63.8137 32.9791 63.8137C33.1883 63.704 33.4151 63.6317 33.6492 63.6C33.8613 63.5804 34.0666 63.5149 34.2508 63.408C34.2508 63.408 35.0956 64.272 35.8335 64.6796C36.5036 65.0393 36.892 65.2819 37.2223 65.0393C37.5327 64.8256 37.5327 64.3884 37.5128 64.1945C37.4358 64.0155 37.3383 63.8461 37.2223 63.6896C37.0085 63.3792 36.6687 63.0195 36.6463 62.7296C36.5976 62.0601 37.1512 61.2633 37.0341 61.0694C36.917 60.8755 36.4812 60.8268 35.4034 61.2153C34.2872 61.584 29.4712 60.6035 29.4712 60.6035V60.6035L29.4757 60.6016Z" fill="#39331F"/>
<path fill-rule="evenodd" clip-rule="evenodd" d="M32.0192 64.9415C32.0192 64.9415 31.4662 64.4174 31.6601 61.8734C31.8949 61.87 32.1293 61.8927 32.359 61.9412C32.359 61.9412 32.6605 63.9124 32.0192 64.9415Z" fill="#292311"/>
<path fill-rule="evenodd" clip-rule="evenodd" d="M28.0781 54.3393C28.1553 54.2822 28.2268 54.2179 28.2919 54.1473C28.0999 54.5063 27.2135 55.9431 27.9322 58.2055C28.6509 60.4577 30.4564 62.137 32.6797 62.2151C34.9031 62.2932 36.0717 61.2052 37.408 59.5745C37.9322 58.9242 38.5344 58.1082 39.0682 57.5553C39.8644 56.6906 40.4858 56.4481 40.4858 55.6135C40.4858 53.9047 38.738 53.1373 36.1652 52.3706C33.5924 51.6039 31.2717 51.6986 30.0679 52.2234C28.8935 52.7956 28.3885 53.3978 28.0775 54.3399V54.3399L28.0781 54.3393Z" fill="#252211"/>
<path fill-rule="evenodd" clip-rule="evenodd" d="M36.3398 65.7085L36.5318 65.6112C36.5318 65.6112 36.5798 64.8432 36.8909 64.8637C37.2013 64.9123 37.3472 65.3206 37.3177 65.4659C37.2985 65.6112 37.2211 65.8544 36.9101 65.825C36.5024 65.8346 36.3379 65.7085 36.3379 65.7085H36.3398Z" fill="#3F3824"/>
<path fill-rule="evenodd" clip-rule="evenodd" d="M35.4758 62.4467C35.4758 62.4467 35.6678 62.3788 35.9027 62.6118C36.0947 62.6118 36.9318 62.5145 37.1942 62.6796C37.4566 62.8448 37.5341 62.99 37.5341 62.99C37.5341 62.99 36.5536 63.2038 36.0192 62.99C35.4758 62.8057 35.4758 62.4467 35.4758 62.4467H35.4758Z" fill="#2D2815"/>
<path fill-rule="evenodd" clip-rule="evenodd" d="M39.7964 62.5925C39.7964 62.5438 39.2722 62.1848 38.7186 62.0677C38.6213 62.0485 38.6015 62.1163 38.5266 62.1163C38.478 62.0971 38.4588 61.9512 38.4588 61.9512L38.1439 62.1169C38.1439 62.1169 38.0953 62.1848 38.2604 62.3089C38.4057 62.4254 38.6489 62.5227 38.7167 62.7166C38.7845 62.9105 38.7845 62.9784 38.814 63.0078C38.8332 63.027 39.173 63.0078 39.3381 62.9105C39.5033 62.8133 39.8143 62.6545 39.7945 62.5905V62.5905L39.7964 62.5925Z" fill="#82764F"/>
<path fill-rule="evenodd" clip-rule="evenodd" d="M34.8936 64.5628C34.8936 64.5628 34.9902 63.8934 35.6411 63.8639C36.3105 63.8153 36.4372 64.4655 36.4372 64.4655L36.0488 64.854C36.0488 64.8444 35.7576 64.4367 34.8968 64.5628H34.8936Z" fill="#2D2816"/>
<path fill-rule="evenodd" clip-rule="evenodd" d="M39.1168 61.6798C39.1168 61.6798 38.7571 62.0683 37.9616 62.1848C37.8937 62.0875 37.7478 61.8936 37.9616 61.5832C38.1753 61.2728 38.4179 61.1755 38.6604 61.2722C38.879 61.3076 39.057 61.4667 39.1168 61.6798Z" fill="#574F35"/>
<path fill-rule="evenodd" clip-rule="evenodd" d="M40.5824 62.1552C40.6023 62.0579 40.5344 62.0387 40.5824 61.9901C40.6304 61.9414 40.8935 61.8448 40.9421 61.8928C40.9613 61.9126 40.9421 61.9901 40.9421 62.0848C40.9421 62.1795 40.9421 62.2768 40.8935 62.3465C40.8256 62.4438 40.6317 62.4925 40.5344 62.4637C40.4372 62.4349 40.418 62.2985 40.418 62.2717C40.466 62.2525 40.5824 62.2038 40.5824 62.1552ZM42.24 61.1069C42.24 61.0582 42.4052 60.9609 42.5024 60.9609C42.6477 60.9609 42.6477 61.0774 42.6676 61.1069C42.7156 61.1261 42.7156 61.087 42.7642 61.1747C42.8128 61.2624 42.8813 61.4173 42.832 61.5145C42.7828 61.6118 42.5895 61.679 42.5415 61.6598C42.4736 61.6112 42.2599 61.1747 42.24 61.1069V61.1069Z" fill="#82764F"/>
<path fill-rule="evenodd" clip-rule="evenodd" d="M38.9031 62.3795C38.9031 62.3795 39.1168 62.4275 39.408 62.6707C39.3108 62.7386 39.1648 62.816 39.1648 62.816C39.1648 62.816 39.1456 62.5927 38.9031 62.3789V62.3795Z" fill="#6E6342"/>
<path fill-rule="evenodd" clip-rule="evenodd" d="M38.4276 60.2434C38.379 60.1954 38.5729 60.0789 38.6894 60.0981C38.8058 60.1173 38.8545 60.1954 38.9806 60.2146C39.1066 60.2338 39.1265 60.166 39.1726 60.1173C39.2186 60.0687 39.3863 60.0981 39.4151 60.1173C39.4331 60.1387 39.4493 60.1613 39.4638 60.1852C39.4679 60.1105 39.5029 60.0409 39.5604 59.9932C39.6358 59.9377 39.7325 59.9198 39.8228 59.9445C39.842 60.0124 39.9393 60.2549 39.9201 60.3036C39.9009 60.3522 39.6097 60.4207 39.5604 60.3714C39.609 60.4885 39.8228 60.7311 39.8516 60.7791C39.8804 60.8271 39.6378 60.9442 39.5412 60.925C39.4055 60.9154 38.5703 60.4297 38.425 60.2453L38.4276 60.2434ZM39.6993 58.6319C39.6813 58.583 39.6469 58.5418 39.602 58.5154C39.5342 58.4962 39.3108 58.5154 39.3108 58.6319C39.3108 58.7484 39.5028 59.3999 39.7185 59.7391C39.9617 60.0789 40.1262 60.3599 40.2913 60.438C40.3988 60.4869 40.526 60.4445 40.5825 60.3407C40.6017 60.2921 40.6503 59.933 40.6311 59.0882C40.6119 58.2434 40.5825 57.4281 40.5338 57.3794C40.4852 57.3308 40.2913 57.3314 40.2234 57.4281C40.1556 57.5247 39.7185 58.4866 39.6986 58.6319V58.6319H39.6993Z" fill="#585136"/>
<path fill-rule="evenodd" clip-rule="evenodd" d="M38.8353 63.6012C38.8353 63.6012 38.4955 63.3875 38.1652 63.5334C37.8548 63.6793 37.874 64.2521 37.874 64.2521C38.0158 64.3076 38.1758 64.2894 38.3015 64.2035C38.5153 64.0582 38.7867 63.8156 38.8353 63.6019V63.6012Z" fill="#574F35"/>
<path fill-rule="evenodd" clip-rule="evenodd" d="M39.4759 64.3694C39.4567 64.1774 39.2839 64.1774 39.2839 64.0782C39.3084 63.9806 39.3964 63.9124 39.4971 63.9131C39.5943 63.9131 39.6891 64.0296 39.8081 64.1051C39.9246 64.1729 40.0993 64.2971 40.1185 64.4449C40.1377 64.5928 39.9265 64.9979 39.6916 64.9979C39.4567 64.9979 39.5265 64.5608 39.4779 64.3669L39.4759 64.3694ZM41.3499 64.107C41.3499 64.107 40.9614 64.2235 40.9902 64.107C41.019 63.9905 41.1073 63.9617 41.2334 63.9617C41.2974 63.8947 41.3836 63.8531 41.4759 63.8446C41.5288 63.842 41.5806 63.8594 41.6212 63.8933C41.6212 63.8933 41.8836 63.7768 41.9611 63.8446C42.0385 63.9125 41.9809 63.9125 42.0289 63.9905C42.09 64.0772 42.1301 64.1769 42.146 64.2817C42.146 64.3592 41.8548 64.5243 41.6212 64.4955C41.3499 64.4373 41.3979 64.1557 41.3499 64.107V64.107ZM43.6116 63.6699C43.6116 63.6699 43.7281 63.7377 43.6315 63.8158C43.5636 63.8837 43.2238 64.0078 42.9319 64.0296C42.6407 64.0296 42.379 64.0776 42.379 63.9809C42.379 63.8843 42.6215 63.6897 42.7668 63.6411C42.8258 63.5672 42.9154 63.5243 43.01 63.5246C43.1265 63.5246 43.5822 63.476 43.7089 63.4568C43.8254 63.4369 43.9227 63.5048 43.8542 63.6021C43.8254 63.6699 43.6116 63.6699 43.6116 63.6699V63.6699ZM44.2817 60.6721C44.2817 60.6721 44.1358 60.9825 43.9713 60.9825C43.8062 60.9633 43.8062 60.9147 43.8062 60.8661C43.8062 60.7982 43.9713 60.6235 43.9515 60.5749C43.9035 60.5749 43.7863 60.5749 43.8062 60.4584C43.8062 60.3611 43.9713 60.2446 44.1166 60.2664C44.2264 60.1762 44.363 60.1251 44.5051 60.1211C44.6702 60.1211 44.8155 60.1691 44.8155 60.2664C44.8155 60.3637 44.6235 60.5768 44.5531 60.6261C44.4756 60.7035 44.3783 60.7541 44.2817 60.6741V60.6721ZM42.0679 66.4097C42.0679 66.4097 41.8759 66.4296 41.8759 66.5262C41.8759 66.5749 41.9239 66.5749 41.9924 66.5461C42.0319 66.5438 42.0709 66.5372 42.1089 66.5262C42.1281 66.5461 42.1281 66.6427 42.274 66.6427C42.3938 66.6265 42.5093 66.5869 42.6139 66.5262C42.7303 66.4782 42.8276 66.4289 42.8276 66.3342C42.779 66.1691 42.6817 66.091 42.5364 66.091C42.462 66.0863 42.3877 66.1032 42.3227 66.1397C42.3227 66.1397 42.274 66.0424 42.1089 66.1397C41.9438 66.2369 41.963 66.2369 42.0116 66.2856C42.0987 66.363 42.0699 66.4136 42.0699 66.4136L42.0679 66.4097ZM40.971 67.4197C40.971 67.371 41.2135 67.2737 41.2814 67.3032C41.3492 67.3224 41.5431 67.691 41.5431 67.7301C41.5431 67.7787 41.3006 67.8952 41.2033 67.8952C41.106 67.8952 40.9415 67.7301 40.9415 67.7032C40.9415 67.684 41.058 67.6552 41.058 67.6353C41.0868 67.5873 40.971 67.4702 40.971 67.4216V67.4197ZM40.203 66.0021C40.2516 65.9829 40.2516 65.9342 40.3195 65.8856C40.3625 65.8569 40.4164 65.8498 40.4654 65.8664C40.5 65.8045 40.5607 65.7615 40.6305 65.7493C40.747 65.7301 40.8443 65.7493 40.8225 65.7979C40.8225 65.9438 40.9198 66.0405 40.9198 66.1569C40.9198 66.2734 40.8519 66.4193 40.6094 66.5166C40.3668 66.5845 40.0366 66.5845 39.9879 66.5653C39.9393 66.5461 39.8907 66.3515 39.9393 66.2542C39.9879 66.1569 40.1236 66.0507 40.2017 66.0021V66.0021H40.203Z" fill="#82764F"/>
<path fill-rule="evenodd" clip-rule="evenodd" d="M40.512 66.0684C40.512 66.0684 40.3469 66.1656 40.3469 66.2143C40.3323 66.2613 40.3258 66.3104 40.3277 66.3596C40.3277 66.3884 40.5415 66.3404 40.5703 66.3109C40.5799 66.2917 40.512 66.1189 40.512 66.0684Z" fill="#6E6342"/>
<path fill-rule="evenodd" clip-rule="evenodd" d="M39.0682 65.6113C39.1648 65.6311 39.3299 65.6113 39.456 65.6599C39.5533 65.7086 39.6211 65.8059 39.5239 65.9223C39.4266 66.0388 39.3319 66.2135 39.1162 66.1841C38.8736 66.1649 38.6407 66.0388 38.6407 65.9415C38.6324 65.8172 38.6744 65.6948 38.7571 65.6017C38.8544 65.5243 38.9024 65.5729 39.0675 65.6113V65.6113H39.0682Z" fill="#585136"/>
<path fill-rule="evenodd" clip-rule="evenodd" d="M38.9517 65.709C38.9517 65.709 38.6413 65.9515 38.5632 66.0687C38.466 66.1851 37.9904 66.7867 37.8452 66.9128C37.8934 66.8277 37.9484 66.7466 38.0096 66.6703C37.8176 66.793 37.6737 66.9781 37.602 67.1944C37.4855 67.5541 38.2528 67.748 38.7572 67.8939C39.2615 68.0399 39.4567 68.0859 39.4567 68.0859C39.271 67.8069 39.1116 67.5112 38.9805 67.2027C38.7885 66.7464 38.6893 66.6978 38.8154 66.484C38.9127 66.2703 39.0586 66.125 39.0586 65.9599C39.0004 65.8063 38.9517 65.709 38.9517 65.709Z" fill="#574F35"/>
<path fill-rule="evenodd" clip-rule="evenodd" d="M27.8836 66.4764C27.9543 66.4894 28.0267 66.4894 28.0974 66.4764C28.2426 66.4566 29.7575 65.9004 31.3402 66.0003C32.5251 66.0719 33.6995 66.2649 34.8449 66.5763C36.8353 67.1004 39.3108 68.1391 40.9127 68.7318C41.3396 68.8963 41.7575 69.1881 42.0647 69.3039C43.2884 69.7801 43.3364 69.7801 44.0551 69.9062C44.8999 70.0227 45.7639 69.7411 46.667 69.5471C47.7735 69.3039 49.6666 69.1875 51.3268 68.9449C51.8636 68.8705 52.3931 68.7504 52.9095 68.5859C52.9095 68.5859 51.5892 69.9062 48.4238 70.3817C47.1443 70.576 45.8441 70.5924 44.5601 70.4303C43.5502 70.3331 42.8807 70.1871 42.3758 70.0419C41.803 69.8767 40.6279 69.4396 39.1815 69.0819C38.1716 68.8195 37.0452 68.6255 35.7543 68.383C32.5697 67.7999 29.1137 67.1305 27.8823 66.4803L27.8836 66.4764Z" fill="#252211"/>
<path fill-rule="evenodd" clip-rule="evenodd" d="M24.3104 60.4766C23.5424 61.1268 22.7277 61.7482 21.9322 62.3498L19.5341 64.1924C18.7188 64.794 17.9226 65.4154 17.1066 66.0177C16.2906 66.6199 15.4759 67.1921 14.6106 67.7457C15.3786 67.0954 16.1933 66.4932 17.0087 65.9012C17.824 65.3092 18.6695 64.7287 19.456 64.1284L21.8541 62.2833C22.6791 61.6817 23.4752 61.0602 24.3104 60.4778V60.4766ZM20.0679 67.2727C20.0679 67.2727 20.9319 66.554 22.0096 65.5447C23.3492 64.2929 24.9901 62.6903 25.5143 62.3998L20.0672 67.2734L20.0679 67.2727Z" fill="#CFB66C"/>
<path fill-rule="evenodd" clip-rule="evenodd" d="M20.0679 67.2723C20.4954 66.8455 20.9517 66.4282 21.408 66.0199L22.1069 65.4183C22.3207 65.2263 22.5639 65.0106 22.777 64.7968C23.2039 64.3699 23.6218 63.913 24.0487 63.4765C24.2603 63.257 24.484 63.0495 24.7188 62.8551C24.8361 62.7512 24.9665 62.663 25.1066 62.5927C25.2237 62.5248 25.3498 62.4007 25.5143 62.3789C25.4176 62.5248 25.3012 62.5927 25.2039 62.7187C25.0874 62.816 24.9901 62.9325 24.8935 63.0291C24.6797 63.2429 24.4372 63.4368 24.2234 63.6314C23.7671 64.0199 23.2916 64.3994 22.8352 64.8058C22.3789 65.2122 21.952 65.6506 21.4951 66.0583C21.0004 66.4762 20.544 66.8839 20.0679 67.2743V67.2723ZM25.874 63.3888C25.874 63.3888 22.7092 66.4864 22.0583 66.9907L25.874 63.3888Z" fill="#CFB66C"/>
<path fill-rule="evenodd" clip-rule="evenodd" d="M25.874 63.3887C25.5893 63.7182 25.2841 64.0295 24.9601 64.3205L24.0001 65.2332C23.6897 65.5436 23.3979 65.8546 23.0683 66.165C22.7284 66.4562 22.418 66.741 22.0583 67.0098L22.9902 66.0972C23.3012 65.7868 23.6411 65.525 23.9713 65.214L24.9031 64.3013C25.2231 63.9813 25.5342 63.6703 25.874 63.3887V63.3887ZM26.0193 65.068C25.7276 65.8822 25.3838 66.6768 24.9902 67.4469C24.1748 69.0783 22.9518 71.1167 22.4174 72.156L26.0193 65.068Z" fill="#CFB66C"/>
<path fill-rule="evenodd" clip-rule="evenodd" d="M26.0191 65.0684C26.0191 65.4274 25.9218 65.7384 25.8053 66.0488C25.6918 66.3595 25.5623 66.6641 25.4175 66.9615C25.2716 67.2527 25.1064 67.5637 24.9413 67.8453C24.7762 68.1269 24.5823 68.4175 24.4364 68.7093L23.4559 70.4373C23.116 71.0133 22.7858 71.5925 22.4268 72.1461C22.6693 71.5247 22.9996 70.9423 23.3106 70.3695C23.6504 69.7935 23.9608 69.2175 24.2706 68.6216C24.4218 68.3247 24.5579 68.0203 24.6783 67.7096C24.8236 67.3986 24.9688 67.1074 25.086 66.8258C25.2312 66.5154 25.3477 66.2236 25.4936 65.9426C25.6581 65.6412 25.7944 65.35 26.0178 65.0684L26.0191 65.0684Z" fill="#CFB66C"/>
<path fill-rule="evenodd" clip-rule="evenodd" d="M29.4757 73.0293C29.4757 73.0293 28.5157 74.301 28.6117 75.9125C28.8735 75.0683 29.2037 73.7768 29.4757 73.0293ZM30.3884 74.3042C30.3884 74.3042 30.0485 77.7602 29.7669 79.4594C30.165 77.4952 30.2424 77.6603 30.3884 74.3042ZM36.7474 79.6635C36.7474 79.6635 35.3106 83.8875 35.2812 85.0613C35.5922 83.8543 36.1938 81.3883 36.7474 79.6603V79.6635Z" fill="#DEC270"/>
<path fill-rule="evenodd" clip-rule="evenodd" d="M40.1069 72.7676C40.1069 72.7676 42.4372 76.6121 44.185 79.8933C43.7121 78.2421 42.6241 75.2137 40.1069 72.7676Z" fill="#CBAF59"/>
<path fill-rule="evenodd" clip-rule="evenodd" d="M46.3694 78.4277C47.6488 80.6893 48.8026 83.0196 49.8254 85.4082C49.6315 83.7577 49.1067 80.9327 46.3694 78.4277Z" fill="#E3C677"/>
<path fill-rule="evenodd" clip-rule="evenodd" d="M64.777 84.0968C65.1648 83.8543 65.9322 82.5333 66.6022 82.2037C67.2717 81.8639 67.7766 81.796 68.3789 81.1259C68.9805 80.4264 69.1469 79.9995 70.4659 79.4466C72.311 78.6498 71.0419 77.6207 71.0419 77.6207C71.2452 77.421 71.4625 77.2362 71.6922 77.0677C72.1683 76.7087 72.7213 76.2715 72.6733 75.5042C72.6054 74.2133 72.3629 72.3394 71.3043 71.252C72.3334 71.0383 74.304 70.893 75.5283 70.5826C76.9453 70.2229 77.5962 69.7179 77.5962 69.7179C77.5962 69.7179 76.7808 68.3298 78.1011 66.932C79.4214 65.5343 80.4992 64.6991 81.2954 63.1355C80.3827 63.0191 78.9914 62.5339 75.4406 63.8831C75.6323 63.9732 75.8173 64.077 75.9942 64.1935C75.9942 64.1935 73.8099 64.7957 73.0138 65.4658C71.625 66.6402 71.4502 67.6015 69.9456 68.3202C68.441 69.0389 66.9261 68.8443 65.6742 69.4267C64.4224 70.0091 64.2374 70.5045 63.7805 70.7183C63.8778 70.8347 63.7613 71.0287 63.9456 71.1938C63.8291 71.3589 63.1494 72.4655 62.4602 72.4655C62.528 72.7279 63.1104 72.9218 63.1104 72.9218C63.1104 72.9218 62.6835 73.2328 61.5962 73.3103C62.1491 73.8863 62.6739 74.5141 64.1203 75.4267C64.0038 75.6693 63.5181 76.029 63.7126 76.4853C63.9264 76.9416 64.4806 77.5631 66.6931 78.068C65.5667 78.116 64.247 78.3784 62.4691 78.1359C60.6925 77.9221 60.4013 77.796 59.3043 78.068C59.4208 78.1845 59.7312 78.1845 60.0032 78.4949C59.712 78.5141 57.8867 78.2811 57.2653 79.0971C56.615 79.9413 56.3334 81.3301 56.3821 82.2619C56.0422 82.4271 55.712 82.7183 55.8771 83.3205C56.0422 83.9227 56.9062 84.1167 57.4598 84.4949C58.0128 84.9026 58.0614 85.0479 58.5862 84.9512C59.1392 84.8347 59.9546 84.2818 60.4307 84.2818C60.9069 84.2818 61.2461 84.6408 61.2461 84.6408C61.2461 84.6408 62.5376 84.0194 62.6637 84.1359C62.7802 84.2523 62.6829 84.9999 62.809 85.1163C62.937 85.204 64.3917 84.34 64.7802 84.0968H64.777Z" fill="#ECD592"/>
<path d="M166 120C199.25 120 226 93.2502 226 60C226 26.7498 199.25 0 166 0C132.75 0 106 26.7498 106 60C106 93.2502 132.75 120 166 120Z" fill="#2775CA"/>
<path d="M182.5 69.5C182.5 60.7502 177.25 57.7502 166.75 56.5004C159.25 55.5002 157.75 53.5004 157.75 50C157.75 46.4996 160.25 44.2502 165.25 44.2502C169.75 44.2502 172.25 45.7502 173.5 49.5002C173.75 50.2502 174.5 50.75 175.25 50.75H179.25C180.25 50.75 181 50 181 49.0004V48.7502C180 43.25 175.5 39.0002 169.75 38.5004V32.5004C169.75 31.5002 169 30.7502 167.75 30.5H164C163 30.5 162.25 31.25 162 32.5004V38.2502C154.5 39.2504 149.75 44.2502 149.75 50.5004C149.75 58.7504 154.75 62 165.25 63.2504C172.25 64.5002 174.5 66.0002 174.5 70.0004C174.5 74.0006 171 76.7504 166.25 76.7504C159.75 76.7504 157.5 74 156.75 70.25C156.5 69.2504 155.75 68.75 155 68.75H150.75C149.75 68.75 149 69.5 149 70.5002V70.7504C150 77 154 81.5 162.25 82.7504V88.7504C162.25 89.75 163 90.5 164.25 90.7502H168C169 90.7502 169.75 90.0002 170 88.7504V82.7504C177.5 81.5 182.5 76.25 182.5 69.5V69.5Z" fill="white"/>
<path fill-rule="evenodd" clip-rule="evenodd" d="M131 47.7496C123.75 67 133.75 88.75 153.25 95.7496C154 96.25 154.75 97.2496 154.75 97.9996V101.5C154.75 102 154.75 102.25 154.5 102.5C154.25 103.5 153.25 104 152.25 103.5C138.25 98.9998 127.5 88.2496 123 74.2498C115.5 50.5 128.5 25.2496 152.25 17.7496C152.5 17.5 153 17.5 153.25 17.5C154.25 17.7496 154.75 18.4996 154.75 19.4998V22.9996C154.75 24.25 154.25 25 153.25 25.4998C143 29.2498 134.75 37.2496 131 47.7496ZM177.5 18.7498C177.75 17.7496 178.75 17.2498 179.75 17.7496C193.5 22.2496 204.5 32.9998 209 47.2498C216.5 70.9996 203.5 96.25 179.75 103.75C179.5 104 179 104 178.75 104C177.75 103.75 177.25 103 177.25 102V98.5C177.25 97.2496 177.75 96.4996 178.75 95.9998C189 92.2498 197.25 84.25 201 73.75C208.25 54.4996 198.25 32.7496 178.75 25.75C178 25.2496 177.25 24.25 177.25 23.2498V19.75C177.25 19.2496 177.25 19 177.5 18.7498Z" fill="white"/>
</svg>
