<svg width="32" height="32" viewBox="0 0 32 32" fill="none" xmlns="http://www.w3.org/2000/svg">
<path d="M15.6538 31.3076C24.2992 31.3076 31.3076 24.2992 31.3076 15.6538C31.3076 7.00844 24.2992 0 15.6538 0C7.00844 0 0 7.00844 0 15.6538C0 24.2992 7.00844 31.3076 15.6538 31.3076Z" fill="#0052FF"/>
<path d="M22.8465 11.5293C22.8465 10.7731 22.1992 10.1543 21.4081 10.1543H9.90037C9.10921 10.1543 8.46191 10.7731 8.46191 11.5293V19.7793C8.46191 20.5356 9.10921 21.1543 9.90037 21.1543H21.4081C22.1992 21.1543 22.8465 20.5356 22.8465 19.7793V11.5293ZM21.4081 11.5293L15.6542 14.9668L9.90037 11.5293H21.4081ZM21.4081 19.7793H9.90037V12.9043L15.6542 16.3418L21.4081 12.9043V19.7793Z" fill="#EEEEEE"/>
</svg>
