<svg width="349" height="349" viewBox="0 0 349 349" fill="none" xmlns="http://www.w3.org/2000/svg">
<rect width="349" height="349" rx="10" fill="#0052FF" fill-opacity="0.1"/>
<path d="M41.2188 35.5V36.2812C41.2188 37.3555 41.0788 38.319 40.7988 39.1719C40.5189 40.0247 40.1185 40.7507 39.5977 41.3496C39.0833 41.9486 38.4648 42.4076 37.7422 42.7266C37.0195 43.0391 36.2188 43.1953 35.3398 43.1953C34.4674 43.1953 33.6699 43.0391 32.9473 42.7266C32.2311 42.4076 31.6094 41.9486 31.082 41.3496C30.5547 40.7507 30.1445 40.0247 29.8516 39.1719C29.5651 38.319 29.4219 37.3555 29.4219 36.2812V35.5C29.4219 34.4258 29.5651 33.4655 29.8516 32.6191C30.138 31.7663 30.5417 31.0404 31.0625 30.4414C31.5898 29.8359 32.2116 29.377 32.9277 29.0645C33.6504 28.7454 34.4479 28.5859 35.3203 28.5859C36.1992 28.5859 37 28.7454 37.7227 29.0645C38.4453 29.377 39.0671 29.8359 39.5879 30.4414C40.1087 31.0404 40.5091 31.7663 40.7891 32.6191C41.0755 33.4655 41.2188 34.4258 41.2188 35.5ZM38.7676 36.2812V35.4805C38.7676 34.6862 38.6895 33.9863 38.5332 33.3809C38.3835 32.7689 38.1589 32.2578 37.8594 31.8477C37.5664 31.431 37.2051 31.1185 36.7754 30.9102C36.3457 30.6953 35.8607 30.5879 35.3203 30.5879C34.7799 30.5879 34.2982 30.6953 33.875 30.9102C33.4518 31.1185 33.0905 31.431 32.791 31.8477C32.498 32.2578 32.2734 32.7689 32.1172 33.3809C31.9609 33.9863 31.8828 34.6862 31.8828 35.4805V36.2812C31.8828 37.0755 31.9609 37.7786 32.1172 38.3906C32.2734 39.0026 32.5013 39.5202 32.8008 39.9434C33.1068 40.36 33.4714 40.6758 33.8945 40.8906C34.3177 41.099 34.7995 41.2031 35.3398 41.2031C35.8867 41.2031 36.3717 41.099 36.7949 40.8906C37.2181 40.6758 37.5762 40.36 37.8691 39.9434C38.1621 39.5202 38.3835 39.0026 38.5332 38.3906C38.6895 37.7786 38.7676 37.0755 38.7676 36.2812ZM46.873 41.1348L49.4609 32.4336H51.9023L48.2305 43H46.707L46.873 41.1348ZM44.8906 32.4336L47.5273 41.1738L47.6543 43H46.1309L42.4395 32.4336H44.8906ZM57.8789 43.1953C57.0977 43.1953 56.3913 43.0684 55.7598 42.8145C55.1348 42.554 54.6009 42.1927 54.1582 41.7305C53.722 41.2682 53.3867 40.7246 53.1523 40.0996C52.918 39.4746 52.8008 38.8008 52.8008 38.0781V37.6875C52.8008 36.8607 52.9212 36.112 53.1621 35.4414C53.403 34.7708 53.7383 34.1979 54.168 33.7227C54.5977 33.2409 55.1055 32.873 55.6914 32.6191C56.2773 32.3652 56.9121 32.2383 57.5957 32.2383C58.3509 32.2383 59.0117 32.3652 59.5781 32.6191C60.1445 32.873 60.6133 33.2311 60.9844 33.6934C61.362 34.1491 61.6419 34.6927 61.8242 35.3242C62.013 35.9557 62.1074 36.6523 62.1074 37.4141V38.4199H53.9434V36.7305H59.7832V36.5449C59.7702 36.1217 59.6855 35.7246 59.5293 35.3535C59.3796 34.9824 59.1484 34.6829 58.8359 34.4551C58.5234 34.2272 58.1068 34.1133 57.5859 34.1133C57.1953 34.1133 56.847 34.1979 56.541 34.3672C56.2415 34.5299 55.9909 34.7676 55.7891 35.0801C55.5872 35.3926 55.431 35.7702 55.3203 36.2129C55.2161 36.6491 55.1641 37.1406 55.1641 37.6875V38.0781C55.1641 38.5404 55.2259 38.9701 55.3496 39.3672C55.4798 39.7578 55.6686 40.0996 55.916 40.3926C56.1634 40.6855 56.4629 40.9167 56.8145 41.0859C57.166 41.2487 57.5664 41.3301 58.0156 41.3301C58.582 41.3301 59.0866 41.2161 59.5293 40.9883C59.972 40.7604 60.3561 40.4382 60.6816 40.0215L61.9219 41.2227C61.694 41.5547 61.3978 41.8737 61.0332 42.1797C60.6686 42.4792 60.2227 42.7233 59.6953 42.9121C59.1745 43.1009 58.569 43.1953 57.8789 43.1953ZM66.3066 34.4453V43H63.9531V32.4336H66.1992L66.3066 34.4453ZM69.5391 32.3652L69.5195 34.5527C69.3763 34.5267 69.2201 34.5072 69.0508 34.4941C68.888 34.4811 68.7253 34.4746 68.5625 34.4746C68.1589 34.4746 67.804 34.5332 67.498 34.6504C67.1921 34.7611 66.9349 34.9238 66.7266 35.1387C66.5247 35.347 66.3685 35.6009 66.2578 35.9004C66.1471 36.1999 66.082 36.5352 66.0625 36.9062L65.5254 36.9453C65.5254 36.2812 65.5905 35.666 65.7207 35.0996C65.8509 34.5332 66.0462 34.0352 66.3066 33.6055C66.5736 33.1758 66.9056 32.8405 67.3027 32.5996C67.7064 32.3587 68.1719 32.2383 68.6992 32.2383C68.8424 32.2383 68.9954 32.2513 69.1582 32.2773C69.3275 32.3034 69.4544 32.3327 69.5391 32.3652ZM74.627 41.1348L77.2148 32.4336H79.6562L75.9844 43H74.4609L74.627 41.1348ZM72.6445 32.4336L75.2812 41.1738L75.4082 43H73.8848L70.1934 32.4336H72.6445ZM83.6309 32.4336V43H81.2676V32.4336H83.6309ZM81.1113 29.6602C81.1113 29.3021 81.2285 29.0059 81.4629 28.7715C81.7038 28.5306 82.0358 28.4102 82.459 28.4102C82.8757 28.4102 83.2044 28.5306 83.4453 28.7715C83.6862 29.0059 83.8066 29.3021 83.8066 29.6602C83.8066 30.0117 83.6862 30.3047 83.4453 30.5391C83.2044 30.7734 82.8757 30.8906 82.459 30.8906C82.0358 30.8906 81.7038 30.7734 81.4629 30.5391C81.2285 30.3047 81.1113 30.0117 81.1113 29.6602ZM90.8672 43.1953C90.0859 43.1953 89.3796 43.0684 88.748 42.8145C88.123 42.554 87.5892 42.1927 87.1465 41.7305C86.7103 41.2682 86.375 40.7246 86.1406 40.0996C85.9062 39.4746 85.7891 38.8008 85.7891 38.0781V37.6875C85.7891 36.8607 85.9095 36.112 86.1504 35.4414C86.3913 34.7708 86.7266 34.1979 87.1562 33.7227C87.5859 33.2409 88.0938 32.873 88.6797 32.6191C89.2656 32.3652 89.9004 32.2383 90.584 32.2383C91.3392 32.2383 92 32.3652 92.5664 32.6191C93.1328 32.873 93.6016 33.2311 93.9727 33.6934C94.3503 34.1491 94.6302 34.6927 94.8125 35.3242C95.0013 35.9557 95.0957 36.6523 95.0957 37.4141V38.4199H86.9316V36.7305H92.7715V36.5449C92.7585 36.1217 92.6738 35.7246 92.5176 35.3535C92.3678 34.9824 92.1367 34.6829 91.8242 34.4551C91.5117 34.2272 91.0951 34.1133 90.5742 34.1133C90.1836 34.1133 89.8353 34.1979 89.5293 34.3672C89.2298 34.5299 88.9792 34.7676 88.7773 35.0801C88.5755 35.3926 88.4193 35.7702 88.3086 36.2129C88.2044 36.6491 88.1523 37.1406 88.1523 37.6875V38.0781C88.1523 38.5404 88.2142 38.9701 88.3379 39.3672C88.4681 39.7578 88.6569 40.0996 88.9043 40.3926C89.1517 40.6855 89.4512 40.9167 89.8027 41.0859C90.1543 41.2487 90.5547 41.3301 91.0039 41.3301C91.5703 41.3301 92.0749 41.2161 92.5176 40.9883C92.9603 40.7604 93.3444 40.4382 93.6699 40.0215L94.9102 41.2227C94.6823 41.5547 94.3861 41.8737 94.0215 42.1797C93.6569 42.4792 93.2109 42.7233 92.6836 42.9121C92.1628 43.1009 91.5573 43.1953 90.8672 43.1953ZM99.8027 40.6562L102.244 32.4336H103.748L103.338 34.8945L100.877 43H99.5293L99.8027 40.6562ZM98.3672 32.4336L100.271 40.6953L100.428 43H98.9238L96.0625 32.4336H98.3672ZM106.033 40.5977L107.879 32.4336H110.174L107.322 43H105.818L106.033 40.5977ZM104.002 32.4336L106.414 40.5586L106.717 43H105.369L102.879 34.8848L102.469 32.4336H104.002Z" fill="black"/>
<rect x="208" y="20" width="121.01" height="34" rx="5" fill="white"/>
<path d="M226.221 40.9268V42H221.244V40.9268H226.221ZM221.504 32.0469V42H220.185V32.0469H221.504ZM231.901 40.7354V36.9277C231.901 36.6361 231.842 36.3831 231.724 36.1689C231.61 35.9502 231.437 35.7816 231.204 35.6631C230.972 35.5446 230.685 35.4854 230.343 35.4854C230.024 35.4854 229.743 35.54 229.502 35.6494C229.265 35.7588 229.078 35.9023 228.941 36.0801C228.809 36.2578 228.743 36.4492 228.743 36.6543H227.479C227.479 36.39 227.547 36.1279 227.684 35.8682C227.82 35.6084 228.016 35.3737 228.271 35.1641C228.531 34.9499 228.841 34.7812 229.201 34.6582C229.566 34.5306 229.971 34.4668 230.418 34.4668C230.956 34.4668 231.43 34.5579 231.84 34.7402C232.255 34.9225 232.578 35.1982 232.811 35.5674C233.048 35.932 233.166 36.39 233.166 36.9414V40.3867C233.166 40.6328 233.187 40.8949 233.228 41.1729C233.273 41.4508 233.339 41.6901 233.426 41.8906V42H232.106C232.043 41.8542 231.993 41.6605 231.956 41.4189C231.92 41.1729 231.901 40.945 231.901 40.7354ZM232.12 37.5156L232.134 38.4043H230.855C230.495 38.4043 230.174 38.4339 229.892 38.4932C229.609 38.5479 229.372 38.6322 229.181 38.7461C228.989 38.86 228.843 39.0036 228.743 39.1768C228.643 39.3454 228.593 39.5436 228.593 39.7715C228.593 40.0039 228.645 40.2158 228.75 40.4072C228.855 40.5986 229.012 40.7513 229.222 40.8652C229.436 40.9746 229.698 41.0293 230.008 41.0293C230.395 41.0293 230.737 40.9473 231.033 40.7832C231.329 40.6191 231.564 40.4186 231.737 40.1816C231.915 39.9447 232.011 39.7145 232.024 39.4912L232.564 40.0996C232.533 40.291 232.446 40.5029 232.305 40.7354C232.163 40.9678 231.974 41.1911 231.737 41.4053C231.505 41.6149 231.227 41.7904 230.903 41.9316C230.584 42.0684 230.224 42.1367 229.823 42.1367C229.322 42.1367 228.882 42.0387 228.504 41.8428C228.13 41.6468 227.839 41.3848 227.629 41.0566C227.424 40.724 227.321 40.3525 227.321 39.9424C227.321 39.5459 227.399 39.1973 227.554 38.8965C227.709 38.5911 227.932 38.3382 228.224 38.1377C228.515 37.9326 228.866 37.7777 229.276 37.6729C229.687 37.568 230.145 37.5156 230.65 37.5156H232.12ZM239.462 40.0381C239.462 39.8558 239.421 39.6872 239.339 39.5322C239.261 39.3727 239.1 39.2292 238.854 39.1016C238.612 38.9694 238.247 38.8555 237.76 38.7598C237.35 38.6732 236.978 38.5706 236.646 38.4521C236.317 38.3337 236.037 38.1901 235.805 38.0215C235.577 37.8529 235.401 37.6546 235.278 37.4268C235.155 37.1989 235.094 36.9323 235.094 36.627C235.094 36.3353 235.158 36.0596 235.285 35.7998C235.417 35.54 235.602 35.3099 235.839 35.1094C236.08 34.9089 236.37 34.7516 236.707 34.6377C237.044 34.5238 237.42 34.4668 237.835 34.4668C238.427 34.4668 238.933 34.5716 239.353 34.7812C239.772 34.9909 240.093 35.2712 240.316 35.6221C240.54 35.9684 240.651 36.3535 240.651 36.7773H239.387C239.387 36.5723 239.325 36.374 239.202 36.1826C239.084 35.9867 238.908 35.8249 238.676 35.6973C238.448 35.5697 238.168 35.5059 237.835 35.5059C237.484 35.5059 237.199 35.5605 236.98 35.6699C236.766 35.7747 236.609 35.9092 236.509 36.0732C236.413 36.2373 236.365 36.4105 236.365 36.5928C236.365 36.7295 236.388 36.8525 236.434 36.9619C236.484 37.0667 236.57 37.1647 236.693 37.2559C236.816 37.3424 236.99 37.4245 237.213 37.502C237.436 37.5794 237.721 37.6569 238.067 37.7344C238.674 37.8711 239.173 38.0352 239.564 38.2266C239.956 38.418 240.248 38.6527 240.439 38.9307C240.631 39.2087 240.727 39.5459 240.727 39.9424C240.727 40.266 240.658 40.5622 240.521 40.8311C240.389 41.0999 240.196 41.3324 239.94 41.5283C239.69 41.7197 239.389 41.8701 239.038 41.9795C238.692 42.0843 238.302 42.1367 237.869 42.1367C237.217 42.1367 236.666 42.0205 236.215 41.7881C235.764 41.5557 235.422 41.2549 235.189 40.8857C234.957 40.5166 234.841 40.127 234.841 39.7168H236.112C236.131 40.0632 236.231 40.3389 236.413 40.5439C236.595 40.7445 236.819 40.888 237.083 40.9746C237.347 41.0566 237.609 41.0977 237.869 41.0977C238.215 41.0977 238.505 41.0521 238.737 40.9609C238.974 40.8698 239.154 40.7445 239.277 40.585C239.4 40.4255 239.462 40.2432 239.462 40.0381ZM245.484 34.6035V35.5742H241.485V34.6035H245.484ZM242.839 32.8057H244.104V40.168C244.104 40.4186 244.142 40.6077 244.22 40.7354C244.297 40.863 244.397 40.9473 244.521 40.9883C244.644 41.0293 244.776 41.0498 244.917 41.0498C245.022 41.0498 245.131 41.0407 245.245 41.0225C245.364 40.9997 245.452 40.9814 245.512 40.9678L245.519 42C245.418 42.0319 245.286 42.0615 245.122 42.0889C244.963 42.1208 244.769 42.1367 244.541 42.1367C244.231 42.1367 243.946 42.0752 243.687 41.9521C243.427 41.8291 243.219 41.624 243.064 41.3369C242.914 41.0452 242.839 40.6533 242.839 40.1611V32.8057ZM252.149 36.4014H253.052C253.494 36.4014 253.858 36.3285 254.146 36.1826C254.437 36.0322 254.654 35.8294 254.795 35.5742C254.941 35.3145 255.014 35.0228 255.014 34.6992C255.014 34.3164 254.95 33.9951 254.822 33.7354C254.695 33.4756 254.503 33.2796 254.248 33.1475C253.993 33.0153 253.669 32.9492 253.277 32.9492C252.922 32.9492 252.607 33.0199 252.334 33.1611C252.065 33.2979 251.853 33.4938 251.698 33.749C251.548 34.0042 251.473 34.305 251.473 34.6514H250.208C250.208 34.1455 250.336 33.6852 250.591 33.2705C250.846 32.8558 251.204 32.5254 251.664 32.2793C252.129 32.0332 252.667 31.9102 253.277 31.9102C253.879 31.9102 254.405 32.0173 254.856 32.2314C255.308 32.4411 255.659 32.7555 255.909 33.1748C256.16 33.5895 256.285 34.1068 256.285 34.7266C256.285 34.9772 256.226 35.2461 256.107 35.5332C255.993 35.8158 255.813 36.0801 255.567 36.3262C255.326 36.5723 255.011 36.7751 254.624 36.9346C254.237 37.0895 253.772 37.167 253.229 37.167H252.149V36.4014ZM252.149 37.4404V36.6816H253.229C253.863 36.6816 254.387 36.7568 254.802 36.9072C255.216 37.0576 255.542 37.2581 255.779 37.5088C256.021 37.7594 256.189 38.0352 256.285 38.3359C256.385 38.6322 256.436 38.9284 256.436 39.2246C256.436 39.6895 256.356 40.1019 256.196 40.4619C256.041 40.8219 255.82 41.1273 255.533 41.3779C255.251 41.6286 254.918 41.8177 254.535 41.9453C254.152 42.0729 253.735 42.1367 253.284 42.1367C252.851 42.1367 252.443 42.0752 252.061 41.9521C251.682 41.8291 251.347 41.6514 251.056 41.4189C250.764 41.182 250.536 40.8926 250.372 40.5508C250.208 40.2044 250.126 39.8102 250.126 39.3682H251.391C251.391 39.7145 251.466 40.0176 251.616 40.2773C251.771 40.5371 251.99 40.7399 252.272 40.8857C252.56 41.027 252.897 41.0977 253.284 41.0977C253.672 41.0977 254.004 41.0316 254.282 40.8994C254.565 40.7627 254.781 40.5576 254.932 40.2842C255.087 40.0107 255.164 39.6667 255.164 39.252C255.164 38.8372 255.077 38.4977 254.904 38.2334C254.731 37.9645 254.485 37.7663 254.166 37.6387C253.852 37.5065 253.48 37.4404 253.052 37.4404H252.149ZM264.427 36.2305V37.748C264.427 38.5638 264.354 39.252 264.208 39.8125C264.062 40.373 263.853 40.8242 263.579 41.166C263.306 41.5078 262.975 41.7562 262.588 41.9111C262.205 42.0615 261.772 42.1367 261.289 42.1367C260.906 42.1367 260.553 42.0889 260.229 41.9932C259.906 41.8975 259.614 41.7448 259.354 41.5352C259.099 41.321 258.881 41.043 258.698 40.7012C258.516 40.3594 258.377 39.9447 258.281 39.457C258.186 38.9694 258.138 38.3997 258.138 37.748V36.2305C258.138 35.4147 258.211 34.7311 258.356 34.1797C258.507 33.6283 258.719 33.1862 258.992 32.8535C259.266 32.5163 259.594 32.2747 259.977 32.1289C260.364 31.9831 260.797 31.9102 261.275 31.9102C261.663 31.9102 262.018 31.958 262.342 32.0537C262.67 32.1449 262.962 32.293 263.217 32.498C263.472 32.6986 263.688 32.9674 263.866 33.3047C264.049 33.6374 264.188 34.0452 264.283 34.5283C264.379 35.0114 264.427 35.5788 264.427 36.2305ZM263.155 37.9531V36.0186C263.155 35.5719 263.128 35.18 263.073 34.8428C263.023 34.501 262.948 34.2093 262.848 33.9678C262.747 33.7262 262.62 33.5303 262.465 33.3799C262.314 33.2295 262.139 33.1201 261.938 33.0518C261.743 32.9788 261.521 32.9424 261.275 32.9424C260.975 32.9424 260.708 32.9993 260.476 33.1133C260.243 33.2227 260.047 33.3981 259.888 33.6396C259.733 33.8812 259.614 34.1979 259.532 34.5898C259.45 34.9818 259.409 35.458 259.409 36.0186V37.9531C259.409 38.3997 259.434 38.7939 259.484 39.1357C259.539 39.4775 259.619 39.7738 259.724 40.0244C259.828 40.2705 259.956 40.4733 260.106 40.6328C260.257 40.7923 260.43 40.9108 260.626 40.9883C260.826 41.0612 261.048 41.0977 261.289 41.0977C261.599 41.0977 261.87 41.0384 262.103 40.9199C262.335 40.8014 262.529 40.6169 262.684 40.3662C262.843 40.111 262.962 39.7852 263.039 39.3887C263.117 38.9876 263.155 38.5091 263.155 37.9531ZM274.325 40.5645V31.5H275.597V42H274.435L274.325 40.5645ZM269.349 38.3838V38.2402C269.349 37.6751 269.417 37.1624 269.554 36.7021C269.695 36.2373 269.893 35.8385 270.148 35.5059C270.408 35.1732 270.716 34.918 271.071 34.7402C271.431 34.5579 271.832 34.4668 272.274 34.4668C272.739 34.4668 273.145 34.5488 273.491 34.7129C273.842 34.8724 274.138 35.1071 274.38 35.417C274.626 35.7223 274.82 36.0915 274.961 36.5244C275.102 36.9574 275.2 37.4473 275.255 37.9941V38.623C275.205 39.1654 275.107 39.653 274.961 40.0859C274.82 40.5189 274.626 40.888 274.38 41.1934C274.138 41.4987 273.842 41.7334 273.491 41.8975C273.14 42.057 272.73 42.1367 272.261 42.1367C271.828 42.1367 271.431 42.0433 271.071 41.8564C270.716 41.6696 270.408 41.4076 270.148 41.0703C269.893 40.7331 269.695 40.3366 269.554 39.8809C269.417 39.4206 269.349 38.9215 269.349 38.3838ZM270.62 38.2402V38.3838C270.62 38.7529 270.657 39.0993 270.729 39.4229C270.807 39.7464 270.925 40.0312 271.085 40.2773C271.244 40.5234 271.447 40.7171 271.693 40.8584C271.939 40.9951 272.233 41.0635 272.575 41.0635C272.994 41.0635 273.339 40.9746 273.607 40.7969C273.881 40.6191 274.1 40.3844 274.264 40.0928C274.428 39.8011 274.555 39.4844 274.646 39.1426V37.4951C274.592 37.2445 274.512 37.0029 274.407 36.7705C274.307 36.5335 274.175 36.3239 274.011 36.1416C273.851 35.9548 273.653 35.8066 273.416 35.6973C273.184 35.5879 272.908 35.5332 272.589 35.5332C272.243 35.5332 271.944 35.6061 271.693 35.752C271.447 35.8932 271.244 36.0892 271.085 36.3398C270.925 36.5859 270.807 36.873 270.729 37.2012C270.657 37.5247 270.62 37.8711 270.62 38.2402ZM281.927 40.7354V36.9277C281.927 36.6361 281.868 36.3831 281.749 36.1689C281.635 35.9502 281.462 35.7816 281.229 35.6631C280.997 35.5446 280.71 35.4854 280.368 35.4854C280.049 35.4854 279.769 35.54 279.527 35.6494C279.29 35.7588 279.104 35.9023 278.967 36.0801C278.835 36.2578 278.769 36.4492 278.769 36.6543H277.504C277.504 36.39 277.572 36.1279 277.709 35.8682C277.846 35.6084 278.042 35.3737 278.297 35.1641C278.557 34.9499 278.867 34.7812 279.227 34.6582C279.591 34.5306 279.997 34.4668 280.443 34.4668C280.981 34.4668 281.455 34.5579 281.865 34.7402C282.28 34.9225 282.604 35.1982 282.836 35.5674C283.073 35.932 283.191 36.39 283.191 36.9414V40.3867C283.191 40.6328 283.212 40.8949 283.253 41.1729C283.299 41.4508 283.365 41.6901 283.451 41.8906V42H282.132C282.068 41.8542 282.018 41.6605 281.981 41.4189C281.945 41.1729 281.927 40.945 281.927 40.7354ZM282.146 37.5156L282.159 38.4043H280.881C280.521 38.4043 280.2 38.4339 279.917 38.4932C279.634 38.5479 279.397 38.6322 279.206 38.7461C279.015 38.86 278.869 39.0036 278.769 39.1768C278.668 39.3454 278.618 39.5436 278.618 39.7715C278.618 40.0039 278.671 40.2158 278.775 40.4072C278.88 40.5986 279.037 40.7513 279.247 40.8652C279.461 40.9746 279.723 41.0293 280.033 41.0293C280.421 41.0293 280.762 40.9473 281.059 40.7832C281.355 40.6191 281.59 40.4186 281.763 40.1816C281.94 39.9447 282.036 39.7145 282.05 39.4912L282.59 40.0996C282.558 40.291 282.471 40.5029 282.33 40.7354C282.189 40.9678 282 41.1911 281.763 41.4053C281.53 41.6149 281.252 41.7904 280.929 41.9316C280.61 42.0684 280.25 42.1367 279.849 42.1367C279.347 42.1367 278.908 42.0387 278.529 41.8428C278.156 41.6468 277.864 41.3848 277.654 41.0566C277.449 40.724 277.347 40.3525 277.347 39.9424C277.347 39.5459 277.424 39.1973 277.579 38.8965C277.734 38.5911 277.957 38.3382 278.249 38.1377C278.541 37.9326 278.892 37.7777 279.302 37.6729C279.712 37.568 280.17 37.5156 280.676 37.5156H282.146ZM287.149 41.2344L289.207 34.6035H290.561L287.594 43.1416C287.525 43.3239 287.434 43.5199 287.32 43.7295C287.211 43.9437 287.07 44.1465 286.896 44.3379C286.723 44.5293 286.514 44.6842 286.268 44.8027C286.026 44.9258 285.737 44.9873 285.399 44.9873C285.299 44.9873 285.172 44.9736 285.017 44.9463C284.862 44.9189 284.752 44.8962 284.688 44.8779L284.682 43.8525C284.718 43.8571 284.775 43.8617 284.853 43.8662C284.935 43.8753 284.992 43.8799 285.023 43.8799C285.311 43.8799 285.554 43.8411 285.755 43.7637C285.955 43.6908 286.124 43.5654 286.261 43.3877C286.402 43.2145 286.523 42.9753 286.623 42.6699L287.149 41.2344ZM285.639 34.6035L287.56 40.3457L287.888 41.6787L286.979 42.1436L284.258 34.6035H285.639ZM296.009 40.0381C296.009 39.8558 295.968 39.6872 295.886 39.5322C295.808 39.3727 295.646 39.2292 295.4 39.1016C295.159 38.9694 294.794 38.8555 294.307 38.7598C293.896 38.6732 293.525 38.5706 293.192 38.4521C292.864 38.3337 292.584 38.1901 292.352 38.0215C292.124 37.8529 291.948 37.6546 291.825 37.4268C291.702 37.1989 291.641 36.9323 291.641 36.627C291.641 36.3353 291.704 36.0596 291.832 35.7998C291.964 35.54 292.149 35.3099 292.386 35.1094C292.627 34.9089 292.917 34.7516 293.254 34.6377C293.591 34.5238 293.967 34.4668 294.382 34.4668C294.974 34.4668 295.48 34.5716 295.899 34.7812C296.319 34.9909 296.64 35.2712 296.863 35.6221C297.087 35.9684 297.198 36.3535 297.198 36.7773H295.934C295.934 36.5723 295.872 36.374 295.749 36.1826C295.631 35.9867 295.455 35.8249 295.223 35.6973C294.995 35.5697 294.715 35.5059 294.382 35.5059C294.031 35.5059 293.746 35.5605 293.527 35.6699C293.313 35.7747 293.156 35.9092 293.056 36.0732C292.96 36.2373 292.912 36.4105 292.912 36.5928C292.912 36.7295 292.935 36.8525 292.98 36.9619C293.031 37.0667 293.117 37.1647 293.24 37.2559C293.363 37.3424 293.536 37.4245 293.76 37.502C293.983 37.5794 294.268 37.6569 294.614 37.7344C295.22 37.8711 295.719 38.0352 296.111 38.2266C296.503 38.418 296.795 38.6527 296.986 38.9307C297.178 39.2087 297.273 39.5459 297.273 39.9424C297.273 40.266 297.205 40.5622 297.068 40.8311C296.936 41.0999 296.743 41.3324 296.487 41.5283C296.237 41.7197 295.936 41.8701 295.585 41.9795C295.239 42.0843 294.849 42.1367 294.416 42.1367C293.764 42.1367 293.213 42.0205 292.762 41.7881C292.311 41.5557 291.969 41.2549 291.736 40.8857C291.504 40.5166 291.388 40.127 291.388 39.7168H292.659C292.677 40.0632 292.778 40.3389 292.96 40.5439C293.142 40.7445 293.366 40.888 293.63 40.9746C293.894 41.0566 294.156 41.0977 294.416 41.0977C294.762 41.0977 295.052 41.0521 295.284 40.9609C295.521 40.8698 295.701 40.7445 295.824 40.585C295.947 40.4255 296.009 40.2432 296.009 40.0381Z" fill="#606060"/>
<path d="M307 34.7051L307.915 33.7898L312.505 38.3695L317.095 33.7898L318.01 34.7051L312.505 40.2101L307 34.7051Z" fill="#606060"/>
<path d="M98.2305 255.72L4.1631 344.001C3.01099 345.082 3.5086 347.009 5.04015 347.398L7.5 348.021L349 349L348 140.5H315.5L206.506 195.754L192.716 180.891L135.003 195.754L113.553 269.046L98.2305 255.72Z" fill="url(#paint0_linear_398_1160)"/>
<path d="M3 345L98.3073 255.926L113.641 269.222L135.109 196.095L192.867 181.265L206.667 196.095L315.5 140.5H348.5" stroke="#0052FF"/>
<rect x="0.5" y="0.5" width="348" height="348" rx="9.5" stroke="url(#paint1_linear_398_1160)"/>
<path d="M198 161C198 159.343 199.343 158 201 158H264C265.657 158 267 159.343 267 161V175C267 176.657 265.657 178 264 178H198V161Z" fill="#444444"/>
<line opacity="0.5" x1="192.25" y1="1" x2="192.25" y2="348" stroke="#5B616E" stroke-width="0.5" stroke-dasharray="2 2"/>
<circle cx="192.5" cy="181.5" r="2" fill="white" stroke="#0052FF"/>
<path d="M209.613 171.961V173H203.099V172.091L206.359 168.461C206.76 168.014 207.07 167.636 207.289 167.326C207.512 167.012 207.667 166.731 207.754 166.485C207.845 166.235 207.891 165.979 207.891 165.72C207.891 165.392 207.822 165.095 207.686 164.831C207.553 164.562 207.357 164.348 207.098 164.188C206.838 164.029 206.523 163.949 206.154 163.949C205.712 163.949 205.343 164.036 205.047 164.209C204.755 164.378 204.536 164.615 204.391 164.92C204.245 165.225 204.172 165.576 204.172 165.973H202.907C202.907 165.412 203.03 164.899 203.276 164.435C203.522 163.97 203.887 163.601 204.37 163.327C204.853 163.049 205.448 162.91 206.154 162.91C206.783 162.91 207.321 163.022 207.768 163.245C208.214 163.464 208.556 163.774 208.793 164.175C209.035 164.571 209.155 165.036 209.155 165.569C209.155 165.861 209.105 166.157 209.005 166.458C208.909 166.754 208.775 167.05 208.602 167.347C208.433 167.643 208.235 167.935 208.007 168.222C207.784 168.509 207.544 168.791 207.289 169.069L204.623 171.961H209.613ZM212.225 171.94H212.354C213.084 171.94 213.676 171.838 214.132 171.633C214.588 171.428 214.938 171.152 215.185 170.806C215.431 170.459 215.599 170.07 215.69 169.637C215.782 169.199 215.827 168.75 215.827 168.29V166.766C215.827 166.314 215.775 165.913 215.67 165.562C215.57 165.212 215.428 164.918 215.246 164.681C215.068 164.444 214.866 164.264 214.638 164.141C214.41 164.018 214.168 163.956 213.913 163.956C213.621 163.956 213.359 164.015 213.127 164.134C212.899 164.248 212.705 164.41 212.546 164.619C212.391 164.829 212.272 165.075 212.19 165.357C212.108 165.64 212.067 165.948 212.067 166.28C212.067 166.576 212.104 166.864 212.177 167.142C212.25 167.42 212.361 167.67 212.512 167.894C212.662 168.117 212.849 168.295 213.072 168.427C213.3 168.554 213.567 168.618 213.872 168.618C214.155 168.618 214.419 168.563 214.665 168.454C214.916 168.34 215.137 168.188 215.328 167.996C215.524 167.8 215.679 167.579 215.793 167.333C215.911 167.087 215.98 166.829 215.998 166.561H216.6C216.6 166.939 216.524 167.312 216.374 167.682C216.228 168.046 216.023 168.379 215.759 168.68C215.494 168.98 215.185 169.222 214.829 169.404C214.474 169.582 214.086 169.671 213.667 169.671C213.175 169.671 212.749 169.575 212.389 169.384C212.029 169.192 211.732 168.937 211.5 168.618C211.272 168.299 211.101 167.944 210.987 167.552C210.878 167.155 210.823 166.754 210.823 166.349C210.823 165.875 210.889 165.43 211.021 165.016C211.154 164.601 211.35 164.236 211.609 163.922C211.869 163.603 212.19 163.354 212.573 163.177C212.961 162.999 213.407 162.91 213.913 162.91C214.483 162.91 214.968 163.024 215.369 163.252C215.77 163.48 216.096 163.785 216.347 164.168C216.602 164.551 216.789 164.981 216.907 165.46C217.026 165.938 217.085 166.431 217.085 166.937V167.395C217.085 167.91 217.051 168.434 216.982 168.967C216.919 169.495 216.793 170.001 216.606 170.484C216.424 170.967 216.158 171.4 215.807 171.783C215.456 172.161 214.998 172.462 214.433 172.686C213.872 172.904 213.179 173.014 212.354 173.014H212.225V171.94ZM225.09 167.23V168.748C225.09 169.564 225.017 170.252 224.871 170.812C224.725 171.373 224.516 171.824 224.242 172.166C223.969 172.508 223.638 172.756 223.251 172.911C222.868 173.062 222.435 173.137 221.952 173.137C221.569 173.137 221.216 173.089 220.893 172.993C220.569 172.897 220.277 172.745 220.018 172.535C219.762 172.321 219.544 172.043 219.361 171.701C219.179 171.359 219.04 170.945 218.944 170.457C218.849 169.969 218.801 169.4 218.801 168.748V167.23C218.801 166.415 218.874 165.731 219.02 165.18C219.17 164.628 219.382 164.186 219.655 163.854C219.929 163.516 220.257 163.275 220.64 163.129C221.027 162.983 221.46 162.91 221.938 162.91C222.326 162.91 222.681 162.958 223.005 163.054C223.333 163.145 223.625 163.293 223.88 163.498C224.135 163.699 224.352 163.967 224.529 164.305C224.712 164.637 224.851 165.045 224.946 165.528C225.042 166.011 225.09 166.579 225.09 167.23ZM223.818 168.953V167.019C223.818 166.572 223.791 166.18 223.736 165.843C223.686 165.501 223.611 165.209 223.511 164.968C223.41 164.726 223.283 164.53 223.128 164.38C222.978 164.229 222.802 164.12 222.602 164.052C222.406 163.979 222.185 163.942 221.938 163.942C221.638 163.942 221.371 163.999 221.139 164.113C220.906 164.223 220.71 164.398 220.551 164.64C220.396 164.881 220.277 165.198 220.195 165.59C220.113 165.982 220.072 166.458 220.072 167.019V168.953C220.072 169.4 220.097 169.794 220.147 170.136C220.202 170.478 220.282 170.774 220.387 171.024C220.492 171.271 220.619 171.473 220.77 171.633C220.92 171.792 221.093 171.911 221.289 171.988C221.49 172.061 221.711 172.098 221.952 172.098C222.262 172.098 222.533 172.038 222.766 171.92C222.998 171.801 223.192 171.617 223.347 171.366C223.506 171.111 223.625 170.785 223.702 170.389C223.78 169.988 223.818 169.509 223.818 168.953ZM232.965 167.23V168.748C232.965 169.564 232.892 170.252 232.746 170.812C232.6 171.373 232.391 171.824 232.117 172.166C231.844 172.508 231.513 172.756 231.126 172.911C230.743 173.062 230.31 173.137 229.827 173.137C229.444 173.137 229.091 173.089 228.768 172.993C228.444 172.897 228.152 172.745 227.893 172.535C227.637 172.321 227.419 172.043 227.236 171.701C227.054 171.359 226.915 170.945 226.819 170.457C226.724 169.969 226.676 169.4 226.676 168.748V167.23C226.676 166.415 226.749 165.731 226.895 165.18C227.045 164.628 227.257 164.186 227.53 163.854C227.804 163.516 228.132 163.275 228.515 163.129C228.902 162.983 229.335 162.91 229.813 162.91C230.201 162.91 230.556 162.958 230.88 163.054C231.208 163.145 231.5 163.293 231.755 163.498C232.01 163.699 232.227 163.967 232.404 164.305C232.587 164.637 232.726 165.045 232.821 165.528C232.917 166.011 232.965 166.579 232.965 167.23ZM231.693 168.953V167.019C231.693 166.572 231.666 166.18 231.611 165.843C231.561 165.501 231.486 165.209 231.386 164.968C231.285 164.726 231.158 164.53 231.003 164.38C230.853 164.229 230.677 164.12 230.477 164.052C230.281 163.979 230.06 163.942 229.813 163.942C229.513 163.942 229.246 163.999 229.014 164.113C228.781 164.223 228.585 164.398 228.426 164.64C228.271 164.881 228.152 165.198 228.07 165.59C227.988 165.982 227.947 166.458 227.947 167.019V168.953C227.947 169.4 227.972 169.794 228.022 170.136C228.077 170.478 228.157 170.774 228.262 171.024C228.367 171.271 228.494 171.473 228.645 171.633C228.795 171.792 228.968 171.911 229.164 171.988C229.365 172.061 229.586 172.098 229.827 172.098C230.137 172.098 230.408 172.038 230.641 171.92C230.873 171.801 231.067 171.617 231.222 171.366C231.381 171.111 231.5 170.785 231.577 170.389C231.655 169.988 231.693 169.509 231.693 168.953ZM242.13 165.891H243.067V170.7C243.067 171.234 242.949 171.678 242.711 172.033C242.473 172.388 242.158 172.655 241.764 172.834C241.373 173.01 240.948 173.098 240.489 173.098C240.007 173.098 239.571 173.01 239.181 172.834C238.793 172.655 238.486 172.388 238.258 172.033C238.033 171.678 237.921 171.234 237.921 170.7V165.891H238.854V170.7C238.854 171.071 238.922 171.377 239.059 171.618C239.195 171.859 239.386 172.038 239.63 172.155C239.877 172.272 240.164 172.331 240.489 172.331C240.818 172.331 241.104 172.272 241.349 172.155C241.596 172.038 241.788 171.859 241.925 171.618C242.062 171.377 242.13 171.071 242.13 170.7V165.891ZM248.336 171.203C248.336 171.037 248.31 170.891 248.258 170.764C248.209 170.633 248.121 170.516 247.994 170.412C247.87 170.308 247.698 170.209 247.477 170.114C247.258 170.02 246.982 169.924 246.646 169.826C246.295 169.722 245.978 169.606 245.694 169.479C245.411 169.349 245.169 169.201 244.967 169.035C244.765 168.869 244.61 168.679 244.503 168.464C244.396 168.249 244.342 168.003 244.342 167.727C244.342 167.45 244.399 167.194 244.513 166.96C244.627 166.726 244.789 166.522 245.001 166.35C245.216 166.174 245.471 166.037 245.768 165.939C246.064 165.842 246.394 165.793 246.759 165.793C247.293 165.793 247.745 165.896 248.116 166.101C248.491 166.302 248.775 166.568 248.971 166.896C249.166 167.222 249.264 167.57 249.264 167.941H248.326C248.326 167.674 248.269 167.438 248.155 167.233C248.041 167.025 247.869 166.862 247.638 166.745C247.407 166.625 247.114 166.564 246.759 166.564C246.424 166.564 246.147 166.615 245.929 166.716C245.711 166.817 245.548 166.953 245.44 167.126C245.336 167.299 245.284 167.495 245.284 167.717C245.284 167.867 245.315 168.003 245.377 168.127C245.442 168.247 245.541 168.36 245.675 168.464C245.812 168.568 245.984 168.664 246.192 168.752C246.404 168.84 246.656 168.924 246.949 169.006C247.353 169.12 247.701 169.247 247.994 169.387C248.287 169.527 248.528 169.685 248.717 169.86C248.909 170.033 249.05 170.23 249.142 170.451C249.236 170.669 249.283 170.917 249.283 171.193C249.283 171.483 249.225 171.745 249.107 171.979C248.99 172.214 248.823 172.414 248.604 172.58C248.386 172.746 248.124 172.875 247.818 172.966C247.516 173.054 247.177 173.098 246.803 173.098C246.474 173.098 246.15 173.052 245.831 172.961C245.515 172.87 245.227 172.733 244.967 172.551C244.71 172.368 244.503 172.144 244.347 171.877C244.194 171.607 244.117 171.294 244.117 170.939H245.055C245.055 171.184 245.102 171.394 245.196 171.569C245.291 171.742 245.419 171.885 245.582 171.999C245.748 172.113 245.935 172.198 246.144 172.253C246.355 172.305 246.575 172.331 246.803 172.331C247.132 172.331 247.41 172.285 247.638 172.194C247.866 172.103 248.038 171.973 248.155 171.804C248.276 171.634 248.336 171.434 248.336 171.203ZM252.408 173H250.924L250.934 172.233H252.408C252.916 172.233 253.339 172.128 253.678 171.916C254.016 171.701 254.27 171.402 254.439 171.018C254.612 170.63 254.698 170.178 254.698 169.66V169.226C254.698 168.819 254.649 168.457 254.552 168.142C254.454 167.823 254.311 167.554 254.122 167.336C253.933 167.115 253.702 166.947 253.429 166.833C253.159 166.719 252.848 166.662 252.496 166.662H250.895V165.891H252.496C252.962 165.891 253.386 165.969 253.771 166.125C254.155 166.278 254.485 166.501 254.762 166.794C255.042 167.084 255.257 167.435 255.406 167.849C255.556 168.259 255.631 168.721 255.631 169.235V169.66C255.631 170.174 255.556 170.638 255.406 171.052C255.257 171.462 255.04 171.812 254.757 172.102C254.477 172.391 254.138 172.614 253.741 172.771C253.347 172.924 252.903 173 252.408 173ZM251.427 165.891V173H250.484V165.891H251.427ZM261.339 170.739H262.276C262.228 171.188 262.099 171.59 261.891 171.945C261.682 172.3 261.388 172.582 261.007 172.79C260.626 172.995 260.151 173.098 259.581 173.098C259.164 173.098 258.785 173.02 258.443 172.863C258.105 172.707 257.813 172.486 257.569 172.199C257.325 171.91 257.136 171.563 257.003 171.159C256.873 170.752 256.808 170.3 256.808 169.802V169.094C256.808 168.596 256.873 168.145 257.003 167.741C257.136 167.334 257.327 166.986 257.574 166.696C257.825 166.407 258.126 166.184 258.478 166.027C258.829 165.871 259.225 165.793 259.664 165.793C260.201 165.793 260.655 165.894 261.026 166.096C261.397 166.298 261.686 166.577 261.891 166.936C262.099 167.29 262.228 167.702 262.276 168.171H261.339C261.293 167.839 261.209 167.554 261.085 167.316C260.961 167.076 260.785 166.89 260.558 166.76C260.33 166.63 260.032 166.564 259.664 166.564C259.348 166.564 259.07 166.625 258.829 166.745C258.591 166.866 258.391 167.036 258.229 167.258C258.069 167.479 257.949 167.744 257.867 168.054C257.786 168.363 257.745 168.706 257.745 169.084V169.802C257.745 170.15 257.781 170.477 257.853 170.783C257.927 171.089 258.04 171.358 258.189 171.589C258.339 171.82 258.53 172.002 258.761 172.136C258.992 172.266 259.265 172.331 259.581 172.331C259.981 172.331 260.3 172.268 260.538 172.141C260.776 172.014 260.955 171.831 261.075 171.594C261.199 171.356 261.287 171.071 261.339 170.739Z" fill="white"/>
<defs>
<linearGradient id="paint0_linear_398_1160" x1="68.5102" y1="-41.9999" x2="270.908" y2="393.913" gradientUnits="userSpaceOnUse">
<stop stop-color="#0052FF"/>
<stop offset="0.265625" stop-color="#0052FF" stop-opacity="0.880208"/>
<stop offset="1" stop-color="#0052FF" stop-opacity="0"/>
</linearGradient>
<linearGradient id="paint1_linear_398_1160" x1="174.5" y1="0" x2="174.5" y2="349" gradientUnits="userSpaceOnUse">
<stop stop-color="#0052FF"/>
<stop offset="1" stop-color="#7F83DC"/>
</linearGradient>
</defs>
</svg>
