<svg width="21" height="21" viewBox="0 0 21 21" fill="none" xmlns="http://www.w3.org/2000/svg">
<path d="M10.4 1.9C13.2 1.9 13.5 1.9 14.6 2C15.6 2 16.2 2.2 16.5 2.4C17 2.6 17.3 2.8 17.7 3.2C18.1 3.6 18.3 3.9 18.5 4.4C18.6 4.8 18.8 5.3 18.9 6.3C18.9 7.4 19 7.7 19 10.5C19 13.3 19 13.6 18.9 14.7C18.9 15.7 18.7 16.3 18.5 16.6C18.3 17.1 18.1 17.4 17.7 17.8C17.3 18.2 17 18.4 16.5 18.6C16.1 18.7 15.6 18.9 14.6 19C13.6 19 13.2 19 10.4 19C7.6 19 7.3 19 6.2 18.9C5.2 18.9 4.6 18.7 4.3 18.5C3.8 18.3 3.5 18.1 3.1 17.7C2.7 17.3 2.5 17 2.3 16.5C2.2 16.1 2 15.6 1.9 14.6C1.8 13.5 1.8 13.2 1.8 10.4C1.8 7.6 1.8 7.3 1.9 6.2C1.9 5.2 2.1 4.6 2.3 4.3C2.5 3.8 2.7 3.5 3.1 3.1C3.5 2.7 3.8 2.5 4.3 2.3C4.6 2.2 5.2 2 6.2 1.9C7.3 1.9 7.6 1.9 10.4 1.9ZM10.4 0C7.6 0 7.2 0 6.1 0.1C5 0.1 4.3 0.3 3.6 0.5C2.9 0.8 2.3 1.2 1.8 1.8C1.2 2.3 0.8 2.9 0.5 3.6C0.3 4.3 0.1 5 0.1 6.1C0 7.2 0 7.6 0 10.4C0 13.2 0 13.6 0.1 14.7C0.2 15.8 0.3 16.6 0.6 17.2C0.9 17.9 1.2 18.5 1.8 19C2.4 19.6 3 19.9 3.6 20.2C4.3 20.5 5 20.6 6.1 20.7C7.2 20.8 7.6 20.8 10.4 20.8C13.2 20.8 13.6 20.8 14.7 20.7C15.8 20.6 16.6 20.5 17.2 20.2C17.9 19.9 18.5 19.6 19 19C19.6 18.4 19.9 17.8 20.2 17.2C20.5 16.5 20.6 15.8 20.7 14.7C20.8 13.6 20.8 13.2 20.8 10.4C20.8 7.6 20.8 7.2 20.7 6.1C20.6 5 20.5 4.2 20.2 3.6C19.9 2.9 19.6 2.3 19 1.8C18.4 1.2 17.8 0.9 17.2 0.6C16.5 0.3 15.8 0.2 14.7 0.1C13.6 0 13.3 0 10.4 0Z" fill="#EEEEEE"/>
<path d="M10.4 5.1001C7.4 5.1001 5 7.5001 5 10.5001C5 13.5001 7.4 15.9001 10.4 15.9001C13.4 15.9001 15.8 13.5001 15.8 10.5001C15.8 7.5001 13.4 5.1001 10.4 5.1001ZM10.4 13.9001C8.5 13.9001 6.9 12.3001 6.9 10.4001C7 8.5001 8.5 7.0001 10.4 7.0001C12.3 7.0001 13.9 8.6001 13.9 10.5001C13.9 12.4001 12.4 13.9001 10.4 13.9001Z" fill="#EEEEEE"/>
<path d="M17.3 4.9001C17.3 5.6001 16.7 6.2001 16 6.2001C15.3 6.2001 14.7 5.6001 14.7 4.9001C14.7 4.2001 15.3 3.6001 16 3.6001C16.7 3.6001 17.3 4.2001 17.3 4.9001Z" fill="#EEEEEE"/>
</svg>
