<svg width="33" height="32" viewBox="0 0 33 32" fill="none" xmlns="http://www.w3.org/2000/svg">
<path d="M16.5005 31.3076C25.1458 31.3076 32.1543 24.2992 32.1543 15.6538C32.1543 7.00844 25.1458 0 16.5005 0C7.85513 0 0.84668 7.00844 0.84668 15.6538C0.84668 24.2992 7.85513 31.3076 16.5005 31.3076Z" fill="#0052FF"/>
<path d="M13.0003 13.5469H10.3965V22.0245H13.0003V13.5469Z" fill="#EEEEEE"/>
<path d="M11.7277 12.4574C12.5972 12.4574 13.3021 11.7525 13.3021 10.883C13.3021 10.0135 12.5972 9.30859 11.7277 9.30859C10.8582 9.30859 10.1533 10.0135 10.1533 10.883C10.1533 11.7525 10.8582 12.4574 11.7277 12.4574Z" fill="#EEEEEE"/>
<path d="M17.2386 17.604C17.2386 16.3929 17.7836 15.7269 18.813 15.7269C19.7819 15.7269 20.2663 16.3929 20.2663 17.604C20.2663 18.8151 20.2663 22.085 20.2663 22.085H22.8701C22.8701 22.085 22.8701 18.9968 22.8701 16.6957C22.8701 14.3947 21.5985 13.3047 19.7819 13.3047C17.9652 13.3047 17.2386 14.6974 17.2386 14.6974V13.5469H14.6953V22.0245H17.2386C17.2386 22.0245 17.2386 18.8757 17.2386 17.604Z" fill="#EEEEEE"/>
</svg>
