<svg width="508" height="169" viewBox="0 0 508 169" fill="none" xmlns="http://www.w3.org/2000/svg">
<path d="M210.304 51H208.048L208.062 50.2822H210.304C211.019 50.2822 211.634 50.1227 212.149 49.8037C212.669 49.4801 213.07 49.0335 213.353 48.4639C213.635 47.8942 213.776 47.2334 213.776 46.4814V45.5518C213.776 44.9775 213.694 44.458 213.53 43.9932C213.371 43.5283 213.141 43.1318 212.84 42.8037C212.539 42.471 212.179 42.2158 211.76 42.0381C211.345 41.8604 210.88 41.7715 210.365 41.7715H208.007V41.0469H210.365C210.985 41.0469 211.552 41.154 212.067 41.3682C212.587 41.5778 213.036 41.8831 213.414 42.2842C213.797 42.6807 214.091 43.1569 214.296 43.7129C214.506 44.2689 214.61 44.8887 214.61 45.5723V46.4814C214.61 47.165 214.506 47.7848 214.296 48.3408C214.091 48.8968 213.797 49.373 213.414 49.7695C213.031 50.166 212.578 50.4714 212.054 50.6855C211.53 50.8952 210.946 51 210.304 51ZM208.424 41.0469V51H207.583V41.0469H208.424ZM222.943 50.2822V51H217.345V50.2822H222.943ZM217.598 41.0469V51H216.757V41.0469H217.598ZM222.246 45.5107V46.2285H217.345V45.5107H222.246ZM222.909 41.0469V41.7715H217.345V41.0469H222.909ZM228.111 46.9463H225.274V46.2285H228.111C228.704 46.2285 229.185 46.1328 229.554 45.9414C229.927 45.7454 230.199 45.4811 230.367 45.1484C230.54 44.8158 230.627 44.4421 230.627 44.0273C230.627 43.6217 230.54 43.248 230.367 42.9062C230.199 42.5645 229.927 42.291 229.554 42.0859C229.185 41.8763 228.704 41.7715 228.111 41.7715H225.568V51H224.728V41.0469H228.111C228.84 41.0469 229.453 41.1722 229.95 41.4229C230.451 41.6735 230.83 42.0221 231.085 42.4688C231.34 42.9154 231.468 43.4303 231.468 44.0137C231.468 44.6243 231.34 45.1507 231.085 45.5928C230.83 46.0303 230.454 46.3652 229.957 46.5977C229.46 46.8301 228.845 46.9463 228.111 46.9463ZM240.703 45.4902V46.5566C240.703 47.2539 240.612 47.8851 240.43 48.4502C240.252 49.0107 239.992 49.4915 239.65 49.8926C239.313 50.2936 238.908 50.6012 238.434 50.8154C237.96 51.0296 237.426 51.1367 236.834 51.1367C236.255 51.1367 235.727 51.0296 235.248 50.8154C234.774 50.6012 234.366 50.2936 234.024 49.8926C233.683 49.4915 233.418 49.0107 233.231 48.4502C233.045 47.8851 232.951 47.2539 232.951 46.5566V45.4902C232.951 44.793 233.042 44.1641 233.225 43.6035C233.411 43.0384 233.676 42.5553 234.018 42.1543C234.359 41.7533 234.767 41.4456 235.241 41.2314C235.715 41.0173 236.242 40.9102 236.82 40.9102C237.413 40.9102 237.946 41.0173 238.42 41.2314C238.894 41.4456 239.302 41.7533 239.644 42.1543C239.985 42.5553 240.247 43.0384 240.43 43.6035C240.612 44.1641 240.703 44.793 240.703 45.4902ZM239.869 46.5566V45.4766C239.869 44.8887 239.801 44.36 239.664 43.8906C239.532 43.4212 239.334 43.0202 239.069 42.6875C238.81 42.3548 238.491 42.0996 238.112 41.9219C237.734 41.7441 237.303 41.6553 236.82 41.6553C236.351 41.6553 235.929 41.7441 235.556 41.9219C235.182 42.0996 234.863 42.3548 234.599 42.6875C234.339 43.0202 234.138 43.4212 233.997 43.8906C233.86 44.36 233.792 44.8887 233.792 45.4766V46.5566C233.792 47.1491 233.86 47.6823 233.997 48.1562C234.138 48.6257 234.341 49.029 234.605 49.3662C234.87 49.6989 235.189 49.9541 235.562 50.1318C235.941 50.3096 236.365 50.3984 236.834 50.3984C237.322 50.3984 237.752 50.3096 238.126 50.1318C238.5 49.9541 238.816 49.6989 239.076 49.3662C239.336 49.029 239.532 48.6257 239.664 48.1562C239.801 47.6823 239.869 47.1491 239.869 46.5566ZM248.462 48.5527C248.462 48.2793 248.416 48.0355 248.325 47.8213C248.234 47.6071 248.084 47.4157 247.874 47.2471C247.669 47.0739 247.391 46.9144 247.04 46.7686C246.694 46.6182 246.261 46.4701 245.741 46.3242C245.244 46.1829 244.796 46.028 244.395 45.8594C243.993 45.6908 243.649 45.4971 243.362 45.2783C243.08 45.0596 242.863 44.8044 242.713 44.5127C242.562 44.2165 242.487 43.8724 242.487 43.4805C242.487 43.0977 242.569 42.749 242.733 42.4346C242.897 42.1201 243.128 41.849 243.424 41.6211C243.725 41.3932 244.078 41.2178 244.483 41.0947C244.894 40.9717 245.342 40.9102 245.83 40.9102C246.527 40.9102 247.129 41.0423 247.635 41.3066C248.145 41.571 248.539 41.9287 248.817 42.3799C249.1 42.8265 249.241 43.3278 249.241 43.8838H248.4C248.4 43.4508 248.298 43.0658 248.093 42.7285C247.892 42.3867 247.601 42.1201 247.218 41.9287C246.84 41.7327 246.377 41.6348 245.83 41.6348C245.283 41.6348 244.823 41.7191 244.449 41.8877C244.08 42.0518 243.8 42.2728 243.608 42.5508C243.422 42.8242 243.328 43.1296 243.328 43.4668C243.328 43.7038 243.374 43.9225 243.465 44.123C243.556 44.319 243.704 44.5036 243.909 44.6768C244.119 44.8454 244.395 45.0049 244.736 45.1553C245.078 45.3011 245.5 45.4401 246.001 45.5723C246.53 45.7181 246.999 45.8799 247.409 46.0576C247.819 46.2354 248.166 46.4404 248.448 46.6729C248.731 46.9007 248.945 47.1673 249.091 47.4727C249.237 47.778 249.31 48.1335 249.31 48.5391C249.31 48.9447 249.223 49.3092 249.05 49.6328C248.881 49.9518 248.642 50.223 248.332 50.4463C248.027 50.6696 247.664 50.8405 247.245 50.959C246.83 51.0775 246.377 51.1367 245.885 51.1367C245.443 51.1367 245.003 51.0798 244.565 50.9658C244.128 50.8519 243.727 50.6764 243.362 50.4395C243.002 50.1979 242.713 49.888 242.494 49.5098C242.28 49.1315 242.173 48.6803 242.173 48.1562H243.007C243.007 48.5755 243.091 48.9287 243.26 49.2158C243.428 49.5029 243.652 49.7354 243.93 49.9131C244.212 50.0908 244.522 50.2207 244.859 50.3027C245.201 50.3802 245.543 50.4189 245.885 50.4189C246.409 50.4189 246.862 50.3415 247.245 50.1865C247.632 50.0316 247.931 49.8151 248.141 49.5371C248.355 49.2546 248.462 48.9264 248.462 48.5527ZM252.153 41.0469V51H251.312V41.0469H252.153ZM257.991 41.0469V51H257.157V41.0469H257.991ZM261.402 41.0469V41.7715H253.753V41.0469H261.402ZM272.176 41.0469H273.017V47.7871C273.017 48.5345 272.859 49.1566 272.545 49.6533C272.23 50.1501 271.807 50.5215 271.273 50.7676C270.745 51.0137 270.159 51.1367 269.517 51.1367C268.856 51.1367 268.261 51.0137 267.732 50.7676C267.204 50.5215 266.785 50.1501 266.475 49.6533C266.169 49.1566 266.017 48.5345 266.017 47.7871V41.0469H266.851V47.7871C266.851 48.3659 266.965 48.8512 267.192 49.2432C267.42 49.6351 267.735 49.929 268.136 50.125C268.537 50.321 268.997 50.4189 269.517 50.4189C270.032 50.4189 270.49 50.321 270.891 50.125C271.292 49.929 271.606 49.6351 271.834 49.2432C272.062 48.8512 272.176 48.3659 272.176 47.7871V41.0469ZM281.015 48.5527C281.015 48.2793 280.969 48.0355 280.878 47.8213C280.787 47.6071 280.636 47.4157 280.427 47.2471C280.222 47.0739 279.944 46.9144 279.593 46.7686C279.246 46.6182 278.813 46.4701 278.294 46.3242C277.797 46.1829 277.348 46.028 276.947 45.8594C276.546 45.6908 276.202 45.4971 275.915 45.2783C275.632 45.0596 275.416 44.8044 275.266 44.5127C275.115 44.2165 275.04 43.8724 275.04 43.4805C275.04 43.0977 275.122 42.749 275.286 42.4346C275.45 42.1201 275.68 41.849 275.977 41.6211C276.277 41.3932 276.631 41.2178 277.036 41.0947C277.446 40.9717 277.895 40.9102 278.383 40.9102C279.08 40.9102 279.682 41.0423 280.188 41.3066C280.698 41.571 281.092 41.9287 281.37 42.3799C281.653 42.8265 281.794 43.3278 281.794 43.8838H280.953C280.953 43.4508 280.851 43.0658 280.646 42.7285C280.445 42.3867 280.153 42.1201 279.771 41.9287C279.392 41.7327 278.93 41.6348 278.383 41.6348C277.836 41.6348 277.376 41.7191 277.002 41.8877C276.633 42.0518 276.353 42.2728 276.161 42.5508C275.974 42.8242 275.881 43.1296 275.881 43.4668C275.881 43.7038 275.926 43.9225 276.018 44.123C276.109 44.319 276.257 44.5036 276.462 44.6768C276.672 44.8454 276.947 45.0049 277.289 45.1553C277.631 45.3011 278.052 45.4401 278.554 45.5723C279.082 45.7181 279.552 45.8799 279.962 46.0576C280.372 46.2354 280.718 46.4404 281.001 46.6729C281.284 46.9007 281.498 47.1673 281.644 47.4727C281.789 47.778 281.862 48.1335 281.862 48.5391C281.862 48.9447 281.776 49.3092 281.603 49.6328C281.434 49.9518 281.195 50.223 280.885 50.4463C280.579 50.6696 280.217 50.8405 279.798 50.959C279.383 51.0775 278.93 51.1367 278.438 51.1367C277.995 51.1367 277.556 51.0798 277.118 50.9658C276.681 50.8519 276.28 50.6764 275.915 50.4395C275.555 50.1979 275.266 49.888 275.047 49.5098C274.833 49.1315 274.726 48.6803 274.726 48.1562H275.56C275.56 48.5755 275.644 48.9287 275.812 49.2158C275.981 49.5029 276.204 49.7354 276.482 49.9131C276.765 50.0908 277.075 50.2207 277.412 50.3027C277.754 50.3802 278.096 50.4189 278.438 50.4189C278.962 50.4189 279.415 50.3415 279.798 50.1865C280.185 50.0316 280.484 49.8151 280.693 49.5371C280.908 49.2546 281.015 48.9264 281.015 48.5527ZM286.401 51H284.146L284.159 50.2822H286.401C287.117 50.2822 287.732 50.1227 288.247 49.8037C288.767 49.4801 289.168 49.0335 289.45 48.4639C289.733 47.8942 289.874 47.2334 289.874 46.4814V45.5518C289.874 44.9775 289.792 44.458 289.628 43.9932C289.468 43.5283 289.238 43.1318 288.938 42.8037C288.637 42.471 288.277 42.2158 287.857 42.0381C287.443 41.8604 286.978 41.7715 286.463 41.7715H284.104V41.0469H286.463C287.083 41.0469 287.65 41.154 288.165 41.3682C288.685 41.5778 289.133 41.8831 289.512 42.2842C289.895 42.6807 290.188 43.1569 290.394 43.7129C290.603 44.2689 290.708 44.8887 290.708 45.5723V46.4814C290.708 47.165 290.603 47.7848 290.394 48.3408C290.188 48.8968 289.895 49.373 289.512 49.7695C289.129 50.166 288.675 50.4714 288.151 50.6855C287.627 50.8952 287.044 51 286.401 51ZM284.521 41.0469V51H283.681V41.0469H284.521ZM299.055 47.8965H299.896C299.827 48.5664 299.643 49.1452 299.342 49.6328C299.041 50.1159 298.631 50.4873 298.111 50.7471C297.592 51.0068 296.965 51.1367 296.231 51.1367C295.666 51.1367 295.154 51.0296 294.693 50.8154C294.238 50.6012 293.846 50.2982 293.518 49.9062C293.189 49.5098 292.937 49.0358 292.759 48.4844C292.581 47.9329 292.492 47.32 292.492 46.6455V45.4014C292.492 44.7269 292.581 44.1162 292.759 43.5693C292.937 43.0179 293.192 42.5439 293.524 42.1475C293.857 41.751 294.256 41.4456 294.721 41.2314C295.186 41.0173 295.71 40.9102 296.293 40.9102C296.999 40.9102 297.61 41.04 298.125 41.2998C298.64 41.555 299.046 41.9242 299.342 42.4072C299.643 42.8903 299.827 43.4736 299.896 44.1572H299.055C298.991 43.6195 298.85 43.1637 298.631 42.79C298.412 42.4163 298.109 42.1315 297.722 41.9355C297.339 41.735 296.863 41.6348 296.293 41.6348C295.828 41.6348 295.413 41.7236 295.049 41.9014C294.684 42.0791 294.374 42.3343 294.119 42.667C293.864 42.9951 293.668 43.3893 293.531 43.8496C293.399 44.3099 293.333 44.8226 293.333 45.3877V46.6455C293.333 47.1924 293.397 47.696 293.524 48.1562C293.652 48.6165 293.839 49.0153 294.085 49.3525C294.336 49.6898 294.641 49.9518 295.001 50.1387C295.361 50.3255 295.771 50.4189 296.231 50.4189C296.819 50.4189 297.309 50.3255 297.701 50.1387C298.098 49.9473 298.405 49.6647 298.624 49.291C298.843 48.9173 298.986 48.4525 299.055 47.8965Z" fill="#EEEEEE"/>
<path d="M201.062 131.368L203.222 124.047H203.898L203.352 126.221L201.048 134H200.398L201.062 131.368ZM198.553 124.047L200.371 131.3L200.918 134H200.241L197.691 124.047H198.553ZM206.811 131.3L208.602 124.047H209.463L206.92 134H206.243L206.811 131.3ZM203.974 124.047L206.106 131.368L206.763 134H206.113L203.857 126.221L203.304 124.047H203.974ZM212.115 124.047V134H211.274V124.047H212.115ZM217.953 124.047V134H217.119V124.047H217.953ZM221.364 124.047V124.771H213.715V124.047H221.364ZM229.677 128.511V129.229H223.627V128.511H229.677ZM223.825 124.047V134H222.984V124.047H223.825ZM230.354 124.047V134H229.513V124.047H230.354ZM235.617 134H233.361L233.375 133.282H235.617C236.333 133.282 236.948 133.123 237.463 132.804C237.982 132.48 238.383 132.034 238.666 131.464C238.949 130.894 239.09 130.233 239.09 129.481V128.552C239.09 127.978 239.008 127.458 238.844 126.993C238.684 126.528 238.454 126.132 238.153 125.804C237.853 125.471 237.493 125.216 237.073 125.038C236.659 124.86 236.194 124.771 235.679 124.771H233.32V124.047H235.679C236.299 124.047 236.866 124.154 237.381 124.368C237.9 124.578 238.349 124.883 238.728 125.284C239.11 125.681 239.404 126.157 239.609 126.713C239.819 127.269 239.924 127.889 239.924 128.572V129.481C239.924 130.165 239.819 130.785 239.609 131.341C239.404 131.897 239.11 132.373 238.728 132.77C238.345 133.166 237.891 133.471 237.367 133.686C236.843 133.895 236.26 134 235.617 134ZM233.737 124.047V134H232.896V124.047H233.737ZM242.05 124.047H245.283C245.971 124.047 246.568 124.159 247.074 124.382C247.58 124.605 247.97 124.936 248.243 125.373C248.521 125.806 248.66 126.339 248.66 126.973C248.66 127.442 248.56 127.868 248.359 128.251C248.163 128.634 247.892 128.955 247.546 129.215C247.2 129.47 246.799 129.646 246.343 129.741L246.049 129.851H242.597L242.583 129.133H245.475C245.994 129.133 246.427 129.033 246.773 128.832C247.12 128.632 247.38 128.367 247.553 128.039C247.73 127.706 247.819 127.351 247.819 126.973C247.819 126.521 247.721 126.132 247.525 125.804C247.334 125.471 247.049 125.216 246.671 125.038C246.293 124.86 245.83 124.771 245.283 124.771H242.891V134H242.05V124.047ZM248.195 134L245.618 129.55L246.521 129.543L249.091 133.911V134H248.195ZM254.238 124.642L250.793 134H249.918L253.678 124.047H254.286L254.238 124.642ZM257.369 134L253.917 124.642L253.869 124.047H254.478L258.244 134H257.369ZM256.754 130.486V131.211H251.47V130.486H256.754ZM261.765 131.368L263.925 124.047H264.602L264.055 126.221L261.751 134H261.102L261.765 131.368ZM259.256 124.047L261.074 131.3L261.621 134H260.944L258.395 124.047H259.256ZM267.514 131.3L269.305 124.047H270.166L267.623 134H266.946L267.514 131.3ZM264.677 124.047L266.81 131.368L267.466 134H266.816L264.561 126.221L264.007 124.047H264.677ZM281.22 124.047H282.061V130.787C282.061 131.535 281.903 132.157 281.589 132.653C281.274 133.15 280.851 133.521 280.317 133.768C279.789 134.014 279.203 134.137 278.561 134.137C277.9 134.137 277.305 134.014 276.776 133.768C276.248 133.521 275.828 133.15 275.519 132.653C275.213 132.157 275.061 131.535 275.061 130.787V124.047H275.895V130.787C275.895 131.366 276.008 131.851 276.236 132.243C276.464 132.635 276.779 132.929 277.18 133.125C277.581 133.321 278.041 133.419 278.561 133.419C279.076 133.419 279.534 133.321 279.935 133.125C280.336 132.929 280.65 132.635 280.878 132.243C281.106 131.851 281.22 131.366 281.22 130.787V124.047ZM290.059 131.553C290.059 131.279 290.013 131.035 289.922 130.821C289.831 130.607 289.68 130.416 289.471 130.247C289.266 130.074 288.988 129.914 288.637 129.769C288.29 129.618 287.857 129.47 287.338 129.324C286.841 129.183 286.392 129.028 285.991 128.859C285.59 128.691 285.246 128.497 284.959 128.278C284.676 128.06 284.46 127.804 284.31 127.513C284.159 127.216 284.084 126.872 284.084 126.48C284.084 126.098 284.166 125.749 284.33 125.435C284.494 125.12 284.724 124.849 285.021 124.621C285.321 124.393 285.674 124.218 286.08 124.095C286.49 123.972 286.939 123.91 287.427 123.91C288.124 123.91 288.726 124.042 289.231 124.307C289.742 124.571 290.136 124.929 290.414 125.38C290.697 125.826 290.838 126.328 290.838 126.884H289.997C289.997 126.451 289.895 126.066 289.689 125.729C289.489 125.387 289.197 125.12 288.814 124.929C288.436 124.733 287.974 124.635 287.427 124.635C286.88 124.635 286.42 124.719 286.046 124.888C285.677 125.052 285.396 125.273 285.205 125.551C285.018 125.824 284.925 126.13 284.925 126.467C284.925 126.704 284.97 126.923 285.062 127.123C285.153 127.319 285.301 127.504 285.506 127.677C285.715 127.845 285.991 128.005 286.333 128.155C286.675 128.301 287.096 128.44 287.598 128.572C288.126 128.718 288.596 128.88 289.006 129.058C289.416 129.235 289.762 129.44 290.045 129.673C290.327 129.901 290.542 130.167 290.688 130.473C290.833 130.778 290.906 131.133 290.906 131.539C290.906 131.945 290.82 132.309 290.646 132.633C290.478 132.952 290.239 133.223 289.929 133.446C289.623 133.67 289.261 133.84 288.842 133.959C288.427 134.077 287.974 134.137 287.481 134.137C287.039 134.137 286.6 134.08 286.162 133.966C285.725 133.852 285.324 133.676 284.959 133.439C284.599 133.198 284.31 132.888 284.091 132.51C283.877 132.132 283.77 131.68 283.77 131.156H284.604C284.604 131.576 284.688 131.929 284.856 132.216C285.025 132.503 285.248 132.735 285.526 132.913C285.809 133.091 286.119 133.221 286.456 133.303C286.798 133.38 287.14 133.419 287.481 133.419C288.006 133.419 288.459 133.341 288.842 133.187C289.229 133.032 289.528 132.815 289.737 132.537C289.951 132.255 290.059 131.926 290.059 131.553ZM295.445 134H293.189L293.203 133.282H295.445C296.161 133.282 296.776 133.123 297.291 132.804C297.811 132.48 298.212 132.034 298.494 131.464C298.777 130.894 298.918 130.233 298.918 129.481V128.552C298.918 127.978 298.836 127.458 298.672 126.993C298.512 126.528 298.282 126.132 297.981 125.804C297.681 125.471 297.321 125.216 296.901 125.038C296.487 124.86 296.022 124.771 295.507 124.771H293.148V124.047H295.507C296.127 124.047 296.694 124.154 297.209 124.368C297.729 124.578 298.177 124.883 298.556 125.284C298.938 125.681 299.232 126.157 299.438 126.713C299.647 127.269 299.752 127.889 299.752 128.572V129.481C299.752 130.165 299.647 130.785 299.438 131.341C299.232 131.897 298.938 132.373 298.556 132.77C298.173 133.166 297.719 133.471 297.195 133.686C296.671 133.895 296.088 134 295.445 134ZM293.565 124.047V134H292.725V124.047H293.565ZM308.099 130.896H308.939C308.871 131.566 308.687 132.145 308.386 132.633C308.085 133.116 307.675 133.487 307.155 133.747C306.636 134.007 306.009 134.137 305.275 134.137C304.71 134.137 304.198 134.03 303.737 133.815C303.282 133.601 302.89 133.298 302.562 132.906C302.233 132.51 301.98 132.036 301.803 131.484C301.625 130.933 301.536 130.32 301.536 129.646V128.401C301.536 127.727 301.625 127.116 301.803 126.569C301.98 126.018 302.236 125.544 302.568 125.147C302.901 124.751 303.3 124.446 303.765 124.231C304.229 124.017 304.754 123.91 305.337 123.91C306.043 123.91 306.654 124.04 307.169 124.3C307.684 124.555 308.09 124.924 308.386 125.407C308.687 125.89 308.871 126.474 308.939 127.157H308.099C308.035 126.619 307.894 126.164 307.675 125.79C307.456 125.416 307.153 125.132 306.766 124.936C306.383 124.735 305.907 124.635 305.337 124.635C304.872 124.635 304.457 124.724 304.093 124.901C303.728 125.079 303.418 125.334 303.163 125.667C302.908 125.995 302.712 126.389 302.575 126.85C302.443 127.31 302.377 127.823 302.377 128.388V129.646C302.377 130.192 302.441 130.696 302.568 131.156C302.696 131.617 302.883 132.015 303.129 132.353C303.38 132.69 303.685 132.952 304.045 133.139C304.405 133.326 304.815 133.419 305.275 133.419C305.863 133.419 306.353 133.326 306.745 133.139C307.142 132.947 307.449 132.665 307.668 132.291C307.887 131.917 308.03 131.452 308.099 130.896Z" fill="#EEEEEE"/>
<rect x="0.5" y="0.5" width="169" height="168" rx="4.5" fill="#C3F53C" fill-opacity="0.1" stroke="url(#paint0_linear_398_2834)"/>
<path d="M68.9551 86.3711H71.3965C71.3184 87.3021 71.0579 88.1322 70.6152 88.8613C70.1725 89.584 69.5508 90.1536 68.75 90.5703C67.9492 90.987 66.9759 91.1953 65.8301 91.1953C64.9512 91.1953 64.1602 91.0391 63.457 90.7266C62.7539 90.4076 62.1517 89.9583 61.6504 89.3789C61.1491 88.793 60.765 88.0866 60.498 87.2598C60.2376 86.4329 60.1074 85.5085 60.1074 84.4863V83.3047C60.1074 82.2826 60.2409 81.3581 60.5078 80.5312C60.7812 79.7044 61.1719 78.998 61.6797 78.4121C62.1875 77.8197 62.7962 77.3672 63.5059 77.0547C64.222 76.7422 65.026 76.5859 65.918 76.5859C67.0508 76.5859 68.0078 76.7943 68.7891 77.2109C69.5703 77.6276 70.1758 78.2038 70.6055 78.9395C71.0417 79.6751 71.3086 80.5182 71.4062 81.4688H68.9648C68.8997 80.8568 68.7565 80.3327 68.5352 79.8965C68.3203 79.4603 68.0013 79.1283 67.5781 78.9004C67.1549 78.666 66.6016 78.5488 65.918 78.5488C65.3581 78.5488 64.8698 78.653 64.4531 78.8613C64.0365 79.0697 63.6882 79.3757 63.4082 79.7793C63.1283 80.1829 62.9167 80.681 62.7734 81.2734C62.6367 81.8594 62.5684 82.5299 62.5684 83.2852V84.4863C62.5684 85.2025 62.6302 85.8535 62.7539 86.4395C62.8841 87.0189 63.0794 87.5169 63.3398 87.9336C63.6068 88.3503 63.9453 88.6725 64.3555 88.9004C64.7656 89.1283 65.2572 89.2422 65.8301 89.2422C66.5267 89.2422 67.0898 89.1315 67.5195 88.9102C67.9557 88.6888 68.2845 88.3665 68.5059 87.9434C68.7337 87.5137 68.8835 86.9896 68.9551 86.3711ZM75.9082 76V91H73.5449V76H75.9082ZM81.0059 80.4336V91H78.6426V80.4336H81.0059ZM78.4863 77.6602C78.4863 77.3021 78.6035 77.0059 78.8379 76.7715C79.0788 76.5306 79.4108 76.4102 79.834 76.4102C80.2507 76.4102 80.5794 76.5306 80.8203 76.7715C81.0612 77.0059 81.1816 77.3021 81.1816 77.6602C81.1816 78.0117 81.0612 78.3047 80.8203 78.5391C80.5794 78.7734 80.2507 78.8906 79.834 78.8906C79.4108 78.8906 79.0788 78.7734 78.8379 78.5391C78.6035 78.3047 78.4863 78.0117 78.4863 77.6602ZM88.2422 91.1953C87.4609 91.1953 86.7546 91.0684 86.123 90.8145C85.498 90.554 84.9642 90.1927 84.5215 89.7305C84.0853 89.2682 83.75 88.7246 83.5156 88.0996C83.2812 87.4746 83.1641 86.8008 83.1641 86.0781V85.6875C83.1641 84.8607 83.2845 84.112 83.5254 83.4414C83.7663 82.7708 84.1016 82.1979 84.5312 81.7227C84.9609 81.2409 85.4688 80.873 86.0547 80.6191C86.6406 80.3652 87.2754 80.2383 87.959 80.2383C88.7142 80.2383 89.375 80.3652 89.9414 80.6191C90.5078 80.873 90.9766 81.2311 91.3477 81.6934C91.7253 82.1491 92.0052 82.6927 92.1875 83.3242C92.3763 83.9557 92.4707 84.6523 92.4707 85.4141V86.4199H84.3066V84.7305H90.1465V84.5449C90.1335 84.1217 90.0488 83.7246 89.8926 83.3535C89.7428 82.9824 89.5117 82.6829 89.1992 82.4551C88.8867 82.2272 88.4701 82.1133 87.9492 82.1133C87.5586 82.1133 87.2103 82.1979 86.9043 82.3672C86.6048 82.5299 86.3542 82.7676 86.1523 83.0801C85.9505 83.3926 85.7943 83.7702 85.6836 84.2129C85.5794 84.6491 85.5273 85.1406 85.5273 85.6875V86.0781C85.5273 86.5404 85.5892 86.9701 85.7129 87.3672C85.8431 87.7578 86.0319 88.0996 86.2793 88.3926C86.5267 88.6855 86.8262 88.9167 87.1777 89.0859C87.5293 89.2487 87.9297 89.3301 88.3789 89.3301C88.9453 89.3301 89.4499 89.2161 89.8926 88.9883C90.3353 88.7604 90.7194 88.4382 91.0449 88.0215L92.2852 89.2227C92.0573 89.5547 91.7611 89.8737 91.3965 90.1797C91.0319 90.4792 90.5859 90.7233 90.0586 90.9121C89.5378 91.1009 88.9323 91.1953 88.2422 91.1953ZM96.6406 82.6895V91H94.2871V80.4336H96.5039L96.6406 82.6895ZM96.2207 85.3262L95.459 85.3164C95.4655 84.5677 95.5697 83.8809 95.7715 83.2559C95.9798 82.6309 96.2663 82.0938 96.6309 81.6445C97.002 81.1953 97.4447 80.8503 97.959 80.6094C98.4733 80.362 99.0462 80.2383 99.6777 80.2383C100.186 80.2383 100.645 80.3099 101.055 80.4531C101.471 80.5898 101.826 80.8145 102.119 81.127C102.419 81.4395 102.646 81.8464 102.803 82.3477C102.959 82.8424 103.037 83.4512 103.037 84.1738V91H100.674V84.1641C100.674 83.6562 100.599 83.2559 100.449 82.9629C100.306 82.6634 100.094 82.4518 99.8145 82.3281C99.541 82.1979 99.1992 82.1328 98.7891 82.1328C98.3854 82.1328 98.0241 82.2174 97.7051 82.3867C97.3861 82.556 97.1159 82.7871 96.8945 83.0801C96.6797 83.373 96.5137 83.7116 96.3965 84.0957C96.2793 84.4798 96.2207 84.89 96.2207 85.3262ZM110.283 80.4336V82.1523H104.326V80.4336H110.283ZM106.045 77.8457H108.398V88.0801C108.398 88.4056 108.444 88.6562 108.535 88.832C108.633 89.0013 108.766 89.1152 108.936 89.1738C109.105 89.2324 109.303 89.2617 109.531 89.2617C109.694 89.2617 109.85 89.252 110 89.2324C110.15 89.2129 110.27 89.1934 110.361 89.1738L110.371 90.9707C110.176 91.0293 109.948 91.0814 109.688 91.127C109.434 91.1725 109.141 91.1953 108.809 91.1953C108.268 91.1953 107.79 91.1009 107.373 90.9121C106.956 90.7168 106.631 90.401 106.396 89.9648C106.162 89.5286 106.045 88.9492 106.045 88.2266V77.8457Z" fill="#C3F53C"/>
<rect x="338.5" y="0.5" width="169" height="168" rx="4.5" fill="#0052FF" fill-opacity="0.1" stroke="url(#paint1_linear_398_2834)"/>
<path d="M402.17 75.3379C402.17 75.0449 402.124 74.7845 402.033 74.5566C401.949 74.3288 401.796 74.1204 401.574 73.9316C401.353 73.7428 401.04 73.5605 400.637 73.3848C400.24 73.2025 399.732 73.0169 399.113 72.8281C398.436 72.6198 397.811 72.3887 397.238 72.1348C396.672 71.8743 396.177 71.5749 395.754 71.2363C395.331 70.8913 395.002 70.4974 394.768 70.0547C394.533 69.6055 394.416 69.0879 394.416 68.502C394.416 67.9225 394.536 67.3952 394.777 66.9199C395.025 66.4447 395.373 66.0345 395.822 65.6895C396.278 65.3379 396.815 65.0677 397.434 64.8789C398.052 64.6836 398.736 64.5859 399.484 64.5859C400.539 64.5859 401.447 64.7812 402.209 65.1719C402.977 65.5625 403.566 66.0866 403.977 66.7441C404.393 67.4017 404.602 68.1276 404.602 68.9219H402.17C402.17 68.4531 402.069 68.0397 401.867 67.6816C401.672 67.3171 401.372 67.0306 400.969 66.8223C400.572 66.6139 400.067 66.5098 399.455 66.5098C398.876 66.5098 398.394 66.5977 398.01 66.7734C397.626 66.9492 397.339 67.1868 397.15 67.4863C396.962 67.7858 396.867 68.1243 396.867 68.502C396.867 68.7689 396.929 69.013 397.053 69.2344C397.176 69.4492 397.365 69.651 397.619 69.8398C397.873 70.0221 398.192 70.1947 398.576 70.3574C398.96 70.5202 399.413 70.6764 399.934 70.8262C400.721 71.0605 401.408 71.321 401.994 71.6074C402.58 71.8874 403.068 72.2064 403.459 72.5645C403.85 72.9225 404.143 73.3294 404.338 73.7852C404.533 74.2344 404.631 74.7454 404.631 75.3184C404.631 75.9173 404.51 76.4577 404.27 76.9395C404.029 77.4147 403.684 77.8216 403.234 78.1602C402.792 78.4922 402.258 78.7493 401.633 78.9316C401.014 79.1074 400.324 79.1953 399.562 79.1953C398.879 79.1953 398.205 79.1042 397.541 78.9219C396.883 78.7396 396.285 78.4629 395.744 78.0918C395.204 77.7142 394.774 77.2454 394.455 76.6855C394.136 76.1191 393.977 75.4583 393.977 74.7031H396.428C396.428 75.1654 396.506 75.5592 396.662 75.8848C396.825 76.2103 397.049 76.4772 397.336 76.6855C397.622 76.8874 397.954 77.0371 398.332 77.1348C398.716 77.2324 399.126 77.2812 399.562 77.2812C400.135 77.2812 400.614 77.1999 400.998 77.0371C401.389 76.8743 401.682 76.6465 401.877 76.3535C402.072 76.0605 402.17 75.722 402.17 75.3379ZM408.918 70.582V79H406.564V68.4336H408.781L408.918 70.582ZM408.537 73.3262L407.736 73.3164C407.736 72.5872 407.827 71.9134 408.01 71.2949C408.192 70.6764 408.459 70.1393 408.811 69.6836C409.162 69.2214 409.598 68.8665 410.119 68.6191C410.646 68.3652 411.255 68.2383 411.945 68.2383C412.427 68.2383 412.867 68.3099 413.264 68.4531C413.667 68.5898 414.016 68.8079 414.309 69.1074C414.608 69.4069 414.836 69.791 414.992 70.2598C415.155 70.7285 415.236 71.2949 415.236 71.959V79H412.883V72.1641C412.883 71.6497 412.805 71.2461 412.648 70.9531C412.499 70.6602 412.281 70.4518 411.994 70.3281C411.714 70.1979 411.379 70.1328 410.988 70.1328C410.546 70.1328 410.168 70.2174 409.855 70.3867C409.549 70.556 409.299 70.7871 409.104 71.0801C408.908 71.373 408.765 71.7116 408.674 72.0957C408.583 72.4798 408.537 72.89 408.537 73.3262ZM415.09 72.7012L413.986 72.9453C413.986 72.3073 414.074 71.7051 414.25 71.1387C414.432 70.5658 414.696 70.0645 415.041 69.6348C415.393 69.1986 415.826 68.8568 416.34 68.6094C416.854 68.362 417.443 68.2383 418.107 68.2383C418.648 68.2383 419.13 68.3132 419.553 68.4629C419.982 68.6061 420.347 68.834 420.646 69.1465C420.946 69.459 421.174 69.8659 421.33 70.3672C421.486 70.862 421.564 71.4609 421.564 72.1641V79H419.201V72.1543C419.201 71.6204 419.123 71.207 418.967 70.9141C418.817 70.6211 418.602 70.4193 418.322 70.3086C418.042 70.1914 417.707 70.1328 417.316 70.1328C416.952 70.1328 416.63 70.2012 416.35 70.3379C416.076 70.4681 415.845 70.6536 415.656 70.8945C415.467 71.1289 415.324 71.3991 415.227 71.7051C415.135 72.0111 415.09 72.3431 415.09 72.7012ZM429.943 76.8809V71.8418C429.943 71.4642 429.875 71.1387 429.738 70.8652C429.602 70.5918 429.393 70.3802 429.113 70.2305C428.84 70.0807 428.495 70.0059 428.078 70.0059C427.694 70.0059 427.362 70.071 427.082 70.2012C426.802 70.3314 426.584 70.5072 426.428 70.7285C426.271 70.9499 426.193 71.2005 426.193 71.4805H423.85C423.85 71.0638 423.951 70.6602 424.152 70.2695C424.354 69.8789 424.647 69.5306 425.031 69.2246C425.415 68.9186 425.874 68.6777 426.408 68.502C426.942 68.3262 427.541 68.2383 428.205 68.2383C428.999 68.2383 429.702 68.3717 430.314 68.6387C430.933 68.9056 431.418 69.3092 431.77 69.8496C432.128 70.3835 432.307 71.054 432.307 71.8613V76.5586C432.307 77.0404 432.339 77.4733 432.404 77.8574C432.476 78.235 432.577 78.5638 432.707 78.8438V79H430.295C430.184 78.7461 430.096 78.4238 430.031 78.0332C429.973 77.6361 429.943 77.252 429.943 76.8809ZM430.285 72.5742L430.305 74.0293H428.615C428.179 74.0293 427.795 74.0716 427.463 74.1562C427.131 74.2344 426.854 74.3516 426.633 74.5078C426.411 74.6641 426.245 74.8529 426.135 75.0742C426.024 75.2956 425.969 75.5462 425.969 75.8262C425.969 76.1061 426.034 76.3633 426.164 76.5977C426.294 76.8255 426.483 77.0046 426.73 77.1348C426.984 77.265 427.29 77.3301 427.648 77.3301C428.13 77.3301 428.55 77.2324 428.908 77.0371C429.273 76.8353 429.559 76.5911 429.768 76.3047C429.976 76.0117 430.087 75.735 430.1 75.4746L430.861 76.5195C430.783 76.7865 430.65 77.0729 430.461 77.3789C430.272 77.6849 430.025 77.9779 429.719 78.2578C429.419 78.5312 429.058 78.7559 428.635 78.9316C428.218 79.1074 427.736 79.1953 427.189 79.1953C426.499 79.1953 425.884 79.0586 425.344 78.7852C424.803 78.5052 424.38 78.1309 424.074 77.6621C423.768 77.1868 423.615 76.6497 423.615 76.0508C423.615 75.4909 423.719 74.9961 423.928 74.5664C424.143 74.1302 424.455 73.7656 424.865 73.4727C425.282 73.1797 425.79 72.9583 426.389 72.8086C426.988 72.6523 427.671 72.5742 428.439 72.5742H430.285ZM437.131 70.4453V79H434.777V68.4336H437.023L437.131 70.4453ZM440.363 68.3652L440.344 70.5527C440.201 70.5267 440.044 70.5072 439.875 70.4941C439.712 70.4811 439.549 70.4746 439.387 70.4746C438.983 70.4746 438.628 70.5332 438.322 70.6504C438.016 70.7611 437.759 70.9238 437.551 71.1387C437.349 71.347 437.193 71.6009 437.082 71.9004C436.971 72.1999 436.906 72.5352 436.887 72.9062L436.35 72.9453C436.35 72.2812 436.415 71.666 436.545 71.0996C436.675 70.5332 436.87 70.0352 437.131 69.6055C437.398 69.1758 437.73 68.8405 438.127 68.5996C438.531 68.3587 438.996 68.2383 439.523 68.2383C439.667 68.2383 439.82 68.2513 439.982 68.2773C440.152 68.3034 440.279 68.3327 440.363 68.3652ZM447.17 68.4336V70.1523H441.213V68.4336H447.17ZM442.932 65.8457H445.285V76.0801C445.285 76.4056 445.331 76.6562 445.422 76.832C445.52 77.0013 445.653 77.1152 445.822 77.1738C445.992 77.2324 446.19 77.2617 446.418 77.2617C446.581 77.2617 446.737 77.252 446.887 77.2324C447.036 77.2129 447.157 77.1934 447.248 77.1738L447.258 78.9707C447.062 79.0293 446.835 79.0814 446.574 79.127C446.32 79.1725 446.027 79.1953 445.695 79.1953C445.155 79.1953 444.676 79.1009 444.26 78.9121C443.843 78.7168 443.518 78.401 443.283 77.9648C443.049 77.5286 442.932 76.9492 442.932 76.2266V65.8457ZM394.436 99.3711H396.877C396.799 100.302 396.538 101.132 396.096 101.861C395.653 102.584 395.031 103.154 394.23 103.57C393.43 103.987 392.456 104.195 391.311 104.195C390.432 104.195 389.641 104.039 388.938 103.727C388.234 103.408 387.632 102.958 387.131 102.379C386.63 101.793 386.245 101.087 385.979 100.26C385.718 99.4329 385.588 98.5085 385.588 97.4863V96.3047C385.588 95.2826 385.721 94.3581 385.988 93.5312C386.262 92.7044 386.652 91.998 387.16 91.4121C387.668 90.8197 388.277 90.3672 388.986 90.0547C389.702 89.7422 390.507 89.5859 391.398 89.5859C392.531 89.5859 393.488 89.7943 394.27 90.2109C395.051 90.6276 395.656 91.2038 396.086 91.9395C396.522 92.6751 396.789 93.5182 396.887 94.4688H394.445C394.38 93.8568 394.237 93.3327 394.016 92.8965C393.801 92.4603 393.482 92.1283 393.059 91.9004C392.635 91.666 392.082 91.5488 391.398 91.5488C390.839 91.5488 390.35 91.653 389.934 91.8613C389.517 92.0697 389.169 92.3757 388.889 92.7793C388.609 93.1829 388.397 93.681 388.254 94.2734C388.117 94.8594 388.049 95.5299 388.049 96.2852V97.4863C388.049 98.2025 388.111 98.8535 388.234 99.4395C388.365 100.019 388.56 100.517 388.82 100.934C389.087 101.35 389.426 101.673 389.836 101.9C390.246 102.128 390.738 102.242 391.311 102.242C392.007 102.242 392.57 102.132 393 101.91C393.436 101.689 393.765 101.367 393.986 100.943C394.214 100.514 394.364 99.9896 394.436 99.3711ZM398.42 98.834V98.6094C398.42 97.8477 398.531 97.1413 398.752 96.4902C398.973 95.8327 399.292 95.263 399.709 94.7812C400.132 94.293 400.646 93.9154 401.252 93.6484C401.864 93.375 402.554 93.2383 403.322 93.2383C404.097 93.2383 404.787 93.375 405.393 93.6484C406.005 93.9154 406.522 94.293 406.945 94.7812C407.368 95.263 407.691 95.8327 407.912 96.4902C408.133 97.1413 408.244 97.8477 408.244 98.6094V98.834C408.244 99.5957 408.133 100.302 407.912 100.953C407.691 101.604 407.368 102.174 406.945 102.662C406.522 103.144 406.008 103.521 405.402 103.795C404.797 104.062 404.11 104.195 403.342 104.195C402.567 104.195 401.874 104.062 401.262 103.795C400.656 103.521 400.142 103.144 399.719 102.662C399.296 102.174 398.973 101.604 398.752 100.953C398.531 100.302 398.42 99.5957 398.42 98.834ZM400.773 98.6094V98.834C400.773 99.3092 400.822 99.7585 400.92 100.182C401.018 100.605 401.171 100.976 401.379 101.295C401.587 101.614 401.854 101.865 402.18 102.047C402.505 102.229 402.893 102.32 403.342 102.32C403.778 102.32 404.156 102.229 404.475 102.047C404.8 101.865 405.067 101.614 405.275 101.295C405.484 100.976 405.637 100.605 405.734 100.182C405.839 99.7585 405.891 99.3092 405.891 98.834V98.6094C405.891 98.1406 405.839 97.6979 405.734 97.2812C405.637 96.8581 405.48 96.4837 405.266 96.1582C405.057 95.8327 404.79 95.5788 404.465 95.3965C404.146 95.2077 403.765 95.1133 403.322 95.1133C402.88 95.1133 402.495 95.2077 402.17 95.3965C401.851 95.5788 401.587 95.8327 401.379 96.1582C401.171 96.4837 401.018 96.8581 400.92 97.2812C400.822 97.6979 400.773 98.1406 400.773 98.6094ZM412.551 95.6895V104H410.197V93.4336H412.414L412.551 95.6895ZM412.131 98.3262L411.369 98.3164C411.376 97.5677 411.48 96.8809 411.682 96.2559C411.89 95.6309 412.176 95.0938 412.541 94.6445C412.912 94.1953 413.355 93.8503 413.869 93.6094C414.383 93.362 414.956 93.2383 415.588 93.2383C416.096 93.2383 416.555 93.3099 416.965 93.4531C417.382 93.5898 417.736 93.8145 418.029 94.127C418.329 94.4395 418.557 94.8464 418.713 95.3477C418.869 95.8424 418.947 96.4512 418.947 97.1738V104H416.584V97.1641C416.584 96.6562 416.509 96.2559 416.359 95.9629C416.216 95.6634 416.005 95.4518 415.725 95.3281C415.451 95.1979 415.109 95.1328 414.699 95.1328C414.296 95.1328 413.934 95.2174 413.615 95.3867C413.296 95.556 413.026 95.7871 412.805 96.0801C412.59 96.373 412.424 96.7116 412.307 97.0957C412.189 97.4798 412.131 97.89 412.131 98.3262ZM426.193 93.4336V95.1523H420.236V93.4336H426.193ZM421.955 90.8457H424.309V101.08C424.309 101.406 424.354 101.656 424.445 101.832C424.543 102.001 424.676 102.115 424.846 102.174C425.015 102.232 425.214 102.262 425.441 102.262C425.604 102.262 425.76 102.252 425.91 102.232C426.06 102.213 426.18 102.193 426.271 102.174L426.281 103.971C426.086 104.029 425.858 104.081 425.598 104.127C425.344 104.173 425.051 104.195 424.719 104.195C424.178 104.195 423.7 104.101 423.283 103.912C422.867 103.717 422.541 103.401 422.307 102.965C422.072 102.529 421.955 101.949 421.955 101.227V90.8457ZM430.373 95.4453V104H428.02V93.4336H430.266L430.373 95.4453ZM433.605 93.3652L433.586 95.5527C433.443 95.5267 433.286 95.5072 433.117 95.4941C432.954 95.4811 432.792 95.4746 432.629 95.4746C432.225 95.4746 431.87 95.5332 431.564 95.6504C431.258 95.7611 431.001 95.9238 430.793 96.1387C430.591 96.347 430.435 96.6009 430.324 96.9004C430.214 97.1999 430.148 97.5352 430.129 97.9062L429.592 97.9453C429.592 97.2812 429.657 96.666 429.787 96.0996C429.917 95.5332 430.113 95.0352 430.373 94.6055C430.64 94.1758 430.972 93.8405 431.369 93.5996C431.773 93.3587 432.238 93.2383 432.766 93.2383C432.909 93.2383 433.062 93.2513 433.225 93.2773C433.394 93.3034 433.521 93.3327 433.605 93.3652ZM440.686 101.881V96.8418C440.686 96.4642 440.617 96.1387 440.48 95.8652C440.344 95.5918 440.135 95.3802 439.855 95.2305C439.582 95.0807 439.237 95.0059 438.82 95.0059C438.436 95.0059 438.104 95.071 437.824 95.2012C437.544 95.3314 437.326 95.5072 437.17 95.7285C437.014 95.9499 436.936 96.2005 436.936 96.4805H434.592C434.592 96.0638 434.693 95.6602 434.895 95.2695C435.096 94.8789 435.389 94.5306 435.773 94.2246C436.158 93.9186 436.617 93.6777 437.15 93.502C437.684 93.3262 438.283 93.2383 438.947 93.2383C439.742 93.2383 440.445 93.3717 441.057 93.6387C441.675 93.9056 442.16 94.3092 442.512 94.8496C442.87 95.3835 443.049 96.054 443.049 96.8613V101.559C443.049 102.04 443.081 102.473 443.146 102.857C443.218 103.235 443.319 103.564 443.449 103.844V104H441.037C440.926 103.746 440.839 103.424 440.773 103.033C440.715 102.636 440.686 102.252 440.686 101.881ZM441.027 97.5742L441.047 99.0293H439.357C438.921 99.0293 438.537 99.0716 438.205 99.1562C437.873 99.2344 437.596 99.3516 437.375 99.5078C437.154 99.6641 436.988 99.8529 436.877 100.074C436.766 100.296 436.711 100.546 436.711 100.826C436.711 101.106 436.776 101.363 436.906 101.598C437.036 101.826 437.225 102.005 437.473 102.135C437.727 102.265 438.033 102.33 438.391 102.33C438.872 102.33 439.292 102.232 439.65 102.037C440.015 101.835 440.301 101.591 440.51 101.305C440.718 101.012 440.829 100.735 440.842 100.475L441.604 101.52C441.525 101.786 441.392 102.073 441.203 102.379C441.014 102.685 440.767 102.978 440.461 103.258C440.161 103.531 439.8 103.756 439.377 103.932C438.96 104.107 438.479 104.195 437.932 104.195C437.242 104.195 436.626 104.059 436.086 103.785C435.546 103.505 435.122 103.131 434.816 102.662C434.51 102.187 434.357 101.65 434.357 101.051C434.357 100.491 434.462 99.9961 434.67 99.5664C434.885 99.1302 435.197 98.7656 435.607 98.4727C436.024 98.1797 436.532 97.9583 437.131 97.8086C437.73 97.6523 438.413 97.5742 439.182 97.5742H441.027ZM449.826 102.32C450.21 102.32 450.555 102.245 450.861 102.096C451.174 101.939 451.424 101.725 451.613 101.451C451.809 101.178 451.916 100.862 451.936 100.504H454.152C454.139 101.188 453.938 101.809 453.547 102.369C453.156 102.929 452.639 103.375 451.994 103.707C451.35 104.033 450.637 104.195 449.855 104.195C449.048 104.195 448.345 104.059 447.746 103.785C447.147 103.505 446.649 103.121 446.252 102.633C445.855 102.145 445.555 101.581 445.354 100.943C445.158 100.305 445.061 99.6217 445.061 98.8926V98.5508C445.061 97.8216 445.158 97.138 445.354 96.5C445.555 95.8555 445.855 95.2891 446.252 94.8008C446.649 94.3125 447.147 93.9316 447.746 93.6582C448.345 93.3783 449.045 93.2383 449.846 93.2383C450.692 93.2383 451.434 93.4076 452.072 93.7461C452.71 94.0781 453.212 94.5436 453.576 95.1426C453.947 95.735 454.139 96.4251 454.152 97.2129H451.936C451.916 96.8223 451.818 96.4707 451.643 96.1582C451.473 95.8392 451.232 95.5853 450.92 95.3965C450.614 95.2077 450.246 95.1133 449.816 95.1133C449.341 95.1133 448.947 95.2109 448.635 95.4062C448.322 95.5951 448.078 95.8555 447.902 96.1875C447.727 96.513 447.6 96.8809 447.521 97.291C447.45 97.6947 447.414 98.1146 447.414 98.5508V98.8926C447.414 99.3288 447.45 99.752 447.521 100.162C447.593 100.572 447.717 100.94 447.893 101.266C448.075 101.585 448.322 101.842 448.635 102.037C448.947 102.226 449.344 102.32 449.826 102.32ZM460.803 93.4336V95.1523H454.846V93.4336H460.803ZM456.564 90.8457H458.918V101.08C458.918 101.406 458.964 101.656 459.055 101.832C459.152 102.001 459.286 102.115 459.455 102.174C459.624 102.232 459.823 102.262 460.051 102.262C460.214 102.262 460.37 102.252 460.52 102.232C460.669 102.213 460.79 102.193 460.881 102.174L460.891 103.971C460.695 104.029 460.467 104.081 460.207 104.127C459.953 104.173 459.66 104.195 459.328 104.195C458.788 104.195 458.309 104.101 457.893 103.912C457.476 103.717 457.15 103.401 456.916 102.965C456.682 102.529 456.564 101.949 456.564 101.227V90.8457Z" fill="#328BFF"/>
<path d="M168 63.5C168 64.3333 168.667 65 169.5 65C170.333 65 171 64.3333 171 63.5C171 62.6667 170.333 62 169.5 62C168.667 62 168 62.6667 168 63.5Z" fill="white"/>
<path d="M171 63.5C171 62.6667 170.333 62 169.5 62C168.667 62 168 62.6667 168 63.5C168 64.3333 168.667 65 169.5 65C170.333 65 171 64.3333 171 63.5ZM171 63.5L336.5 63.5" stroke="#C3F53C" stroke-dasharray="0"/>
<path d="M339.5 111.5C339.5 110.667 338.833 110 338 110C337.167 110 336.5 110.667 336.5 111.5C336.5 112.333 337.167 113 338 113C338.833 113 339.5 112.333 339.5 111.5Z" fill="white"/>
<path d="M336.5 111.5C336.5 112.333 337.167 113 338 113C338.833 113 339.5 112.333 339.5 111.5C339.5 110.667 338.833 110 338 110C337.167 110 336.5 110.667 336.5 111.5ZM336.5 111.5L171 111.5" stroke="#0052FF" stroke-dasharray="0"/>
<defs>
<linearGradient id="paint0_linear_398_2834" x1="85" y1="0" x2="85" y2="169" gradientUnits="userSpaceOnUse">
<stop stop-color="#C3F53C"/>
<stop offset="1" stop-color="#4C6113"/>
</linearGradient>
<linearGradient id="paint1_linear_398_2834" x1="423" y1="0" x2="423" y2="169" gradientUnits="userSpaceOnUse">
<stop stop-color="#0052FF"/>
<stop offset="1" stop-color="#7F83DC"/>
</linearGradient>
</defs>
</svg>
