<svg width="226" height="120" viewBox="0 0 226 120" fill="none" xmlns="http://www.w3.org/2000/svg">
<circle cx="60" cy="60" r="60" fill="black"/>
<path d="M37.195 74.215C37.6108 73.7992 38.1825 73.5566 38.7889 73.5566H93.7764C94.7812 73.5566 95.2836 74.7693 94.5733 75.4796L83.7109 86.342C83.2951 86.7578 82.7234 87.0003 82.1171 87.0003H27.1296C26.1248 87.0003 25.6224 85.7876 26.3327 85.0773L37.195 74.215Z" fill="url(#paint0_linear_571_10065)"/>
<path d="M37.195 33.6583C37.6281 33.2425 38.1998 33 38.7889 33H93.7764C94.7812 33 95.2836 34.2127 94.5733 34.923L83.7109 45.7854C83.2951 46.2012 82.7234 46.4437 82.1171 46.4437H27.1296C26.1248 46.4437 25.6224 45.231 26.3327 44.5207L37.195 33.6583Z" fill="url(#paint1_linear_571_10065)"/>
<path d="M83.7109 53.8068C83.2951 53.391 82.7234 53.1484 82.1171 53.1484H27.1296C26.1248 53.1484 25.6224 54.3611 26.3327 55.0714L37.195 65.9338C37.6108 66.3496 38.1825 66.5921 38.7889 66.5921H93.7764C94.7812 66.5921 95.2836 65.3794 94.5733 64.6691L83.7109 53.8068Z" fill="url(#paint2_linear_571_10065)"/>
<path d="M166 120C199.25 120 226 93.2502 226 60C226 26.7498 199.25 0 166 0C132.75 0 106 26.7498 106 60C106 93.2502 132.75 120 166 120Z" fill="#2775CA"/>
<path d="M182.5 69.5C182.5 60.7502 177.25 57.7502 166.75 56.5004C159.25 55.5002 157.75 53.5004 157.75 50C157.75 46.4996 160.25 44.2502 165.25 44.2502C169.75 44.2502 172.25 45.7502 173.5 49.5002C173.75 50.2502 174.5 50.75 175.25 50.75H179.25C180.25 50.75 181 50 181 49.0004V48.7502C180 43.25 175.5 39.0002 169.75 38.5004V32.5004C169.75 31.5002 169 30.7502 167.75 30.5H164C163 30.5 162.25 31.25 162 32.5004V38.2502C154.5 39.2504 149.75 44.2502 149.75 50.5004C149.75 58.7504 154.75 62 165.25 63.2504C172.25 64.5002 174.5 66.0002 174.5 70.0004C174.5 74.0006 171 76.7504 166.25 76.7504C159.75 76.7504 157.5 74 156.75 70.25C156.5 69.2504 155.75 68.75 155 68.75H150.75C149.75 68.75 149 69.5 149 70.5002V70.7504C150 77 154 81.5 162.25 82.7504V88.7504C162.25 89.75 163 90.5 164.25 90.7502H168C169 90.7502 169.75 90.0002 170 88.7504V82.7504C177.5 81.5 182.5 76.25 182.5 69.5V69.5Z" fill="white"/>
<path fill-rule="evenodd" clip-rule="evenodd" d="M131 47.7496C123.75 67 133.75 88.75 153.25 95.7496C154 96.25 154.75 97.2496 154.75 97.9996V101.5C154.75 102 154.75 102.25 154.5 102.5C154.25 103.5 153.25 104 152.25 103.5C138.25 98.9998 127.5 88.2496 123 74.2498C115.5 50.5 128.5 25.2496 152.25 17.7496C152.5 17.5 153 17.5 153.25 17.5C154.25 17.7496 154.75 18.4996 154.75 19.4998V22.9996C154.75 24.25 154.25 25 153.25 25.4998C143 29.2498 134.75 37.2496 131 47.7496ZM177.5 18.7498C177.75 17.7496 178.75 17.2498 179.75 17.7496C193.5 22.2496 204.5 32.9998 209 47.2498C216.5 70.9996 203.5 96.25 179.75 103.75C179.5 104 179 104 178.75 104C177.75 103.75 177.25 103 177.25 102V98.5C177.25 97.2496 177.75 96.4996 178.75 95.9998C189 92.2498 197.25 84.25 201 73.75C208.25 54.4996 198.25 32.7496 178.75 25.75C178 25.2496 177.25 24.25 177.25 23.2498V19.75C177.25 19.2496 177.25 19 177.5 18.7498Z" fill="white"/>
<defs>
<linearGradient id="paint0_linear_571_10065" x1="-98.2813" y1="22.7991" x2="-99.7443" y2="96.4183" gradientUnits="userSpaceOnUse">
<stop stop-color="#00FFA3"/>
<stop offset="1" stop-color="#DC1FFF"/>
</linearGradient>
<linearGradient id="paint1_linear_571_10065" x1="-114.921" y1="14.1112" x2="-116.384" y2="87.7305" gradientUnits="userSpaceOnUse">
<stop stop-color="#00FFA3"/>
<stop offset="1" stop-color="#DC1FFF"/>
</linearGradient>
<linearGradient id="paint2_linear_571_10065" x1="-106.654" y1="18.4276" x2="-108.117" y2="92.0468" gradientUnits="userSpaceOnUse">
<stop stop-color="#00FFA3"/>
<stop offset="1" stop-color="#DC1FFF"/>
</linearGradient>
</defs>
</svg>
