<svg width="95" height="239" viewBox="0 0 95 239" fill="none" xmlns="http://www.w3.org/2000/svg">
<path d="M89.0317 138.792L-0.111626 50.458C-0.680169 49.8947 -1.00001 49.1275 -1.00001 48.3271L-1.00001 8.31769e-06L93.2549 93.3987C93.8235 93.962 94.1433 94.7292 94.1433 95.5296L94.1433 136.661C94.1433 139.327 90.9255 140.668 89.0317 138.792Z" fill="url(#paint0_linear_121_1016)"/>
<path d="M93.265 144.728L-0.999756 239L-0.99976 190.775C-0.99976 189.98 -0.683728 189.217 -0.121167 188.654L94.1435 94.3822L94.1435 142.607C94.1435 143.403 93.8275 144.166 93.265 144.728Z" fill="#C3F53C"/>
<path d="M66.8044 145.404L65.469 146.778L67.414 148.723L64.9873 151.15L63.6671 143.744L61.9171 144.065L63.3071 152.418L64.8185 153.929L68.7194 150.028L70.6987 152.007L72.0531 150.653L70.0738 148.674L71.4344 147.313L70.129 146.008L68.7684 147.368L66.8044 145.404Z" fill="black"/>
<path d="M25.3854 187.343L26.0131 183.598L23.8807 183.241L23.5188 185.401L19.127 184.677L17.2638 186.54L19.7372 201.575L21.3878 203.226L35.8138 188.8L34.1632 187.149L26.7602 185.933L25.3844 187.343L25.3854 187.343V187.343ZM21.6522 199.904L19.5198 186.932L23.1602 187.531L22.5548 191.137L23.6643 197.889L21.6508 199.902L21.6518 199.903L21.6522 199.904ZM25.547 196.009L24.9474 192.359L28.5973 192.959L25.547 196.009ZM30.4786 191.078L24.9117 190.163L25.2941 187.882L32.4911 189.065L30.4786 191.078Z" fill="black"/>
<path d="M53.0922 157.164L51.6475 158.609L57.8791 164.84L59.3239 163.395L53.0922 157.164Z" fill="black"/>
<path d="M50.8275 154.899L49.3818 156.345L50.8266 157.79L52.2723 156.344L50.8275 154.899Z" fill="black"/>
<path d="M48.5607 171.171L45.1714 167.781L46.795 166.158L45.4449 164.808L43.8213 166.431L41.5434 164.153L41.1668 166.609L42.4051 167.848L41.3285 168.924L42.6786 170.274L43.7552 169.198L48.0985 173.541L49.6897 173.306L51.5144 169.904L49.7482 168.958L48.5607 171.171Z" fill="black"/>
<path d="M53.3884 166.343L49.9991 162.953L51.8894 161.063L50.5393 159.713L48.649 161.603L46.3711 159.325L45.9939 161.782L47.2323 163.02L46.2208 164.031L47.5709 165.381L48.5824 164.37L52.9257 168.713L54.5159 168.479L56.3406 165.078L54.5754 164.13L53.3884 166.343Z" fill="black"/>
<path d="M39.6944 172.029C37.5354 172.152 35.5481 173.83 35.5171 176.41C35.491 178.883 37.6034 180.995 40.0758 180.969C42.6557 180.939 44.334 178.951 44.4566 176.792L45.198 177.533L46.5719 176.159L40.3269 169.914L38.953 171.288L39.6944 172.029ZM40.1039 179.029C38.7091 178.989 37.4974 177.777 37.4569 176.382C37.3537 173.914 40.3012 172.729 42.0361 174.451C43.7566 176.185 42.5725 179.131 40.1039 179.029Z" fill="black"/>
<path d="M58.3476 154.352C59.0824 153.617 60.17 153.438 61.0992 153.808L61.5562 151.843C59.9707 151.331 58.1726 151.694 56.9309 152.935C55.1557 154.711 55.1771 157.621 56.9799 159.423C58.7828 161.226 61.6932 161.249 63.4689 159.473C64.6901 158.252 65.0601 156.493 64.585 154.929L62.6757 155.538C62.9329 156.412 62.7265 157.383 62.0527 158.057C61.0583 159.051 59.4186 159.029 58.3971 158.007C57.3756 156.986 57.3537 155.347 58.3481 154.353L58.3476 154.352Z" fill="black"/>
<path d="M74.466 145.598L74.536 140.876C74.536 139.586 74.3376 138.538 73.2753 137.475C71.7801 135.98 69.6235 136.08 68.0094 137.694C66.3954 139.308 66.1586 141.468 67.7602 143.164L69.2078 141.717C68.4369 140.874 68.5791 139.736 69.3743 138.94C70.0629 138.252 71.1196 138.145 71.8785 138.904C72.4007 139.426 72.579 140.434 72.5672 141.444L72.4121 147.745L73.6937 149.026L79.496 143.224L78.1673 141.896L74.4665 145.596L74.4665 145.598L74.466 145.598Z" fill="black"/>
<path d="M16.5374 42.6319L14.5979 40.6924L15.4021 39.8672L17.1628 41.628C17.4537 41.9188 17.7568 42.1238 18.0721 42.2429C18.3875 42.3621 18.6958 42.3901 18.9972 42.327C19.3055 42.264 19.5876 42.1045 19.8434 41.8488C20.1237 41.5684 20.2971 41.2864 20.3637 41.0025C20.4373 40.7187 20.404 40.4261 20.2639 40.1248C20.1307 39.8234 19.8959 39.5046 19.5596 39.1682L18.0669 37.6755L11.2446 44.4978L10.2302 43.4834L17.8829 35.8307L20.39 38.3378C20.7824 38.7302 21.0926 39.1209 21.3203 39.5098C21.5516 39.8953 21.69 40.279 21.7355 40.6609C21.7881 41.0428 21.7425 41.4178 21.5989 41.7857C21.4552 42.1536 21.2047 42.5163 20.8473 42.8737C20.5319 43.189 20.1657 43.394 19.7488 43.4886C19.3353 43.5797 18.9043 43.5622 18.4558 43.4361C18.0108 43.3134 17.5746 43.0839 17.1471 42.7475L16.5374 42.6319ZM12.9107 46.1639L10.6191 43.8723L12.0172 43.62L13.7359 45.3387C14.0583 45.6611 14.3877 45.8783 14.7241 45.9905C15.0639 46.1061 15.3951 46.1219 15.7174 46.0378C16.0433 45.9502 16.3464 45.7662 16.6267 45.4859C16.9105 45.2021 17.105 44.906 17.2101 44.5976C17.3153 44.2893 17.3153 43.9704 17.2101 43.641C17.105 43.3117 16.8808 42.9753 16.5374 42.6319L15.092 41.1865L15.9172 40.3823L17.8934 42.3586L17.8146 42.8684C18.151 43.2679 18.3577 43.6848 18.4348 44.1193C18.5154 44.5503 18.4856 44.969 18.3454 45.3755C18.2088 45.7855 17.9758 46.1551 17.6464 46.4845C17.1698 46.9611 16.6618 47.2589 16.1222 47.378C15.5895 47.4972 15.0482 47.4534 14.4981 47.2466C13.9514 47.0364 13.4223 46.6755 12.9107 46.1639ZM26.7445 46.0483L17.2364 50.4896L16.201 49.4541L26.7708 44.7185L27.4383 45.386L26.7445 46.0483ZM21.8932 55.1464L26.3293 45.6331L26.9915 44.9393L27.659 45.6068L22.9339 56.1871L21.8932 55.1464ZM24.5948 52.182L23.7643 53.0124L19.465 48.7131L20.2954 47.8826L24.5948 52.182ZM30.9493 59.3354L31.9584 60.3445C31.4223 60.7755 30.8511 61.0699 30.245 61.2275C29.6388 61.3852 29.0186 61.3712 28.3843 61.1855C27.7536 60.9963 27.1317 60.5951 26.5185 59.9819C26.07 59.5334 25.7458 59.041 25.5461 58.5049C25.3499 57.9723 25.2746 57.4205 25.3201 56.8493C25.3692 56.2747 25.5391 55.6982 25.8299 55.1201C26.1278 54.5419 26.5447 53.9848 27.0809 53.4487L27.843 52.6866C28.3791 52.1505 28.9345 51.7352 29.5091 51.4409C30.0908 51.1466 30.6707 50.9766 31.2488 50.9311C31.8305 50.889 32.3946 50.9731 32.9413 51.1834C33.4879 51.3936 33.9977 51.7352 34.4708 52.2083C35.0489 52.7864 35.4291 53.3839 35.6113 54.0006C35.7935 54.6173 35.8023 55.2287 35.6376 55.8349C35.4799 56.4411 35.1751 57.0228 34.723 57.5799L33.7139 56.5707C34.0222 56.1643 34.2377 55.7666 34.3604 55.3776C34.4865 54.9852 34.497 54.5962 34.3919 54.2108C34.2868 53.8254 34.0363 53.4347 33.6403 53.0387C33.3004 52.6988 32.936 52.4641 32.5471 52.3344C32.1616 52.2083 31.7622 52.1767 31.3487 52.2398C30.9387 52.3064 30.5235 52.4623 30.103 52.7076C29.6826 52.9529 29.2691 53.2787 28.8626 53.6852L28.09 54.4578C27.7151 54.8328 27.4015 55.2235 27.1492 55.6299C26.9004 56.0399 26.7322 56.4498 26.6446 56.8598C26.557 57.2698 26.5658 57.671 26.6709 58.0634C26.7795 58.4524 27.0038 58.8168 27.3437 59.1567C27.7746 59.5877 28.1864 59.8627 28.5788 59.9819C28.9713 60.101 29.3602 60.0975 29.7456 59.9714C30.1346 59.8487 30.5358 59.6367 30.9493 59.3354ZM39.5743 57.5221L31.9216 65.1748L30.9072 64.1604L38.5599 56.5077L39.5743 57.5221ZM44.1943 62.1421L37.4456 62.531L33.8033 62.5993L34.7178 61.3484L37.5455 61.2118L42.9749 60.9227L44.1943 62.1421ZM35.564 68.8172L36.4628 62.2524L37.8714 62.0527L36.7729 70.026L35.564 68.8172ZM43.3534 74.9561L42.5282 75.7813L38.4758 71.729L39.301 70.9038L43.3534 74.9561ZM46.3335 64.2813L38.6808 71.934L37.6664 70.9195L45.3191 63.2668L46.3335 64.2813ZM46.3545 70.8828L45.5293 71.7079L42.0131 68.1917L42.8383 67.3665L46.3545 70.8828ZM50.1283 68.0761L49.2979 68.9065L45.2981 64.9067L46.1285 64.0763L50.1283 68.0761ZM45.8552 79.1084L44.2574 77.5105L45.0931 76.6959L46.6804 78.2832C47.227 78.8298 47.7964 79.1714 48.3886 79.3081C48.9843 79.4412 49.5799 79.3922 50.1756 79.1609C50.7783 78.9297 51.3582 78.5355 51.9153 77.9783L52.3831 77.5105C52.8211 77.0725 53.1575 76.631 53.3923 76.186C53.6305 75.7375 53.7654 75.2943 53.797 74.8563C53.832 74.4148 53.7637 73.9855 53.592 73.5686C53.4238 73.1551 53.1505 72.7591 52.7721 72.3807L51.0481 70.6568L51.8785 69.8263L53.6025 71.5503C54.1036 72.0513 54.4768 72.5927 54.722 73.1744C54.9708 73.7525 55.0864 74.3482 55.0689 74.9614C55.0584 75.5746 54.9112 76.1843 54.6274 76.7905C54.3471 77.3932 53.9301 77.9713 53.3765 78.5249L52.9192 78.9822C52.3656 79.5358 51.7857 79.9546 51.1795 80.2384C50.5768 80.5187 49.9671 80.6624 49.3504 80.6694C48.7372 80.6799 48.1328 80.5555 47.5371 80.2962C46.9484 80.0369 46.3878 79.641 45.8552 79.1084ZM52.4515 70.3992L44.7988 78.0519L43.7843 77.0375L51.437 69.3848L52.4515 70.3992ZM59.8256 85.9201L57.8861 83.9806L58.6903 83.1555L60.451 84.9162C60.7419 85.207 61.045 85.412 61.3603 85.5312C61.6757 85.6503 61.984 85.6783 62.2854 85.6153C62.5937 85.5522 62.8758 85.3928 63.1316 85.137C63.4119 84.8566 63.5854 84.5746 63.6519 84.2908C63.7255 84.0069 63.6922 83.7143 63.5521 83.413C63.4189 83.1117 63.1842 82.7928 62.8478 82.4564L61.3551 80.9637L54.5328 87.786L53.5184 86.7716L61.1711 79.1189L63.6782 81.626C64.0707 82.0184 64.3808 82.4091 64.6085 82.7981C64.8398 83.1835 64.9782 83.5672 65.0237 83.9491C65.0763 84.331 65.0308 84.706 64.8871 85.0739C64.7434 85.4418 64.4929 85.8045 64.1355 86.1619C63.8201 86.4772 63.454 86.6822 63.037 86.7768C62.6235 86.8679 62.1925 86.8504 61.744 86.7243C61.299 86.6016 60.8628 86.3721 60.4353 86.0357L59.8256 85.9201ZM56.199 89.4521L53.9074 87.1605L55.3054 86.9082L57.0241 88.6269C57.3465 88.9493 57.6759 89.1665 58.0123 89.2787C58.3522 89.3943 58.6833 89.4101 59.0057 89.326C59.3315 89.2384 59.6346 89.0544 59.9149 88.7741C60.1988 88.4903 60.3932 88.1942 60.4983 87.8858C60.6035 87.5775 60.6035 87.2586 60.4983 86.9292C60.3932 86.5999 60.169 86.2635 59.8256 85.9201L58.3802 84.4747L59.2054 83.6705L61.1816 85.6468L61.1028 86.1566C61.4392 86.5561 61.6459 86.973 61.723 87.4075C61.8036 87.8385 61.7738 88.2573 61.6336 88.6637C61.497 89.0737 61.264 89.4434 60.9346 89.7727C60.4581 90.2493 59.95 90.5471 59.4104 90.6662C58.8778 90.7854 58.3364 90.7416 57.7863 90.5348C57.2396 90.3246 56.7105 89.9637 56.199 89.4521ZM67.9356 85.8833L66.0802 91.7122L71.9143 89.8621L73.0654 91.0131L65.6334 93.1681L62.7742 96.0273L61.7598 95.0129L64.619 92.1537L66.774 84.7217L67.9356 85.8833Z" fill="black"/>
<defs>
<linearGradient id="paint0_linear_121_1016" x1="41.9767" y1="74.2311" x2="113.767" y2="145.046" gradientUnits="userSpaceOnUse">
<stop offset="0.34375" stop-color="#C3F53C"/>
<stop offset="1"/>
</linearGradient>
</defs>
</svg>
