<svg width="587" height="276" viewBox="0 0 587 276" fill="none" xmlns="http://www.w3.org/2000/svg">
<rect x="0.416312" y="0.416312" width="273.101" height="64.9447" rx="3.74681" fill="#C3F53C" fill-opacity="0.1" stroke="url(#paint0_linear_398_7638)" stroke-width="0.832624"/>
<path d="M116.7 36.4517H119.801C119.702 37.6341 119.371 38.6883 118.809 39.6144C118.246 40.5322 117.457 41.2557 116.44 41.7848C115.423 42.314 114.187 42.5786 112.731 42.5786C111.615 42.5786 110.61 42.3802 109.717 41.9833C108.824 41.5781 108.06 41.0076 107.423 40.2717C106.786 39.5275 106.298 38.6304 105.959 37.5803C105.629 36.5302 105.463 35.3561 105.463 34.0579V32.5572C105.463 31.2591 105.633 30.0849 105.972 29.0348C106.319 27.9847 106.815 27.0876 107.46 26.3434C108.105 25.591 108.878 25.0164 109.779 24.6195C110.689 24.2226 111.71 24.0241 112.843 24.0241C114.282 24.0241 115.497 24.2887 116.489 24.8179C117.482 25.3471 118.251 26.0789 118.796 27.0132C119.35 27.9475 119.689 29.0183 119.813 30.2255H116.713C116.63 29.4483 116.448 28.7826 116.167 28.2287C115.894 27.6747 115.489 27.253 114.951 26.9636C114.414 26.6659 113.711 26.5171 112.843 26.5171C112.132 26.5171 111.512 26.6494 110.983 26.914C110.453 27.1786 110.011 27.5672 109.655 28.0798C109.3 28.5925 109.031 29.225 108.849 29.9774C108.676 30.7216 108.589 31.5733 108.589 32.5324V34.0579C108.589 34.9675 108.667 35.7943 108.824 36.5385C108.99 37.2744 109.238 37.9069 109.569 38.4361C109.908 38.9653 110.338 39.3746 110.859 39.664C111.379 39.9534 112.004 40.0981 112.731 40.0981C113.616 40.0981 114.331 39.9575 114.877 39.6764C115.431 39.3953 115.849 38.986 116.13 38.4485C116.419 37.9028 116.609 37.2372 116.7 36.4517ZM125.531 23.28V42.3306H122.529V23.28H125.531ZM132.005 28.9108V42.3306H129.004V28.9108H132.005ZM128.805 25.3884C128.805 24.9337 128.954 24.5575 129.252 24.2598C129.558 23.9539 129.979 23.8009 130.517 23.8009C131.046 23.8009 131.464 23.9539 131.77 24.2598C132.075 24.5575 132.228 24.9337 132.228 25.3884C132.228 25.8349 132.075 26.207 131.77 26.5047C131.464 26.8023 131.046 26.9512 130.517 26.9512C129.979 26.9512 129.558 26.8023 129.252 26.5047C128.954 26.207 128.805 25.8349 128.805 25.3884ZM141.196 42.5786C140.203 42.5786 139.306 42.4174 138.504 42.0949C137.71 41.7642 137.032 41.3053 136.47 40.7182C135.916 40.1311 135.49 39.4407 135.193 38.647C134.895 37.8532 134.746 36.9974 134.746 36.0796V35.5835C134.746 34.5334 134.899 33.5825 135.205 32.7309C135.511 31.8792 135.937 31.1516 136.483 30.548C137.028 29.9361 137.673 29.4689 138.417 29.1465C139.162 28.824 139.968 28.6628 140.836 28.6628C141.795 28.6628 142.634 28.824 143.354 29.1465C144.073 29.4689 144.668 29.9237 145.14 30.5108C145.619 31.0896 145.975 31.78 146.206 32.582C146.446 33.3841 146.566 34.2688 146.566 35.2362V36.5137H136.197V34.368H143.614V34.1324C143.598 33.5949 143.49 33.0905 143.292 32.6192C143.101 32.1479 142.808 31.7676 142.411 31.4782C142.014 31.1888 141.485 31.0441 140.824 31.0441C140.327 31.0441 139.885 31.1516 139.496 31.3666C139.116 31.5733 138.798 31.8751 138.541 32.272C138.285 32.6688 138.087 33.1484 137.946 33.7107C137.814 34.2647 137.748 34.8889 137.748 35.5835V36.0796C137.748 36.6667 137.826 37.2124 137.983 37.7167C138.149 38.2129 138.388 38.647 138.703 39.019C139.017 39.3911 139.397 39.6847 139.844 39.8996C140.29 40.1063 140.799 40.2097 141.369 40.2097C142.089 40.2097 142.729 40.065 143.292 39.7756C143.854 39.4862 144.342 39.0769 144.755 38.5477L146.33 40.0733C146.041 40.495 145.665 40.9001 145.202 41.2887C144.739 41.6691 144.172 41.9792 143.502 42.2189C142.841 42.4587 142.072 42.5786 141.196 42.5786ZM151.862 31.7758V42.3306H148.873V28.9108H151.688L151.862 31.7758ZM151.329 35.1246L150.361 35.1122C150.369 34.1613 150.502 33.289 150.758 32.4952C151.023 31.7014 151.386 31.0193 151.85 30.4487C152.321 29.8782 152.883 29.44 153.536 29.1341C154.19 28.8199 154.917 28.6628 155.719 28.6628C156.364 28.6628 156.947 28.7537 157.468 28.9356C157.997 29.1093 158.448 29.3945 158.82 29.7914C159.2 30.1883 159.49 30.7051 159.688 31.3417C159.887 31.9702 159.986 32.7433 159.986 33.6611V42.3306H156.984V33.6487C156.984 33.0037 156.889 32.4952 156.699 32.1231C156.517 31.7428 156.248 31.474 155.893 31.3169C155.546 31.1516 155.111 31.0689 154.591 31.0689C154.078 31.0689 153.619 31.1764 153.214 31.3914C152.809 31.6063 152.466 31.8999 152.184 32.272C151.912 32.644 151.701 33.074 151.552 33.5618C151.403 34.0497 151.329 34.5706 151.329 35.1246ZM169.189 28.9108V31.0937H161.623V28.9108H169.189ZM163.806 25.6241H166.795V38.6221C166.795 39.0356 166.853 39.3539 166.968 39.5772C167.092 39.7921 167.262 39.9368 167.477 40.0113C167.692 40.0857 167.944 40.1229 168.234 40.1229C168.44 40.1229 168.639 40.1105 168.829 40.0857C169.019 40.0609 169.172 40.0361 169.288 40.0113L169.3 42.2934C169.052 42.3678 168.763 42.4339 168.432 42.4918C168.11 42.5497 167.737 42.5786 167.316 42.5786C166.629 42.5786 166.022 42.4587 165.493 42.2189C164.963 41.9709 164.55 41.5699 164.252 41.0159C163.955 40.4619 163.806 39.726 163.806 38.8082V25.6241Z" fill="#C3F53C"/>
<rect x="0.416312" y="105.327" width="273.101" height="64.9447" rx="3.74681" fill="#C3F53C" fill-opacity="0.1" stroke="url(#paint1_linear_398_7638)" stroke-width="0.832624"/>
<path d="M63.9243 142.59C63.9243 142.218 63.8664 141.887 63.7507 141.598C63.6432 141.309 63.4489 141.044 63.1677 140.804C62.8866 140.564 62.4897 140.333 61.9771 140.11C61.4727 139.878 60.8278 139.642 60.0422 139.403C59.1823 139.138 58.3885 138.845 57.6609 138.522C56.9416 138.191 56.3132 137.811 55.7757 137.381C55.2383 136.943 54.8207 136.443 54.523 135.88C54.2254 135.31 54.0765 134.652 54.0765 133.908C54.0765 133.172 54.2295 132.503 54.5354 131.899C54.8496 131.295 55.292 130.775 55.8625 130.336C56.4413 129.89 57.1235 129.547 57.909 129.307C58.6945 129.059 59.5627 128.935 60.5135 128.935C61.853 128.935 63.0065 129.183 63.9739 129.679C64.9496 130.175 65.6979 130.841 66.2188 131.676C66.748 132.511 67.0126 133.433 67.0126 134.442H63.9243C63.9243 133.846 63.7961 133.321 63.5398 132.866C63.2918 132.403 62.9114 132.04 62.3988 131.775C61.8944 131.51 61.2536 131.378 60.4763 131.378C59.7404 131.378 59.1286 131.49 58.6407 131.713C58.1529 131.936 57.7891 132.238 57.5493 132.618C57.3095 132.999 57.1896 133.429 57.1896 133.908C57.1896 134.247 57.2682 134.557 57.4253 134.838C57.5824 135.111 57.8222 135.368 58.1446 135.607C58.4671 135.839 58.8723 136.058 59.3601 136.265C59.8479 136.472 60.4226 136.67 61.0841 136.86C62.0846 137.158 62.9569 137.489 63.7011 137.852C64.4452 138.208 65.0654 138.613 65.5615 139.068C66.0576 139.523 66.4297 140.039 66.6777 140.618C66.9258 141.189 67.0498 141.838 67.0498 142.565C67.0498 143.326 66.8968 144.012 66.5909 144.624C66.285 145.228 65.8467 145.745 65.2762 146.175C64.7139 146.596 64.0359 146.923 63.2422 147.154C62.4566 147.378 61.5802 147.489 60.6128 147.489C59.7446 147.489 58.8888 147.374 58.0454 147.142C57.2103 146.91 56.4496 146.559 55.7633 146.088C55.077 145.608 54.5313 145.013 54.1261 144.302C53.721 143.582 53.5184 142.743 53.5184 141.784H56.6315C56.6315 142.371 56.7307 142.871 56.9292 143.285C57.1359 143.698 57.4211 144.037 57.7849 144.302C58.1488 144.558 58.5705 144.748 59.05 144.872C59.5379 144.996 60.0588 145.058 60.6128 145.058C61.3404 145.058 61.9481 144.955 62.436 144.748C62.9321 144.542 63.3042 144.252 63.5522 143.88C63.8003 143.508 63.9243 143.078 63.9243 142.59ZM72.4946 136.55V147.241H69.5055V133.821H72.321L72.4946 136.55ZM72.0109 140.035L70.9939 140.023C70.9939 139.097 71.1096 138.241 71.3411 137.455C71.5727 136.67 71.9117 135.988 72.3582 135.409C72.8047 134.822 73.3586 134.371 74.0201 134.057C74.6899 133.735 75.463 133.573 76.3394 133.573C76.9513 133.573 77.5094 133.664 78.0138 133.846C78.5265 134.02 78.9688 134.297 79.3409 134.677C79.7212 135.058 80.0106 135.545 80.2091 136.141C80.4158 136.736 80.5192 137.455 80.5192 138.299V147.241H77.5301V138.559C77.5301 137.906 77.4309 137.393 77.2324 137.021C77.0423 136.649 76.7653 136.385 76.4015 136.228C76.0459 136.062 75.6201 135.98 75.124 135.98C74.5617 135.98 74.0821 136.087 73.6853 136.302C73.2966 136.517 72.9783 136.811 72.7302 137.183C72.4822 137.555 72.3003 137.985 72.1845 138.472C72.0688 138.96 72.0109 139.481 72.0109 140.035ZM80.3331 139.241L78.9316 139.552C78.9316 138.741 79.0432 137.976 79.2665 137.257C79.498 136.529 79.8329 135.893 80.2711 135.347C80.7176 134.793 81.2675 134.359 81.9207 134.045C82.5739 133.731 83.3222 133.573 84.1656 133.573C84.8518 133.573 85.4637 133.668 86.0012 133.859C86.5469 134.041 87.0099 134.33 87.3903 134.727C87.7706 135.124 88.06 135.641 88.2585 136.277C88.4569 136.906 88.5561 137.666 88.5561 138.559V147.241H85.5547V138.547C85.5547 137.869 85.4554 137.344 85.257 136.972C85.0668 136.6 84.794 136.343 84.4384 136.203C84.0829 136.054 83.657 135.98 83.1609 135.98C82.6979 135.98 82.2886 136.066 81.9331 136.24C81.5858 136.405 81.2923 136.641 81.0525 136.947C80.8127 137.245 80.6308 137.588 80.5068 137.976C80.391 138.365 80.3331 138.787 80.3331 139.241ZM99.1977 144.55V138.15C99.1977 137.67 99.1109 137.257 98.9372 136.91C98.7636 136.562 98.499 136.294 98.1434 136.104C97.7962 135.913 97.3579 135.818 96.8288 135.818C96.3409 135.818 95.9192 135.901 95.5637 136.066C95.2081 136.232 94.9311 136.455 94.7327 136.736C94.5342 137.017 94.435 137.336 94.435 137.691H91.4584C91.4584 137.162 91.5865 136.649 91.8429 136.153C92.0992 135.657 92.4713 135.215 92.9591 134.826C93.4469 134.437 94.0299 134.132 94.7079 133.908C95.3859 133.685 96.1466 133.573 96.99 133.573C97.9987 133.573 98.8917 133.743 99.669 134.082C100.454 134.421 101.07 134.934 101.517 135.62C101.972 136.298 102.199 137.15 102.199 138.175V144.141C102.199 144.752 102.24 145.302 102.323 145.79C102.414 146.27 102.542 146.687 102.708 147.043V147.241H99.6442C99.5036 146.919 99.392 146.509 99.3093 146.013C99.2349 145.509 99.1977 145.021 99.1977 144.55ZM99.6318 139.08L99.6566 140.928H97.5109C96.9569 140.928 96.4691 140.982 96.0474 141.089C95.6257 141.189 95.2743 141.338 94.9931 141.536C94.712 141.734 94.5012 141.974 94.3606 142.255C94.22 142.536 94.1498 142.855 94.1498 143.21C94.1498 143.566 94.2324 143.892 94.3978 144.19C94.5632 144.48 94.803 144.707 95.1172 144.872C95.4396 145.038 95.8283 145.12 96.283 145.12C96.8949 145.12 97.4282 144.996 97.883 144.748C98.346 144.492 98.7098 144.182 98.9744 143.818C99.239 143.446 99.3796 143.095 99.3961 142.764L100.364 144.091C100.264 144.43 100.095 144.794 99.855 145.182C99.6152 145.571 99.301 145.943 98.9124 146.299C98.5321 146.646 98.0732 146.931 97.5357 147.154C97.0065 147.378 96.3947 147.489 95.7001 147.489C94.8236 147.489 94.0423 147.316 93.356 146.968C92.6697 146.613 92.1323 146.137 91.7436 145.542C91.355 144.938 91.1607 144.256 91.1607 143.496C91.1607 142.784 91.293 142.156 91.5576 141.61C91.8305 141.056 92.2273 140.593 92.7483 140.221C93.2774 139.849 93.9224 139.568 94.6831 139.378C95.4438 139.179 96.312 139.08 97.2877 139.08H99.6318ZM108.326 136.376V147.241H105.337V133.821H108.19L108.326 136.376ZM112.431 133.735L112.407 136.513C112.225 136.48 112.026 136.455 111.811 136.438C111.605 136.422 111.398 136.414 111.191 136.414C110.678 136.414 110.228 136.488 109.839 136.637C109.451 136.777 109.124 136.984 108.859 137.257C108.603 137.522 108.405 137.844 108.264 138.224C108.124 138.605 108.041 139.031 108.016 139.502L107.334 139.552C107.334 138.708 107.417 137.927 107.582 137.207C107.747 136.488 107.995 135.856 108.326 135.31C108.665 134.764 109.087 134.338 109.591 134.032C110.104 133.726 110.695 133.573 111.365 133.573C111.547 133.573 111.741 133.59 111.948 133.623C112.163 133.656 112.324 133.693 112.431 133.735ZM121.076 133.821V136.004H113.51V133.821H121.076ZM115.693 130.535H118.682V143.533C118.682 143.946 118.74 144.265 118.856 144.488C118.98 144.703 119.15 144.847 119.365 144.922C119.58 144.996 119.832 145.034 120.121 145.034C120.328 145.034 120.526 145.021 120.716 144.996C120.907 144.972 121.06 144.947 121.175 144.922L121.188 147.204C120.94 147.278 120.65 147.345 120.32 147.402C119.997 147.46 119.625 147.489 119.203 147.489C118.517 147.489 117.909 147.369 117.38 147.13C116.851 146.882 116.437 146.481 116.14 145.927C115.842 145.373 115.693 144.637 115.693 143.719V130.535ZM135.19 145.108C135.678 145.108 136.116 145.013 136.505 144.823C136.902 144.624 137.22 144.351 137.46 144.004C137.708 143.657 137.845 143.256 137.869 142.801H140.685C140.668 143.669 140.412 144.459 139.916 145.17C139.42 145.881 138.762 146.447 137.944 146.869C137.125 147.283 136.22 147.489 135.228 147.489C134.202 147.489 133.309 147.316 132.549 146.968C131.788 146.613 131.155 146.125 130.651 145.505C130.147 144.885 129.766 144.169 129.51 143.359C129.262 142.549 129.138 141.681 129.138 140.755V140.32C129.138 139.394 129.262 138.526 129.51 137.716C129.766 136.897 130.147 136.178 130.651 135.558C131.155 134.938 131.788 134.454 132.549 134.107C133.309 133.751 134.198 133.573 135.215 133.573C136.29 133.573 137.233 133.788 138.043 134.218C138.853 134.64 139.49 135.231 139.953 135.992C140.424 136.744 140.668 137.621 140.685 138.621H137.869C137.845 138.125 137.721 137.679 137.497 137.282C137.282 136.877 136.976 136.554 136.58 136.314C136.191 136.075 135.724 135.955 135.178 135.955C134.574 135.955 134.074 136.079 133.677 136.327C133.28 136.567 132.97 136.897 132.747 137.319C132.524 137.732 132.363 138.2 132.263 138.721C132.172 139.233 132.127 139.766 132.127 140.32V140.755C132.127 141.309 132.172 141.846 132.263 142.367C132.354 142.888 132.511 143.355 132.735 143.768C132.966 144.174 133.28 144.5 133.677 144.748C134.074 144.988 134.579 145.108 135.19 145.108ZM142.409 140.68V140.395C142.409 139.427 142.549 138.53 142.83 137.704C143.112 136.868 143.517 136.145 144.046 135.533C144.583 134.913 145.237 134.433 146.006 134.094C146.783 133.747 147.659 133.573 148.635 133.573C149.619 133.573 150.495 133.747 151.264 134.094C152.042 134.433 152.699 134.913 153.236 135.533C153.774 136.145 154.183 136.868 154.464 137.704C154.745 138.53 154.886 139.427 154.886 140.395V140.68C154.886 141.648 154.745 142.545 154.464 143.372C154.183 144.198 153.774 144.922 153.236 145.542C152.699 146.154 152.046 146.633 151.277 146.981C150.508 147.32 149.635 147.489 148.66 147.489C147.676 147.489 146.795 147.32 146.018 146.981C145.249 146.633 144.596 146.154 144.058 145.542C143.521 144.922 143.112 144.198 142.83 143.372C142.549 142.545 142.409 141.648 142.409 140.68ZM145.398 140.395V140.68C145.398 141.284 145.46 141.854 145.584 142.392C145.708 142.929 145.902 143.4 146.167 143.806C146.431 144.211 146.77 144.529 147.184 144.761C147.597 144.992 148.089 145.108 148.66 145.108C149.214 145.108 149.693 144.992 150.098 144.761C150.512 144.529 150.851 144.211 151.116 143.806C151.38 143.4 151.574 142.929 151.698 142.392C151.831 141.854 151.897 141.284 151.897 140.68V140.395C151.897 139.8 151.831 139.237 151.698 138.708C151.574 138.171 151.376 137.695 151.103 137.282C150.839 136.868 150.5 136.546 150.086 136.314C149.681 136.075 149.197 135.955 148.635 135.955C148.073 135.955 147.585 136.075 147.171 136.314C146.766 136.546 146.431 136.868 146.167 137.282C145.902 137.695 145.708 138.171 145.584 138.708C145.46 139.237 145.398 139.8 145.398 140.395ZM160.356 136.686V147.241H157.366V133.821H160.182L160.356 136.686ZM159.822 140.035L158.855 140.023C158.863 139.072 158.995 138.2 159.252 137.406C159.516 136.612 159.88 135.93 160.343 135.359C160.814 134.789 161.377 134.351 162.03 134.045C162.683 133.731 163.411 133.573 164.213 133.573C164.858 133.573 165.441 133.664 165.962 133.846C166.491 134.02 166.941 134.305 167.313 134.702C167.694 135.099 167.983 135.616 168.182 136.252C168.38 136.881 168.479 137.654 168.479 138.572V147.241H165.478V138.559C165.478 137.914 165.383 137.406 165.193 137.034C165.011 136.653 164.742 136.385 164.386 136.228C164.039 136.062 163.605 135.98 163.084 135.98C162.572 135.98 162.113 136.087 161.707 136.302C161.302 136.517 160.959 136.811 160.678 137.183C160.405 137.555 160.194 137.985 160.045 138.472C159.897 138.96 159.822 139.481 159.822 140.035ZM177.682 133.821V136.004H170.117V133.821H177.682ZM172.299 130.535H175.288V143.533C175.288 143.946 175.346 144.265 175.462 144.488C175.586 144.703 175.756 144.847 175.971 144.922C176.186 144.996 176.438 145.034 176.727 145.034C176.934 145.034 177.132 145.021 177.322 144.996C177.513 144.972 177.666 144.947 177.781 144.922L177.794 147.204C177.546 147.278 177.256 147.345 176.926 147.402C176.603 147.46 176.231 147.489 175.809 147.489C175.123 147.489 174.515 147.369 173.986 147.13C173.457 146.882 173.044 146.481 172.746 145.927C172.448 145.373 172.299 144.637 172.299 143.719V130.535ZM182.991 136.376V147.241H180.001V133.821H182.854L182.991 136.376ZM187.096 133.735L187.071 136.513C186.889 136.48 186.691 136.455 186.476 136.438C186.269 136.422 186.062 136.414 185.856 136.414C185.343 136.414 184.892 136.488 184.504 136.637C184.115 136.777 183.788 136.984 183.524 137.257C183.268 137.522 183.069 137.844 182.929 138.224C182.788 138.605 182.705 139.031 182.68 139.502L181.998 139.552C181.998 138.708 182.081 137.927 182.246 137.207C182.412 136.488 182.66 135.856 182.991 135.31C183.33 134.764 183.751 134.338 184.256 134.032C184.768 133.726 185.359 133.573 186.029 133.573C186.211 133.573 186.405 133.59 186.612 133.623C186.827 133.656 186.988 133.693 187.096 133.735ZM196.088 144.55V138.15C196.088 137.67 196.001 137.257 195.827 136.91C195.654 136.562 195.389 136.294 195.034 136.104C194.686 135.913 194.248 135.818 193.719 135.818C193.231 135.818 192.809 135.901 192.454 136.066C192.098 136.232 191.821 136.455 191.623 136.736C191.424 137.017 191.325 137.336 191.325 137.691H188.349C188.349 137.162 188.477 136.649 188.733 136.153C188.989 135.657 189.361 135.215 189.849 134.826C190.337 134.437 190.92 134.132 191.598 133.908C192.276 133.685 193.037 133.573 193.88 133.573C194.889 133.573 195.782 133.743 196.559 134.082C197.345 134.421 197.961 134.934 198.407 135.62C198.862 136.298 199.089 137.15 199.089 138.175V144.141C199.089 144.752 199.131 145.302 199.213 145.79C199.304 146.27 199.432 146.687 199.598 147.043V147.241H196.534C196.394 146.919 196.282 146.509 196.199 146.013C196.125 145.509 196.088 145.021 196.088 144.55ZM196.522 139.08L196.547 140.928H194.401C193.847 140.928 193.359 140.982 192.938 141.089C192.516 141.189 192.164 141.338 191.883 141.536C191.602 141.734 191.391 141.974 191.251 142.255C191.11 142.536 191.04 142.855 191.04 143.21C191.04 143.566 191.123 143.892 191.288 144.19C191.453 144.48 191.693 144.707 192.007 144.872C192.33 145.038 192.718 145.12 193.173 145.12C193.785 145.12 194.318 144.996 194.773 144.748C195.236 144.492 195.6 144.182 195.865 143.818C196.129 143.446 196.27 143.095 196.286 142.764L197.254 144.091C197.154 144.43 196.985 144.794 196.745 145.182C196.505 145.571 196.191 145.943 195.803 146.299C195.422 146.646 194.963 146.931 194.426 147.154C193.897 147.378 193.285 147.489 192.59 147.489C191.714 147.489 190.932 147.316 190.246 146.968C189.56 146.613 189.022 146.137 188.634 145.542C188.245 144.938 188.051 144.256 188.051 143.496C188.051 142.784 188.183 142.156 188.448 141.61C188.721 141.056 189.117 140.593 189.638 140.221C190.168 139.849 190.813 139.568 191.573 139.378C192.334 139.179 193.202 139.08 194.178 139.08H196.522ZM207.697 145.108C208.185 145.108 208.623 145.013 209.011 144.823C209.408 144.624 209.727 144.351 209.966 144.004C210.215 143.657 210.351 143.256 210.376 142.801H213.191C213.175 143.669 212.918 144.459 212.422 145.17C211.926 145.881 211.269 146.447 210.45 146.869C209.632 147.283 208.726 147.489 207.734 147.489C206.709 147.489 205.816 147.316 205.055 146.968C204.294 146.613 203.662 146.125 203.157 145.505C202.653 144.885 202.273 144.169 202.016 143.359C201.768 142.549 201.644 141.681 201.644 140.755V140.32C201.644 139.394 201.768 138.526 202.016 137.716C202.273 136.897 202.653 136.178 203.157 135.558C203.662 134.938 204.294 134.454 205.055 134.107C205.816 133.751 206.705 133.573 207.722 133.573C208.797 133.573 209.739 133.788 210.549 134.218C211.36 134.64 211.996 135.231 212.459 135.992C212.931 136.744 213.175 137.621 213.191 138.621H210.376C210.351 138.125 210.227 137.679 210.004 137.282C209.789 136.877 209.483 136.554 209.086 136.314C208.697 136.075 208.23 135.955 207.684 135.955C207.081 135.955 206.581 136.079 206.184 136.327C205.787 136.567 205.477 136.897 205.253 137.319C205.03 137.732 204.869 138.2 204.77 138.721C204.679 139.233 204.633 139.766 204.633 140.32V140.755C204.633 141.309 204.679 141.846 204.77 142.367C204.861 142.888 205.018 143.355 205.241 143.768C205.473 144.174 205.787 144.5 206.184 144.748C206.581 144.988 207.085 145.108 207.697 145.108ZM221.637 133.821V136.004H214.072V133.821H221.637ZM216.255 130.535H219.244V143.533C219.244 143.946 219.302 144.265 219.417 144.488C219.541 144.703 219.711 144.847 219.926 144.922C220.141 144.996 220.393 145.034 220.682 145.034C220.889 145.034 221.088 145.021 221.278 144.996C221.468 144.972 221.621 144.947 221.737 144.922L221.749 147.204C221.501 147.278 221.212 147.345 220.881 147.402C220.558 147.46 220.186 147.489 219.765 147.489C219.078 147.489 218.471 147.369 217.941 147.13C217.412 146.882 216.999 146.481 216.701 145.927C216.403 145.373 216.255 144.637 216.255 143.719V130.535Z" fill="#C3F53C"/>
<rect x="313.483" y="105.327" width="273.101" height="64.9447" rx="3.74681" stroke="url(#paint2_linear_398_7638)" stroke-width="0.832624" stroke-dasharray="1.67 1.67"/>
<path d="M375.656 130.262L369.405 147.241H367.818L374.639 129.183H375.743L375.656 130.262ZM381.337 147.241L375.073 130.262L374.987 129.183H376.09L382.924 147.241H381.337ZM380.22 140.866V142.181H370.633V140.866H380.22ZM393.293 143.818C393.293 143.454 393.202 143.095 393.02 142.739C392.838 142.383 392.487 142.057 391.966 141.759C391.453 141.462 390.697 141.209 389.696 141.003C388.952 140.837 388.286 140.651 387.699 140.445C387.121 140.238 386.633 139.99 386.236 139.7C385.839 139.411 385.537 139.064 385.33 138.659C385.124 138.253 385.02 137.774 385.02 137.22C385.02 136.724 385.128 136.257 385.343 135.818C385.566 135.372 385.88 134.983 386.285 134.652C386.699 134.313 387.195 134.049 387.774 133.859C388.361 133.668 389.018 133.573 389.746 133.573C390.779 133.573 391.664 133.751 392.4 134.107C393.144 134.454 393.711 134.929 394.099 135.533C394.496 136.137 394.694 136.819 394.694 137.579H393.219C393.219 137.116 393.082 136.678 392.809 136.265C392.545 135.851 392.152 135.512 391.631 135.248C391.118 134.983 390.49 134.851 389.746 134.851C388.977 134.851 388.353 134.967 387.873 135.198C387.393 135.43 387.042 135.723 386.819 136.079C386.604 136.434 386.496 136.802 386.496 137.183C386.496 137.48 386.542 137.753 386.633 138.001C386.732 138.241 386.906 138.464 387.154 138.671C387.41 138.878 387.774 139.072 388.245 139.254C388.716 139.436 389.328 139.614 390.081 139.787C391.164 140.027 392.049 140.32 392.735 140.668C393.429 141.007 393.942 141.428 394.273 141.933C394.604 142.429 394.769 143.033 394.769 143.744C394.769 144.298 394.653 144.806 394.422 145.269C394.19 145.724 393.855 146.117 393.417 146.447C392.987 146.778 392.466 147.034 391.854 147.216C391.251 147.398 390.573 147.489 389.82 147.489C388.687 147.489 387.728 147.303 386.943 146.931C386.166 146.551 385.574 146.055 385.169 145.443C384.772 144.823 384.574 144.165 384.574 143.471H386.05C386.099 144.165 386.318 144.715 386.707 145.12C387.096 145.517 387.571 145.798 388.133 145.964C388.704 146.129 389.266 146.212 389.82 146.212C390.581 146.212 391.218 146.1 391.73 145.877C392.243 145.654 392.631 145.36 392.896 144.996C393.161 144.633 393.293 144.24 393.293 143.818ZM406.167 143.818C406.167 143.454 406.076 143.095 405.894 142.739C405.712 142.383 405.361 142.057 404.84 141.759C404.327 141.462 403.571 141.209 402.57 141.003C401.826 140.837 401.16 140.651 400.573 140.445C399.995 140.238 399.507 139.99 399.11 139.7C398.713 139.411 398.411 139.064 398.204 138.659C397.998 138.253 397.894 137.774 397.894 137.22C397.894 136.724 398.002 136.257 398.217 135.818C398.44 135.372 398.754 134.983 399.159 134.652C399.573 134.313 400.069 134.049 400.648 133.859C401.235 133.668 401.892 133.573 402.62 133.573C403.653 133.573 404.538 133.751 405.274 134.107C406.018 134.454 406.585 134.929 406.973 135.533C407.37 136.137 407.569 136.819 407.569 137.579H406.093C406.093 137.116 405.956 136.678 405.683 136.265C405.419 135.851 405.026 135.512 404.505 135.248C403.992 134.983 403.364 134.851 402.62 134.851C401.851 134.851 401.227 134.967 400.747 135.198C400.267 135.43 399.916 135.723 399.693 136.079C399.478 136.434 399.37 136.802 399.37 137.183C399.37 137.48 399.416 137.753 399.507 138.001C399.606 138.241 399.78 138.464 400.028 138.671C400.284 138.878 400.648 139.072 401.119 139.254C401.59 139.436 402.202 139.614 402.955 139.787C404.038 140.027 404.923 140.32 405.609 140.668C406.303 141.007 406.816 141.428 407.147 141.933C407.478 142.429 407.643 143.033 407.643 143.744C407.643 144.298 407.527 144.806 407.296 145.269C407.064 145.724 406.729 146.117 406.291 146.447C405.861 146.778 405.34 147.034 404.728 147.216C404.125 147.398 403.447 147.489 402.694 147.489C401.561 147.489 400.602 147.303 399.817 146.931C399.04 146.551 398.448 146.055 398.043 145.443C397.646 144.823 397.448 144.165 397.448 143.471H398.924C398.973 144.165 399.193 144.715 399.581 145.12C399.97 145.517 400.445 145.798 401.007 145.964C401.578 146.129 402.14 146.212 402.694 146.212C403.455 146.212 404.092 146.1 404.604 145.877C405.117 145.654 405.506 145.36 405.77 144.996C406.035 144.633 406.167 144.24 406.167 143.818ZM416.188 147.489C415.312 147.489 414.506 147.328 413.77 147.006C413.042 146.683 412.406 146.228 411.86 145.641C411.322 145.054 410.905 144.36 410.607 143.558C410.318 142.747 410.173 141.863 410.173 140.903V140.37C410.173 139.337 410.326 138.402 410.632 137.567C410.938 136.732 411.36 136.017 411.897 135.421C412.435 134.826 413.046 134.371 413.733 134.057C414.427 133.735 415.155 133.573 415.916 133.573C416.767 133.573 417.524 133.726 418.185 134.032C418.847 134.33 419.401 134.756 419.847 135.31C420.302 135.856 420.645 136.505 420.877 137.257C421.108 138.001 421.224 138.824 421.224 139.725V140.631H411.066V139.365H419.748V139.192C419.731 138.439 419.578 137.737 419.289 137.083C419.008 136.422 418.586 135.884 418.024 135.471C417.462 135.058 416.759 134.851 415.916 134.851C415.287 134.851 414.708 134.983 414.179 135.248C413.658 135.512 413.208 135.893 412.827 136.389C412.455 136.877 412.166 137.46 411.959 138.138C411.761 138.807 411.661 139.552 411.661 140.37V140.903C411.661 141.648 411.769 142.342 411.984 142.987C412.207 143.624 412.521 144.186 412.926 144.674C413.34 145.162 413.828 145.542 414.39 145.815C414.952 146.088 415.572 146.224 416.25 146.224C417.044 146.224 417.747 146.079 418.359 145.79C418.971 145.492 419.521 145.025 420.008 144.389L420.939 145.108C420.649 145.538 420.285 145.935 419.847 146.299C419.417 146.662 418.9 146.952 418.297 147.167C417.693 147.382 416.99 147.489 416.188 147.489ZM429.224 133.821V135.037H422.501V133.821H429.224ZM424.97 130.373H426.445V143.979C426.445 144.599 426.528 145.067 426.694 145.381C426.859 145.695 427.074 145.906 427.338 146.013C427.603 146.121 427.888 146.175 428.194 146.175C428.418 146.175 428.632 146.162 428.839 146.137C429.046 146.104 429.232 146.071 429.397 146.038L429.459 147.291C429.277 147.349 429.042 147.394 428.752 147.427C428.463 147.469 428.174 147.489 427.884 147.489C427.314 147.489 426.809 147.386 426.371 147.179C425.933 146.964 425.59 146.6 425.342 146.088C425.094 145.567 424.97 144.86 424.97 143.967V130.373ZM439.94 136.6V147.241H438.451V133.821H439.878L439.94 136.6ZM439.667 139.7L438.947 139.328C438.997 138.534 439.146 137.79 439.394 137.096C439.65 136.401 440.006 135.789 440.461 135.26C440.915 134.731 441.461 134.318 442.098 134.02C442.734 133.722 443.458 133.573 444.268 133.573C444.921 133.573 445.513 133.664 446.042 133.846C446.579 134.02 447.034 134.297 447.406 134.677C447.786 135.049 448.08 135.537 448.287 136.141C448.493 136.744 448.597 137.468 448.597 138.311V147.241H447.121V138.361C447.121 137.468 446.98 136.769 446.699 136.265C446.426 135.76 446.042 135.401 445.546 135.186C445.058 134.971 444.491 134.863 443.847 134.863C443.086 134.863 442.441 135.02 441.912 135.335C441.391 135.641 440.965 136.042 440.634 136.538C440.312 137.025 440.072 137.551 439.915 138.113C439.758 138.667 439.675 139.196 439.667 139.7ZM448.584 138.534L447.592 138.559C447.633 137.906 447.782 137.282 448.039 136.686C448.303 136.091 448.663 135.562 449.118 135.099C449.572 134.628 450.114 134.256 450.742 133.983C451.379 133.71 452.094 133.573 452.888 133.573C453.583 133.573 454.203 133.668 454.749 133.859C455.294 134.041 455.753 134.334 456.125 134.739C456.506 135.136 456.795 135.645 456.993 136.265C457.192 136.885 457.291 137.629 457.291 138.497V147.241H455.803V138.485C455.803 137.534 455.662 136.798 455.381 136.277C455.108 135.748 454.728 135.38 454.24 135.173C453.752 134.967 453.182 134.863 452.528 134.863C451.883 134.872 451.317 134.991 450.829 135.223C450.341 135.446 449.932 135.744 449.601 136.116C449.279 136.48 449.031 136.873 448.857 137.294C448.692 137.716 448.601 138.129 448.584 138.534ZM469.222 144.835V137.914C469.222 137.278 469.09 136.728 468.826 136.265C468.561 135.802 468.172 135.446 467.66 135.198C467.147 134.95 466.515 134.826 465.762 134.826C465.068 134.826 464.447 134.95 463.902 135.198C463.364 135.438 462.938 135.765 462.624 136.178C462.318 136.583 462.165 137.034 462.165 137.53L460.677 137.517C460.677 137.013 460.801 136.525 461.049 136.054C461.297 135.583 461.649 135.161 462.103 134.789C462.558 134.417 463.1 134.123 463.728 133.908C464.365 133.685 465.063 133.573 465.824 133.573C466.783 133.573 467.627 133.735 468.354 134.057C469.09 134.38 469.665 134.863 470.078 135.508C470.492 136.153 470.698 136.963 470.698 137.939V144.426C470.698 144.889 470.731 145.368 470.798 145.865C470.872 146.361 470.975 146.77 471.108 147.092V147.241H469.533C469.433 146.944 469.355 146.571 469.297 146.125C469.247 145.67 469.222 145.24 469.222 144.835ZM469.57 139.427L469.595 140.569H466.68C465.919 140.569 465.237 140.639 464.633 140.779C464.038 140.912 463.534 141.11 463.12 141.375C462.707 141.631 462.389 141.941 462.165 142.305C461.95 142.669 461.843 143.082 461.843 143.545C461.843 144.025 461.963 144.463 462.203 144.86C462.451 145.257 462.798 145.575 463.244 145.815C463.699 146.046 464.237 146.162 464.857 146.162C465.684 146.162 466.411 146.009 467.04 145.703C467.676 145.397 468.201 144.996 468.615 144.5C469.028 144.004 469.305 143.463 469.446 142.875L470.091 143.731C469.983 144.145 469.785 144.57 469.495 145.009C469.214 145.439 468.846 145.844 468.392 146.224C467.937 146.596 467.399 146.902 466.779 147.142C466.167 147.374 465.473 147.489 464.695 147.489C463.819 147.489 463.054 147.324 462.401 146.993C461.756 146.662 461.252 146.212 460.888 145.641C460.532 145.062 460.355 144.409 460.355 143.682C460.355 143.02 460.495 142.429 460.776 141.908C461.057 141.379 461.463 140.932 461.992 140.569C462.529 140.196 463.174 139.915 463.927 139.725C464.687 139.527 465.539 139.427 466.481 139.427H469.57ZM476.156 136.686V147.241H474.68V133.821H476.094L476.156 136.686ZM475.821 139.7L475.163 139.328C475.213 138.534 475.374 137.79 475.647 137.096C475.92 136.401 476.288 135.789 476.751 135.26C477.222 134.731 477.772 134.318 478.401 134.02C479.037 133.722 479.74 133.573 480.509 133.573C481.179 133.573 481.778 133.664 482.307 133.846C482.837 134.028 483.287 134.318 483.659 134.714C484.031 135.111 484.312 135.62 484.503 136.24C484.701 136.86 484.8 137.617 484.8 138.51V147.241H483.312V138.497C483.312 137.571 483.184 136.848 482.928 136.327C482.671 135.798 482.307 135.421 481.836 135.198C481.365 134.975 480.807 134.863 480.162 134.863C479.451 134.863 478.826 135.02 478.289 135.335C477.76 135.641 477.313 136.042 476.949 136.538C476.594 137.025 476.321 137.551 476.131 138.113C475.941 138.667 475.837 139.196 475.821 139.7ZM496.806 144.835V137.914C496.806 137.278 496.674 136.728 496.409 136.265C496.145 135.802 495.756 135.446 495.243 135.198C494.731 134.95 494.098 134.826 493.346 134.826C492.651 134.826 492.031 134.95 491.485 135.198C490.948 135.438 490.522 135.765 490.208 136.178C489.902 136.583 489.749 137.034 489.749 137.53L488.261 137.517C488.261 137.013 488.385 136.525 488.633 136.054C488.881 135.583 489.232 135.161 489.687 134.789C490.142 134.417 490.683 134.123 491.312 133.908C491.948 133.685 492.647 133.573 493.408 133.573C494.367 133.573 495.21 133.735 495.938 134.057C496.674 134.38 497.249 134.863 497.662 135.508C498.075 136.153 498.282 136.963 498.282 137.939V144.426C498.282 144.889 498.315 145.368 498.381 145.865C498.456 146.361 498.559 146.77 498.691 147.092V147.241H497.116C497.017 146.944 496.938 146.571 496.881 146.125C496.831 145.67 496.806 145.24 496.806 144.835ZM497.153 139.427L497.178 140.569H494.264C493.503 140.569 492.821 140.639 492.217 140.779C491.622 140.912 491.117 141.11 490.704 141.375C490.291 141.631 489.972 141.941 489.749 142.305C489.534 142.669 489.427 143.082 489.427 143.545C489.427 144.025 489.546 144.463 489.786 144.86C490.034 145.257 490.382 145.575 490.828 145.815C491.283 146.046 491.82 146.162 492.44 146.162C493.267 146.162 493.995 146.009 494.623 145.703C495.26 145.397 495.785 144.996 496.198 144.5C496.612 144.004 496.889 143.463 497.029 142.875L497.674 143.731C497.567 144.145 497.368 144.57 497.079 145.009C496.798 145.439 496.43 145.844 495.975 146.224C495.52 146.596 494.983 146.902 494.363 147.142C493.751 147.374 493.056 147.489 492.279 147.489C491.403 147.489 490.638 147.324 489.985 146.993C489.34 146.662 488.835 146.212 488.472 145.641C488.116 145.062 487.938 144.409 487.938 143.682C487.938 143.02 488.079 142.429 488.36 141.908C488.641 141.379 489.046 140.932 489.575 140.569C490.113 140.196 490.758 139.915 491.51 139.725C492.271 139.527 493.123 139.427 494.065 139.427H497.153ZM511.094 133.821H512.471V147.006C512.471 148.171 512.248 149.172 511.801 150.007C511.363 150.842 510.739 151.483 509.928 151.929C509.126 152.376 508.179 152.599 507.088 152.599C506.534 152.599 505.964 152.512 505.376 152.339C504.798 152.173 504.248 151.917 503.727 151.57C503.214 151.231 502.776 150.809 502.412 150.305L503.243 149.399C503.789 150.061 504.372 150.544 504.992 150.85C505.612 151.165 506.282 151.322 507.001 151.322C507.853 151.322 508.572 151.152 509.159 150.813C509.755 150.474 510.205 149.986 510.511 149.35C510.825 148.713 510.982 147.948 510.982 147.055V136.773L511.094 133.821ZM501.668 140.668V140.407C501.668 139.365 501.784 138.427 502.015 137.592C502.255 136.748 502.598 136.029 503.045 135.434C503.491 134.83 504.033 134.371 504.669 134.057C505.314 133.735 506.042 133.573 506.852 133.573C507.63 133.573 508.32 133.702 508.924 133.958C509.527 134.214 510.048 134.582 510.486 135.062C510.925 135.541 511.276 136.112 511.541 136.773C511.813 137.435 512.012 138.171 512.136 138.981V142.293C512.037 143.053 511.855 143.752 511.59 144.389C511.326 145.017 510.974 145.567 510.536 146.038C510.098 146.501 509.569 146.861 508.948 147.117C508.337 147.365 507.63 147.489 506.828 147.489C506.026 147.489 505.306 147.324 504.669 146.993C504.033 146.662 503.491 146.195 503.045 145.592C502.598 144.98 502.255 144.256 502.015 143.421C501.784 142.586 501.668 141.668 501.668 140.668ZM503.156 140.407V140.668C503.156 141.453 503.235 142.181 503.392 142.851C503.549 143.52 503.789 144.103 504.111 144.599C504.434 145.096 504.843 145.484 505.339 145.765C505.835 146.046 506.418 146.187 507.088 146.187C507.94 146.187 508.655 146.026 509.234 145.703C509.812 145.373 510.271 144.938 510.61 144.401C510.949 143.855 511.197 143.26 511.355 142.615V138.758C511.264 138.32 511.123 137.873 510.933 137.418C510.751 136.963 510.495 136.546 510.164 136.166C509.841 135.777 509.428 135.467 508.924 135.235C508.428 134.996 507.824 134.876 507.113 134.876C506.435 134.876 505.844 135.016 505.339 135.297C504.843 135.579 504.434 135.971 504.111 136.476C503.789 136.972 503.549 137.555 503.392 138.224C503.235 138.894 503.156 139.622 503.156 140.407ZM521.537 147.489C520.661 147.489 519.855 147.328 519.119 147.006C518.391 146.683 517.754 146.228 517.209 145.641C516.671 145.054 516.254 144.36 515.956 143.558C515.667 142.747 515.522 141.863 515.522 140.903V140.37C515.522 139.337 515.675 138.402 515.981 137.567C516.287 136.732 516.708 136.017 517.246 135.421C517.783 134.826 518.395 134.371 519.081 134.057C519.776 133.735 520.504 133.573 521.264 133.573C522.116 133.573 522.873 133.726 523.534 134.032C524.196 134.33 524.75 134.756 525.196 135.31C525.651 135.856 525.994 136.505 526.225 137.257C526.457 138.001 526.573 138.824 526.573 139.725V140.631H516.415V139.365H525.097V139.192C525.08 138.439 524.927 137.737 524.638 137.083C524.357 136.422 523.935 135.884 523.373 135.471C522.811 135.058 522.108 134.851 521.264 134.851C520.636 134.851 520.057 134.983 519.528 135.248C519.007 135.512 518.556 135.893 518.176 136.389C517.804 136.877 517.515 137.46 517.308 138.138C517.109 138.807 517.01 139.552 517.01 140.37V140.903C517.01 141.648 517.118 142.342 517.333 142.987C517.556 143.624 517.87 144.186 518.275 144.674C518.689 145.162 519.177 145.542 519.739 145.815C520.301 146.088 520.921 146.224 521.599 146.224C522.393 146.224 523.096 146.079 523.708 145.79C524.32 145.492 524.869 145.025 525.357 144.389L526.287 145.108C525.998 145.538 525.634 145.935 525.196 146.299C524.766 146.662 524.249 146.952 523.646 147.167C523.042 147.382 522.339 147.489 521.537 147.489ZM530.976 136.042V147.241H529.5V133.821H530.938L530.976 136.042ZM535.726 133.722L535.689 135.087C535.523 135.062 535.362 135.041 535.205 135.025C535.048 135.008 534.878 135 534.697 135C534.052 135 533.485 135.12 532.997 135.359C532.518 135.591 532.113 135.918 531.782 136.339C531.451 136.753 531.199 137.24 531.025 137.803C530.852 138.357 530.752 138.952 530.728 139.589L530.182 139.8C530.182 138.923 530.273 138.109 530.455 137.356C530.637 136.604 530.914 135.946 531.286 135.384C531.666 134.814 532.142 134.371 532.712 134.057C533.291 133.735 533.969 133.573 534.746 133.573C534.936 133.573 535.122 133.59 535.304 133.623C535.494 133.648 535.635 133.681 535.726 133.722Z" fill="#C3F53C"/>
<rect x="66.1935" y="210.238" width="138.216" height="64.9447" rx="3.74681" fill="#C3F53C" fill-opacity="0.1" stroke="url(#paint3_linear_398_7638)" stroke-width="0.832624"/>
<path d="M119.421 252.152H115.563L115.588 249.684H119.421C120.537 249.684 121.471 249.44 122.224 248.952C122.984 248.464 123.555 247.765 123.935 246.856C124.324 245.946 124.518 244.863 124.518 243.606V242.627C124.518 241.651 124.406 240.787 124.183 240.034C123.968 239.282 123.646 238.649 123.216 238.137C122.794 237.624 122.273 237.236 121.653 236.971C121.041 236.706 120.334 236.574 119.532 236.574H115.489V234.093H119.532C120.731 234.093 121.827 234.296 122.819 234.701C123.811 235.098 124.667 235.673 125.386 236.425C126.114 237.178 126.672 238.079 127.061 239.129C127.449 240.179 127.644 241.353 127.644 242.651V243.606C127.644 244.905 127.449 246.079 127.061 247.129C126.672 248.179 126.114 249.08 125.386 249.833C124.659 250.577 123.79 251.151 122.782 251.557C121.781 251.953 120.661 252.152 119.421 252.152ZM117.287 234.093V252.152H114.174V234.093H117.287ZM142.589 249.684V252.152H133.002V249.684H142.589ZM133.882 234.093V252.152H130.769V234.093H133.882ZM141.336 241.634V244.065H133.002V241.634H141.336ZM142.527 234.093V236.574H133.002V234.093H142.527ZM147.5 234.093L151.333 240.679L155.165 234.093H158.75L153.292 243.036L158.886 252.152H155.264L151.333 245.442L147.401 252.152H143.767L149.373 243.036L143.904 234.093H147.5Z" fill="#C3F53C"/>
<path d="M128.641 64.1121C127.947 64.1121 127.392 64.6671 127.392 65.361C127.392 66.0549 127.947 66.6099 128.641 66.6099C129.334 66.6099 129.889 66.0549 129.889 65.361C129.889 64.6671 129.334 64.1121 128.641 64.1121Z" fill="white"/>
<path d="M128.346 104.789C128.509 104.951 128.772 104.951 128.935 104.789L131.584 102.139C131.747 101.977 131.747 101.713 131.584 101.551C131.422 101.388 131.158 101.388 130.996 101.551L128.641 103.906L126.286 101.551C126.123 101.388 125.859 101.388 125.697 101.551C125.534 101.713 125.534 101.977 125.697 102.139L128.346 104.789ZM127.808 65.361C127.808 64.8971 128.177 64.5284 128.641 64.5284V63.6957C127.717 63.6957 126.975 64.4372 126.975 65.361H127.808ZM128.641 64.5284C129.104 64.5284 129.473 64.8971 129.473 65.361H130.306C130.306 64.4372 129.564 63.6957 128.641 63.6957V64.5284ZM129.473 65.361C129.473 65.8249 129.104 66.1936 128.641 66.1936V67.0262C129.564 67.0262 130.306 66.2848 130.306 65.361H129.473ZM128.641 66.1936C128.177 66.1936 127.808 65.8249 127.808 65.361H126.975C126.975 66.2848 127.717 67.0262 128.641 67.0262V66.1936ZM128.224 66.6099V104.494H129.057V66.6099H128.224Z" fill="#C3F53C"/>
<path d="M314.732 138.632C314.732 137.938 314.177 137.383 313.483 137.383C312.789 137.383 312.234 137.938 312.234 138.632C312.234 139.326 312.789 139.881 313.483 139.881C314.177 139.881 314.732 139.326 314.732 138.632Z" fill="white"/>
<path d="M274.055 138.337C273.893 138.5 273.893 138.764 274.055 138.926L276.705 141.576C276.867 141.738 277.131 141.738 277.294 141.576C277.456 141.413 277.456 141.149 277.294 140.987L274.939 138.632L277.294 136.277C277.456 136.114 277.456 135.851 277.294 135.688C277.131 135.525 276.867 135.525 276.705 135.688L274.055 138.337ZM312.65 138.632C312.65 138.517 312.673 138.409 312.713 138.311L311.943 137.995C311.862 138.192 311.818 138.407 311.818 138.632L312.65 138.632ZM313.163 137.862C313.26 137.822 313.368 137.799 313.483 137.799L313.483 136.967C313.258 136.967 313.043 137.011 312.846 137.092L313.163 137.862ZM313.483 137.799C313.598 137.799 313.706 137.822 313.804 137.862L314.12 137.092C313.923 137.011 313.708 136.967 313.483 136.967L313.483 137.799ZM314.253 138.311C314.293 138.409 314.316 138.517 314.316 138.632L315.148 138.632C315.148 138.407 315.104 138.192 315.023 137.995L314.253 138.311ZM314.316 138.632C314.316 138.747 314.293 138.855 314.253 138.952L315.023 139.269C315.104 139.072 315.148 138.857 315.148 138.632L314.316 138.632ZM313.804 139.402C313.706 139.442 313.598 139.464 313.483 139.464L313.483 140.297C313.708 140.297 313.923 140.253 314.12 140.172L313.804 139.402ZM313.483 139.464C313.368 139.464 313.26 139.442 313.163 139.402L312.846 140.172C313.043 140.253 313.258 140.297 313.483 140.297L313.483 139.464ZM312.713 138.952C312.673 138.855 312.65 138.747 312.65 138.632L311.818 138.632C311.818 138.857 311.862 139.072 311.943 139.269L312.713 138.952ZM312.234 138.215L311.373 138.215L311.373 139.048L312.234 139.048L312.234 138.215ZM309.651 138.215L307.929 138.215L307.929 139.048L309.651 139.048L309.651 138.215ZM306.207 138.215L304.485 138.215L304.485 139.048L306.207 139.048L306.207 138.215ZM302.763 138.215L301.041 138.215L301.041 139.048L302.763 139.048L302.763 138.215ZM299.319 138.215L297.597 138.215L297.597 139.048L299.319 139.048L299.319 138.215ZM295.875 138.215L294.153 138.215L294.153 139.048L295.875 139.048L295.875 138.215ZM292.431 138.215L290.709 138.215L290.709 139.048L292.431 139.048L292.431 138.215ZM288.987 138.215L287.265 138.215L287.265 139.048L288.987 139.048L288.987 138.215ZM285.543 138.215L283.821 138.215L283.821 139.048L285.543 139.048L285.543 138.215ZM282.099 138.215L280.377 138.215L280.377 139.048L282.099 139.048L282.099 138.215ZM278.655 138.215L276.933 138.215L276.933 139.048L278.655 139.048L278.655 138.215ZM275.211 138.215L274.35 138.215L274.35 139.048L275.211 139.048L275.211 138.215Z" fill="#C3F53C"/>
<path d="M145.293 106.159C145.987 106.159 146.542 105.604 146.542 104.91C146.542 104.217 145.987 103.662 145.293 103.662C144.599 103.662 144.044 104.217 144.044 104.91C144.044 105.604 144.599 106.159 145.293 106.159Z" fill="white"/>
<path d="M145.587 65.4828C145.425 65.3202 145.161 65.3202 144.998 65.4828L142.349 68.1322C142.186 68.2948 142.186 68.5583 142.349 68.7209C142.512 68.8835 142.775 68.8835 142.938 68.7209L145.293 66.3659L147.648 68.7209C147.81 68.8835 148.074 68.8835 148.237 68.7209C148.399 68.5583 148.399 68.2948 148.237 68.1322L145.587 65.4828ZM146.125 104.91C146.125 105.374 145.757 105.743 145.293 105.743L145.293 106.576C146.217 106.576 146.958 105.834 146.958 104.91L146.125 104.91ZM145.293 105.743C144.829 105.743 144.46 105.374 144.46 104.91L143.628 104.91C143.628 105.834 144.369 106.576 145.293 106.576L145.293 105.743ZM144.46 104.91C144.46 104.447 144.829 104.078 145.293 104.078L145.293 103.245C144.369 103.245 143.628 103.987 143.628 104.91L144.46 104.91ZM145.293 104.078C145.757 104.078 146.125 104.447 146.125 104.91L146.958 104.91C146.958 103.987 146.217 103.245 145.293 103.245L145.293 104.078ZM145.709 103.662L145.709 65.7772L144.877 65.7772L144.876 103.662L145.709 103.662Z" fill="#C3F53C"/>
<path d="M126.975 211.07C127.669 211.07 128.224 210.515 128.224 209.821C128.224 209.128 127.669 208.572 126.975 208.572C126.281 208.572 125.726 209.128 125.726 209.821C125.726 210.515 126.281 211.07 126.975 211.07Z" fill="white"/>
<path d="M126.975 208.572C126.281 208.572 125.726 209.128 125.726 209.821C125.726 210.515 126.281 211.07 126.975 211.07C127.669 211.07 128.224 210.515 128.224 209.821C128.224 209.128 127.669 208.572 126.975 208.572ZM126.975 208.572L126.975 170.688" stroke="#C3F53C" stroke-width="0.832624"/>
<path d="M144.46 169.023C143.766 169.023 143.211 169.578 143.211 170.272C143.211 170.965 143.766 171.521 144.46 171.521C145.154 171.521 145.709 170.965 145.709 170.272C145.709 169.578 145.154 169.023 144.46 169.023Z" fill="white"/>
<path d="M144.46 171.521C145.154 171.521 145.709 170.965 145.709 170.272C145.709 169.578 145.154 169.023 144.46 169.023C143.766 169.023 143.211 169.578 143.211 170.272C143.211 170.965 143.766 171.521 144.46 171.521ZM144.46 171.521V209.405" stroke="#C3F53C" stroke-width="0.832624"/>
<defs>
<linearGradient id="paint0_linear_398_7638" x1="136.967" y1="0" x2="136.967" y2="65.7773" gradientUnits="userSpaceOnUse">
<stop stop-color="#9AC680"/>
<stop offset="1" stop-color="#306628"/>
</linearGradient>
<linearGradient id="paint1_linear_398_7638" x1="136.967" y1="104.911" x2="136.967" y2="170.688" gradientUnits="userSpaceOnUse">
<stop stop-color="#9AC680"/>
<stop offset="1" stop-color="#306628"/>
</linearGradient>
<linearGradient id="paint2_linear_398_7638" x1="450.033" y1="104.911" x2="450.033" y2="170.688" gradientUnits="userSpaceOnUse">
<stop stop-color="#9AC680"/>
<stop offset="1" stop-color="#306628"/>
</linearGradient>
<linearGradient id="paint3_linear_398_7638" x1="135.301" y1="209.821" x2="135.301" y2="275.599" gradientUnits="userSpaceOnUse">
<stop stop-color="#9AC680"/>
<stop offset="1" stop-color="#306628"/>
</linearGradient>
</defs>
</svg>
