<svg width="32" height="32" viewBox="0 0 32 32" fill="none" xmlns="http://www.w3.org/2000/svg">
<path d="M16.3462 31.3076C24.9915 31.3076 32 24.2992 32 15.6538C32 7.00844 24.9915 0 16.3462 0C7.70083 0 0.692383 7.00844 0.692383 15.6538C0.692383 24.2992 7.70083 31.3076 16.3462 31.3076Z" fill="#0052FF"/>
<path d="M10 19.9114C11.242 20.7193 12.67 21.1543 14.285 21.1543C19.44 21.1543 22.359 16.804 22.172 12.8888C22.731 12.5159 23.166 12.0187 23.538 11.4594C23.042 11.708 22.483 11.8323 21.924 11.8944C22.483 11.5215 22.917 11.0244 23.166 10.3407C22.607 10.6515 22.048 10.9001 21.427 11.0244C20.93 10.465 20.185 10.1543 19.378 10.1543C17.577 10.1543 16.272 11.8323 16.645 13.5724C14.347 13.4481 12.298 12.3294 10.9315 10.6515C10.1863 11.8944 10.5589 13.5102 11.801 14.3803C11.366 14.3803 10.9315 14.256 10.5589 14.0074C10.5589 15.3125 11.428 16.4933 12.795 16.7419C12.422 16.8662 11.987 16.8662 11.553 16.804C11.925 17.9227 12.919 18.7306 14.161 18.7306C12.919 19.6628 11.49 20.0978 10 19.9114Z" fill="#EEEEEE"/>
</svg>
